G75*
G70*
%OFA0B0*%
%FSLAX24Y24*%
%IPPOS*%
%LPD*%
%AMOC8*
5,1,8,0,0,1.08239X$1,22.5*
%
%ADD10C,0.1280*%
%ADD11C,0.0680*%
%ADD12R,0.0395X0.0395*%
%ADD13R,0.0513X0.0474*%
%ADD14C,0.1740*%
%ADD15C,0.1700*%
%ADD16R,0.0671X0.0592*%
%ADD17C,0.1175*%
%ADD18C,0.5080*%
%ADD19R,0.1180X0.2080*%
%ADD20R,0.0474X0.0513*%
%ADD21C,0.0820*%
%ADD22OC8,0.0820*%
%ADD23OC8,0.0680*%
%ADD24R,0.0631X0.0828*%
%ADD25R,0.1143X0.1143*%
%ADD26R,0.0600X0.0600*%
%ADD27R,0.0434X0.0474*%
%ADD28R,0.0434X0.0513*%
%ADD29C,0.0630*%
D10*
X002987Y005613D03*
X011387Y031663D03*
X043687Y035063D03*
X043487Y005613D03*
D11*
X015367Y006453D02*
X014767Y006453D01*
X012807Y006453D02*
X012207Y006453D01*
X011467Y006453D02*
X010867Y006453D01*
X010867Y004673D02*
X011467Y004673D01*
X012207Y004673D02*
X012807Y004673D01*
X014767Y004673D02*
X015367Y004673D01*
X008907Y004673D02*
X008307Y004673D01*
X007567Y004673D02*
X006967Y004673D01*
X005007Y004673D02*
X004407Y004673D01*
X004407Y006453D02*
X005007Y006453D01*
X006967Y006453D02*
X007567Y006453D01*
X008307Y006453D02*
X008907Y006453D01*
X003127Y007533D02*
X003127Y008133D01*
X001347Y008133D02*
X001347Y007533D01*
X001347Y010093D02*
X001347Y010693D01*
X003127Y010693D02*
X003127Y010093D01*
D12*
X001537Y006058D03*
X001537Y005467D03*
X011795Y032748D03*
X011795Y033339D03*
X040437Y012058D03*
X040437Y011467D03*
X040437Y010058D03*
X040437Y009467D03*
D13*
X039837Y009428D03*
X039837Y010097D03*
X039837Y011428D03*
X039837Y012097D03*
X012469Y032708D03*
X012469Y033377D03*
D14*
X034237Y008426D03*
X038637Y008426D03*
D15*
X040117Y007175D03*
X038647Y005544D03*
X035717Y007175D03*
X034247Y005544D03*
D16*
X033837Y023289D03*
X033837Y024037D03*
D17*
X033837Y030563D03*
X033837Y033563D03*
X026837Y033563D03*
X026837Y030563D03*
X019837Y030563D03*
X019837Y033563D03*
X019837Y016763D03*
X019837Y013763D03*
X026837Y013763D03*
X026837Y016763D03*
X033837Y016763D03*
X033837Y013763D03*
X030887Y010413D03*
X029037Y010413D03*
X027187Y010413D03*
X028037Y005413D03*
X030037Y005413D03*
X040837Y013763D03*
X040837Y016763D03*
X040837Y030563D03*
X040837Y033563D03*
D18*
X021487Y008663D03*
D19*
X017187Y008663D03*
X025787Y008663D03*
D20*
X001537Y004563D03*
X002206Y004563D03*
D21*
X002287Y017663D03*
X002387Y018663D03*
X002287Y019663D03*
X002387Y020663D03*
X002287Y021663D03*
X002287Y023313D03*
X002387Y024313D03*
X002287Y025313D03*
X002387Y026313D03*
X002287Y027313D03*
X002387Y028313D03*
D22*
X002837Y015763D03*
X001837Y015763D03*
X001937Y014763D03*
X002937Y014763D03*
X002837Y013763D03*
X001837Y013763D03*
D23*
X016687Y020913D03*
X016687Y021913D03*
X016687Y022913D03*
X016687Y023913D03*
X016687Y024913D03*
X017687Y024913D03*
X017687Y023913D03*
X017687Y022913D03*
X017687Y021913D03*
X017687Y020913D03*
D24*
X009345Y030603D03*
X008479Y030603D03*
X006432Y030603D03*
X005566Y030603D03*
X005566Y035485D03*
X006432Y035485D03*
X008479Y035485D03*
X009345Y035485D03*
D25*
X001629Y035485D03*
X001629Y030603D03*
D26*
X004237Y027213D03*
X004237Y026213D03*
X004237Y025213D03*
X004237Y024213D03*
X004237Y023213D03*
X004237Y022213D03*
X004237Y021213D03*
X004237Y020213D03*
X004237Y019213D03*
X004237Y018213D03*
X004237Y017213D03*
X004237Y016213D03*
X004237Y015213D03*
X004237Y014213D03*
X004237Y013213D03*
X004237Y012213D03*
X004237Y011213D03*
X004237Y010213D03*
X004237Y009213D03*
X004237Y008213D03*
X015237Y008213D03*
X015237Y009213D03*
X015237Y026213D03*
X015237Y027213D03*
D27*
X015816Y005897D03*
X015816Y005228D03*
D28*
X016957Y005563D03*
D29*
X012717Y028563D03*
X011737Y028563D03*
X010757Y028563D03*
X010757Y029863D03*
X011737Y029863D03*
X012717Y029863D03*
M02*
