G75*
G70*
%OFA0B0*%
%FSLAX24Y24*%
%IPPOS*%
%LPD*%
%AMOC8*
5,1,8,0,0,1.08239X$1,22.5*
%
%ADD10R,0.0236X0.0135*%
%ADD11R,0.0315X0.0657*%
%ADD12R,0.0657X0.0315*%
%ADD13R,0.0984X0.0315*%
%ADD14R,0.1000X0.0902*%
%ADD15R,0.0201X0.0701*%
%ADD16R,0.0220X0.0500*%
%ADD17R,0.0500X0.0220*%
%ADD18R,0.0433X0.0394*%
%ADD19R,0.0394X0.0433*%
%ADD20R,0.0512X0.0787*%
%ADD21C,0.0600*%
%ADD22R,0.0098X0.0300*%
%ADD23R,0.0937X0.0650*%
%ADD24C,0.1660*%
%ADD25C,0.1620*%
%ADD26R,0.0945X0.0945*%
%ADD27R,0.0512X0.0591*%
%ADD28R,0.0709X0.1260*%
%ADD29R,0.0591X0.0512*%
%ADD30R,0.0236X0.0236*%
%ADD31R,0.0530X0.2360*%
%ADD32C,0.1095*%
%ADD33R,0.0217X0.0472*%
%ADD34C,0.0740*%
%ADD35OC8,0.0740*%
%ADD36R,0.0630X0.0710*%
%ADD37R,0.0551X0.0709*%
%ADD38R,0.0748X0.0551*%
%ADD39R,0.0591X0.0315*%
%ADD40OC8,0.0600*%
%ADD41R,0.1063X0.1063*%
%ADD42R,0.0520X0.0520*%
%ADD43C,0.0550*%
%ADD44C,0.0160*%
%ADD45C,0.0436*%
%ADD46C,0.0130*%
%ADD47C,0.0100*%
%ADD48C,0.0080*%
D10*
X008811Y026316D03*
X008811Y026513D03*
X008811Y026709D03*
X009362Y026709D03*
X009362Y026513D03*
X009362Y026316D03*
D11*
X009337Y025647D03*
X008837Y025647D03*
X008337Y025647D03*
X008337Y023678D03*
X008837Y023678D03*
X009337Y023678D03*
D12*
X008000Y024663D03*
D13*
X009486Y024663D03*
D14*
X014837Y028611D03*
D15*
X014837Y032913D03*
X015337Y032913D03*
X014337Y032913D03*
D16*
X021734Y025703D03*
X022049Y025703D03*
X022364Y025703D03*
X022679Y025703D03*
X022994Y025703D03*
X023309Y025703D03*
X023624Y025703D03*
X023939Y025703D03*
X023939Y022323D03*
X023624Y022323D03*
X023309Y022323D03*
X022994Y022323D03*
X022679Y022323D03*
X022364Y022323D03*
X022049Y022323D03*
X021734Y022323D03*
D17*
X021147Y022910D03*
X021147Y023225D03*
X021147Y023540D03*
X021147Y023855D03*
X021147Y024170D03*
X021147Y024485D03*
X021147Y024800D03*
X021147Y025115D03*
X024527Y025115D03*
X024527Y024800D03*
X024527Y024485D03*
X024527Y024170D03*
X024527Y023855D03*
X024527Y023540D03*
X024527Y023225D03*
X024527Y022910D03*
D18*
X023421Y021013D03*
X022752Y021013D03*
X027237Y020116D03*
X027237Y019447D03*
X028062Y019447D03*
X028061Y018872D03*
X028061Y018202D03*
X028062Y020117D03*
X025771Y027963D03*
X025102Y027963D03*
X023571Y028013D03*
X022902Y028013D03*
X015171Y033663D03*
X014502Y033663D03*
X009421Y027313D03*
X008752Y027313D03*
X008502Y022913D03*
X009171Y022913D03*
X002621Y022563D03*
X001952Y022563D03*
D19*
X013902Y026213D03*
X014571Y026213D03*
X022037Y026578D03*
X022037Y027247D03*
X022837Y027247D03*
X022837Y026578D03*
X028852Y015113D03*
X029521Y015113D03*
X029521Y014313D03*
X028852Y014313D03*
X032437Y011997D03*
X032437Y011328D03*
X034487Y011328D03*
X034487Y011997D03*
X014521Y009213D03*
X013852Y009213D03*
X002571Y011413D03*
X001902Y011413D03*
D20*
X023608Y026913D03*
X025065Y026913D03*
D21*
X003127Y010693D02*
X003127Y010093D01*
X001347Y010093D02*
X001347Y010693D01*
X001347Y008133D02*
X001347Y007533D01*
X003127Y007533D02*
X003127Y008133D01*
X004407Y006453D02*
X005007Y006453D01*
X006967Y006453D02*
X007567Y006453D01*
X008307Y006453D02*
X008907Y006453D01*
X008907Y004673D02*
X008307Y004673D01*
X007567Y004673D02*
X006967Y004673D01*
X005007Y004673D02*
X004407Y004673D01*
X010867Y004673D02*
X011467Y004673D01*
X012207Y004673D02*
X012807Y004673D01*
X014767Y004673D02*
X015367Y004673D01*
X015367Y006453D02*
X014767Y006453D01*
X012807Y006453D02*
X012207Y006453D01*
X011467Y006453D02*
X010867Y006453D01*
D22*
X028805Y016402D03*
X028982Y016402D03*
X029159Y016402D03*
X029337Y016402D03*
X029514Y016402D03*
X029691Y016402D03*
X029691Y017529D03*
X029514Y017529D03*
X029337Y017529D03*
X029159Y017529D03*
X028982Y017529D03*
X028805Y017529D03*
D23*
X029247Y016970D03*
D24*
X034237Y008426D03*
X038637Y008426D03*
D25*
X040117Y007175D03*
X038647Y005544D03*
X035717Y007175D03*
X034247Y005544D03*
D26*
X035770Y010513D03*
X037503Y010513D03*
X032144Y016931D03*
X030412Y016931D03*
D27*
X028121Y015513D03*
X027452Y015513D03*
X027452Y014663D03*
X028121Y014663D03*
X029713Y022813D03*
X030461Y022813D03*
D28*
X031189Y021313D03*
X028984Y021313D03*
D29*
X026787Y021537D03*
X026787Y020789D03*
X005237Y023339D03*
X005237Y024087D03*
X005237Y026389D03*
X005237Y027137D03*
D30*
X027837Y021596D03*
X027837Y020729D03*
D31*
X029387Y019213D03*
X030957Y019213D03*
D32*
X033837Y016763D03*
X033837Y013763D03*
X030887Y010413D03*
X029037Y010413D03*
X027187Y010413D03*
X026837Y013763D03*
X026837Y016763D03*
X019837Y016763D03*
X019837Y013763D03*
X028037Y005413D03*
X030037Y005413D03*
X040837Y013763D03*
X040837Y016763D03*
X040837Y030563D03*
X040837Y033563D03*
X033837Y033563D03*
X033837Y030563D03*
X026837Y030563D03*
X026837Y033563D03*
X019837Y033563D03*
X019837Y030563D03*
D33*
X033113Y012174D03*
X033861Y012174D03*
X033861Y011151D03*
X033487Y011151D03*
X033113Y011151D03*
D34*
X002287Y017663D03*
X002387Y018663D03*
X002287Y019663D03*
X002387Y020663D03*
X002287Y021663D03*
X002287Y023313D03*
X002387Y024313D03*
X002287Y025313D03*
X002387Y026313D03*
X002287Y027313D03*
X002387Y028313D03*
D35*
X002837Y015763D03*
X001837Y015763D03*
X001937Y014763D03*
X002937Y014763D03*
X002837Y013763D03*
X001837Y013763D03*
D36*
X035977Y009213D03*
X037096Y009213D03*
D37*
X035244Y026111D03*
X035244Y028355D03*
D38*
X040421Y028985D03*
X040815Y023808D03*
D39*
X039299Y025643D03*
X039142Y026076D03*
X039299Y026509D03*
X039378Y026942D03*
X039299Y027375D03*
X039378Y027808D03*
X039299Y028241D03*
X039299Y028674D03*
D40*
X017687Y024913D03*
X017687Y023913D03*
X017687Y022913D03*
X017687Y021913D03*
X017687Y020913D03*
X016687Y020913D03*
X016687Y021913D03*
X016687Y022913D03*
X016687Y023913D03*
X016687Y024913D03*
D41*
X001629Y030603D03*
X001629Y035485D03*
D42*
X004237Y027213D03*
X004237Y026213D03*
X004237Y025213D03*
X004237Y024213D03*
X004237Y023213D03*
X004237Y022213D03*
X004237Y021213D03*
X004237Y020213D03*
X004237Y019213D03*
X004237Y018213D03*
X004237Y017213D03*
X004237Y016213D03*
X004237Y015213D03*
X004237Y014213D03*
X004237Y013213D03*
X004237Y012213D03*
X004237Y011213D03*
X004237Y010213D03*
X004237Y009213D03*
X004237Y008213D03*
X015237Y008213D03*
X015237Y009213D03*
X015237Y026213D03*
X015237Y027213D03*
D43*
X012717Y028563D03*
X011737Y028563D03*
X010757Y028563D03*
X010757Y029863D03*
X011737Y029863D03*
X012717Y029863D03*
D44*
X014837Y032713D02*
X019837Y027713D01*
X020487Y027213D02*
X015237Y027213D01*
X015937Y026513D02*
X016087Y026363D01*
X021589Y026363D01*
X022037Y026013D01*
X022037Y025703D01*
X022049Y025703D01*
X022687Y025695D02*
X022687Y025213D01*
X022837Y025063D01*
X023281Y025063D01*
X023309Y025090D01*
X023087Y024863D01*
X023087Y023413D01*
X023637Y022863D01*
X023637Y022335D01*
X023624Y022323D01*
X023624Y021615D01*
X023624Y021525D01*
X023637Y021513D01*
X023937Y021513D01*
X023637Y021513D02*
X023621Y021513D01*
X023421Y021313D01*
X023421Y021013D01*
X023387Y020363D02*
X024437Y021413D01*
X024437Y021813D01*
X024987Y021913D02*
X024987Y021538D01*
X023462Y020013D01*
X022962Y019513D01*
X014037Y019513D01*
X013337Y020213D01*
X004237Y020213D01*
X003187Y019863D02*
X003187Y018813D01*
X003787Y018213D01*
X004237Y018213D01*
X004237Y017213D01*
X004237Y016213D01*
X004237Y015213D01*
X004237Y014213D01*
X004237Y013213D01*
X004237Y012213D01*
X004237Y011213D01*
X004037Y011413D01*
X002571Y011413D01*
X002562Y011413D01*
X002562Y011288D01*
X002537Y011263D01*
X002537Y009163D01*
X001347Y010393D02*
X001347Y011173D01*
X001587Y011413D01*
X001902Y011413D01*
X002002Y011828D01*
X003587Y013413D01*
X003587Y013463D01*
X003587Y015013D01*
X002987Y015613D01*
X002837Y015763D01*
X002987Y015613D01*
X002287Y017663D02*
X002237Y017663D01*
X004237Y019213D02*
X022687Y019213D01*
X023487Y019213D01*
X026637Y022363D01*
X028837Y024563D01*
X040537Y024563D01*
X041437Y025463D01*
X041437Y029213D01*
X040937Y029713D01*
X038937Y029713D01*
X038437Y029213D01*
X038437Y027663D01*
X038737Y027363D01*
X039287Y027363D01*
X039299Y027375D01*
X039357Y026963D02*
X039378Y026942D01*
X039407Y026913D01*
X039357Y026963D02*
X038087Y026963D01*
X027737Y026963D01*
X025687Y029013D01*
X019487Y029013D01*
X019387Y029113D01*
X021787Y026713D01*
X021887Y026613D01*
X022237Y026613D01*
X022187Y026613D01*
X022121Y026613D01*
X022037Y026578D01*
X022052Y026613D01*
X023309Y025703D02*
X023309Y025090D01*
X024527Y025115D02*
X025324Y025913D01*
X025487Y025913D01*
X025487Y025313D02*
X024974Y024800D01*
X024527Y024800D01*
X024527Y024485D02*
X025309Y024485D01*
X026087Y025313D01*
X026687Y025313D02*
X025644Y024170D01*
X024527Y024170D01*
X024534Y023863D02*
X024527Y023855D01*
X024534Y023863D02*
X025987Y023863D01*
X028235Y026111D01*
X035244Y026111D01*
X037887Y025563D02*
X038337Y026013D01*
X039078Y026013D01*
X039142Y026076D01*
X039299Y026509D02*
X039303Y026513D01*
X039987Y026513D01*
X040287Y026213D01*
X040287Y025563D01*
X039937Y025213D01*
X028487Y025213D01*
X026499Y023225D01*
X024527Y023225D01*
X024224Y023225D01*
X023937Y023513D01*
X023937Y024013D01*
X023487Y023563D02*
X024139Y022910D01*
X024527Y022910D01*
X026684Y022910D01*
X028687Y024913D01*
X040237Y024913D01*
X040937Y025613D01*
X040937Y027763D01*
X040487Y028213D01*
X039328Y028213D01*
X039299Y028241D01*
X037887Y025563D02*
X028337Y025563D01*
X026314Y023540D01*
X024527Y023540D01*
X024977Y022323D02*
X023939Y022323D01*
X024977Y022323D01*
X025812Y022323D01*
X026597Y022323D01*
X026637Y022363D01*
X027837Y022363D02*
X027837Y021596D01*
X027837Y022363D02*
X028287Y022813D01*
X029713Y022813D01*
X030407Y022813D02*
X031687Y022813D01*
X032087Y022413D01*
X032087Y019913D01*
X031687Y019513D01*
X031337Y019163D01*
X030957Y019213D01*
X030807Y019013D01*
X030807Y017325D01*
X030412Y016931D01*
X029764Y017579D01*
X029737Y017563D01*
X029737Y017579D01*
X028772Y017563D02*
X028337Y017563D01*
X028061Y017838D01*
X028061Y018202D01*
X028061Y018872D02*
X028062Y018872D01*
X028062Y019447D01*
X028061Y019447D01*
X027237Y019447D01*
X026987Y020713D02*
X025737Y020713D01*
X025487Y020463D01*
X025487Y012513D01*
X027187Y010413D01*
X028137Y009413D02*
X028137Y012263D01*
X029737Y013863D01*
X029521Y014313D02*
X029521Y015113D01*
X028852Y015113D02*
X028812Y015113D01*
X028812Y015088D01*
X028502Y014663D02*
X028121Y014663D01*
X028502Y014663D02*
X028852Y014313D01*
X027452Y014663D02*
X027462Y014913D01*
X028037Y015733D02*
X028121Y015718D01*
X029387Y019213D02*
X029387Y019660D01*
X030987Y021263D01*
X030987Y021313D01*
X031189Y021313D01*
X030461Y022813D02*
X030407Y022813D01*
X028984Y021313D02*
X028401Y020729D01*
X027837Y020729D01*
X027812Y020705D01*
X027820Y020713D02*
X026987Y020713D01*
X023387Y020363D02*
X022837Y019813D01*
X014437Y019813D01*
X013487Y020763D01*
X010737Y020763D01*
X008502Y022913D02*
X008337Y023078D01*
X008337Y023678D01*
X008000Y024015D01*
X007324Y023339D01*
X005237Y023339D01*
X004961Y023213D01*
X004237Y023213D01*
X004237Y022213D01*
X003937Y022213D01*
X002387Y020663D01*
X003187Y019863D01*
X001837Y022463D02*
X001937Y022563D01*
X001952Y022563D01*
X002621Y022563D02*
X002621Y022978D01*
X002287Y023313D01*
X004237Y024213D02*
X005213Y024213D01*
X005237Y024087D01*
X005061Y026213D02*
X004237Y026213D01*
X005061Y026213D02*
X005237Y026389D01*
X005237Y027137D02*
X005161Y027213D01*
X004237Y027213D01*
X007787Y027163D02*
X007787Y026363D01*
X007887Y026263D01*
X008758Y026263D01*
X008837Y025890D02*
X008837Y025647D01*
X007887Y026263D02*
X007787Y026263D01*
X008000Y024663D02*
X008000Y024015D01*
X014212Y023238D02*
X016537Y025563D01*
X017887Y025563D01*
X018187Y025263D01*
X018187Y024613D01*
X018629Y024170D01*
X021147Y024170D01*
X021147Y023855D02*
X018494Y023855D01*
X017937Y024413D01*
X017187Y024413D01*
X016687Y023913D01*
X016687Y022913D02*
X016137Y022913D01*
X015837Y022613D01*
X015837Y020563D01*
X016287Y020113D01*
X020937Y020113D01*
X022487Y021663D01*
X023012Y021663D01*
X023312Y021963D01*
X023312Y022295D01*
X023309Y022323D01*
X022994Y022323D02*
X022987Y022330D01*
X022987Y022663D01*
X022887Y022763D01*
X022887Y023013D01*
X022364Y022323D02*
X022364Y021990D01*
X022237Y021863D01*
X020737Y020363D01*
X016487Y020363D01*
X016137Y020713D01*
X016137Y022013D01*
X016537Y022413D01*
X017187Y022413D01*
X017687Y022913D01*
X018062Y023538D02*
X021144Y023538D01*
X021147Y023540D01*
X021147Y023225D02*
X018999Y023225D01*
X017687Y021913D01*
X017937Y021413D02*
X017187Y021413D01*
X016687Y021913D01*
X017937Y021413D02*
X019434Y022910D01*
X021147Y022910D01*
X021734Y022323D02*
X019597Y022323D01*
X018187Y020913D01*
X017687Y020913D01*
X018062Y023538D02*
X017687Y023913D01*
X018637Y024913D02*
X019064Y024485D01*
X021147Y024485D01*
X021147Y024800D02*
X019349Y024800D01*
X019237Y024913D01*
X022037Y023363D02*
X022037Y022335D01*
X022049Y022323D01*
X022037Y018063D02*
X022037Y013013D01*
X016837Y007813D01*
X008627Y007813D01*
X007267Y006453D01*
X004707Y006453D01*
X004237Y007113D02*
X004237Y008213D01*
X004237Y007113D02*
X003787Y006663D01*
X001787Y006663D01*
X001347Y007103D01*
X001347Y007833D01*
X001347Y010393D01*
X001947Y011357D02*
X001902Y011413D01*
X008607Y006453D02*
X011167Y006453D01*
X011177Y006453D01*
X011937Y007213D01*
X017037Y007213D01*
X022737Y012913D01*
X022737Y018063D01*
X023437Y018063D02*
X023437Y012713D01*
X017137Y006463D01*
X015077Y006463D01*
X015067Y006453D01*
X012507Y006453D01*
X014521Y009213D02*
X015237Y009213D01*
X028137Y009413D02*
X028787Y008763D01*
X032687Y008763D01*
X034287Y010363D01*
X035187Y011263D01*
X036187Y011263D01*
X036753Y011263D01*
X037503Y010513D01*
X039337Y010513D01*
X037503Y010513D01*
X037096Y009213D02*
X037096Y007094D01*
X038647Y005544D01*
X034237Y008426D02*
X034237Y009463D01*
X035637Y010863D01*
X035737Y010863D01*
X035687Y010913D01*
X035687Y010529D01*
X035770Y010513D01*
X033861Y010737D02*
X033687Y010563D01*
X033287Y010563D01*
X033113Y010737D01*
X033113Y011151D01*
X032935Y011328D01*
X032437Y011328D01*
X032396Y011363D01*
X030087Y011363D01*
X029137Y010413D01*
X029037Y010413D01*
X033861Y010737D02*
X033861Y011151D01*
X033861Y012174D02*
X034309Y012174D01*
X036298Y012174D01*
X037537Y013413D01*
X037537Y023913D01*
X034309Y012174D02*
X034487Y011997D01*
X015237Y026213D02*
X014571Y026213D01*
X019387Y029113D02*
X015587Y032913D01*
X015337Y032913D01*
X014837Y032913D02*
X014837Y032713D01*
X015171Y033663D02*
X014771Y034063D01*
X014087Y034063D01*
X008837Y034063D01*
X006087Y034063D01*
D45*
X006087Y034063D03*
X014337Y031663D03*
X019837Y027713D03*
X020487Y027213D03*
X019237Y024913D03*
X018637Y024913D03*
X015937Y026513D03*
X014637Y025413D03*
X015287Y024963D03*
X014212Y023238D03*
X010737Y020763D03*
X007787Y027163D03*
X006837Y027163D03*
X022037Y023363D03*
X022337Y024163D03*
X022887Y023013D03*
X023487Y023563D03*
X023937Y024013D03*
X025487Y025313D03*
X026087Y025313D03*
X026687Y025313D03*
X025487Y025913D03*
X023287Y026238D03*
X024437Y021813D03*
X024987Y021913D03*
X023937Y021513D03*
X022337Y020413D03*
X022037Y018063D03*
X022737Y018063D03*
X023437Y018063D03*
X028437Y016113D03*
X028837Y015763D03*
X028562Y017963D03*
X031337Y014663D03*
X036337Y014463D03*
X039337Y010513D03*
X037537Y023913D03*
X038087Y026963D03*
X040337Y027163D03*
X003587Y013463D03*
X002537Y009163D03*
D46*
X002237Y017663D02*
X001587Y018313D01*
X001587Y023563D01*
X001837Y023813D01*
X003137Y023813D01*
X003487Y024163D01*
X003487Y025263D01*
X003937Y025713D01*
X007237Y025713D01*
X007787Y026263D01*
X007587Y025063D02*
X008987Y025063D01*
X009337Y025413D01*
X010487Y025413D01*
X013087Y022813D01*
X015087Y022813D01*
X015687Y023413D01*
X017187Y023413D01*
X017687Y023913D01*
X022037Y026578D02*
X022837Y026578D01*
X022679Y026370D01*
X022679Y025703D01*
X022687Y025695D01*
X023624Y025703D02*
X023662Y025703D01*
X023662Y025913D01*
X023674Y026897D01*
X023608Y026913D01*
X023608Y027976D01*
X023571Y028013D01*
X025102Y027963D02*
X025102Y026950D01*
X025065Y026913D01*
X023939Y025787D01*
X023939Y025703D01*
X026787Y020789D02*
X026911Y020789D01*
X026987Y020713D01*
X028187Y016513D02*
X028687Y016513D01*
X028797Y016402D01*
X028176Y016502D02*
X028037Y016363D01*
X028037Y015733D01*
X027752Y015088D02*
X027637Y015088D01*
X027462Y014913D01*
X027752Y015088D02*
X028812Y015088D01*
X013487Y027963D02*
X012837Y027313D01*
X009421Y027313D01*
X009537Y027313D01*
X009687Y027163D01*
X009687Y026663D01*
X009537Y026513D01*
X009362Y026513D01*
X009337Y025941D02*
X009337Y025647D01*
X009337Y025413D01*
X007587Y025063D02*
X007237Y024713D01*
X003937Y024713D01*
X003737Y024513D01*
X003737Y022563D01*
X002837Y021663D01*
X002287Y021663D01*
X002387Y024313D02*
X002987Y024313D01*
X003237Y024563D01*
X003237Y028663D01*
X003987Y029413D01*
X012267Y029413D01*
X012717Y029863D01*
X012837Y030363D02*
X013287Y029913D01*
X013287Y029133D01*
X012717Y028563D01*
X013487Y027963D02*
X013487Y033463D01*
X014087Y034063D01*
X015171Y033663D02*
X015337Y033497D01*
X015337Y032913D01*
X012837Y030363D02*
X004037Y030363D01*
X002987Y029313D01*
X002987Y025563D01*
X002737Y025313D01*
X002287Y025313D01*
D47*
X000991Y007318D02*
X000991Y004317D01*
X004130Y004317D01*
X004113Y004329D01*
X004063Y004379D01*
X004022Y004437D01*
X003989Y004500D01*
X003968Y004567D01*
X003959Y004623D01*
X004656Y004623D01*
X004656Y004722D01*
X003959Y004722D01*
X003968Y004778D01*
X003989Y004845D01*
X004022Y004908D01*
X004063Y004966D01*
X004113Y005016D01*
X004171Y005057D01*
X004234Y005090D01*
X004301Y005111D01*
X004371Y005122D01*
X004657Y005122D01*
X004657Y004723D01*
X004756Y004723D01*
X004756Y005122D01*
X005042Y005122D01*
X005112Y005111D01*
X005179Y005090D01*
X005242Y005057D01*
X005300Y005016D01*
X005350Y004966D01*
X005391Y004908D01*
X005424Y004845D01*
X005445Y004778D01*
X005454Y004722D01*
X004757Y004722D01*
X004757Y004623D01*
X005454Y004623D01*
X005445Y004567D01*
X005424Y004500D01*
X005391Y004437D01*
X005350Y004379D01*
X005300Y004329D01*
X005283Y004317D01*
X006690Y004317D01*
X006673Y004329D01*
X006623Y004379D01*
X006582Y004437D01*
X006549Y004500D01*
X006528Y004567D01*
X006519Y004623D01*
X007216Y004623D01*
X007216Y004722D01*
X006519Y004722D01*
X006528Y004778D01*
X006549Y004845D01*
X006582Y004908D01*
X006623Y004966D01*
X006673Y005016D01*
X006731Y005057D01*
X006794Y005090D01*
X006861Y005111D01*
X006931Y005122D01*
X007217Y005122D01*
X007217Y004723D01*
X007316Y004723D01*
X007316Y005122D01*
X007602Y005122D01*
X007672Y005111D01*
X007739Y005090D01*
X007802Y005057D01*
X007860Y005016D01*
X007910Y004966D01*
X007936Y004929D01*
X007963Y004966D01*
X008013Y005016D01*
X008071Y005057D01*
X008134Y005090D01*
X008201Y005111D01*
X008271Y005122D01*
X008557Y005122D01*
X008557Y004723D01*
X008656Y004723D01*
X008656Y005122D01*
X008942Y005122D01*
X009012Y005111D01*
X009079Y005090D01*
X009142Y005057D01*
X009200Y005016D01*
X009250Y004966D01*
X009291Y004908D01*
X009324Y004845D01*
X009345Y004778D01*
X009354Y004722D01*
X008657Y004722D01*
X008657Y004623D01*
X009354Y004623D01*
X009345Y004567D01*
X009324Y004500D01*
X009291Y004437D01*
X009250Y004379D01*
X009200Y004329D01*
X009183Y004317D01*
X010590Y004317D01*
X010573Y004329D01*
X010523Y004379D01*
X010482Y004437D01*
X010449Y004500D01*
X010428Y004567D01*
X010419Y004623D01*
X011116Y004623D01*
X011116Y004722D01*
X010419Y004722D01*
X010428Y004778D01*
X010449Y004845D01*
X010482Y004908D01*
X010523Y004966D01*
X010573Y005016D01*
X010631Y005057D01*
X010694Y005090D01*
X010761Y005111D01*
X010831Y005122D01*
X011117Y005122D01*
X011117Y004723D01*
X011216Y004723D01*
X011216Y005122D01*
X011502Y005122D01*
X011572Y005111D01*
X011639Y005090D01*
X011702Y005057D01*
X011760Y005016D01*
X011810Y004966D01*
X011836Y004929D01*
X011837Y004929D02*
X011837Y006274D01*
X011836Y006274D02*
X011859Y006220D01*
X011974Y006105D01*
X012125Y006043D01*
X012888Y006043D01*
X013039Y006105D01*
X013154Y006220D01*
X013172Y006263D01*
X014401Y006263D01*
X014419Y006220D01*
X014534Y006105D01*
X014685Y006043D01*
X015448Y006043D01*
X015599Y006105D01*
X015714Y006220D01*
X015736Y006273D01*
X017136Y006273D01*
X017214Y006272D01*
X017215Y006273D01*
X017274Y006331D01*
X023515Y012523D01*
X023572Y012579D01*
X023626Y012633D01*
X023626Y012633D01*
X023626Y012634D01*
X023626Y012712D01*
X023627Y012790D01*
X023626Y012791D01*
X023626Y017789D01*
X023715Y017877D01*
X023765Y017997D01*
X023765Y018128D01*
X023715Y018248D01*
X023622Y018341D01*
X023502Y018391D01*
X023371Y018391D01*
X023251Y018341D01*
X023158Y018248D01*
X023108Y018128D01*
X023108Y017997D01*
X023158Y017877D01*
X023247Y017789D01*
X023247Y012792D01*
X017058Y006652D01*
X015727Y006652D01*
X015714Y006685D01*
X015599Y006800D01*
X015448Y006862D01*
X014685Y006862D01*
X014534Y006800D01*
X014419Y006685D01*
X014401Y006642D01*
X013172Y006642D01*
X013154Y006685D01*
X013039Y006800D01*
X012888Y006862D01*
X012125Y006862D01*
X011974Y006800D01*
X011859Y006685D01*
X011836Y006631D01*
X011837Y006631D02*
X011837Y006844D01*
X011746Y006753D02*
X012015Y007023D01*
X017115Y007023D01*
X017226Y007134D01*
X022926Y012834D01*
X022926Y012991D01*
X022926Y017789D01*
X023015Y017877D01*
X023065Y017997D01*
X023065Y018128D01*
X023015Y018248D01*
X022922Y018341D01*
X022802Y018391D01*
X022671Y018391D01*
X022551Y018341D01*
X022458Y018248D01*
X022408Y018128D01*
X022408Y017997D01*
X022458Y017877D01*
X022547Y017789D01*
X022547Y012991D01*
X016958Y007402D01*
X012015Y007402D01*
X011858Y007402D01*
X011318Y006862D01*
X010785Y006862D01*
X010634Y006800D01*
X010519Y006685D01*
X010501Y006642D01*
X009272Y006642D01*
X009254Y006685D01*
X009139Y006800D01*
X008988Y006862D01*
X008225Y006862D01*
X008074Y006800D01*
X007959Y006685D01*
X007936Y006631D01*
X007914Y006685D01*
X007841Y006758D01*
X008705Y007623D01*
X016915Y007623D01*
X017026Y007734D01*
X022226Y012934D01*
X022226Y013091D01*
X022226Y017789D01*
X022315Y017877D01*
X022365Y017997D01*
X022365Y018128D01*
X022315Y018248D01*
X022222Y018341D01*
X022102Y018391D01*
X021971Y018391D01*
X021851Y018341D01*
X021758Y018248D01*
X021708Y018128D01*
X021708Y017997D01*
X021758Y017877D01*
X021847Y017789D01*
X021847Y013091D01*
X016758Y008002D01*
X015606Y008002D01*
X015606Y008518D01*
X015542Y008582D01*
X014931Y008582D01*
X014867Y008518D01*
X014867Y008002D01*
X008705Y008002D01*
X008548Y008002D01*
X007408Y006862D01*
X006885Y006862D01*
X006734Y006800D01*
X006619Y006685D01*
X006601Y006642D01*
X005372Y006642D01*
X005354Y006685D01*
X005239Y006800D01*
X005088Y006862D01*
X004325Y006862D01*
X004206Y006813D01*
X004315Y006923D01*
X004426Y007034D01*
X004426Y007843D01*
X004542Y007843D01*
X004606Y007907D01*
X004606Y008518D01*
X004542Y008582D01*
X003931Y008582D01*
X003867Y008518D01*
X003867Y007907D01*
X003931Y007843D01*
X004047Y007843D01*
X004047Y007191D01*
X003708Y006852D01*
X001865Y006852D01*
X001546Y007171D01*
X001579Y007185D01*
X001694Y007300D01*
X001756Y007451D01*
X001756Y008214D01*
X001694Y008365D01*
X001579Y008480D01*
X001536Y008498D01*
X001536Y009727D01*
X001579Y009745D01*
X001694Y009860D01*
X001756Y010011D01*
X001756Y010774D01*
X001694Y010925D01*
X001579Y011040D01*
X001536Y011058D01*
X001536Y011094D01*
X001595Y011152D01*
X001595Y011150D01*
X001659Y011086D01*
X002144Y011086D01*
X002209Y011150D01*
X002209Y011675D01*
X002170Y011714D01*
X002174Y011731D01*
X003577Y013134D01*
X003652Y013134D01*
X003772Y013184D01*
X003865Y013277D01*
X003867Y013281D01*
X003867Y012907D01*
X003931Y012843D01*
X004047Y012843D01*
X004047Y012582D01*
X003931Y012582D01*
X003867Y012518D01*
X003867Y011907D01*
X003931Y011843D01*
X004047Y011843D01*
X004047Y011602D01*
X003958Y011602D01*
X002878Y011602D01*
X002878Y011675D01*
X002814Y011739D01*
X002329Y011739D01*
X002264Y011675D01*
X002264Y011150D01*
X002329Y011086D01*
X002347Y011086D01*
X002347Y009436D01*
X002258Y009348D01*
X002208Y009228D01*
X002208Y009097D01*
X002258Y008977D01*
X002351Y008884D01*
X002471Y008834D01*
X002602Y008834D01*
X002722Y008884D01*
X002815Y008977D01*
X002865Y009097D01*
X002865Y009228D01*
X002815Y009348D01*
X002726Y009436D01*
X002726Y009886D01*
X002742Y009857D01*
X002783Y009799D01*
X002833Y009749D01*
X002891Y009708D01*
X002954Y009675D01*
X003021Y009654D01*
X003077Y009645D01*
X003077Y010342D01*
X003176Y010342D01*
X003176Y009645D01*
X003232Y009654D01*
X003299Y009675D01*
X003362Y009708D01*
X003420Y009749D01*
X003470Y009799D01*
X003511Y009857D01*
X003544Y009920D01*
X003565Y009987D01*
X003576Y010057D01*
X003576Y010343D01*
X003177Y010343D01*
X003177Y010442D01*
X003576Y010442D01*
X003576Y010728D01*
X003565Y010798D01*
X003544Y010865D01*
X003511Y010928D01*
X003470Y010986D01*
X003420Y011036D01*
X003362Y011077D01*
X003299Y011110D01*
X003232Y011131D01*
X003176Y011140D01*
X003176Y010443D01*
X003077Y010443D01*
X003077Y011140D01*
X003021Y011131D01*
X002954Y011110D01*
X002891Y011077D01*
X002833Y011036D01*
X002783Y010986D01*
X002742Y010928D01*
X002726Y010899D01*
X002726Y011086D01*
X002814Y011086D01*
X002878Y011150D01*
X002878Y011223D01*
X003867Y011223D01*
X003867Y010907D01*
X003931Y010843D01*
X004542Y010843D01*
X004606Y010907D01*
X004606Y011518D01*
X004542Y011582D01*
X004426Y011582D01*
X004426Y011843D01*
X004542Y011843D01*
X004606Y011907D01*
X004606Y012518D01*
X004542Y012582D01*
X004426Y012582D01*
X004426Y012843D01*
X004542Y012843D01*
X004606Y012907D01*
X004606Y013518D01*
X004542Y013582D01*
X004426Y013582D01*
X004426Y013843D01*
X004542Y013843D01*
X004606Y013907D01*
X004606Y014518D01*
X004542Y014582D01*
X004426Y014582D01*
X004426Y014843D01*
X004542Y014843D01*
X004606Y014907D01*
X004606Y015518D01*
X004542Y015582D01*
X004426Y015582D01*
X004426Y015843D01*
X004542Y015843D01*
X004606Y015907D01*
X004606Y016518D01*
X004542Y016582D01*
X004426Y016582D01*
X004426Y016843D01*
X004542Y016843D01*
X004606Y016907D01*
X004606Y017518D01*
X004542Y017582D01*
X004426Y017582D01*
X004426Y017843D01*
X004542Y017843D01*
X004606Y017907D01*
X004606Y018518D01*
X004542Y018582D01*
X003931Y018582D01*
X003867Y018518D01*
X003867Y018402D01*
X003865Y018402D01*
X003376Y018891D01*
X003376Y019941D01*
X003265Y020052D01*
X002833Y020485D01*
X002866Y020567D01*
X002866Y020758D01*
X002833Y020840D01*
X003883Y021890D01*
X003931Y021843D01*
X004542Y021843D01*
X004606Y021907D01*
X004606Y022518D01*
X004542Y022582D01*
X004426Y022582D01*
X004426Y022843D01*
X004542Y022843D01*
X004606Y022907D01*
X004606Y023023D01*
X004846Y023023D01*
X004896Y022973D01*
X005577Y022973D01*
X005642Y023037D01*
X005642Y023149D01*
X007402Y023149D01*
X007514Y023260D01*
X008000Y023746D01*
X008069Y023677D01*
X008069Y023304D01*
X008133Y023240D01*
X008147Y023240D01*
X008147Y023157D01*
X008147Y022999D01*
X008175Y022970D01*
X008175Y022670D01*
X008240Y022606D01*
X008764Y022606D01*
X008815Y022657D01*
X008835Y022624D01*
X008863Y022596D01*
X008897Y022576D01*
X008935Y022566D01*
X009123Y022566D01*
X009123Y022864D01*
X009220Y022864D01*
X009220Y022961D01*
X009538Y022961D01*
X009538Y023129D01*
X009527Y023167D01*
X009509Y023200D01*
X009514Y023200D01*
X009552Y023210D01*
X009586Y023229D01*
X009614Y023257D01*
X009634Y023292D01*
X009644Y023330D01*
X009644Y023649D01*
X009366Y023649D01*
X009366Y023707D01*
X009644Y023707D01*
X009644Y024027D01*
X009634Y024065D01*
X009614Y024099D01*
X009586Y024127D01*
X009552Y024147D01*
X009514Y024157D01*
X009365Y024157D01*
X009365Y023707D01*
X009308Y023707D01*
X009308Y024157D01*
X009159Y024157D01*
X009121Y024147D01*
X009087Y024127D01*
X009059Y024099D01*
X009058Y024098D01*
X009040Y024117D01*
X008633Y024117D01*
X008587Y024070D01*
X008540Y024117D01*
X008190Y024117D01*
X008190Y024395D01*
X008374Y024395D01*
X008439Y024459D01*
X008439Y024866D01*
X008417Y024888D01*
X008906Y024888D01*
X008884Y024866D01*
X008884Y024459D01*
X008948Y024395D01*
X010024Y024395D01*
X010088Y024459D01*
X010088Y024866D01*
X010024Y024930D01*
X009101Y024930D01*
X009380Y025208D01*
X009540Y025208D01*
X009569Y025238D01*
X010414Y025238D01*
X012912Y022740D01*
X013014Y022638D01*
X015014Y022638D01*
X015159Y022638D01*
X015759Y023238D01*
X016432Y023238D01*
X016297Y023102D01*
X016215Y023102D01*
X016058Y023102D01*
X015647Y022691D01*
X015647Y022534D01*
X015647Y020641D01*
X015647Y020484D01*
X016097Y020034D01*
X016128Y020002D01*
X014515Y020002D01*
X013565Y020952D01*
X013408Y020952D01*
X011010Y020952D01*
X010922Y021041D01*
X010802Y021091D01*
X010671Y021091D01*
X010551Y021041D01*
X010458Y020948D01*
X010408Y020828D01*
X010408Y020697D01*
X010458Y020577D01*
X010551Y020484D01*
X010671Y020434D01*
X010802Y020434D01*
X010922Y020484D01*
X011010Y020573D01*
X013408Y020573D01*
X014247Y019734D01*
X014278Y019702D01*
X014115Y019702D01*
X013526Y020291D01*
X013526Y020291D01*
X013415Y020402D01*
X004606Y020402D01*
X004606Y020518D01*
X004542Y020582D01*
X003931Y020582D01*
X003867Y020518D01*
X003867Y019907D01*
X003931Y019843D01*
X004542Y019843D01*
X004606Y019907D01*
X004606Y020023D01*
X013258Y020023D01*
X013847Y019434D01*
X013878Y019402D01*
X004606Y019402D01*
X004606Y019518D01*
X004542Y019582D01*
X003931Y019582D01*
X003867Y019518D01*
X003867Y018907D01*
X003931Y018843D01*
X004542Y018843D01*
X004606Y018907D01*
X004606Y019023D01*
X022608Y019023D01*
X023408Y019023D01*
X023565Y019023D01*
X026341Y021799D01*
X026341Y021586D01*
X026736Y021586D01*
X026736Y021487D01*
X026341Y021487D01*
X026341Y021261D01*
X026351Y021223D01*
X026371Y021189D01*
X026399Y021161D01*
X026433Y021141D01*
X026381Y021090D01*
X026381Y020902D01*
X025815Y020902D01*
X025658Y020902D01*
X025297Y020541D01*
X025297Y020384D01*
X025297Y012523D01*
X025289Y012454D01*
X025297Y012445D01*
X025297Y012434D01*
X025345Y012385D01*
X026635Y010791D01*
X026629Y010785D01*
X026529Y010543D01*
X026529Y010282D01*
X026629Y010040D01*
X026814Y009855D01*
X027056Y009755D01*
X027317Y009755D01*
X027559Y009855D01*
X027744Y010040D01*
X027844Y010282D01*
X027844Y010543D01*
X027744Y010785D01*
X027559Y010970D01*
X027317Y011070D01*
X027056Y011070D01*
X026938Y011021D01*
X025676Y012580D01*
X025676Y020384D01*
X025815Y020523D01*
X026381Y020523D01*
X026381Y020487D01*
X026446Y020423D01*
X026917Y020423D01*
X026900Y020405D01*
X026880Y020371D01*
X026870Y020333D01*
X026870Y020165D01*
X027188Y020165D01*
X027188Y020463D01*
X027168Y020463D01*
X027192Y020487D01*
X027192Y020523D01*
X027652Y020523D01*
X027652Y020433D01*
X027652Y020300D01*
X027735Y020217D01*
X027735Y019874D01*
X027799Y019810D01*
X028142Y019810D01*
X028198Y019754D01*
X027799Y019754D01*
X027735Y019690D01*
X027735Y019637D01*
X027563Y019637D01*
X027563Y019690D01*
X027499Y019754D01*
X026975Y019754D01*
X026910Y019690D01*
X026910Y019205D01*
X026975Y019140D01*
X027499Y019140D01*
X027563Y019205D01*
X027563Y019257D01*
X027735Y019257D01*
X027735Y019205D01*
X027780Y019160D01*
X027734Y019114D01*
X027734Y018629D01*
X027799Y018565D01*
X028323Y018565D01*
X028387Y018629D01*
X028387Y019114D01*
X028342Y019159D01*
X028388Y019205D01*
X028388Y019564D01*
X028752Y019200D01*
X028752Y018236D01*
X028747Y018241D01*
X028627Y018291D01*
X028496Y018291D01*
X028387Y018246D01*
X028387Y018445D01*
X028323Y018509D01*
X027799Y018509D01*
X027734Y018445D01*
X027734Y017960D01*
X027799Y017896D01*
X027871Y017896D01*
X027871Y017759D01*
X028147Y017484D01*
X028258Y017373D01*
X028646Y017373D01*
X028646Y017364D01*
X028639Y017353D01*
X028629Y017315D01*
X028629Y017020D01*
X029197Y017020D01*
X029197Y016920D01*
X028629Y016920D01*
X028629Y016687D01*
X028114Y016687D01*
X028012Y016585D01*
X027964Y016537D01*
X027862Y016435D01*
X027862Y015918D01*
X027820Y015918D01*
X027815Y015913D01*
X027800Y015928D01*
X027766Y015948D01*
X027728Y015958D01*
X027502Y015958D01*
X027502Y015563D01*
X027402Y015563D01*
X027402Y015958D01*
X027176Y015958D01*
X027138Y015948D01*
X027104Y015928D01*
X027076Y015900D01*
X027056Y015866D01*
X027046Y015828D01*
X027046Y015562D01*
X027402Y015562D01*
X027402Y015463D01*
X027046Y015463D01*
X027046Y015197D01*
X027056Y015159D01*
X027076Y015125D01*
X027104Y015097D01*
X027121Y015088D01*
X027104Y015078D01*
X027076Y015050D01*
X027056Y015016D01*
X027046Y014978D01*
X027046Y014712D01*
X027402Y014712D01*
X027402Y014613D01*
X027046Y014613D01*
X027046Y014387D01*
X026967Y014420D01*
X026706Y014420D01*
X026464Y014320D01*
X026279Y014135D01*
X026179Y013893D01*
X026179Y013632D01*
X026279Y013390D01*
X026464Y013205D01*
X026706Y013105D01*
X026967Y013105D01*
X027209Y013205D01*
X027394Y013390D01*
X027494Y013632D01*
X027494Y013893D01*
X027394Y014135D01*
X027312Y014217D01*
X027402Y014217D01*
X027402Y014612D01*
X027502Y014612D01*
X027502Y014217D01*
X027728Y014217D01*
X027766Y014227D01*
X027800Y014247D01*
X027815Y014262D01*
X027820Y014257D01*
X028423Y014257D01*
X028487Y014322D01*
X028487Y014409D01*
X028545Y014351D01*
X028545Y014050D01*
X028609Y013986D01*
X028952Y013986D01*
X029236Y013703D01*
X029308Y013703D01*
X027947Y012341D01*
X027947Y012184D01*
X027947Y009334D01*
X028058Y009223D01*
X028708Y008573D01*
X028865Y008573D01*
X032765Y008573D01*
X032876Y008684D01*
X034476Y010284D01*
X035188Y010995D01*
X035188Y010683D01*
X034047Y009541D01*
X034047Y009384D01*
X034047Y009365D01*
X033704Y009223D01*
X033440Y008959D01*
X033297Y008613D01*
X033297Y008239D01*
X033440Y007894D01*
X033704Y007629D01*
X034050Y007486D01*
X034424Y007486D01*
X034769Y007629D01*
X035033Y007894D01*
X035176Y008239D01*
X035176Y008613D01*
X035033Y008959D01*
X034769Y009223D01*
X034426Y009365D01*
X034426Y009384D01*
X035188Y010145D01*
X035188Y009994D01*
X035252Y009930D01*
X036288Y009930D01*
X036353Y009994D01*
X036353Y011031D01*
X036311Y011073D01*
X036674Y011073D01*
X036920Y010826D01*
X036920Y009994D01*
X036985Y009930D01*
X038021Y009930D01*
X038085Y009994D01*
X038085Y010323D01*
X039063Y010323D01*
X039151Y010234D01*
X039271Y010184D01*
X039402Y010184D01*
X039522Y010234D01*
X039615Y010327D01*
X039665Y010447D01*
X039665Y010578D01*
X039615Y010698D01*
X039522Y010791D01*
X039402Y010841D01*
X039271Y010841D01*
X039151Y010791D01*
X039063Y010702D01*
X038085Y010702D01*
X038085Y011031D01*
X038021Y011095D01*
X037189Y011095D01*
X036831Y011452D01*
X036674Y011452D01*
X036108Y011452D01*
X035265Y011452D01*
X035108Y011452D01*
X034833Y011178D01*
X034833Y011279D01*
X034535Y011279D01*
X034535Y010961D01*
X034617Y010961D01*
X034208Y010552D01*
X032608Y008952D01*
X028865Y008952D01*
X028326Y009491D01*
X028326Y012184D01*
X029926Y013784D01*
X029926Y013826D01*
X029996Y013896D01*
X029996Y014029D01*
X029996Y015879D01*
X029903Y015972D01*
X029851Y016024D01*
X029851Y016392D01*
X029894Y016349D01*
X030930Y016349D01*
X030995Y016413D01*
X030995Y017245D01*
X030996Y017247D01*
X030996Y017923D01*
X031267Y017923D01*
X031331Y017987D01*
X031331Y018972D01*
X031390Y018964D01*
X031401Y018973D01*
X031415Y018973D01*
X031462Y019019D01*
X031515Y019060D01*
X031516Y019074D01*
X031876Y019434D01*
X032276Y019834D01*
X032276Y019991D01*
X032276Y022491D01*
X032165Y022602D01*
X031765Y023002D01*
X031608Y023002D01*
X030826Y023002D01*
X030826Y023153D01*
X030762Y023218D01*
X030159Y023218D01*
X030095Y023153D01*
X030095Y022657D01*
X030078Y022673D01*
X030078Y023153D01*
X030014Y023218D01*
X029411Y023218D01*
X029347Y023153D01*
X029347Y023002D01*
X028208Y023002D01*
X028097Y022891D01*
X027647Y022441D01*
X027647Y022284D01*
X027647Y021797D01*
X027608Y021759D01*
X027608Y021432D01*
X027673Y021367D01*
X028000Y021367D01*
X028065Y021432D01*
X028065Y021759D01*
X028026Y021797D01*
X028026Y022284D01*
X028365Y022623D01*
X029347Y022623D01*
X029347Y022472D01*
X029411Y022407D01*
X029891Y022407D01*
X030146Y022153D01*
X030279Y022153D01*
X031570Y022153D01*
X031677Y022046D01*
X031677Y020854D01*
X031653Y020830D01*
X031653Y021988D01*
X031589Y022052D01*
X030789Y022052D01*
X030725Y021988D01*
X030725Y021269D01*
X029761Y020304D01*
X029761Y020438D01*
X029697Y020502D01*
X029076Y020502D01*
X029012Y020438D01*
X029012Y019393D01*
X028388Y020016D01*
X028388Y020359D01*
X028324Y020423D01*
X027981Y020423D01*
X027972Y020433D01*
X027972Y020501D01*
X028000Y020501D01*
X028038Y020539D01*
X028322Y020539D01*
X028480Y020539D01*
X028549Y020608D01*
X028584Y020573D01*
X029384Y020573D01*
X029448Y020637D01*
X029448Y021988D01*
X029384Y022052D01*
X028584Y022052D01*
X028520Y021988D01*
X028520Y021117D01*
X028322Y020919D01*
X028038Y020919D01*
X028000Y020958D01*
X027673Y020958D01*
X027618Y020902D01*
X027192Y020902D01*
X027192Y021090D01*
X027140Y021141D01*
X027174Y021161D01*
X027202Y021189D01*
X027222Y021223D01*
X027232Y021261D01*
X027232Y021487D01*
X026837Y021487D01*
X026837Y021586D01*
X027232Y021586D01*
X027232Y021812D01*
X027222Y021850D01*
X027202Y021885D01*
X027174Y021912D01*
X027140Y021932D01*
X027102Y021942D01*
X026836Y021942D01*
X026836Y021587D01*
X026737Y021587D01*
X026737Y021942D01*
X026485Y021942D01*
X026826Y022284D01*
X028915Y024373D01*
X040458Y024373D01*
X040615Y024373D01*
X041515Y025273D01*
X041626Y025384D01*
X041626Y029134D01*
X041626Y029291D01*
X041126Y029791D01*
X041015Y029902D01*
X039015Y029902D01*
X038858Y029902D01*
X038358Y029402D01*
X038247Y029291D01*
X038247Y027741D01*
X038247Y027584D01*
X038547Y027284D01*
X038658Y027173D01*
X038894Y027173D01*
X038894Y027172D01*
X038913Y027152D01*
X038360Y027152D01*
X038272Y027241D01*
X038152Y027291D01*
X038021Y027291D01*
X037901Y027241D01*
X037813Y027152D01*
X027815Y027152D01*
X025876Y029091D01*
X025765Y029202D01*
X019565Y029202D01*
X019465Y029302D01*
X015776Y032991D01*
X015776Y032991D01*
X015665Y033102D01*
X015547Y033102D01*
X015547Y033308D01*
X015511Y033344D01*
X015511Y033425D01*
X015511Y033570D01*
X015498Y033583D01*
X015498Y033905D01*
X015433Y033969D01*
X015133Y033969D01*
X014850Y034252D01*
X014692Y034252D01*
X014008Y034252D01*
X008758Y034252D01*
X006361Y034252D01*
X006272Y034341D01*
X006152Y034391D01*
X006021Y034391D01*
X005901Y034341D01*
X005808Y034248D01*
X005758Y034128D01*
X005758Y033997D01*
X005808Y033877D01*
X005901Y033784D01*
X006021Y033734D01*
X006152Y033734D01*
X006272Y033784D01*
X006361Y033873D01*
X008758Y033873D01*
X013649Y033873D01*
X013312Y033535D01*
X013312Y033390D01*
X013312Y030135D01*
X012909Y030537D01*
X012764Y030537D01*
X003964Y030537D01*
X003862Y030435D01*
X002812Y029385D01*
X002812Y029240D01*
X002812Y028612D01*
X002783Y028651D01*
X002725Y028709D01*
X002659Y028757D01*
X002586Y028794D01*
X002508Y028820D01*
X002436Y028831D01*
X002436Y028363D01*
X002337Y028363D01*
X002337Y036004D01*
X002310Y036004D02*
X044802Y036004D01*
X044802Y004317D01*
X015643Y004317D01*
X015660Y004329D01*
X015710Y004379D01*
X015751Y004437D01*
X015784Y004500D01*
X015805Y004567D01*
X015814Y004623D01*
X015117Y004623D01*
X015117Y004722D01*
X015814Y004722D01*
X015805Y004778D01*
X015784Y004845D01*
X015751Y004908D01*
X015710Y004966D01*
X015660Y005016D01*
X015602Y005057D01*
X015539Y005090D01*
X015472Y005111D01*
X015402Y005122D01*
X015116Y005122D01*
X015116Y004723D01*
X015017Y004723D01*
X015017Y005122D01*
X014731Y005122D01*
X014661Y005111D01*
X014594Y005090D01*
X014531Y005057D01*
X014473Y005016D01*
X014423Y004966D01*
X014382Y004908D01*
X014349Y004845D01*
X014328Y004778D01*
X014319Y004722D01*
X015016Y004722D01*
X015016Y004623D01*
X014319Y004623D01*
X014328Y004567D01*
X014349Y004500D01*
X014382Y004437D01*
X014423Y004379D01*
X014473Y004329D01*
X014490Y004317D01*
X013083Y004317D01*
X013100Y004329D01*
X013150Y004379D01*
X013191Y004437D01*
X013224Y004500D01*
X013245Y004567D01*
X013254Y004623D01*
X012557Y004623D01*
X012557Y004722D01*
X013254Y004722D01*
X013245Y004778D01*
X013224Y004845D01*
X013191Y004908D01*
X013150Y004966D01*
X013100Y005016D01*
X013042Y005057D01*
X012979Y005090D01*
X012912Y005111D01*
X012842Y005122D01*
X012556Y005122D01*
X012556Y004723D01*
X012457Y004723D01*
X012457Y005122D01*
X012171Y005122D01*
X012101Y005111D01*
X012034Y005090D01*
X011971Y005057D01*
X011913Y005016D01*
X011863Y004966D01*
X011836Y004929D01*
X011837Y004722D02*
X011837Y004623D01*
X011759Y004623D02*
X011217Y004623D01*
X011217Y004722D01*
X011759Y004722D01*
X012456Y004722D01*
X012456Y004623D01*
X011759Y004623D01*
X011337Y004623D02*
X011337Y004722D01*
X011217Y004663D02*
X012456Y004663D01*
X012557Y004663D02*
X015016Y004663D01*
X015117Y004663D02*
X033864Y004663D01*
X033879Y004656D02*
X033980Y004620D01*
X034085Y004596D01*
X034193Y004584D01*
X034197Y004584D01*
X034197Y005494D01*
X034296Y005494D01*
X034296Y004584D01*
X034300Y004584D01*
X034408Y004596D01*
X034513Y004620D01*
X034614Y004656D01*
X034712Y004702D01*
X034803Y004760D01*
X034887Y004827D01*
X034963Y004903D01*
X035031Y004988D01*
X035088Y005079D01*
X035135Y005176D01*
X035170Y005278D01*
X035194Y005383D01*
X035206Y005490D01*
X035206Y005494D01*
X034297Y005494D01*
X034297Y005594D01*
X035206Y005594D01*
X035206Y005598D01*
X035194Y005705D01*
X035170Y005810D01*
X035135Y005912D01*
X035088Y006009D01*
X035031Y006100D01*
X034963Y006185D01*
X034887Y006261D01*
X034803Y006328D01*
X034712Y006386D01*
X034614Y006432D01*
X034513Y006468D01*
X034408Y006492D01*
X034300Y006504D01*
X034296Y006504D01*
X034296Y005594D01*
X034197Y005594D01*
X034197Y006504D01*
X034193Y006504D01*
X034085Y006492D01*
X033980Y006468D01*
X033879Y006432D01*
X033781Y006386D01*
X033690Y006328D01*
X033606Y006261D01*
X033530Y006185D01*
X033462Y006100D01*
X033405Y006009D01*
X033358Y005912D01*
X033323Y005810D01*
X033299Y005705D01*
X033287Y005598D01*
X033287Y005594D01*
X034196Y005594D01*
X034196Y005494D01*
X033287Y005494D01*
X033287Y005490D01*
X033299Y005383D01*
X033323Y005278D01*
X033358Y005176D01*
X033405Y005079D01*
X033462Y004988D01*
X033530Y004903D01*
X033606Y004827D01*
X033690Y004760D01*
X033781Y004702D01*
X033879Y004656D01*
X033837Y004676D02*
X033837Y004317D01*
X034197Y004663D02*
X034296Y004663D01*
X034337Y004588D02*
X034337Y004317D01*
X034629Y004663D02*
X038371Y004663D01*
X038337Y004677D02*
X038337Y004317D01*
X038464Y004624D02*
X038830Y004624D01*
X039168Y004764D01*
X039426Y005023D01*
X039566Y005361D01*
X039566Y005727D01*
X039426Y006065D01*
X039168Y006324D01*
X038830Y006464D01*
X038464Y006464D01*
X038132Y006327D01*
X037286Y007173D01*
X037286Y008748D01*
X037457Y008748D01*
X037521Y008812D01*
X037521Y009613D01*
X037457Y009677D01*
X036736Y009677D01*
X036671Y009613D01*
X036671Y008812D01*
X036736Y008748D01*
X036906Y008748D01*
X036906Y007173D01*
X036906Y007015D01*
X037864Y006058D01*
X037727Y005727D01*
X037727Y005361D01*
X037867Y005023D01*
X038125Y004764D01*
X038464Y004624D01*
X038837Y004627D02*
X038837Y004317D01*
X038922Y004663D02*
X044802Y004663D01*
X044337Y004317D02*
X044337Y034672D01*
X044333Y034663D02*
X044802Y034663D01*
X044436Y034913D02*
X044322Y034638D01*
X044111Y034427D01*
X043836Y034313D01*
X043537Y034313D01*
X043262Y034427D01*
X043051Y034638D01*
X042937Y034913D01*
X042937Y035212D01*
X043051Y035487D01*
X043262Y035698D01*
X043537Y035812D01*
X043836Y035812D01*
X044111Y035698D01*
X044322Y035487D01*
X044436Y035212D01*
X044436Y034913D01*
X044436Y035163D02*
X044802Y035163D01*
X044337Y035453D02*
X044337Y036004D01*
X044147Y035663D02*
X044802Y035663D01*
X043837Y035812D02*
X043837Y036004D01*
X043337Y036004D02*
X043337Y035729D01*
X043226Y035663D02*
X002310Y035663D01*
X002310Y035535D02*
X002310Y036004D01*
X002837Y036004D02*
X002837Y029410D01*
X002812Y029163D02*
X000991Y029163D01*
X000991Y029663D02*
X003089Y029663D01*
X003337Y029910D02*
X003337Y036004D01*
X003837Y036004D02*
X003837Y030410D01*
X003589Y030163D02*
X002310Y030163D01*
X002310Y030052D02*
X002310Y030553D01*
X001679Y030553D01*
X001679Y030653D01*
X002310Y030653D01*
X002310Y031155D01*
X002300Y031193D01*
X002280Y031227D01*
X002252Y031255D01*
X002218Y031275D01*
X002180Y031285D01*
X001679Y031285D01*
X001679Y030654D01*
X001579Y030654D01*
X001579Y031285D01*
X001077Y031285D01*
X001039Y031275D01*
X001005Y031255D01*
X000991Y031241D01*
X000991Y032406D01*
X001560Y032406D01*
X001576Y032406D01*
X001697Y032406D01*
X001697Y032406D01*
X001726Y032406D01*
X001894Y032503D01*
X001894Y032503D01*
X001894Y032503D01*
X001991Y032672D01*
X001991Y032700D01*
X001991Y033251D01*
X001991Y033264D01*
X001991Y033389D01*
X001991Y033417D01*
X001991Y033417D01*
X001894Y033585D01*
X001894Y033585D01*
X001726Y033683D01*
X001726Y033683D01*
X001697Y033683D01*
X000991Y033683D01*
X000991Y034847D01*
X001005Y034834D01*
X001039Y034814D01*
X001077Y034804D01*
X001579Y034804D01*
X001579Y035435D01*
X001679Y035435D01*
X001679Y035535D01*
X002310Y035535D01*
X002310Y035435D02*
X001679Y035435D01*
X001679Y034804D01*
X002180Y034804D01*
X002218Y034814D01*
X002252Y034834D01*
X002280Y034862D01*
X002300Y034896D01*
X002310Y034934D01*
X002310Y035435D01*
X002310Y035163D02*
X042937Y035163D01*
X043040Y034663D02*
X000991Y034663D01*
X001337Y034804D02*
X001337Y033683D01*
X001697Y033683D02*
X001697Y033683D01*
X001760Y033663D02*
X013439Y033663D01*
X013337Y033560D02*
X013337Y033873D01*
X013337Y034252D02*
X013337Y036004D01*
X013837Y036004D02*
X013837Y034252D01*
X014135Y033864D02*
X014135Y033711D01*
X014453Y033711D01*
X014453Y033614D01*
X014135Y033614D01*
X014135Y033446D01*
X014146Y033408D01*
X014156Y033390D01*
X014144Y033383D01*
X014116Y033355D01*
X014096Y033321D01*
X014086Y033283D01*
X014086Y032913D01*
X014336Y032913D01*
X014336Y032912D01*
X014086Y032912D01*
X014086Y032542D01*
X014096Y032504D01*
X014116Y032470D01*
X014144Y032442D01*
X014178Y032422D01*
X014216Y032412D01*
X014336Y032412D01*
X014336Y032912D01*
X014337Y032912D01*
X014337Y032913D01*
X014587Y032913D01*
X014587Y033283D01*
X014578Y033316D01*
X014633Y033316D01*
X014626Y033308D01*
X014626Y032517D01*
X014691Y032452D01*
X014828Y032452D01*
X019508Y027772D01*
X019508Y027647D01*
X019558Y027527D01*
X019651Y027434D01*
X019728Y027402D01*
X015606Y027402D01*
X015606Y027518D01*
X015542Y027582D01*
X014931Y027582D01*
X014867Y027518D01*
X014867Y026907D01*
X014931Y026843D01*
X015542Y026843D01*
X015606Y026907D01*
X015606Y027023D01*
X020213Y027023D01*
X020301Y026934D01*
X020421Y026884D01*
X020552Y026884D01*
X020672Y026934D01*
X020765Y027027D01*
X020815Y027147D01*
X020815Y027278D01*
X020765Y027398D01*
X020672Y027491D01*
X020552Y027541D01*
X020421Y027541D01*
X020301Y027491D01*
X020213Y027402D01*
X019945Y027402D01*
X020022Y027434D01*
X020115Y027527D01*
X020165Y027647D01*
X020165Y027778D01*
X020115Y027898D01*
X020022Y027991D01*
X019902Y028041D01*
X019777Y028041D01*
X015366Y032452D01*
X015482Y032452D01*
X015547Y032517D01*
X015547Y032683D01*
X019197Y029034D01*
X021597Y026634D01*
X021697Y026534D01*
X021730Y026501D01*
X021730Y026494D01*
X021715Y026505D01*
X021668Y026552D01*
X021655Y026552D01*
X021644Y026561D01*
X021578Y026552D01*
X016265Y026552D01*
X016265Y026578D01*
X016215Y026698D01*
X016122Y026791D01*
X016002Y026841D01*
X015871Y026841D01*
X015751Y026791D01*
X015658Y026698D01*
X015608Y026578D01*
X015608Y026447D01*
X015658Y026327D01*
X015751Y026234D01*
X015871Y026184D01*
X015882Y026184D01*
X015877Y026179D01*
X015606Y025909D01*
X015606Y026518D01*
X015542Y026582D01*
X014931Y026582D01*
X014867Y026518D01*
X014867Y026486D01*
X014814Y026539D01*
X014329Y026539D01*
X014264Y026475D01*
X014264Y025950D01*
X014329Y025886D01*
X014814Y025886D01*
X014867Y025939D01*
X014867Y025907D01*
X014931Y025843D01*
X015540Y025843D01*
X015270Y025572D01*
X014925Y025572D01*
X014915Y025598D01*
X014822Y025691D01*
X014702Y025741D01*
X014571Y025741D01*
X014451Y025691D01*
X014358Y025598D01*
X014308Y025478D01*
X014308Y025347D01*
X014358Y025227D01*
X014451Y025134D01*
X014571Y025084D01*
X014702Y025084D01*
X014822Y025134D01*
X014915Y025227D01*
X014925Y025253D01*
X015129Y025253D01*
X015101Y025241D01*
X015008Y025148D01*
X014958Y025028D01*
X014958Y024897D01*
X015008Y024777D01*
X015101Y024684D01*
X015221Y024634D01*
X015340Y024634D01*
X014271Y023566D01*
X014146Y023566D01*
X014026Y023516D01*
X013933Y023423D01*
X013883Y023303D01*
X013883Y023172D01*
X013933Y023052D01*
X013998Y022987D01*
X013159Y022987D01*
X010559Y025587D01*
X010414Y025587D01*
X009604Y025587D01*
X009604Y026021D01*
X009540Y026085D01*
X009507Y026085D01*
X009510Y026138D01*
X009526Y026138D01*
X009590Y026203D01*
X009590Y026338D01*
X009609Y026338D01*
X009759Y026488D01*
X009861Y026590D01*
X009861Y027090D01*
X009861Y027138D01*
X012764Y027138D01*
X012909Y027138D01*
X013559Y027788D01*
X013661Y027890D01*
X013661Y033390D01*
X014135Y033864D01*
X014337Y033711D02*
X014337Y033614D01*
X014453Y033663D02*
X013934Y033663D01*
X013837Y033565D02*
X013837Y026579D01*
X013853Y026579D02*
X013685Y026579D01*
X013647Y026569D01*
X013613Y026549D01*
X013585Y026521D01*
X013565Y026487D01*
X013555Y026449D01*
X013555Y026261D01*
X013853Y026261D01*
X013853Y026164D01*
X013555Y026164D01*
X013555Y025976D01*
X013565Y025938D01*
X013585Y025904D01*
X013613Y025876D01*
X013647Y025856D01*
X013685Y025846D01*
X013853Y025846D01*
X013853Y026164D01*
X013950Y026164D01*
X013950Y025846D01*
X014118Y025846D01*
X014157Y025856D01*
X014191Y025876D01*
X014219Y025904D01*
X014238Y025938D01*
X014249Y025976D01*
X014249Y026164D01*
X013951Y026164D01*
X013951Y026261D01*
X014249Y026261D01*
X014249Y026449D01*
X014238Y026487D01*
X014219Y026521D01*
X014191Y026549D01*
X014157Y026569D01*
X014118Y026579D01*
X013950Y026579D01*
X013950Y026261D01*
X013853Y026261D01*
X013853Y026579D01*
X013837Y026261D02*
X013837Y026164D01*
X013853Y026163D02*
X013950Y026163D01*
X014249Y026163D02*
X014264Y026163D01*
X014337Y025886D02*
X014337Y025546D01*
X014423Y025663D02*
X009604Y025663D01*
X009837Y025587D02*
X009837Y026565D01*
X009861Y026663D02*
X015644Y026663D01*
X015837Y026826D02*
X015837Y027023D01*
X015837Y027402D02*
X015837Y031444D01*
X015618Y031663D02*
X013661Y031663D01*
X013312Y031663D02*
X012136Y031663D01*
X012136Y031812D02*
X012022Y032087D01*
X011811Y032298D01*
X011536Y032412D01*
X011237Y032412D01*
X010962Y032298D01*
X010751Y032087D01*
X010637Y031812D01*
X010637Y031513D01*
X010751Y031238D01*
X010962Y031027D01*
X011237Y030913D01*
X011536Y030913D01*
X011811Y031027D01*
X012022Y031238D01*
X012136Y031513D01*
X012136Y031812D01*
X011947Y032163D02*
X013312Y032163D01*
X013661Y032163D02*
X015118Y032163D01*
X015337Y031944D02*
X015337Y029172D01*
X015382Y029172D02*
X014291Y029172D01*
X014227Y029108D01*
X014227Y028115D01*
X014291Y028051D01*
X015382Y028051D01*
X015446Y028115D01*
X015446Y029108D01*
X015382Y029172D01*
X015392Y029163D02*
X018118Y029163D01*
X018337Y028944D02*
X018337Y027402D01*
X018337Y027023D02*
X018337Y026552D01*
X018837Y026552D02*
X018837Y027023D01*
X018837Y027402D02*
X018837Y028444D01*
X018618Y028663D02*
X015446Y028663D01*
X015446Y028163D02*
X019118Y028163D01*
X019337Y027944D02*
X019337Y027402D01*
X019508Y027663D02*
X013434Y027663D01*
X013337Y027565D02*
X013337Y022987D01*
X013337Y022638D02*
X013337Y020952D01*
X013337Y020573D02*
X013337Y020402D01*
X013655Y020163D02*
X013818Y020163D01*
X013837Y020144D02*
X013837Y019981D01*
X013618Y019663D02*
X003376Y019663D01*
X003337Y019981D02*
X003337Y021344D01*
X003155Y021163D02*
X003827Y021163D01*
X003827Y021182D02*
X003827Y020933D01*
X003837Y020895D01*
X003856Y020860D01*
X003884Y020832D01*
X003919Y020813D01*
X003957Y020803D01*
X004206Y020803D01*
X004206Y021182D01*
X004267Y021182D01*
X004267Y021243D01*
X004206Y021243D01*
X004206Y021622D01*
X003957Y021622D01*
X003919Y021612D01*
X003884Y021593D01*
X003856Y021565D01*
X003837Y021530D01*
X003827Y021492D01*
X003827Y021243D01*
X004206Y021243D01*
X004206Y021182D01*
X003827Y021182D01*
X003837Y021182D02*
X003837Y021243D01*
X003837Y021530D02*
X003837Y021844D01*
X003655Y021663D02*
X015647Y021663D01*
X015647Y021163D02*
X004646Y021163D01*
X004646Y021182D02*
X004267Y021182D01*
X004267Y020803D01*
X004516Y020803D01*
X004554Y020813D01*
X004589Y020832D01*
X004617Y020860D01*
X004636Y020895D01*
X004646Y020933D01*
X004646Y021182D01*
X004646Y021243D02*
X004646Y021492D01*
X004636Y021530D01*
X004617Y021565D01*
X004589Y021593D01*
X004554Y021612D01*
X004516Y021622D01*
X004267Y021622D01*
X004267Y021243D01*
X004646Y021243D01*
X004337Y021243D02*
X004337Y021182D01*
X004267Y021163D02*
X004206Y021163D01*
X004337Y020803D02*
X004337Y020582D01*
X004837Y020402D02*
X004837Y023023D01*
X005337Y022973D02*
X005337Y020402D01*
X005337Y020023D02*
X005337Y019402D01*
X005337Y019023D02*
X005337Y006702D01*
X005363Y006663D02*
X006610Y006663D01*
X006337Y006642D02*
X006337Y019023D01*
X006337Y019402D02*
X006337Y020023D01*
X006337Y020402D02*
X006337Y023149D01*
X006837Y023149D02*
X006837Y020402D01*
X006837Y020023D02*
X006837Y019402D01*
X006837Y019023D02*
X006837Y006842D01*
X007337Y006862D02*
X007337Y019023D01*
X007337Y019402D02*
X007337Y020023D01*
X007337Y020402D02*
X007337Y023149D01*
X007416Y023163D02*
X008147Y023163D01*
X008183Y022663D02*
X004426Y022663D01*
X004606Y022163D02*
X015647Y022163D01*
X015647Y022663D02*
X015184Y022663D01*
X015337Y022815D02*
X015337Y020002D01*
X014837Y020002D02*
X014837Y022638D01*
X014837Y022987D02*
X014837Y023594D01*
X014905Y023663D02*
X016357Y023663D01*
X016337Y023683D02*
X016337Y023587D01*
X016432Y023587D02*
X015614Y023587D01*
X015512Y023485D01*
X015014Y022987D01*
X014425Y022987D01*
X014490Y023052D01*
X014540Y023172D01*
X014540Y023297D01*
X016277Y025034D01*
X016277Y024743D01*
X016517Y024503D01*
X016856Y024503D01*
X017096Y024743D01*
X017096Y025082D01*
X016856Y025322D01*
X016565Y025322D01*
X016615Y025373D01*
X017808Y025373D01*
X017818Y025362D01*
X017736Y025362D01*
X017736Y024963D01*
X017637Y024963D01*
X017637Y025362D01*
X017500Y025362D01*
X017237Y025099D01*
X017237Y024962D01*
X017636Y024962D01*
X017636Y024863D01*
X017237Y024863D01*
X017237Y024726D01*
X017360Y024602D01*
X017265Y024602D01*
X017108Y024602D01*
X016828Y024322D01*
X016517Y024322D01*
X016277Y024082D01*
X016277Y023743D01*
X016432Y023587D01*
X016337Y023238D02*
X016337Y023142D01*
X016357Y023163D02*
X015684Y023163D01*
X015837Y023238D02*
X015837Y022881D01*
X015837Y023587D02*
X015837Y024594D01*
X015905Y024663D02*
X016357Y024663D01*
X016337Y024683D02*
X016337Y024142D01*
X016357Y024163D02*
X015405Y024163D01*
X015337Y024094D02*
X015337Y023310D01*
X015189Y023163D02*
X014536Y023163D01*
X014337Y022638D02*
X014337Y020181D01*
X014355Y020163D02*
X015968Y020163D01*
X015837Y020294D02*
X015837Y020002D01*
X015647Y020663D02*
X013855Y020663D01*
X013837Y020681D02*
X013837Y022638D01*
X013837Y022987D02*
X013837Y025846D01*
X013555Y026163D02*
X009550Y026163D01*
X009362Y026316D02*
X009337Y025941D01*
X009186Y026085D02*
X009133Y026085D01*
X009087Y026039D01*
X009040Y026085D01*
X008985Y026085D01*
X008981Y026145D01*
X009039Y026203D01*
X009039Y026343D01*
X009049Y026353D01*
X009069Y026387D01*
X009079Y026425D01*
X009079Y026512D01*
X008811Y026512D01*
X008811Y026513D01*
X009079Y026513D01*
X009079Y026600D01*
X009069Y026638D01*
X009049Y026672D01*
X009039Y026682D01*
X009039Y026822D01*
X008975Y026887D01*
X008647Y026887D01*
X008583Y026822D01*
X008583Y026682D01*
X008573Y026672D01*
X008553Y026638D01*
X008543Y026600D01*
X008543Y026513D01*
X008811Y026513D01*
X008811Y026512D01*
X008543Y026512D01*
X008543Y026452D01*
X007976Y026452D01*
X007976Y026889D01*
X008065Y026977D01*
X008115Y027097D01*
X008115Y027228D01*
X008065Y027348D01*
X007972Y027441D01*
X007852Y027491D01*
X007721Y027491D01*
X007601Y027441D01*
X007508Y027348D01*
X007458Y027228D01*
X007458Y027097D01*
X007508Y026977D01*
X007597Y026889D01*
X007597Y026441D01*
X007597Y026320D01*
X007164Y025887D01*
X004587Y025887D01*
X004606Y025907D01*
X004606Y026023D01*
X004982Y026023D01*
X005139Y026023D01*
X005577Y026023D01*
X005642Y026087D01*
X005642Y026690D01*
X005577Y026754D01*
X004896Y026754D01*
X004831Y026690D01*
X004831Y026402D01*
X004606Y026402D01*
X004606Y026518D01*
X004542Y026582D01*
X003931Y026582D01*
X003867Y026518D01*
X003867Y025907D01*
X003886Y025887D01*
X003864Y025887D01*
X003762Y025785D01*
X003411Y025435D01*
X003411Y028590D01*
X004059Y029238D01*
X012194Y029238D01*
X012339Y029238D01*
X012597Y029495D01*
X012640Y029478D01*
X012793Y029478D01*
X012935Y029536D01*
X013043Y029644D01*
X013101Y029786D01*
X013101Y029850D01*
X013112Y029840D01*
X013112Y029205D01*
X012836Y028930D01*
X012793Y028947D01*
X012640Y028947D01*
X012498Y028889D01*
X012390Y028781D01*
X012332Y028639D01*
X012332Y028486D01*
X012390Y028344D01*
X012498Y028236D01*
X012640Y028178D01*
X012793Y028178D01*
X012935Y028236D01*
X013043Y028344D01*
X013101Y028486D01*
X013101Y028639D01*
X013084Y028682D01*
X013312Y028910D01*
X013312Y028035D01*
X012764Y027487D01*
X009748Y027487D01*
X009748Y027555D01*
X009683Y027619D01*
X009159Y027619D01*
X009108Y027568D01*
X009088Y027601D01*
X009061Y027629D01*
X009026Y027649D01*
X008988Y027659D01*
X008800Y027659D01*
X008800Y027361D01*
X008703Y027361D01*
X008703Y027264D01*
X008385Y027264D01*
X008385Y027096D01*
X008396Y027058D01*
X008415Y027024D01*
X008443Y026996D01*
X008477Y026976D01*
X008516Y026966D01*
X008703Y026966D01*
X008703Y027264D01*
X008800Y027264D01*
X008800Y026966D01*
X008988Y026966D01*
X009026Y026976D01*
X009061Y026996D01*
X009088Y027024D01*
X009108Y027057D01*
X009159Y027006D01*
X009512Y027006D01*
X009512Y026924D01*
X009500Y026927D01*
X009362Y026927D01*
X009224Y026927D01*
X009186Y026917D01*
X009152Y026897D01*
X009124Y026869D01*
X009104Y026835D01*
X009094Y026797D01*
X009094Y026710D01*
X009362Y026710D01*
X009362Y026927D01*
X009362Y026710D01*
X009362Y026710D01*
X009362Y026709D01*
X009094Y026709D01*
X009094Y026622D01*
X009104Y026584D01*
X009124Y026550D01*
X009134Y026540D01*
X009134Y026429D01*
X009134Y026203D01*
X009190Y026146D01*
X009186Y026085D01*
X009174Y026163D02*
X008999Y026163D01*
X008811Y026316D02*
X008758Y026263D01*
X008811Y026316D02*
X008837Y025890D01*
X009337Y025647D02*
X009352Y025663D01*
X009337Y025165D02*
X009337Y024930D01*
X009334Y025163D02*
X010489Y025163D01*
X010337Y025238D02*
X010337Y020402D01*
X010423Y020663D02*
X002866Y020663D01*
X002837Y020830D02*
X002837Y020844D01*
X002837Y020495D02*
X002837Y020481D01*
X002564Y020216D02*
X002997Y019784D01*
X002997Y018891D01*
X002997Y018734D01*
X003597Y018134D01*
X003708Y018023D01*
X003867Y018023D01*
X003867Y017907D01*
X003931Y017843D01*
X004047Y017843D01*
X004047Y017582D01*
X003931Y017582D01*
X003867Y017518D01*
X003867Y016907D01*
X003931Y016843D01*
X004047Y016843D01*
X004047Y016582D01*
X003931Y016582D01*
X003867Y016518D01*
X003867Y015907D01*
X003931Y015843D01*
X004047Y015843D01*
X004047Y015582D01*
X003931Y015582D01*
X003867Y015518D01*
X003867Y014907D01*
X003931Y014843D01*
X004047Y014843D01*
X004047Y014582D01*
X003931Y014582D01*
X003867Y014518D01*
X003867Y013907D01*
X003931Y013843D01*
X004047Y013843D01*
X004047Y013582D01*
X003931Y013582D01*
X003903Y013555D01*
X003865Y013648D01*
X003776Y013736D01*
X003776Y015091D01*
X003665Y015202D01*
X003310Y015557D01*
X003316Y015564D01*
X003316Y015961D01*
X003035Y016242D01*
X002996Y016242D01*
X002996Y018029D01*
X002903Y018122D01*
X002742Y018283D01*
X002783Y018324D01*
X002831Y018390D01*
X002868Y018463D01*
X002894Y018541D01*
X002905Y018613D01*
X002437Y018613D01*
X002437Y018712D01*
X002905Y018712D01*
X002894Y018784D01*
X002868Y018862D01*
X002831Y018935D01*
X002783Y019001D01*
X002725Y019059D01*
X002659Y019107D01*
X002586Y019144D01*
X002508Y019170D01*
X002436Y019181D01*
X002436Y018713D01*
X002337Y018713D01*
X002337Y019183D01*
X002337Y019181D02*
X002265Y019170D01*
X002187Y019144D01*
X002114Y019107D01*
X002048Y019059D01*
X001990Y019001D01*
X001946Y018941D01*
X001946Y019324D01*
X002015Y019256D01*
X002191Y019183D01*
X002382Y019183D01*
X002558Y019256D01*
X002693Y019391D01*
X002766Y019567D01*
X002766Y019758D01*
X002693Y019934D01*
X002558Y020069D01*
X002382Y020142D01*
X002191Y020142D01*
X002015Y020069D01*
X001946Y020001D01*
X001946Y020471D01*
X001980Y020391D01*
X002115Y020256D01*
X002291Y020183D01*
X002482Y020183D01*
X002564Y020216D01*
X002618Y020163D02*
X001946Y020163D01*
X002337Y020142D02*
X002337Y020183D01*
X002837Y019944D02*
X002837Y018925D01*
X002837Y018712D02*
X002837Y018613D01*
X002837Y018400D02*
X002837Y018189D01*
X002863Y018163D02*
X003568Y018163D01*
X003837Y018023D02*
X003837Y013676D01*
X003850Y013663D02*
X004047Y013663D01*
X004426Y013663D02*
X019179Y013663D01*
X019179Y013632D02*
X019279Y013390D01*
X019464Y013205D01*
X019706Y013105D01*
X019967Y013105D01*
X020209Y013205D01*
X020394Y013390D01*
X020494Y013632D01*
X020494Y013893D01*
X020394Y014135D01*
X020209Y014320D01*
X019967Y014420D01*
X019706Y014420D01*
X019464Y014320D01*
X019279Y014135D01*
X019179Y013893D01*
X019179Y013632D01*
X019337Y013333D02*
X019337Y010581D01*
X019418Y010663D02*
X003576Y010663D01*
X003867Y010518D02*
X003867Y009907D01*
X003931Y009843D01*
X004542Y009843D01*
X004606Y009907D01*
X004606Y010518D01*
X004542Y010582D01*
X003931Y010582D01*
X003867Y010518D01*
X003867Y010163D02*
X003576Y010163D01*
X003337Y010343D02*
X003337Y010442D01*
X003176Y010663D02*
X003077Y010663D01*
X002837Y011038D02*
X002837Y011109D01*
X002878Y011163D02*
X003867Y011163D01*
X003837Y011223D02*
X003837Y006981D01*
X004018Y007163D02*
X003383Y007163D01*
X003362Y007148D02*
X003420Y007189D01*
X003470Y007239D01*
X003511Y007297D01*
X003544Y007360D01*
X003565Y007427D01*
X003576Y007497D01*
X003576Y007783D01*
X003177Y007783D01*
X003177Y007882D01*
X003576Y007882D01*
X003576Y008168D01*
X003565Y008238D01*
X003544Y008305D01*
X003511Y008368D01*
X003470Y008426D01*
X003420Y008476D01*
X003362Y008517D01*
X003299Y008550D01*
X003232Y008571D01*
X003176Y008580D01*
X003176Y007883D01*
X003077Y007883D01*
X003077Y008580D01*
X003021Y008571D01*
X002954Y008550D01*
X002891Y008517D01*
X002833Y008476D01*
X002783Y008426D01*
X002742Y008368D01*
X002709Y008305D01*
X002688Y008238D01*
X002677Y008168D01*
X002677Y007882D01*
X003076Y007882D01*
X003076Y007783D01*
X002677Y007783D01*
X002677Y007497D01*
X002688Y007427D01*
X002709Y007360D01*
X002742Y007297D01*
X002783Y007239D01*
X002833Y007189D01*
X002891Y007148D01*
X002954Y007115D01*
X003021Y007094D01*
X003077Y007085D01*
X003077Y007782D01*
X003176Y007782D01*
X003176Y007085D01*
X003232Y007094D01*
X003299Y007115D01*
X003362Y007148D01*
X003337Y007134D02*
X003337Y006852D01*
X003176Y007163D02*
X003077Y007163D01*
X002870Y007163D02*
X001555Y007163D01*
X001337Y006844D02*
X001337Y004317D01*
X000991Y004663D02*
X004656Y004663D01*
X004757Y004663D02*
X007216Y004663D01*
X007317Y004663D02*
X008556Y004663D01*
X008556Y004623D02*
X007859Y004623D01*
X007317Y004623D01*
X007317Y004722D01*
X007859Y004722D01*
X008556Y004722D01*
X008556Y004623D01*
X008657Y004663D02*
X011116Y004663D01*
X010837Y004623D02*
X010837Y004722D01*
X010837Y005122D02*
X010837Y006043D01*
X010785Y006043D02*
X011548Y006043D01*
X011699Y006105D01*
X011814Y006220D01*
X011836Y006274D01*
X011756Y006163D02*
X011917Y006163D01*
X012337Y006043D02*
X012337Y005122D01*
X012337Y004722D02*
X012337Y004623D01*
X012837Y004623D02*
X012837Y004722D01*
X012837Y005122D02*
X012837Y006043D01*
X013096Y006163D02*
X014477Y006163D01*
X014337Y006263D02*
X014337Y004805D01*
X014337Y004722D02*
X014337Y004623D01*
X014337Y004540D02*
X014337Y004317D01*
X013837Y004317D02*
X013837Y006263D01*
X013837Y006642D02*
X013837Y007023D01*
X013837Y007402D02*
X013837Y007623D01*
X014337Y007623D02*
X014337Y007402D01*
X014337Y007023D02*
X014337Y006642D01*
X014410Y006663D02*
X013163Y006663D01*
X013337Y006642D02*
X013337Y007023D01*
X013337Y007402D02*
X013337Y007623D01*
X012837Y007623D02*
X012837Y007402D01*
X012837Y007023D02*
X012837Y006862D01*
X012337Y006862D02*
X012337Y007023D01*
X012337Y007402D02*
X012337Y007623D01*
X011837Y007623D02*
X011837Y007381D01*
X011618Y007163D02*
X008245Y007163D01*
X008337Y007254D02*
X008337Y006862D01*
X007950Y006663D02*
X007923Y006663D01*
X007936Y006274D02*
X007959Y006220D01*
X008074Y006105D01*
X008225Y006043D01*
X008988Y006043D01*
X009139Y006105D01*
X009254Y006220D01*
X009272Y006263D01*
X010501Y006263D01*
X010519Y006220D01*
X010634Y006105D01*
X010785Y006043D01*
X010577Y006163D02*
X009196Y006163D01*
X009337Y006263D02*
X009337Y004805D01*
X009337Y004722D02*
X009337Y004623D01*
X009337Y004540D02*
X009337Y004317D01*
X009837Y004317D02*
X009837Y006263D01*
X009837Y006642D02*
X009837Y007623D01*
X010337Y007623D02*
X010337Y006642D01*
X010510Y006663D02*
X009263Y006663D01*
X009337Y006642D02*
X009337Y007623D01*
X008837Y007623D02*
X008837Y006862D01*
X008837Y006043D02*
X008837Y005122D01*
X008837Y004722D02*
X008837Y004623D01*
X008337Y004623D02*
X008337Y004722D01*
X008337Y005122D02*
X008337Y006043D01*
X008017Y006163D02*
X007856Y006163D01*
X007837Y006143D02*
X007837Y005033D01*
X007837Y004722D02*
X007837Y004623D01*
X007337Y004623D02*
X007337Y004722D01*
X007337Y005122D02*
X007337Y006043D01*
X007648Y006043D02*
X007799Y006105D01*
X007914Y006220D01*
X007936Y006274D01*
X007648Y006043D02*
X006885Y006043D01*
X006734Y006105D01*
X006619Y006220D01*
X006601Y006263D01*
X005372Y006263D01*
X005354Y006220D01*
X005239Y006105D01*
X005088Y006043D01*
X004325Y006043D01*
X004174Y006105D01*
X004059Y006220D01*
X003997Y006371D01*
X003997Y006534D01*
X004046Y006653D01*
X003865Y006473D01*
X003708Y006473D01*
X001865Y006473D01*
X001708Y006473D01*
X001157Y007024D01*
X001157Y007167D01*
X001114Y007185D01*
X000999Y007300D01*
X000991Y007318D01*
X000991Y007163D02*
X001157Y007163D01*
X000991Y006663D02*
X001518Y006663D01*
X001837Y006473D02*
X001837Y004317D01*
X002337Y004317D02*
X002337Y005222D01*
X002351Y005188D02*
X002562Y004977D01*
X002837Y004863D01*
X002837Y004317D01*
X003337Y004317D02*
X003337Y004946D01*
X003411Y004977D02*
X003622Y005188D01*
X003736Y005463D01*
X003736Y005762D01*
X003622Y006037D01*
X003411Y006248D01*
X003136Y006362D01*
X002837Y006362D01*
X002837Y006473D01*
X002837Y006362D02*
X002562Y006248D01*
X002351Y006037D01*
X002237Y005762D01*
X002237Y005463D01*
X002351Y005188D01*
X002376Y005163D02*
X000991Y005163D01*
X000991Y005663D02*
X002237Y005663D01*
X002337Y006003D02*
X002337Y006473D01*
X002476Y006163D02*
X000991Y006163D01*
X001837Y006881D02*
X001837Y011086D01*
X002209Y011163D02*
X002264Y011163D01*
X002337Y011086D02*
X002337Y009426D01*
X002347Y009663D02*
X001536Y009663D01*
X001536Y009163D02*
X002208Y009163D01*
X002337Y008899D02*
X002337Y006852D01*
X002837Y006852D02*
X002837Y007187D01*
X002677Y007663D02*
X001756Y007663D01*
X001756Y008163D02*
X002677Y008163D01*
X002837Y007882D02*
X002837Y007783D01*
X003077Y007663D02*
X003176Y007663D01*
X003337Y007783D02*
X003337Y007882D01*
X003176Y008163D02*
X003077Y008163D01*
X002837Y008478D02*
X002837Y009029D01*
X002865Y009163D02*
X003867Y009163D01*
X003867Y008907D02*
X003931Y008843D01*
X004542Y008843D01*
X004606Y008907D01*
X004606Y009518D01*
X004542Y009582D01*
X003931Y009582D01*
X003867Y009518D01*
X003867Y008907D01*
X004337Y008843D02*
X004337Y008582D01*
X004606Y008163D02*
X014867Y008163D01*
X014837Y008002D02*
X014837Y009023D01*
X014828Y009023D02*
X014867Y009023D01*
X014867Y008907D01*
X014931Y008843D01*
X015542Y008843D01*
X015606Y008907D01*
X015606Y009518D01*
X015542Y009582D01*
X014931Y009582D01*
X014867Y009518D01*
X014867Y009402D01*
X014828Y009402D01*
X014828Y009475D01*
X014764Y009539D01*
X014279Y009539D01*
X014214Y009475D01*
X014214Y008950D01*
X014279Y008886D01*
X014764Y008886D01*
X014828Y008950D01*
X014828Y009023D01*
X014837Y009402D02*
X014837Y019023D01*
X015337Y019023D02*
X015337Y009582D01*
X015606Y009163D02*
X017918Y009163D01*
X017837Y009081D02*
X017837Y019023D01*
X018337Y019023D02*
X018337Y009581D01*
X018418Y009663D02*
X003259Y009663D01*
X003176Y009663D02*
X003077Y009663D01*
X002994Y009663D02*
X002726Y009663D01*
X002837Y009747D02*
X002837Y009296D01*
X003337Y009694D02*
X003337Y008531D01*
X003576Y008163D02*
X003867Y008163D01*
X004047Y007663D02*
X003576Y007663D01*
X004426Y007663D02*
X008208Y007663D01*
X008337Y007791D02*
X008337Y019023D01*
X008337Y019402D02*
X008337Y020023D01*
X008337Y020402D02*
X008337Y022606D01*
X008837Y022622D02*
X008837Y020402D01*
X008837Y020023D02*
X008837Y019402D01*
X008837Y019023D02*
X008837Y008002D01*
X009337Y008002D02*
X009337Y019023D01*
X009337Y019402D02*
X009337Y020023D01*
X009337Y020402D02*
X009337Y022566D01*
X009407Y022566D02*
X009446Y022576D01*
X009480Y022596D01*
X009508Y022624D01*
X009527Y022658D01*
X009538Y022696D01*
X009538Y022864D01*
X009220Y022864D01*
X009220Y022566D01*
X009407Y022566D01*
X009529Y022663D02*
X012989Y022663D01*
X012837Y022815D02*
X012837Y020952D01*
X012837Y020573D02*
X012837Y020402D01*
X012837Y020023D02*
X012837Y019402D01*
X012837Y019023D02*
X012837Y008002D01*
X013337Y008002D02*
X013337Y019023D01*
X013337Y019402D02*
X013337Y019944D01*
X013837Y019444D02*
X013837Y019402D01*
X013847Y019434D02*
X013847Y019434D01*
X013837Y019023D02*
X013837Y009261D01*
X013803Y009261D02*
X013803Y009579D01*
X013635Y009579D01*
X013597Y009569D01*
X013563Y009549D01*
X013535Y009521D01*
X013515Y009487D01*
X013505Y009449D01*
X013505Y009261D01*
X013803Y009261D01*
X013803Y009164D01*
X013505Y009164D01*
X013505Y008976D01*
X013515Y008938D01*
X013535Y008904D01*
X013563Y008876D01*
X013597Y008856D01*
X013635Y008846D01*
X013803Y008846D01*
X013803Y009164D01*
X013900Y009164D01*
X013900Y008846D01*
X014068Y008846D01*
X014107Y008856D01*
X014141Y008876D01*
X014169Y008904D01*
X014188Y008938D01*
X014199Y008976D01*
X014199Y009164D01*
X013901Y009164D01*
X013901Y009261D01*
X014199Y009261D01*
X014199Y009449D01*
X014188Y009487D01*
X014169Y009521D01*
X014141Y009549D01*
X014107Y009569D01*
X014068Y009579D01*
X013900Y009579D01*
X013900Y009261D01*
X013803Y009261D01*
X013803Y009163D02*
X013900Y009163D01*
X013837Y009164D02*
X013837Y008002D01*
X014337Y008002D02*
X014337Y008886D01*
X014214Y009163D02*
X014199Y009163D01*
X014337Y009539D02*
X014337Y019023D01*
X015837Y019023D02*
X015837Y008002D01*
X015606Y008163D02*
X016918Y008163D01*
X016837Y008081D02*
X016837Y019023D01*
X017337Y019023D02*
X017337Y008581D01*
X017418Y008663D02*
X001536Y008663D01*
X001756Y010163D02*
X002347Y010163D01*
X003077Y010163D02*
X003176Y010163D01*
X002347Y010663D02*
X001756Y010663D01*
X001157Y011058D02*
X001114Y011040D01*
X000999Y010925D01*
X000991Y010907D01*
X000991Y029965D01*
X001005Y029952D01*
X001039Y029932D01*
X001077Y029922D01*
X001579Y029922D01*
X001579Y030553D01*
X001679Y030553D01*
X001679Y029922D01*
X002180Y029922D01*
X002218Y029932D01*
X002252Y029952D01*
X002280Y029980D01*
X002300Y030014D01*
X002310Y030052D01*
X001837Y029922D02*
X001837Y027480D01*
X001807Y027408D02*
X001807Y027217D01*
X001880Y027041D01*
X002015Y026906D01*
X002191Y026833D01*
X002382Y026833D01*
X002558Y026906D01*
X002693Y027041D01*
X002766Y027217D01*
X002766Y027408D01*
X002693Y027584D01*
X002558Y027719D01*
X002382Y027792D01*
X002191Y027792D01*
X002015Y027719D01*
X001880Y027584D01*
X001807Y027408D01*
X001829Y027163D02*
X000991Y027163D01*
X000991Y026663D02*
X002058Y026663D01*
X002115Y026719D02*
X001980Y026584D01*
X001907Y026408D01*
X001907Y026217D01*
X001980Y026041D01*
X002115Y025906D01*
X002291Y025833D01*
X002482Y025833D01*
X002658Y025906D01*
X002793Y026041D01*
X002812Y026084D01*
X002812Y025635D01*
X002713Y025537D01*
X002693Y025584D01*
X002558Y025719D01*
X002382Y025792D01*
X002191Y025792D01*
X002015Y025719D01*
X001880Y025584D01*
X001807Y025408D01*
X001807Y025217D01*
X001880Y025041D01*
X002015Y024906D01*
X002191Y024833D01*
X002382Y024833D01*
X002558Y024906D01*
X002693Y025041D01*
X002734Y025138D01*
X002809Y025138D01*
X003059Y025388D01*
X003062Y025390D01*
X003062Y024635D01*
X002914Y024487D01*
X002834Y024487D01*
X002793Y024584D01*
X002658Y024719D01*
X002482Y024792D01*
X002291Y024792D01*
X002115Y024719D01*
X001980Y024584D01*
X001907Y024408D01*
X001907Y024217D01*
X001980Y024041D01*
X002033Y023987D01*
X001764Y023987D01*
X001662Y023885D01*
X001412Y023635D01*
X001412Y023490D01*
X001412Y018240D01*
X001514Y018138D01*
X001832Y017820D01*
X001807Y017758D01*
X001807Y017567D01*
X001880Y017391D01*
X002015Y017256D01*
X002191Y017183D01*
X002382Y017183D01*
X002558Y017256D01*
X002677Y017374D01*
X002677Y016242D01*
X002638Y016242D01*
X002357Y015961D01*
X002357Y015564D01*
X002638Y015283D01*
X003035Y015283D01*
X003042Y015289D01*
X003088Y015242D01*
X002738Y015242D01*
X002457Y014961D01*
X002457Y014564D01*
X002738Y014283D01*
X003135Y014283D01*
X003397Y014544D01*
X003397Y013736D01*
X003316Y013656D01*
X003316Y013961D01*
X003035Y014242D01*
X002638Y014242D01*
X002357Y013961D01*
X002357Y013564D01*
X002638Y013283D01*
X003035Y013283D01*
X003258Y013506D01*
X003258Y013397D01*
X003271Y013366D01*
X001883Y011978D01*
X001836Y011949D01*
X001830Y011924D01*
X001812Y011907D01*
X001812Y011850D01*
X001785Y011739D01*
X001659Y011739D01*
X001595Y011675D01*
X001595Y011602D01*
X001508Y011602D01*
X001397Y011491D01*
X001157Y011251D01*
X001157Y011094D01*
X001157Y011058D01*
X001157Y011163D02*
X000991Y011163D01*
X001337Y011431D02*
X001337Y015527D01*
X001317Y015547D02*
X001621Y015243D01*
X001787Y015243D01*
X001787Y015712D01*
X001886Y015712D01*
X001886Y015243D01*
X002052Y015243D01*
X002356Y015547D01*
X002356Y015713D01*
X001887Y015713D01*
X001887Y015812D01*
X002356Y015812D01*
X002356Y015978D01*
X002052Y016282D01*
X001886Y016282D01*
X001886Y015813D01*
X001787Y015813D01*
X001787Y016282D01*
X001621Y016282D01*
X001317Y015978D01*
X001317Y015812D01*
X001786Y015812D01*
X001786Y015713D01*
X001317Y015713D01*
X001317Y015547D01*
X001317Y015663D02*
X000991Y015663D01*
X001337Y015713D02*
X001337Y015812D01*
X001337Y015998D02*
X001337Y029922D01*
X001579Y030163D02*
X001679Y030163D01*
X001837Y030553D02*
X001837Y030653D01*
X001679Y030663D02*
X001579Y030663D01*
X001579Y031163D02*
X001679Y031163D01*
X001837Y031285D02*
X001837Y032470D01*
X001726Y032406D02*
X001726Y032406D01*
X001986Y032663D02*
X013312Y032663D01*
X013661Y032663D02*
X014086Y032663D01*
X014336Y032663D02*
X014337Y032663D01*
X014337Y032912D02*
X014337Y032412D01*
X014457Y032412D01*
X014495Y032422D01*
X014529Y032442D01*
X014557Y032470D01*
X014577Y032504D01*
X014587Y032542D01*
X014587Y032912D01*
X014337Y032912D01*
X014337Y029172D01*
X014281Y029163D02*
X013661Y029163D01*
X013661Y029663D02*
X017618Y029663D01*
X017837Y029444D02*
X017837Y027402D01*
X017837Y027023D02*
X017837Y026552D01*
X017337Y026552D02*
X017337Y027023D01*
X017337Y027402D02*
X017337Y029944D01*
X017118Y030163D02*
X013661Y030163D01*
X013312Y030163D02*
X013284Y030163D01*
X013312Y030663D02*
X002310Y030663D01*
X002308Y031163D02*
X010826Y031163D01*
X010837Y031152D02*
X010837Y030537D01*
X011337Y030537D02*
X011337Y030913D01*
X011837Y031052D02*
X011837Y030537D01*
X012337Y030537D02*
X012337Y033873D01*
X012337Y034252D02*
X012337Y036004D01*
X012837Y036004D02*
X012837Y034252D01*
X012837Y033873D02*
X012837Y030537D01*
X013312Y031163D02*
X011947Y031163D01*
X011837Y032273D02*
X011837Y033873D01*
X011837Y034252D02*
X011837Y036004D01*
X011337Y036004D02*
X011337Y034252D01*
X011337Y033873D02*
X011337Y032412D01*
X010837Y032173D02*
X010837Y033873D01*
X010837Y034252D02*
X010837Y036004D01*
X010337Y036004D02*
X010337Y034252D01*
X010337Y033873D02*
X010337Y030537D01*
X009837Y030537D02*
X009837Y033873D01*
X009837Y034252D02*
X009837Y036004D01*
X009337Y036004D02*
X009337Y034252D01*
X009337Y033873D02*
X009337Y030537D01*
X008837Y030537D02*
X008837Y033873D01*
X008837Y034252D02*
X008837Y036004D01*
X008337Y036004D02*
X008337Y034252D01*
X008337Y033873D02*
X008337Y030537D01*
X007837Y030537D02*
X007837Y033873D01*
X007837Y034252D02*
X007837Y036004D01*
X007337Y036004D02*
X007337Y034252D01*
X007337Y033873D02*
X007337Y030537D01*
X006837Y030537D02*
X006837Y033873D01*
X006837Y034252D02*
X006837Y036004D01*
X006337Y036004D02*
X006337Y034276D01*
X006337Y033849D02*
X006337Y030537D01*
X005837Y030537D02*
X005837Y033849D01*
X005773Y034163D02*
X000991Y034163D01*
X001837Y033619D02*
X001837Y034804D01*
X001679Y035163D02*
X001579Y035163D01*
X001837Y035435D02*
X001837Y035535D01*
X001894Y033585D02*
X001894Y033585D01*
X001991Y033389D02*
X001991Y033389D01*
X001991Y033163D02*
X013312Y033163D01*
X013661Y033163D02*
X014086Y033163D01*
X014587Y033163D02*
X014626Y033163D01*
X014626Y032663D02*
X014587Y032663D01*
X014837Y032444D02*
X014837Y029172D01*
X014227Y028663D02*
X013661Y028663D01*
X013312Y028663D02*
X013092Y028663D01*
X012837Y028930D02*
X012837Y029495D01*
X013050Y029663D02*
X013112Y029663D01*
X013069Y029163D02*
X003984Y029163D01*
X003837Y029015D02*
X003837Y025860D01*
X003639Y025663D02*
X003411Y025663D01*
X002812Y025663D02*
X002615Y025663D01*
X002337Y025792D02*
X002337Y025833D01*
X001958Y025663D02*
X000991Y025663D01*
X000991Y025163D02*
X001829Y025163D01*
X001837Y025145D02*
X001837Y023987D01*
X001929Y024163D02*
X000991Y024163D01*
X000991Y024663D02*
X002058Y024663D01*
X002337Y024792D02*
X002337Y024833D01*
X002715Y024663D02*
X003062Y024663D01*
X002837Y024487D02*
X002837Y025165D01*
X002834Y025163D02*
X003062Y025163D01*
X001837Y025480D02*
X001837Y027145D01*
X002115Y026719D02*
X002291Y026792D01*
X002482Y026792D01*
X002658Y026719D01*
X002793Y026584D01*
X002812Y026541D01*
X002812Y028013D01*
X002783Y027974D01*
X002725Y027916D01*
X002659Y027868D01*
X002586Y027831D01*
X002508Y027805D01*
X002436Y027794D01*
X002436Y028262D01*
X002337Y028262D01*
X002337Y027792D01*
X002337Y027794D02*
X002337Y028262D01*
X002336Y028263D02*
X001868Y028263D01*
X001879Y028191D01*
X001905Y028113D01*
X001942Y028040D01*
X001990Y027974D01*
X002048Y027916D01*
X002114Y027868D01*
X002187Y027831D01*
X002265Y027805D01*
X002337Y027794D01*
X002615Y027663D02*
X002812Y027663D01*
X003411Y027663D02*
X012939Y027663D01*
X012837Y027560D02*
X012837Y028195D01*
X013312Y028163D02*
X003411Y028163D01*
X003484Y028663D02*
X010381Y028663D01*
X010372Y028639D02*
X010372Y028486D01*
X010430Y028344D01*
X010538Y028236D01*
X010680Y028178D01*
X010833Y028178D01*
X010975Y028236D01*
X011083Y028344D01*
X011141Y028486D01*
X011141Y028639D01*
X011083Y028781D01*
X010975Y028889D01*
X010833Y028947D01*
X010680Y028947D01*
X010538Y028889D01*
X010430Y028781D01*
X010372Y028639D01*
X010837Y028946D02*
X010837Y029238D01*
X011337Y029238D02*
X011337Y027487D01*
X011337Y027138D02*
X011337Y024810D01*
X011484Y024663D02*
X015153Y024663D01*
X015337Y024631D02*
X015337Y024634D01*
X015287Y024963D02*
X016187Y025863D01*
X020399Y025863D01*
X021147Y025115D01*
X021153Y025335D02*
X020985Y025503D01*
X021514Y025503D01*
X021514Y025407D01*
X021579Y025343D01*
X021890Y025343D01*
X021892Y025344D01*
X021894Y025343D01*
X022152Y025343D01*
X022162Y025332D01*
X022196Y025313D01*
X022234Y025303D01*
X022359Y025303D01*
X022359Y025697D01*
X022369Y025697D01*
X022369Y025303D01*
X022494Y025303D01*
X022497Y025303D01*
X022497Y025291D01*
X022497Y025134D01*
X022647Y024984D01*
X022758Y024873D01*
X022896Y024873D01*
X022897Y024861D01*
X022897Y023491D01*
X022897Y023341D01*
X022821Y023341D01*
X022701Y023291D01*
X022608Y023198D01*
X022558Y023078D01*
X022558Y022947D01*
X022608Y022827D01*
X022697Y022739D01*
X022697Y022722D01*
X022684Y022722D01*
X022684Y022328D01*
X022674Y022328D01*
X022674Y022722D01*
X022549Y022722D01*
X022511Y022712D01*
X022477Y022693D01*
X022467Y022682D01*
X022226Y022682D01*
X022226Y023089D01*
X022315Y023177D01*
X022365Y023297D01*
X022365Y023428D01*
X022315Y023548D01*
X022222Y023641D01*
X022102Y023691D01*
X021971Y023691D01*
X021851Y023641D01*
X021758Y023548D01*
X021708Y023428D01*
X021708Y023297D01*
X021758Y023177D01*
X021847Y023089D01*
X021847Y022682D01*
X021579Y022682D01*
X021514Y022618D01*
X021514Y022512D01*
X019675Y022512D01*
X019518Y022512D01*
X018108Y021102D01*
X018076Y021102D01*
X017956Y021223D01*
X018015Y021223D01*
X018126Y021334D01*
X019513Y022720D01*
X020821Y022720D01*
X020851Y022690D01*
X021442Y022690D01*
X021506Y022755D01*
X021506Y023066D01*
X021505Y023068D01*
X021506Y023070D01*
X021506Y023381D01*
X021505Y023383D01*
X021506Y023384D01*
X021506Y023696D01*
X021505Y023698D01*
X021506Y023699D01*
X021506Y024011D01*
X021505Y024012D01*
X021506Y024014D01*
X021506Y024326D01*
X021505Y024327D01*
X021506Y024329D01*
X021506Y024641D01*
X021505Y024642D01*
X021506Y024644D01*
X021506Y024955D01*
X021505Y024957D01*
X021506Y024959D01*
X021506Y025270D01*
X021442Y025335D01*
X021153Y025335D01*
X021337Y025335D02*
X021337Y025503D01*
X021506Y025163D02*
X022497Y025163D01*
X022337Y025303D02*
X022337Y023496D01*
X022170Y023663D02*
X022897Y023663D01*
X022837Y023341D02*
X022837Y024873D01*
X022897Y024663D02*
X021506Y024663D01*
X021506Y024163D02*
X022897Y024163D01*
X023276Y024163D02*
X023644Y024163D01*
X023658Y024198D02*
X023608Y024078D01*
X023608Y023947D01*
X023649Y023850D01*
X023552Y023891D01*
X023421Y023891D01*
X023301Y023841D01*
X023276Y023816D01*
X023276Y024785D01*
X023443Y024956D01*
X023499Y025011D01*
X023499Y025013D01*
X023500Y025014D01*
X023499Y025090D01*
X023499Y025169D01*
X023499Y025343D01*
X023779Y025343D01*
X023781Y025344D01*
X023783Y025343D01*
X024094Y025343D01*
X024159Y025407D01*
X024159Y025759D01*
X024809Y026409D01*
X025366Y026409D01*
X025431Y026473D01*
X025431Y027352D01*
X025366Y027416D01*
X025277Y027416D01*
X025277Y027656D01*
X025364Y027656D01*
X025415Y027707D01*
X025435Y027674D01*
X025463Y027646D01*
X025497Y027626D01*
X025535Y027616D01*
X025723Y027616D01*
X025723Y027914D01*
X025820Y027914D01*
X025820Y028011D01*
X026138Y028011D01*
X026138Y028179D01*
X026127Y028217D01*
X026108Y028251D01*
X026080Y028279D01*
X026046Y028299D01*
X026007Y028309D01*
X025820Y028309D01*
X025820Y028011D01*
X025723Y028011D01*
X025723Y028309D01*
X025535Y028309D01*
X025497Y028299D01*
X025463Y028279D01*
X025435Y028251D01*
X025415Y028218D01*
X025364Y028269D01*
X024840Y028269D01*
X024775Y028205D01*
X024775Y027720D01*
X024840Y027656D01*
X024927Y027656D01*
X024927Y027416D01*
X024763Y027416D01*
X024699Y027352D01*
X024699Y026794D01*
X023967Y026062D01*
X023838Y026062D01*
X023843Y026409D01*
X023910Y026409D01*
X023974Y026473D01*
X023974Y027352D01*
X023910Y027416D01*
X023783Y027416D01*
X023783Y027706D01*
X023833Y027706D01*
X023898Y027770D01*
X023898Y028255D01*
X023833Y028319D01*
X023309Y028319D01*
X023258Y028268D01*
X023238Y028301D01*
X023211Y028329D01*
X023176Y028349D01*
X023138Y028359D01*
X022950Y028359D01*
X022950Y028061D01*
X022853Y028061D01*
X022853Y027964D01*
X022535Y027964D01*
X022535Y027796D01*
X022546Y027758D01*
X022565Y027724D01*
X022593Y027696D01*
X022627Y027676D01*
X022666Y027666D01*
X022853Y027666D01*
X022853Y027964D01*
X022950Y027964D01*
X022950Y027666D01*
X023138Y027666D01*
X023176Y027676D01*
X023211Y027696D01*
X023238Y027724D01*
X023258Y027757D01*
X023309Y027706D01*
X023433Y027706D01*
X023433Y027416D01*
X023307Y027416D01*
X023242Y027352D01*
X023242Y026473D01*
X023307Y026409D01*
X023493Y026409D01*
X023488Y026062D01*
X023468Y026062D01*
X023466Y026061D01*
X023465Y026062D01*
X023206Y026062D01*
X023196Y026073D01*
X023162Y026092D01*
X023124Y026102D01*
X022999Y026102D01*
X022999Y025708D01*
X022989Y025708D01*
X022989Y026102D01*
X022864Y026102D01*
X022854Y026100D01*
X022854Y026251D01*
X023079Y026251D01*
X023143Y026316D01*
X023143Y026840D01*
X023092Y026891D01*
X023125Y026911D01*
X023153Y026939D01*
X023173Y026973D01*
X023183Y027011D01*
X023183Y027199D01*
X022885Y027199D01*
X022885Y027296D01*
X022788Y027296D01*
X022788Y027614D01*
X022620Y027614D01*
X022582Y027603D01*
X022548Y027584D01*
X022520Y027556D01*
X022500Y027522D01*
X022490Y027483D01*
X022490Y027296D01*
X022788Y027296D01*
X022788Y027199D01*
X022490Y027199D01*
X022490Y027011D01*
X022500Y026973D01*
X022520Y026939D01*
X022548Y026911D01*
X022581Y026891D01*
X022530Y026840D01*
X022530Y026753D01*
X022365Y026753D01*
X022343Y026774D01*
X022343Y026840D01*
X022292Y026891D01*
X022325Y026911D01*
X022353Y026939D01*
X022373Y026973D01*
X022383Y027011D01*
X022383Y027199D01*
X022085Y027199D01*
X022085Y027296D01*
X021988Y027296D01*
X021988Y027614D01*
X021820Y027614D01*
X021782Y027603D01*
X021748Y027584D01*
X021720Y027556D01*
X021700Y027522D01*
X021690Y027483D01*
X021690Y027296D01*
X021988Y027296D01*
X021988Y027199D01*
X021690Y027199D01*
X021690Y027078D01*
X019945Y028823D01*
X025608Y028823D01*
X027658Y026773D01*
X027815Y026773D01*
X037813Y026773D01*
X037901Y026684D01*
X038021Y026634D01*
X038152Y026634D01*
X038272Y026684D01*
X038360Y026773D01*
X038954Y026773D01*
X038894Y026712D01*
X038894Y026343D01*
X038801Y026343D01*
X038736Y026279D01*
X038736Y026202D01*
X038258Y026202D01*
X038147Y026091D01*
X037808Y025752D01*
X035630Y025752D01*
X035630Y026511D01*
X035565Y026576D01*
X034923Y026576D01*
X034858Y026511D01*
X034858Y026301D01*
X028314Y026301D01*
X028157Y026301D01*
X025908Y024052D01*
X025795Y024052D01*
X025834Y024091D01*
X025834Y024096D01*
X026644Y024984D01*
X026752Y024984D01*
X026872Y025034D01*
X026965Y025127D01*
X027015Y025247D01*
X027015Y025378D01*
X026965Y025498D01*
X026872Y025591D01*
X026752Y025641D01*
X026621Y025641D01*
X026501Y025591D01*
X026408Y025498D01*
X026387Y025446D01*
X026365Y025498D01*
X026272Y025591D01*
X026152Y025641D01*
X026021Y025641D01*
X025901Y025591D01*
X025808Y025498D01*
X025786Y025446D01*
X025765Y025498D01*
X025672Y025591D01*
X025620Y025612D01*
X025672Y025634D01*
X025765Y025727D01*
X025815Y025847D01*
X025815Y025978D01*
X025765Y026098D01*
X025672Y026191D01*
X025552Y026241D01*
X025421Y026241D01*
X025301Y026191D01*
X025208Y026098D01*
X025185Y026042D01*
X024478Y025335D01*
X024231Y025335D01*
X024167Y025270D01*
X024167Y024959D01*
X024168Y024957D01*
X024167Y024955D01*
X024167Y024644D01*
X024168Y024642D01*
X024167Y024641D01*
X024167Y024329D01*
X024168Y024327D01*
X024167Y024326D01*
X024167Y024246D01*
X024122Y024291D01*
X024002Y024341D01*
X023871Y024341D01*
X023751Y024291D01*
X023658Y024198D01*
X023837Y024326D02*
X023837Y025343D01*
X024167Y025163D02*
X023499Y025163D01*
X023337Y024846D02*
X023337Y023856D01*
X023276Y024663D02*
X024167Y024663D01*
X024337Y025335D02*
X024337Y025937D01*
X024562Y026163D02*
X025273Y026163D01*
X025337Y026206D02*
X025337Y026409D01*
X025431Y026663D02*
X037953Y026663D01*
X037837Y026749D02*
X037837Y025781D01*
X037337Y025752D02*
X037337Y026773D01*
X037337Y027152D02*
X037337Y036004D01*
X037837Y036004D02*
X037837Y027176D01*
X037823Y027163D02*
X027805Y027163D01*
X027837Y027152D02*
X027837Y036004D01*
X028337Y036004D02*
X028337Y027152D01*
X028337Y026773D02*
X028337Y026301D01*
X028018Y026163D02*
X025700Y026163D01*
X024837Y026409D02*
X024837Y025694D01*
X024806Y025663D02*
X024159Y025663D01*
X024067Y026163D02*
X023840Y026163D01*
X023490Y026163D02*
X022854Y026163D01*
X022504Y026163D02*
X022155Y026163D01*
X022163Y026155D02*
X022115Y026202D01*
X022102Y026202D01*
X022039Y026251D01*
X022279Y026251D01*
X022343Y026316D01*
X022343Y026403D01*
X022498Y026403D01*
X022504Y026358D01*
X022504Y026100D01*
X022494Y026102D01*
X022369Y026102D01*
X022369Y025708D01*
X022359Y025708D01*
X022359Y026102D01*
X022234Y026102D01*
X022219Y026098D01*
X022217Y026101D01*
X022216Y026114D01*
X022163Y026155D01*
X022337Y026102D02*
X022337Y026309D01*
X022337Y026847D02*
X022337Y026922D01*
X022383Y027163D02*
X022490Y027163D01*
X022337Y027199D02*
X022337Y027296D01*
X022383Y027296D02*
X022383Y027483D01*
X022373Y027522D01*
X022353Y027556D01*
X022325Y027584D01*
X022291Y027603D01*
X022253Y027614D01*
X022085Y027614D01*
X022085Y027296D01*
X022383Y027296D01*
X022337Y027573D02*
X022337Y028823D01*
X022337Y029202D02*
X022337Y036004D01*
X022837Y036004D02*
X022837Y029202D01*
X022837Y028823D02*
X022837Y028359D01*
X022853Y028359D02*
X022666Y028359D01*
X022627Y028349D01*
X022593Y028329D01*
X022565Y028301D01*
X022546Y028267D01*
X022535Y028229D01*
X022535Y028061D01*
X022853Y028061D01*
X022853Y028359D01*
X022853Y028163D02*
X022950Y028163D01*
X022837Y028061D02*
X022837Y027964D01*
X022837Y027666D02*
X022837Y027296D01*
X022885Y027296D02*
X022885Y027614D01*
X023053Y027614D01*
X023091Y027603D01*
X023125Y027584D01*
X023153Y027556D01*
X023173Y027522D01*
X023183Y027483D01*
X023183Y027296D01*
X022885Y027296D01*
X023183Y027163D02*
X023242Y027163D01*
X023337Y027416D02*
X023337Y027706D01*
X023433Y027663D02*
X021105Y027663D01*
X021337Y027431D02*
X021337Y028823D01*
X021337Y029202D02*
X021337Y036004D01*
X021837Y036004D02*
X021837Y029202D01*
X021837Y028823D02*
X021837Y027614D01*
X021837Y027296D02*
X021837Y027199D01*
X021690Y027163D02*
X021605Y027163D01*
X021337Y026894D02*
X021337Y026552D01*
X021568Y026663D02*
X016230Y026663D01*
X016337Y026552D02*
X016337Y027023D01*
X016337Y027402D02*
X016337Y030944D01*
X016118Y031163D02*
X013661Y031163D01*
X013661Y030663D02*
X016618Y030663D01*
X016837Y030444D02*
X016837Y027402D01*
X016837Y027023D02*
X016837Y026552D01*
X016037Y026113D02*
X020537Y026113D01*
X020987Y025663D01*
X021694Y025663D01*
X021734Y025703D01*
X021837Y025343D02*
X021837Y023626D01*
X021904Y023663D02*
X021506Y023663D01*
X021506Y023163D02*
X021773Y023163D01*
X021837Y023099D02*
X021837Y022682D01*
X021559Y022663D02*
X019455Y022663D01*
X019337Y022544D02*
X019337Y022331D01*
X019168Y022163D02*
X018955Y022163D01*
X018837Y022044D02*
X018837Y021831D01*
X018668Y021663D02*
X018455Y021663D01*
X018337Y021544D02*
X018337Y021331D01*
X018168Y021163D02*
X018016Y021163D01*
X019837Y022512D02*
X019837Y022720D01*
X020337Y022720D02*
X020337Y022512D01*
X020837Y022512D02*
X020837Y022705D01*
X021337Y022690D02*
X021337Y022512D01*
X022337Y022682D02*
X022337Y023229D01*
X022301Y023163D02*
X022594Y023163D01*
X022674Y022663D02*
X022684Y022663D01*
X022684Y022317D02*
X022684Y021923D01*
X022809Y021923D01*
X022847Y021933D01*
X022881Y021952D01*
X022891Y021963D01*
X023043Y021963D01*
X022933Y021852D01*
X022495Y021852D01*
X022554Y021911D01*
X022554Y021923D01*
X022674Y021923D01*
X022674Y022317D01*
X022684Y022317D01*
X022674Y022163D02*
X022684Y022163D01*
X022837Y021930D02*
X022837Y021852D01*
X022837Y021473D02*
X022837Y021359D01*
X022800Y021359D02*
X022800Y021061D01*
X022703Y021061D01*
X022703Y020964D01*
X022385Y020964D01*
X022385Y020796D01*
X022396Y020758D01*
X022415Y020724D01*
X022443Y020696D01*
X022477Y020676D01*
X022516Y020666D01*
X022703Y020666D01*
X022703Y020964D01*
X022800Y020964D01*
X022800Y020666D01*
X022988Y020666D01*
X023026Y020676D01*
X023061Y020696D01*
X023088Y020724D01*
X023108Y020757D01*
X023159Y020706D01*
X023461Y020706D01*
X023197Y020441D01*
X022758Y020002D01*
X021095Y020002D01*
X022565Y021473D01*
X022933Y021473D01*
X023090Y021473D01*
X023390Y021773D01*
X023434Y021816D01*
X023434Y021694D01*
X023434Y021594D01*
X023431Y021591D01*
X023231Y021391D01*
X023231Y021319D01*
X023159Y021319D01*
X023108Y021268D01*
X023088Y021301D01*
X023061Y021329D01*
X023026Y021349D01*
X022988Y021359D01*
X022800Y021359D01*
X022703Y021359D02*
X022516Y021359D01*
X022477Y021349D01*
X022443Y021329D01*
X022415Y021301D01*
X022396Y021267D01*
X022385Y021229D01*
X022385Y021061D01*
X022703Y021061D01*
X022703Y021359D01*
X022703Y021163D02*
X022800Y021163D01*
X022385Y021163D02*
X022255Y021163D01*
X022337Y021244D02*
X022337Y020002D01*
X021837Y020002D02*
X021837Y020744D01*
X021755Y020663D02*
X023418Y020663D01*
X023337Y020706D02*
X023337Y020581D01*
X023197Y020441D02*
X023197Y020441D01*
X022918Y020163D02*
X021255Y020163D01*
X021337Y020244D02*
X021337Y020002D01*
X021337Y019023D02*
X021337Y012581D01*
X021418Y012663D02*
X004426Y012663D01*
X004047Y012663D02*
X003105Y012663D01*
X003337Y012894D02*
X003337Y011602D01*
X003337Y011223D02*
X003337Y011091D01*
X003837Y011602D02*
X003837Y013249D01*
X003867Y013163D02*
X003720Y013163D01*
X003323Y013663D02*
X003316Y013663D01*
X003337Y013676D02*
X003337Y014484D01*
X003397Y014163D02*
X003115Y014163D01*
X002837Y014242D02*
X002837Y014283D01*
X002558Y014163D02*
X002115Y014163D01*
X002035Y014242D02*
X001638Y014242D01*
X001357Y013961D01*
X001357Y013564D01*
X001638Y013283D01*
X002035Y013283D01*
X002316Y013564D01*
X002316Y013961D01*
X002035Y014242D01*
X002135Y014283D02*
X002416Y014564D01*
X002416Y014961D01*
X002135Y015242D01*
X001738Y015242D01*
X001457Y014961D01*
X001457Y014564D01*
X001738Y014283D01*
X002135Y014283D01*
X002337Y014484D02*
X002337Y012431D01*
X002568Y012663D02*
X000991Y012663D01*
X000991Y012163D02*
X002068Y012163D01*
X001837Y011949D02*
X001837Y013283D01*
X002316Y013663D02*
X002357Y013663D01*
X002837Y013283D02*
X002837Y012931D01*
X003068Y013163D02*
X000991Y013163D01*
X000991Y013663D02*
X001357Y013663D01*
X001558Y014163D02*
X000991Y014163D01*
X000991Y014663D02*
X001457Y014663D01*
X001837Y014283D02*
X001837Y014242D01*
X002416Y014663D02*
X002457Y014663D01*
X002337Y015041D02*
X002337Y015527D01*
X002356Y015663D02*
X002357Y015663D01*
X002337Y015713D02*
X002337Y015812D01*
X002337Y015998D02*
X002337Y017183D01*
X002677Y017163D02*
X000991Y017163D01*
X000991Y017663D02*
X001807Y017663D01*
X001837Y017495D02*
X001837Y015813D01*
X001837Y015712D02*
X001837Y015242D01*
X001658Y015163D02*
X000991Y015163D01*
X001787Y015663D02*
X001886Y015663D01*
X001886Y016163D02*
X001787Y016163D01*
X001501Y016163D02*
X000991Y016163D01*
X000991Y016663D02*
X002677Y016663D01*
X002996Y016663D02*
X004047Y016663D01*
X004426Y016663D02*
X019179Y016663D01*
X019179Y016632D02*
X019279Y016390D01*
X019464Y016205D01*
X019706Y016105D01*
X019967Y016105D01*
X020209Y016205D01*
X020394Y016390D01*
X020494Y016632D01*
X020494Y016893D01*
X020394Y017135D01*
X020209Y017320D01*
X019967Y017420D01*
X019706Y017420D01*
X019464Y017320D01*
X019279Y017135D01*
X019179Y016893D01*
X019179Y016632D01*
X019337Y016333D02*
X019337Y014192D01*
X019307Y014163D02*
X004606Y014163D01*
X004426Y014663D02*
X021847Y014663D01*
X022226Y014663D02*
X022547Y014663D01*
X022926Y014663D02*
X023247Y014663D01*
X023626Y014663D02*
X025297Y014663D01*
X025676Y014663D02*
X027402Y014663D01*
X027402Y014713D02*
X027402Y015108D01*
X027402Y015462D01*
X027502Y015462D01*
X027502Y015108D01*
X027502Y014713D01*
X027402Y014713D01*
X027337Y014712D02*
X027337Y014613D01*
X027337Y014217D02*
X027337Y014192D01*
X027366Y014163D02*
X028545Y014163D01*
X028337Y014257D02*
X028337Y012731D01*
X028268Y012663D02*
X025676Y012663D01*
X025837Y012382D02*
X025837Y020523D01*
X025837Y020902D02*
X025837Y021294D01*
X025705Y021163D02*
X026397Y021163D01*
X026337Y020902D02*
X026337Y021794D01*
X026341Y021663D02*
X026205Y021663D01*
X026737Y021663D02*
X026836Y021663D01*
X026837Y021942D02*
X026837Y022294D01*
X026826Y022284D02*
X026826Y022284D01*
X026705Y022163D02*
X027647Y022163D01*
X028026Y022163D02*
X030136Y022163D01*
X030213Y022313D02*
X029713Y022813D01*
X030089Y022663D02*
X030095Y022663D01*
X029837Y022407D02*
X029837Y020380D01*
X030119Y020663D02*
X029448Y020663D01*
X029337Y020573D02*
X029337Y020502D01*
X029012Y020163D02*
X028388Y020163D01*
X028337Y020411D02*
X028337Y020539D01*
X028337Y020934D02*
X028337Y022594D01*
X028337Y023002D02*
X028337Y023794D01*
X028205Y023663D02*
X037323Y023663D01*
X037337Y023649D02*
X037337Y013481D01*
X037347Y013491D02*
X036220Y012364D01*
X034388Y012364D01*
X034231Y012364D01*
X034079Y012364D01*
X034079Y012456D01*
X034014Y012521D01*
X033707Y012521D01*
X033642Y012456D01*
X033642Y011893D01*
X033707Y011828D01*
X034014Y011828D01*
X034079Y011893D01*
X034079Y011984D01*
X034180Y011984D01*
X034180Y011735D01*
X034231Y011684D01*
X034198Y011664D01*
X034170Y011636D01*
X034150Y011602D01*
X034140Y011564D01*
X034140Y011376D01*
X034438Y011376D01*
X034438Y011279D01*
X034535Y011279D01*
X034535Y011376D01*
X034833Y011376D01*
X034833Y011564D01*
X034823Y011602D01*
X034803Y011636D01*
X034775Y011664D01*
X034742Y011684D01*
X034793Y011735D01*
X034793Y011984D01*
X036220Y011984D01*
X036377Y011984D01*
X037615Y013223D01*
X037726Y013334D01*
X037726Y023639D01*
X037815Y023727D01*
X037865Y023847D01*
X037865Y023978D01*
X037815Y024098D01*
X037722Y024191D01*
X037602Y024241D01*
X037471Y024241D01*
X037351Y024191D01*
X037258Y024098D01*
X037208Y023978D01*
X037208Y023847D01*
X037258Y023727D01*
X037347Y023639D01*
X037347Y013491D01*
X037347Y013663D02*
X034494Y013663D01*
X034494Y013632D02*
X034394Y013390D01*
X034209Y013205D01*
X033967Y013105D01*
X033706Y013105D01*
X033464Y013205D01*
X033279Y013390D01*
X033179Y013632D01*
X033179Y013893D01*
X033279Y014135D01*
X033464Y014320D01*
X033706Y014420D01*
X033967Y014420D01*
X034209Y014320D01*
X034394Y014135D01*
X034494Y013893D01*
X034494Y013632D01*
X034337Y013333D02*
X034337Y012364D01*
X034837Y012364D02*
X034837Y024373D01*
X035337Y024373D02*
X035337Y012364D01*
X035337Y011984D02*
X035337Y011452D01*
X035837Y011452D02*
X035837Y011984D01*
X035837Y012364D02*
X035837Y024373D01*
X036337Y024373D02*
X036337Y012481D01*
X036518Y012663D02*
X028805Y012663D01*
X028837Y012694D02*
X028837Y011041D01*
X028906Y011070D02*
X028664Y010970D01*
X028479Y010785D01*
X028379Y010543D01*
X028379Y010282D01*
X028479Y010040D01*
X028664Y009855D01*
X028906Y009755D01*
X029167Y009755D01*
X029409Y009855D01*
X029594Y010040D01*
X029694Y010282D01*
X029694Y010543D01*
X029648Y010655D01*
X030165Y011173D01*
X032130Y011173D01*
X032130Y011066D01*
X032194Y011001D01*
X032679Y011001D01*
X032743Y011066D01*
X032743Y011138D01*
X032857Y011138D01*
X032894Y011100D01*
X032894Y010869D01*
X032923Y010841D01*
X032923Y010815D01*
X032923Y010658D01*
X033097Y010484D01*
X033208Y010373D01*
X033765Y010373D01*
X033876Y010484D01*
X034051Y010658D01*
X034051Y010815D01*
X034051Y010841D01*
X034079Y010869D01*
X034079Y011432D01*
X034014Y011497D01*
X033707Y011497D01*
X033702Y011492D01*
X033687Y011507D01*
X033653Y011527D01*
X033615Y011537D01*
X033491Y011537D01*
X033491Y011155D01*
X033482Y011155D01*
X033482Y011537D01*
X033359Y011537D01*
X033320Y011527D01*
X033286Y011507D01*
X033271Y011492D01*
X033266Y011497D01*
X033035Y011497D01*
X033014Y011518D01*
X032857Y011518D01*
X032743Y011518D01*
X032743Y011590D01*
X032692Y011641D01*
X032725Y011661D01*
X032753Y011689D01*
X032773Y011723D01*
X032783Y011761D01*
X032783Y011949D01*
X032485Y011949D01*
X032485Y012046D01*
X032388Y012046D01*
X032388Y012364D01*
X032220Y012364D01*
X032182Y012353D01*
X032148Y012334D01*
X032120Y012306D01*
X032100Y012272D01*
X032090Y012233D01*
X032090Y012046D01*
X032388Y012046D01*
X032388Y011949D01*
X032090Y011949D01*
X032090Y011761D01*
X032100Y011723D01*
X032120Y011689D01*
X032148Y011661D01*
X032181Y011641D01*
X032130Y011590D01*
X032130Y011552D01*
X030008Y011552D01*
X029897Y011441D01*
X029417Y010962D01*
X029409Y010970D01*
X029167Y011070D01*
X028906Y011070D01*
X029337Y011000D02*
X029337Y013194D01*
X029305Y013163D02*
X033567Y013163D01*
X033837Y013105D02*
X033837Y012521D01*
X033642Y012163D02*
X033331Y012163D01*
X033331Y011893D02*
X033331Y012456D01*
X033266Y012521D01*
X032959Y012521D01*
X032894Y012456D01*
X032894Y011893D01*
X032959Y011828D01*
X033266Y011828D01*
X033331Y011893D01*
X033337Y011531D02*
X033337Y013333D01*
X033179Y013663D02*
X029805Y013663D01*
X029837Y013694D02*
X029837Y011381D01*
X029618Y011163D02*
X028326Y011163D01*
X027947Y011163D02*
X026824Y011163D01*
X026837Y011147D02*
X026837Y013105D01*
X027106Y013163D02*
X028768Y013163D01*
X028837Y013231D02*
X028837Y013986D01*
X028852Y014313D02*
X029302Y013863D01*
X029737Y013863D01*
X029837Y013963D01*
X029837Y015813D01*
X029691Y015958D01*
X029691Y016402D01*
X029514Y016402D02*
X029514Y015370D01*
X029521Y015113D01*
X029187Y014863D02*
X029187Y015763D01*
X029337Y015913D01*
X029337Y016402D01*
X029159Y016402D02*
X029159Y016035D01*
X028937Y015813D01*
X028837Y015763D01*
X028508Y015787D02*
X028508Y015697D01*
X028558Y015577D01*
X028651Y015484D01*
X028664Y015479D01*
X028635Y015479D01*
X028597Y015469D01*
X028563Y015449D01*
X028535Y015421D01*
X028515Y015387D01*
X028505Y015349D01*
X028505Y015161D01*
X028803Y015161D01*
X028803Y015064D01*
X028505Y015064D01*
X028505Y014876D01*
X028511Y014852D01*
X028487Y014852D01*
X028487Y015003D01*
X028423Y015068D01*
X027820Y015068D01*
X027815Y015063D01*
X027800Y015078D01*
X027783Y015088D01*
X027800Y015097D01*
X027815Y015112D01*
X027820Y015107D01*
X028423Y015107D01*
X028487Y015172D01*
X028487Y015784D01*
X028502Y015784D01*
X028508Y015787D01*
X028523Y015663D02*
X028487Y015663D01*
X028437Y016113D02*
X028887Y016113D01*
X028982Y016208D01*
X028982Y016402D01*
X028805Y016402D02*
X028797Y016402D01*
X028837Y016920D02*
X028837Y017020D01*
X028629Y017163D02*
X027366Y017163D01*
X027394Y017135D02*
X027209Y017320D01*
X026967Y017420D01*
X026706Y017420D01*
X026464Y017320D01*
X026279Y017135D01*
X026179Y016893D01*
X026179Y016632D01*
X026279Y016390D01*
X026464Y016205D01*
X026706Y016105D01*
X026967Y016105D01*
X027209Y016205D01*
X027394Y016390D01*
X027494Y016632D01*
X027494Y016893D01*
X027394Y017135D01*
X027337Y017192D02*
X027337Y019140D01*
X027521Y019163D02*
X027777Y019163D01*
X027734Y018663D02*
X025676Y018663D01*
X025297Y018663D02*
X003605Y018663D01*
X003837Y018431D02*
X003837Y020896D01*
X003867Y020163D02*
X003155Y020163D01*
X002997Y019663D02*
X002766Y019663D01*
X002997Y019163D02*
X002530Y019163D01*
X002436Y019163D02*
X002337Y019163D01*
X002337Y019181D02*
X002337Y018713D01*
X002437Y018663D02*
X003068Y018663D01*
X003337Y018394D02*
X003337Y015531D01*
X003316Y015663D02*
X004047Y015663D01*
X004426Y015663D02*
X021847Y015663D01*
X022226Y015663D02*
X022547Y015663D01*
X022926Y015663D02*
X023247Y015663D01*
X023626Y015663D02*
X025297Y015663D01*
X025676Y015663D02*
X027046Y015663D01*
X027337Y015562D02*
X027337Y015463D01*
X027402Y015663D02*
X027502Y015663D01*
X027337Y015958D02*
X027337Y016333D01*
X027106Y016163D02*
X027862Y016163D01*
X027837Y015918D02*
X027837Y017896D01*
X027968Y017663D02*
X025676Y017663D01*
X025297Y017663D02*
X023626Y017663D01*
X023247Y017663D02*
X022926Y017663D01*
X022547Y017663D02*
X022226Y017663D01*
X022337Y017929D02*
X022337Y012781D01*
X022218Y012663D02*
X021955Y012663D01*
X021837Y012544D02*
X021837Y012281D01*
X021718Y012163D02*
X021455Y012163D01*
X021337Y012044D02*
X021337Y011781D01*
X021218Y011663D02*
X020955Y011663D01*
X020837Y011544D02*
X020837Y011281D01*
X020718Y011163D02*
X020455Y011163D01*
X020337Y011044D02*
X020337Y010781D01*
X020218Y010663D02*
X019955Y010663D01*
X019837Y010544D02*
X019837Y010281D01*
X019718Y010163D02*
X019455Y010163D01*
X019337Y010044D02*
X019337Y009781D01*
X019218Y009663D02*
X018955Y009663D01*
X018837Y009544D02*
X018837Y009281D01*
X018718Y009163D02*
X018455Y009163D01*
X018337Y009044D02*
X018337Y008781D01*
X018218Y008663D02*
X017955Y008663D01*
X017837Y008544D02*
X017837Y008281D01*
X017718Y008163D02*
X017455Y008163D01*
X017337Y008044D02*
X017337Y007781D01*
X017218Y007663D02*
X016955Y007663D01*
X016837Y007623D02*
X016837Y007402D01*
X016837Y007023D02*
X016837Y006652D01*
X017068Y006663D02*
X015723Y006663D01*
X015837Y006652D02*
X015837Y007023D01*
X015837Y007402D02*
X015837Y007623D01*
X016337Y007623D02*
X016337Y007402D01*
X016337Y007023D02*
X016337Y006652D01*
X016337Y006273D02*
X016337Y004317D01*
X016837Y004317D02*
X016837Y006273D01*
X017215Y006273D02*
X017215Y006273D01*
X017337Y006393D02*
X017337Y004317D01*
X017837Y004317D02*
X017837Y006889D01*
X017608Y006663D02*
X034906Y006663D01*
X034933Y006619D02*
X035001Y006534D01*
X035077Y006458D01*
X035161Y006391D01*
X035252Y006334D01*
X035349Y006287D01*
X035451Y006251D01*
X035556Y006227D01*
X035664Y006215D01*
X035667Y006215D01*
X035667Y007125D01*
X034757Y007125D01*
X034757Y007121D01*
X034770Y007014D01*
X034794Y006909D01*
X034829Y006807D01*
X034876Y006710D01*
X034933Y006619D01*
X034837Y006792D02*
X034837Y006301D01*
X034981Y006163D02*
X037759Y006163D01*
X037837Y006085D02*
X037837Y005993D01*
X037727Y005663D02*
X035199Y005663D01*
X034837Y005594D02*
X034837Y005494D01*
X035128Y005163D02*
X037809Y005163D01*
X037837Y005095D02*
X037837Y004317D01*
X037337Y004317D02*
X037337Y006585D01*
X037259Y006663D02*
X036529Y006663D01*
X036502Y006619D02*
X036559Y006710D01*
X036606Y006807D01*
X036641Y006909D01*
X036665Y007014D01*
X036677Y007121D01*
X036677Y007125D01*
X035768Y007125D01*
X035768Y007225D01*
X036677Y007225D01*
X036677Y007229D01*
X036665Y007336D01*
X036641Y007441D01*
X036606Y007543D01*
X036559Y007640D01*
X036502Y007731D01*
X036434Y007816D01*
X036358Y007892D01*
X036274Y007959D01*
X036183Y008017D01*
X036085Y008063D01*
X035984Y008099D01*
X035879Y008123D01*
X035771Y008135D01*
X035767Y008135D01*
X035767Y007225D01*
X035667Y007225D01*
X035667Y007125D01*
X035767Y007125D01*
X035767Y006215D01*
X035771Y006215D01*
X035879Y006227D01*
X035984Y006251D01*
X036085Y006287D01*
X036183Y006334D01*
X036274Y006391D01*
X036358Y006458D01*
X036434Y006534D01*
X036502Y006619D01*
X036337Y006441D02*
X036337Y004317D01*
X036837Y004317D02*
X036837Y008748D01*
X036906Y008663D02*
X035156Y008663D01*
X035522Y008800D02*
X035542Y008765D01*
X035570Y008738D01*
X035604Y008718D01*
X035642Y008708D01*
X035927Y008708D01*
X035927Y009162D01*
X036027Y009162D01*
X036027Y009163D02*
X036027Y009262D01*
X036442Y009262D01*
X036442Y009587D01*
X036431Y009625D01*
X036412Y009660D01*
X036384Y009687D01*
X036350Y009707D01*
X036311Y009717D01*
X036027Y009717D01*
X036027Y009263D01*
X035927Y009263D01*
X035927Y009717D01*
X035642Y009717D01*
X035604Y009707D01*
X035570Y009687D01*
X035542Y009660D01*
X035522Y009625D01*
X035512Y009587D01*
X035512Y009262D01*
X035927Y009262D01*
X035927Y009163D01*
X035512Y009163D01*
X034829Y009163D01*
X034837Y009155D02*
X034837Y009794D01*
X034705Y009663D02*
X035545Y009663D01*
X035837Y009717D02*
X035837Y009930D01*
X035927Y009663D02*
X036027Y009663D01*
X036337Y009711D02*
X036337Y009978D01*
X036353Y010163D02*
X036920Y010163D01*
X037337Y009930D02*
X037337Y009677D01*
X037472Y009663D02*
X044802Y009663D01*
X044802Y010163D02*
X038085Y010163D01*
X038337Y010323D02*
X038337Y009319D01*
X038450Y009366D02*
X038104Y009223D01*
X037840Y008959D01*
X037697Y008613D01*
X037697Y008239D01*
X037840Y007894D01*
X038104Y007629D01*
X038450Y007486D01*
X038824Y007486D01*
X039169Y007629D01*
X039433Y007894D01*
X039576Y008239D01*
X039576Y008613D01*
X039433Y008959D01*
X039169Y009223D01*
X038824Y009366D01*
X038450Y009366D01*
X038837Y009361D02*
X038837Y010323D01*
X038837Y010702D02*
X038837Y024373D01*
X039337Y024373D02*
X039337Y010841D01*
X039630Y010663D02*
X044802Y010663D01*
X044802Y011163D02*
X037121Y011163D01*
X037337Y011095D02*
X037337Y012944D01*
X037555Y013163D02*
X040567Y013163D01*
X040464Y013205D02*
X040706Y013105D01*
X040967Y013105D01*
X041209Y013205D01*
X041394Y013390D01*
X041494Y013632D01*
X041494Y013893D01*
X041394Y014135D01*
X041209Y014320D01*
X040967Y014420D01*
X040706Y014420D01*
X040464Y014320D01*
X040279Y014135D01*
X040179Y013893D01*
X040179Y013632D01*
X040279Y013390D01*
X040464Y013205D01*
X040337Y013333D02*
X040337Y008080D01*
X040300Y008095D02*
X039934Y008095D01*
X039596Y007955D01*
X039338Y007696D01*
X039197Y007358D01*
X039197Y006992D01*
X039338Y006654D01*
X039596Y006395D01*
X039934Y006255D01*
X040300Y006255D01*
X040639Y006395D01*
X040897Y006654D01*
X041037Y006992D01*
X041037Y007358D01*
X040897Y007696D01*
X040639Y007955D01*
X040300Y008095D01*
X039837Y008055D02*
X039837Y024373D01*
X040337Y024373D02*
X040337Y024192D01*
X040349Y024204D02*
X040321Y024176D01*
X040301Y024142D01*
X040291Y024104D01*
X040291Y023858D01*
X040765Y023858D01*
X040765Y023758D01*
X040865Y023758D01*
X040865Y023858D01*
X041339Y023858D01*
X041339Y024104D01*
X041329Y024142D01*
X041309Y024176D01*
X041281Y024204D01*
X041247Y024224D01*
X041209Y024234D01*
X040865Y024234D01*
X040865Y023858D01*
X040765Y023858D01*
X040765Y024234D01*
X040421Y024234D01*
X040383Y024224D01*
X040349Y024204D01*
X040313Y024163D02*
X037750Y024163D01*
X037837Y024046D02*
X037837Y024373D01*
X038337Y024373D02*
X038337Y010702D01*
X037837Y011095D02*
X037837Y023779D01*
X037751Y023663D02*
X040291Y023663D01*
X040291Y023758D02*
X040291Y023513D01*
X040301Y023475D01*
X040321Y023440D01*
X040349Y023413D01*
X040383Y023393D01*
X040421Y023383D01*
X040765Y023383D01*
X040765Y023758D01*
X040291Y023758D01*
X040337Y023758D02*
X040337Y023858D01*
X040337Y023425D02*
X040337Y017192D01*
X040307Y017163D02*
X037726Y017163D01*
X037347Y017163D02*
X034366Y017163D01*
X034394Y017135D02*
X034209Y017320D01*
X033967Y017420D01*
X033706Y017420D01*
X033464Y017320D01*
X033279Y017135D01*
X033179Y016893D01*
X033179Y016632D01*
X033279Y016390D01*
X033464Y016205D01*
X033706Y016105D01*
X033967Y016105D01*
X034209Y016205D01*
X034394Y016390D01*
X034494Y016632D01*
X034494Y016893D01*
X034394Y017135D01*
X034337Y017192D02*
X034337Y024373D01*
X033837Y024373D02*
X033837Y017420D01*
X033337Y017192D02*
X033337Y024373D01*
X032837Y024373D02*
X032837Y011518D01*
X032727Y011663D02*
X034196Y011663D01*
X034337Y011376D02*
X034337Y011279D01*
X034438Y011279D02*
X034140Y011279D01*
X034140Y011092D01*
X034150Y011053D01*
X034170Y011019D01*
X034198Y010991D01*
X034232Y010972D01*
X034270Y010961D01*
X034438Y010961D01*
X034438Y011279D01*
X034438Y011163D02*
X034535Y011163D01*
X034337Y010961D02*
X034337Y010681D01*
X034318Y010663D02*
X034051Y010663D01*
X033837Y010444D02*
X033837Y010181D01*
X033818Y010163D02*
X031495Y010163D01*
X031544Y010282D02*
X031444Y010040D01*
X031259Y009855D01*
X031017Y009755D01*
X030756Y009755D01*
X030514Y009855D01*
X030329Y010040D01*
X030229Y010282D01*
X030229Y010543D01*
X030329Y010785D01*
X030514Y010970D01*
X030756Y011070D01*
X031017Y011070D01*
X031259Y010970D01*
X031444Y010785D01*
X031544Y010543D01*
X031544Y010282D01*
X031495Y010663D02*
X032923Y010663D01*
X032837Y011138D02*
X032837Y009181D01*
X032818Y009163D02*
X028655Y009163D01*
X028837Y008981D02*
X028837Y009784D01*
X029337Y009825D02*
X029337Y008952D01*
X029337Y008573D02*
X029337Y004317D01*
X028837Y004317D02*
X028837Y008573D01*
X028618Y008663D02*
X019624Y008663D01*
X019837Y008874D02*
X019837Y004317D01*
X019337Y004317D02*
X019337Y008377D01*
X019120Y008163D02*
X033328Y008163D01*
X033337Y008143D02*
X033337Y005850D01*
X033294Y005663D02*
X030645Y005663D01*
X030694Y005543D02*
X030594Y005785D01*
X030409Y005970D01*
X030167Y006070D01*
X029906Y006070D01*
X029664Y005970D01*
X029479Y005785D01*
X029379Y005543D01*
X029379Y005282D01*
X029479Y005040D01*
X029664Y004855D01*
X029906Y004755D01*
X030167Y004755D01*
X030409Y004855D01*
X030594Y005040D01*
X030694Y005282D01*
X030694Y005543D01*
X030645Y005163D02*
X033365Y005163D01*
X033337Y005238D02*
X033337Y004317D01*
X032837Y004317D02*
X032837Y008644D01*
X032855Y008663D02*
X033317Y008663D01*
X033337Y008710D02*
X033337Y009144D01*
X033355Y009163D02*
X033644Y009163D01*
X033837Y009278D02*
X033837Y009644D01*
X033855Y009663D02*
X034168Y009663D01*
X034337Y009831D02*
X034337Y010144D01*
X034355Y010163D02*
X034668Y010163D01*
X034837Y010331D02*
X034837Y010644D01*
X034855Y010663D02*
X035168Y010663D01*
X034837Y011181D02*
X034837Y011984D01*
X034777Y011663D02*
X044802Y011663D01*
X044802Y012163D02*
X036555Y012163D01*
X036337Y011984D02*
X036337Y011452D01*
X036337Y011073D02*
X036337Y011047D01*
X036353Y010663D02*
X036920Y010663D01*
X036837Y010910D02*
X036837Y009677D01*
X036721Y009663D02*
X036409Y009663D01*
X036337Y009262D02*
X036337Y009163D01*
X036442Y009163D02*
X036671Y009163D01*
X036442Y009163D02*
X036442Y008838D01*
X036431Y008800D01*
X036412Y008765D01*
X036384Y008738D01*
X036350Y008718D01*
X036311Y008708D01*
X036027Y008708D01*
X036027Y009162D01*
X036027Y009163D02*
X036442Y009163D01*
X035837Y009163D02*
X035837Y009262D01*
X035512Y009163D02*
X035512Y008838D01*
X035522Y008800D01*
X035837Y008708D02*
X035837Y008128D01*
X035667Y008135D02*
X035664Y008135D01*
X035556Y008123D01*
X035451Y008099D01*
X035349Y008063D01*
X035252Y008017D01*
X035161Y007959D01*
X035077Y007892D01*
X035001Y007816D01*
X034933Y007731D01*
X034876Y007640D01*
X034829Y007543D01*
X034794Y007441D01*
X034770Y007336D01*
X034757Y007229D01*
X034757Y007225D01*
X035667Y007225D01*
X035667Y008135D01*
X035337Y008057D02*
X035337Y009930D01*
X034140Y011163D02*
X034079Y011163D01*
X033837Y011497D02*
X033837Y011828D01*
X033491Y011163D02*
X033482Y011163D01*
X033337Y010373D02*
X033337Y009681D01*
X033318Y009663D02*
X028326Y009663D01*
X028337Y009481D02*
X028337Y012194D01*
X028326Y012163D02*
X032090Y012163D01*
X032337Y012046D02*
X032337Y011949D01*
X032485Y012046D02*
X032485Y012364D01*
X032653Y012364D01*
X032691Y012353D01*
X032725Y012334D01*
X032753Y012306D01*
X032773Y012272D01*
X032783Y012233D01*
X032783Y012046D01*
X032485Y012046D01*
X032485Y012163D02*
X032388Y012163D01*
X032337Y012364D02*
X032337Y016309D01*
X032194Y016309D02*
X032637Y016309D01*
X032675Y016319D01*
X032709Y016339D01*
X032737Y016366D01*
X032757Y016401D01*
X032767Y016439D01*
X032767Y016881D01*
X032195Y016881D01*
X032195Y016981D01*
X032767Y016981D01*
X032767Y017423D01*
X032757Y017461D01*
X032737Y017496D01*
X032709Y017523D01*
X032675Y017543D01*
X032637Y017553D01*
X032194Y017553D01*
X032194Y016981D01*
X032095Y016981D01*
X032095Y017553D01*
X031652Y017553D01*
X031614Y017543D01*
X031580Y017523D01*
X031552Y017496D01*
X031532Y017461D01*
X031522Y017423D01*
X031522Y016981D01*
X032094Y016981D01*
X032094Y016881D01*
X031522Y016881D01*
X031522Y016439D01*
X031532Y016401D01*
X031552Y016366D01*
X031580Y016339D01*
X031614Y016319D01*
X031652Y016309D01*
X032095Y016309D01*
X032095Y016881D01*
X032194Y016881D01*
X032194Y016309D01*
X032194Y016663D02*
X032095Y016663D01*
X032337Y016881D02*
X032337Y016981D01*
X032194Y017163D02*
X032095Y017163D01*
X031837Y016981D02*
X031837Y016881D01*
X031522Y016663D02*
X030995Y016663D01*
X030837Y016349D02*
X030837Y011552D01*
X030837Y011173D02*
X030837Y011070D01*
X031337Y011173D02*
X031337Y010892D01*
X031837Y011173D02*
X031837Y008952D01*
X031837Y008573D02*
X031837Y004317D01*
X032337Y004317D02*
X032337Y008573D01*
X032337Y008952D02*
X032337Y011001D01*
X032130Y011163D02*
X030155Y011163D01*
X030337Y011173D02*
X030337Y010792D01*
X030278Y010663D02*
X029655Y010663D01*
X029837Y010844D02*
X029837Y008952D01*
X029837Y008573D02*
X029837Y006041D01*
X030337Y006000D02*
X030337Y008573D01*
X030337Y008952D02*
X030337Y010033D01*
X030278Y010163D02*
X029645Y010163D01*
X028428Y010163D02*
X028326Y010163D01*
X027947Y010163D02*
X027795Y010163D01*
X027837Y010264D02*
X027837Y006041D01*
X027906Y006070D02*
X027664Y005970D01*
X027479Y005785D01*
X027379Y005543D01*
X027379Y005282D01*
X027479Y005040D01*
X027664Y004855D01*
X027906Y004755D01*
X028167Y004755D01*
X028409Y004855D01*
X028594Y005040D01*
X028694Y005282D01*
X028694Y005543D01*
X028594Y005785D01*
X028409Y005970D01*
X028167Y006070D01*
X027906Y006070D01*
X028337Y006000D02*
X028337Y008944D01*
X028118Y009163D02*
X020128Y009163D01*
X020337Y009370D02*
X020337Y004317D01*
X020837Y004317D02*
X020837Y009866D01*
X020632Y009663D02*
X027947Y009663D01*
X027337Y009763D02*
X027337Y004317D01*
X027837Y004317D02*
X027837Y004784D01*
X028337Y004825D02*
X028337Y004317D01*
X028645Y005163D02*
X029428Y005163D01*
X029428Y005663D02*
X028645Y005663D01*
X027428Y005663D02*
X003736Y005663D01*
X003597Y005163D02*
X027428Y005163D01*
X026837Y004317D02*
X026837Y009846D01*
X026578Y010163D02*
X021136Y010163D01*
X021337Y010362D02*
X021337Y004317D01*
X021837Y004317D02*
X021837Y010858D01*
X021640Y010663D02*
X026578Y010663D01*
X026337Y011161D02*
X026337Y004317D01*
X025837Y004317D02*
X025837Y011778D01*
X025930Y011663D02*
X022648Y011663D01*
X022837Y011850D02*
X022837Y004317D01*
X023337Y004317D02*
X023337Y012346D01*
X023515Y012523D02*
X023515Y012523D01*
X023626Y012663D02*
X025297Y012663D01*
X025337Y012394D02*
X025337Y004317D01*
X024837Y004317D02*
X024837Y020294D01*
X024705Y020163D02*
X025297Y020163D01*
X025676Y020163D02*
X027188Y020163D01*
X027188Y020165D02*
X027188Y020068D01*
X026870Y020068D01*
X026870Y019900D01*
X026880Y019862D01*
X026900Y019827D01*
X026928Y019800D01*
X026962Y019780D01*
X027000Y019770D01*
X027188Y019770D01*
X027188Y020068D01*
X027285Y020068D01*
X027285Y019770D01*
X027473Y019770D01*
X027511Y019780D01*
X027545Y019800D01*
X027573Y019827D01*
X027593Y019862D01*
X027603Y019900D01*
X027603Y020068D01*
X027285Y020068D01*
X027285Y020165D01*
X027188Y020165D01*
X027285Y020165D02*
X027285Y020463D01*
X027473Y020463D01*
X027511Y020453D01*
X027545Y020433D01*
X027573Y020405D01*
X027593Y020371D01*
X027603Y020333D01*
X027603Y020165D01*
X027285Y020165D01*
X027285Y020163D02*
X027735Y020163D01*
X027812Y020367D02*
X028062Y020117D01*
X028912Y019267D01*
X028912Y018013D01*
X029159Y017765D01*
X029159Y017529D01*
X029337Y017529D02*
X029337Y018663D01*
X029387Y018713D01*
X029387Y019213D01*
X029012Y019663D02*
X028742Y019663D01*
X028837Y019568D02*
X028837Y020573D01*
X028520Y021163D02*
X027176Y021163D01*
X027337Y020902D02*
X027337Y022794D01*
X027205Y022663D02*
X027868Y022663D01*
X027837Y022631D02*
X027837Y023294D01*
X027705Y023163D02*
X029356Y023163D01*
X029337Y023002D02*
X029337Y024373D01*
X028837Y024294D02*
X028837Y023002D01*
X028837Y022623D02*
X028837Y022052D01*
X029337Y022052D02*
X029337Y022623D01*
X029837Y023218D02*
X029837Y024373D01*
X030337Y024373D02*
X030337Y023218D01*
X030104Y023163D02*
X030069Y023163D01*
X030817Y023163D02*
X037347Y023163D01*
X037726Y023163D02*
X044802Y023163D01*
X044802Y022663D02*
X037726Y022663D01*
X037347Y022663D02*
X032105Y022663D01*
X031837Y022931D02*
X031837Y024373D01*
X032337Y024373D02*
X032337Y017553D01*
X031837Y017553D02*
X031837Y019394D01*
X031605Y019163D02*
X037347Y019163D01*
X037726Y019163D02*
X044802Y019163D01*
X044802Y018663D02*
X037726Y018663D01*
X037347Y018663D02*
X031331Y018663D01*
X031337Y018971D02*
X031337Y011552D01*
X031837Y011552D02*
X031837Y016309D01*
X032767Y016663D02*
X033179Y016663D01*
X033337Y016333D02*
X033337Y014192D01*
X033307Y014163D02*
X029996Y014163D01*
X029996Y014663D02*
X037347Y014663D01*
X037726Y014663D02*
X044802Y014663D01*
X044802Y015163D02*
X037726Y015163D01*
X037347Y015163D02*
X029996Y015163D01*
X029996Y015663D02*
X037347Y015663D01*
X037726Y015663D02*
X044802Y015663D01*
X044802Y016163D02*
X041106Y016163D01*
X041209Y016205D02*
X041394Y016390D01*
X041494Y016632D01*
X041494Y016893D01*
X041394Y017135D01*
X041209Y017320D01*
X040967Y017420D01*
X040706Y017420D01*
X040464Y017320D01*
X040279Y017135D01*
X040179Y016893D01*
X040179Y016632D01*
X040279Y016390D01*
X040464Y016205D01*
X040706Y016105D01*
X040967Y016105D01*
X041209Y016205D01*
X041337Y016333D02*
X041337Y014192D01*
X041366Y014163D02*
X044802Y014163D01*
X044802Y013663D02*
X041494Y013663D01*
X041337Y013333D02*
X041337Y004317D01*
X041837Y004317D02*
X041837Y036004D01*
X042337Y036004D02*
X042337Y004317D01*
X042837Y004317D02*
X042837Y005222D01*
X042851Y005188D02*
X043062Y004977D01*
X043337Y004863D01*
X043337Y004317D01*
X043837Y004317D02*
X043837Y004946D01*
X043911Y004977D02*
X044122Y005188D01*
X044236Y005463D01*
X044236Y005762D01*
X044122Y006037D01*
X043911Y006248D01*
X043636Y006362D01*
X043337Y006362D01*
X043337Y034396D01*
X043837Y034313D02*
X043837Y006279D01*
X043997Y006163D02*
X044802Y006163D01*
X044802Y005663D02*
X044236Y005663D01*
X044097Y005163D02*
X044802Y005163D01*
X043911Y004977D02*
X043636Y004863D01*
X043337Y004863D01*
X042876Y005163D02*
X039484Y005163D01*
X039337Y004933D02*
X039337Y004317D01*
X039837Y004317D02*
X039837Y006296D01*
X040337Y006270D02*
X040337Y004317D01*
X040837Y004317D02*
X040837Y006593D01*
X040901Y006663D02*
X044802Y006663D01*
X044802Y007163D02*
X041037Y007163D01*
X040911Y007663D02*
X044802Y007663D01*
X044802Y008163D02*
X039545Y008163D01*
X039337Y007797D02*
X039337Y007694D01*
X039324Y007663D02*
X039202Y007663D01*
X038837Y007492D02*
X038837Y006461D01*
X039334Y006663D02*
X037797Y006663D01*
X037837Y006623D02*
X037837Y007901D01*
X037728Y008163D02*
X037286Y008163D01*
X036906Y008163D02*
X035145Y008163D01*
X034837Y007697D02*
X034837Y007558D01*
X034802Y007663D02*
X034890Y007663D01*
X034337Y007486D02*
X034337Y006500D01*
X034296Y006163D02*
X034197Y006163D01*
X033837Y006412D02*
X033837Y007575D01*
X033671Y007663D02*
X018616Y007663D01*
X018837Y007881D02*
X018837Y004317D01*
X018337Y004317D02*
X018337Y007385D01*
X018112Y007163D02*
X035667Y007163D01*
X035768Y007163D02*
X036906Y007163D01*
X037297Y007163D02*
X039197Y007163D01*
X039337Y006656D02*
X039337Y006155D01*
X039329Y006163D02*
X042976Y006163D01*
X043062Y006248D02*
X042851Y006037D01*
X042737Y005762D01*
X042737Y005463D01*
X042851Y005188D01*
X042737Y005663D02*
X039566Y005663D01*
X038337Y006411D02*
X038337Y007533D01*
X038071Y007663D02*
X037286Y007663D01*
X036906Y007663D02*
X036545Y007663D01*
X036337Y007909D02*
X036337Y008714D01*
X037286Y008663D02*
X037717Y008663D01*
X037837Y008951D02*
X037837Y009930D01*
X038044Y009163D02*
X037521Y009163D01*
X037337Y008748D02*
X037337Y007123D01*
X036337Y007125D02*
X036337Y007225D01*
X035837Y007225D02*
X035837Y007125D01*
X035767Y006663D02*
X035667Y006663D01*
X035837Y006222D02*
X035837Y004317D01*
X035337Y004317D02*
X035337Y006293D01*
X035337Y007125D02*
X035337Y007225D01*
X034837Y007225D02*
X034837Y007125D01*
X035667Y007663D02*
X035767Y007663D01*
X033512Y006163D02*
X015656Y006163D01*
X015837Y006273D02*
X015837Y004317D01*
X015337Y004623D02*
X015337Y004722D01*
X015337Y005122D02*
X015337Y006043D01*
X014837Y006043D02*
X014837Y005122D01*
X014837Y004722D02*
X014837Y004623D01*
X013337Y004317D02*
X013337Y006263D01*
X011850Y006663D02*
X011823Y006663D01*
X011814Y006685D02*
X011746Y006753D01*
X011814Y006685D02*
X011836Y006631D01*
X011337Y006881D02*
X011337Y007623D01*
X010837Y007623D02*
X010837Y006862D01*
X010337Y006263D02*
X010337Y004317D01*
X011337Y005122D02*
X011337Y006043D01*
X011337Y008002D02*
X011337Y019023D01*
X011337Y019402D02*
X011337Y020023D01*
X011337Y020402D02*
X011337Y020573D01*
X011337Y020952D02*
X011337Y024315D01*
X011489Y024163D02*
X008190Y024163D01*
X008337Y024117D02*
X008337Y024395D01*
X008439Y024663D02*
X008884Y024663D01*
X008837Y024888D02*
X008837Y024117D01*
X009337Y024395D02*
X009337Y023707D01*
X009366Y023663D02*
X011989Y023663D01*
X011837Y023815D02*
X011837Y020952D01*
X011837Y020573D02*
X011837Y020402D01*
X011837Y020023D02*
X011837Y019402D01*
X011837Y019023D02*
X011837Y008002D01*
X012337Y008002D02*
X012337Y019023D01*
X012337Y019402D02*
X012337Y020023D01*
X012337Y020402D02*
X012337Y020573D01*
X012337Y020952D02*
X012337Y023315D01*
X012489Y023163D02*
X009529Y023163D01*
X009337Y022961D02*
X009337Y022864D01*
X009220Y022663D02*
X009123Y022663D01*
X008069Y023663D02*
X007916Y023663D01*
X007837Y023583D02*
X007837Y020402D01*
X007837Y020023D02*
X007837Y019402D01*
X007837Y019023D02*
X007837Y007291D01*
X007708Y007163D02*
X004426Y007163D01*
X004337Y006944D02*
X004337Y006862D01*
X004837Y006862D02*
X004837Y019023D01*
X004837Y019402D02*
X004837Y020023D01*
X004337Y019843D02*
X004337Y019582D01*
X003867Y019163D02*
X003376Y019163D01*
X004337Y018843D02*
X004337Y018582D01*
X004606Y018163D02*
X021723Y018163D01*
X021837Y018326D02*
X021837Y019023D01*
X022337Y019023D02*
X022337Y018196D01*
X022350Y018163D02*
X022423Y018163D01*
X022837Y018376D02*
X022837Y019023D01*
X023337Y019023D02*
X023337Y018376D01*
X023123Y018163D02*
X023050Y018163D01*
X023750Y018163D02*
X025297Y018163D01*
X025676Y018163D02*
X027734Y018163D01*
X027837Y018509D02*
X027837Y018565D01*
X028337Y018578D02*
X028337Y018496D01*
X028387Y018663D02*
X028752Y018663D01*
X028752Y019163D02*
X028346Y019163D01*
X027837Y019754D02*
X027837Y019810D01*
X027735Y019663D02*
X027563Y019663D01*
X027337Y019754D02*
X027337Y019770D01*
X027337Y020068D02*
X027337Y020165D01*
X027337Y020463D02*
X027337Y020523D01*
X027812Y020367D02*
X027812Y020705D01*
X027820Y020713D02*
X027837Y020729D01*
X027837Y020958D02*
X027837Y021367D01*
X028065Y021663D02*
X028520Y021663D01*
X027608Y021663D02*
X027232Y021663D01*
X026837Y020423D02*
X026837Y017420D01*
X026337Y017192D02*
X026337Y020523D01*
X025418Y020663D02*
X025205Y020663D01*
X025337Y020581D02*
X025337Y020794D01*
X025297Y019663D02*
X024205Y019663D01*
X024337Y019794D02*
X024337Y004317D01*
X023837Y004317D02*
X023837Y019294D01*
X023705Y019163D02*
X025297Y019163D01*
X025676Y019163D02*
X026952Y019163D01*
X026910Y019663D02*
X025676Y019663D01*
X023431Y021591D02*
X023431Y021591D01*
X023434Y021663D02*
X023280Y021663D01*
X023337Y021719D02*
X023337Y021497D01*
X022837Y020666D02*
X022837Y020081D01*
X020837Y019023D02*
X020837Y012081D01*
X020918Y012163D02*
X004606Y012163D01*
X004426Y011663D02*
X020418Y011663D01*
X020337Y011581D02*
X020337Y013333D01*
X020106Y013163D02*
X021847Y013163D01*
X021837Y013081D02*
X021837Y017799D01*
X021847Y017663D02*
X004426Y017663D01*
X004047Y017663D02*
X002996Y017663D01*
X002837Y017963D02*
X002837Y015763D01*
X002837Y015283D02*
X002837Y015242D01*
X002658Y015163D02*
X002215Y015163D01*
X002172Y016163D02*
X002558Y016163D01*
X003115Y016163D02*
X003867Y016163D01*
X004606Y016163D02*
X019567Y016163D01*
X019837Y016105D02*
X019837Y014420D01*
X020337Y014192D02*
X020337Y016333D01*
X020106Y016163D02*
X021847Y016163D01*
X022226Y016163D02*
X022547Y016163D01*
X022926Y016163D02*
X023247Y016163D01*
X023626Y016163D02*
X025297Y016163D01*
X025676Y016163D02*
X026567Y016163D01*
X026837Y016105D02*
X026837Y014420D01*
X026337Y014192D02*
X026337Y016333D01*
X026179Y016663D02*
X025676Y016663D01*
X025297Y016663D02*
X023626Y016663D01*
X023247Y016663D02*
X022926Y016663D01*
X022547Y016663D02*
X022226Y016663D01*
X021847Y016663D02*
X020494Y016663D01*
X020366Y017163D02*
X021847Y017163D01*
X022226Y017163D02*
X022547Y017163D01*
X022926Y017163D02*
X023247Y017163D01*
X023626Y017163D02*
X025297Y017163D01*
X025676Y017163D02*
X026307Y017163D01*
X027494Y016663D02*
X028089Y016663D01*
X028012Y016585D02*
X028012Y016585D01*
X028176Y016502D02*
X028187Y016513D01*
X028337Y016687D02*
X028337Y017373D01*
X028772Y017563D02*
X028805Y017529D01*
X029514Y017529D02*
X029514Y017715D01*
X029637Y017838D01*
X030187Y018388D01*
X030187Y020063D01*
X030662Y020538D01*
X031587Y020538D01*
X031837Y020788D01*
X031837Y022113D01*
X031637Y022313D01*
X030213Y022313D01*
X030337Y022153D02*
X030337Y020880D01*
X030618Y021163D02*
X029448Y021163D01*
X029448Y021663D02*
X030725Y021663D01*
X030837Y022052D02*
X030837Y022153D01*
X031337Y022153D02*
X031337Y022052D01*
X031653Y021663D02*
X031677Y021663D01*
X031653Y021163D02*
X031677Y021163D01*
X032276Y021163D02*
X037347Y021163D01*
X037726Y021163D02*
X044802Y021163D01*
X044802Y021663D02*
X037726Y021663D01*
X037347Y021663D02*
X032276Y021663D01*
X032276Y022163D02*
X037347Y022163D01*
X037726Y022163D02*
X044802Y022163D01*
X044802Y023663D02*
X041339Y023663D01*
X041337Y023758D02*
X041337Y023858D01*
X041339Y023758D02*
X040865Y023758D01*
X040865Y023383D01*
X041209Y023383D01*
X041247Y023393D01*
X041281Y023413D01*
X041309Y023440D01*
X041329Y023475D01*
X041339Y023513D01*
X041339Y023758D01*
X041337Y023504D02*
X041337Y017192D01*
X041366Y017163D02*
X044802Y017163D01*
X044802Y017663D02*
X037726Y017663D01*
X037347Y017663D02*
X030996Y017663D01*
X030995Y017163D02*
X031522Y017163D01*
X030337Y016349D02*
X030337Y011552D01*
X032146Y011663D02*
X028326Y011663D01*
X027947Y011663D02*
X026419Y011663D01*
X026337Y011764D02*
X026337Y013333D01*
X026567Y013163D02*
X025676Y013163D01*
X025297Y013163D02*
X023626Y013163D01*
X023247Y013163D02*
X022926Y013163D01*
X022547Y013163D02*
X022226Y013163D01*
X022226Y013663D02*
X022547Y013663D01*
X022926Y013663D02*
X023247Y013663D01*
X023626Y013663D02*
X025297Y013663D01*
X025676Y013663D02*
X026179Y013663D01*
X026307Y014163D02*
X025676Y014163D01*
X025297Y014163D02*
X023626Y014163D01*
X023247Y014163D02*
X022926Y014163D01*
X022547Y014163D02*
X022226Y014163D01*
X021847Y014163D02*
X020366Y014163D01*
X020494Y013663D02*
X021847Y013663D01*
X022837Y012744D02*
X022837Y012385D01*
X022755Y012663D02*
X023116Y012663D01*
X023152Y012163D02*
X025525Y012163D01*
X026014Y012163D02*
X027947Y012163D01*
X027337Y011062D02*
X027337Y013333D01*
X027494Y013663D02*
X029268Y013663D01*
X028987Y014663D02*
X028502Y014663D01*
X028337Y015068D02*
X028337Y015107D01*
X028478Y015163D02*
X028505Y015163D01*
X028987Y014663D02*
X029187Y014863D01*
X027837Y015068D02*
X027837Y015107D01*
X027502Y015163D02*
X027402Y015163D01*
X027055Y015163D02*
X025676Y015163D01*
X025297Y015163D02*
X023626Y015163D01*
X023247Y015163D02*
X022926Y015163D01*
X022547Y015163D02*
X022226Y015163D01*
X021847Y015163D02*
X004606Y015163D01*
X003867Y015163D02*
X003705Y015163D01*
X003665Y015202D02*
X003665Y015202D01*
X003776Y014663D02*
X004047Y014663D01*
X003867Y014163D02*
X003776Y014163D01*
X004606Y013163D02*
X019567Y013163D01*
X019837Y013105D02*
X019837Y011081D01*
X019918Y011163D02*
X004606Y011163D01*
X004337Y010843D02*
X004337Y010582D01*
X004606Y010163D02*
X018918Y010163D01*
X018837Y010081D02*
X018837Y019023D01*
X019337Y019023D02*
X019337Y017192D01*
X019307Y017163D02*
X004606Y017163D01*
X003867Y017163D02*
X002996Y017163D01*
X002837Y017963D02*
X002637Y018163D01*
X002087Y018163D01*
X001787Y018463D01*
X001787Y022463D01*
X001837Y022463D01*
X001412Y022663D02*
X000991Y022663D01*
X000991Y023163D02*
X001412Y023163D01*
X001439Y023663D02*
X000991Y023663D01*
X000991Y022163D02*
X001412Y022163D01*
X001412Y021663D02*
X000991Y021663D01*
X000991Y021163D02*
X001412Y021163D01*
X001412Y020663D02*
X000991Y020663D01*
X000991Y020163D02*
X001412Y020163D01*
X001412Y019663D02*
X000991Y019663D01*
X000991Y019163D02*
X001412Y019163D01*
X001412Y018663D02*
X000991Y018663D01*
X000991Y018163D02*
X001489Y018163D01*
X001946Y019163D02*
X002243Y019163D01*
X004337Y021622D02*
X004337Y021843D01*
X005837Y023149D02*
X005837Y020402D01*
X005837Y020023D02*
X005837Y019402D01*
X005837Y019023D02*
X005837Y006642D01*
X005837Y006263D02*
X005837Y004317D01*
X005337Y004317D02*
X005337Y004366D01*
X005337Y004623D02*
X005337Y004722D01*
X005337Y004979D02*
X005337Y006203D01*
X005296Y006163D02*
X006677Y006163D01*
X006837Y006063D02*
X006837Y005103D01*
X006837Y004722D02*
X006837Y004623D01*
X006337Y004317D02*
X006337Y006263D01*
X004837Y006043D02*
X004837Y005122D01*
X004837Y004722D02*
X004837Y004623D01*
X004337Y004623D02*
X004337Y004722D01*
X004337Y005117D02*
X004337Y006043D01*
X004117Y006163D02*
X003497Y006163D01*
X003337Y006279D02*
X003337Y006473D01*
X003837Y006473D02*
X003837Y004317D01*
X003411Y004977D02*
X003136Y004863D01*
X002837Y004863D01*
X004606Y009163D02*
X013505Y009163D01*
X015337Y008843D02*
X015337Y008582D01*
X015337Y007623D02*
X015337Y007402D01*
X015337Y007023D02*
X015337Y006862D01*
X014837Y006862D02*
X014837Y007023D01*
X014837Y007402D02*
X014837Y007623D01*
X016337Y008002D02*
X016337Y019023D01*
X019837Y019023D02*
X019837Y017420D01*
X020337Y017192D02*
X020337Y019023D01*
X025837Y024052D02*
X025837Y024099D01*
X025894Y024163D02*
X026018Y024163D01*
X026337Y024481D02*
X026337Y024647D01*
X026351Y024663D02*
X026518Y024663D01*
X026837Y024981D02*
X026837Y025019D01*
X026979Y025163D02*
X027018Y025163D01*
X027337Y025481D02*
X027337Y027094D01*
X027268Y027163D02*
X025431Y027163D01*
X025337Y027416D02*
X025337Y027656D01*
X025371Y027663D02*
X025446Y027663D01*
X025723Y027663D02*
X025820Y027663D01*
X025820Y027616D02*
X026007Y027616D01*
X026046Y027626D01*
X026080Y027646D01*
X026108Y027674D01*
X026127Y027708D01*
X026138Y027746D01*
X026138Y027914D01*
X025820Y027914D01*
X025820Y027616D01*
X025837Y027616D02*
X025837Y025526D01*
X025701Y025663D02*
X027518Y025663D01*
X027837Y025981D02*
X027837Y026773D01*
X028837Y026773D02*
X028837Y026301D01*
X029337Y026301D02*
X029337Y026773D01*
X029337Y027152D02*
X029337Y036004D01*
X028837Y036004D02*
X028837Y027152D01*
X029837Y027152D02*
X029837Y036004D01*
X030337Y036004D02*
X030337Y027152D01*
X030337Y026773D02*
X030337Y026301D01*
X030837Y026301D02*
X030837Y026773D01*
X030837Y027152D02*
X030837Y036004D01*
X031337Y036004D02*
X031337Y027152D01*
X031337Y026773D02*
X031337Y026301D01*
X031837Y026301D02*
X031837Y026773D01*
X031837Y027152D02*
X031837Y036004D01*
X032337Y036004D02*
X032337Y027152D01*
X032337Y026773D02*
X032337Y026301D01*
X032837Y026301D02*
X032837Y026773D01*
X032837Y027152D02*
X032837Y036004D01*
X033337Y036004D02*
X033337Y033992D01*
X033279Y033935D02*
X033179Y033693D01*
X033179Y033432D01*
X033279Y033190D01*
X033464Y033005D01*
X033706Y032905D01*
X033967Y032905D01*
X034209Y033005D01*
X034394Y033190D01*
X034494Y033432D01*
X034494Y033693D01*
X034394Y033935D01*
X034209Y034120D01*
X033967Y034220D01*
X033706Y034220D01*
X033464Y034120D01*
X033279Y033935D01*
X033179Y033663D02*
X027494Y033663D01*
X027494Y033693D02*
X027394Y033935D01*
X027209Y034120D01*
X026967Y034220D01*
X026706Y034220D01*
X026464Y034120D01*
X026279Y033935D01*
X026179Y033693D01*
X026179Y033432D01*
X026279Y033190D01*
X026464Y033005D01*
X026706Y032905D01*
X026967Y032905D01*
X027209Y033005D01*
X027394Y033190D01*
X027494Y033432D01*
X027494Y033693D01*
X027337Y033992D02*
X027337Y036004D01*
X026837Y036004D02*
X026837Y034220D01*
X027106Y034163D02*
X033567Y034163D01*
X033837Y034220D02*
X033837Y036004D01*
X034337Y036004D02*
X034337Y033992D01*
X034106Y034163D02*
X040567Y034163D01*
X040464Y034120D02*
X040279Y033935D01*
X040179Y033693D01*
X040179Y033432D01*
X040279Y033190D01*
X040464Y033005D01*
X040706Y032905D01*
X040967Y032905D01*
X041209Y033005D01*
X041394Y033190D01*
X041494Y033432D01*
X041494Y033693D01*
X041394Y033935D01*
X041209Y034120D01*
X040967Y034220D01*
X040706Y034220D01*
X040464Y034120D01*
X040337Y033992D02*
X040337Y036004D01*
X040837Y036004D02*
X040837Y034220D01*
X041106Y034163D02*
X044802Y034163D01*
X044802Y033663D02*
X041494Y033663D01*
X041337Y033992D02*
X041337Y036004D01*
X042837Y036004D02*
X042837Y006003D01*
X043062Y006248D02*
X043337Y006362D01*
X044802Y008663D02*
X039556Y008663D01*
X039337Y009055D02*
X039337Y010184D01*
X039229Y009163D02*
X044802Y009163D01*
X044802Y012663D02*
X037055Y012663D01*
X036837Y012444D02*
X036837Y011447D01*
X036837Y012981D02*
X036837Y024373D01*
X037337Y024373D02*
X037337Y024176D01*
X037323Y024163D02*
X028705Y024163D01*
X026837Y025605D02*
X026837Y027594D01*
X026768Y027663D02*
X026097Y027663D01*
X025837Y027914D02*
X025837Y028011D01*
X025820Y028163D02*
X025723Y028163D01*
X025837Y028309D02*
X025837Y028594D01*
X025768Y028663D02*
X020105Y028663D01*
X020337Y028823D02*
X020337Y028431D01*
X020605Y028163D02*
X022535Y028163D01*
X023337Y028319D02*
X023337Y028823D01*
X023337Y029202D02*
X023337Y036004D01*
X023837Y036004D02*
X023837Y029202D01*
X023837Y028823D02*
X023837Y028316D01*
X023898Y028163D02*
X024775Y028163D01*
X024837Y028266D02*
X024837Y028823D01*
X024837Y029202D02*
X024837Y036004D01*
X025337Y036004D02*
X025337Y029202D01*
X025337Y028823D02*
X025337Y028269D01*
X024833Y027663D02*
X023783Y027663D01*
X023837Y027709D02*
X023837Y027416D01*
X023974Y027163D02*
X024699Y027163D01*
X024837Y027416D02*
X024837Y027659D01*
X026138Y028163D02*
X026268Y028163D01*
X026337Y028094D02*
X026337Y025526D01*
X024567Y026663D02*
X023974Y026663D01*
X024337Y026432D02*
X024337Y028823D01*
X024337Y029202D02*
X024337Y036004D01*
X025837Y036004D02*
X025837Y029131D01*
X025805Y029163D02*
X038247Y029163D01*
X038337Y029381D02*
X038337Y036004D01*
X038837Y036004D02*
X038837Y029881D01*
X038618Y029663D02*
X019105Y029663D01*
X019337Y029431D02*
X019337Y030133D01*
X019307Y030163D02*
X018605Y030163D01*
X018837Y029931D02*
X018837Y036004D01*
X019337Y036004D02*
X019337Y033992D01*
X019279Y033935D02*
X019179Y033693D01*
X019179Y033432D01*
X019279Y033190D01*
X019464Y033005D01*
X019706Y032905D01*
X019967Y032905D01*
X020209Y033005D01*
X020394Y033190D01*
X020494Y033432D01*
X020494Y033693D01*
X020394Y033935D01*
X020209Y034120D01*
X019967Y034220D01*
X019706Y034220D01*
X019464Y034120D01*
X019279Y033935D01*
X019179Y033663D02*
X015498Y033663D01*
X015337Y033969D02*
X015337Y036004D01*
X014837Y036004D02*
X014837Y034252D01*
X014940Y034163D02*
X019567Y034163D01*
X019837Y034220D02*
X019837Y036004D01*
X020337Y036004D02*
X020337Y033992D01*
X020106Y034163D02*
X026567Y034163D01*
X026337Y033992D02*
X026337Y036004D01*
X026179Y033663D02*
X020494Y033663D01*
X020366Y033163D02*
X026307Y033163D01*
X026337Y033133D02*
X026337Y030992D01*
X026279Y030935D02*
X026179Y030693D01*
X026179Y030432D01*
X026279Y030190D01*
X026464Y030005D01*
X026706Y029905D01*
X026967Y029905D01*
X027209Y030005D01*
X027394Y030190D01*
X027494Y030432D01*
X027494Y030693D01*
X027394Y030935D01*
X027209Y031120D01*
X026967Y031220D01*
X026706Y031220D01*
X026464Y031120D01*
X026279Y030935D01*
X026179Y030663D02*
X020494Y030663D01*
X020494Y030693D02*
X020394Y030935D01*
X020209Y031120D01*
X019967Y031220D01*
X019706Y031220D01*
X019464Y031120D01*
X019279Y030935D01*
X019179Y030693D01*
X019179Y030432D01*
X019279Y030190D01*
X019464Y030005D01*
X019706Y029905D01*
X019967Y029905D01*
X020209Y030005D01*
X020394Y030190D01*
X020494Y030432D01*
X020494Y030693D01*
X020337Y030992D02*
X020337Y033133D01*
X019837Y032905D02*
X019837Y031220D01*
X020106Y031163D02*
X026567Y031163D01*
X026837Y031220D02*
X026837Y032905D01*
X027337Y033133D02*
X027337Y030992D01*
X027106Y031163D02*
X033567Y031163D01*
X033464Y031120D02*
X033279Y030935D01*
X033179Y030693D01*
X033179Y030432D01*
X033279Y030190D01*
X033464Y030005D01*
X033706Y029905D01*
X033967Y029905D01*
X034209Y030005D01*
X034394Y030190D01*
X034494Y030432D01*
X034494Y030693D01*
X034394Y030935D01*
X034209Y031120D01*
X033967Y031220D01*
X033706Y031220D01*
X033464Y031120D01*
X033337Y030992D02*
X033337Y033133D01*
X033307Y033163D02*
X027366Y033163D01*
X027494Y030663D02*
X033179Y030663D01*
X033307Y030163D02*
X027366Y030163D01*
X027337Y030133D02*
X027337Y027631D01*
X027305Y027663D02*
X038247Y027663D01*
X038337Y027494D02*
X038337Y027176D01*
X038350Y027163D02*
X038903Y027163D01*
X038837Y027152D02*
X038837Y027173D01*
X038837Y027552D02*
X038837Y029344D01*
X039015Y029523D02*
X040858Y029523D01*
X041247Y029134D01*
X041247Y025541D01*
X040458Y024752D01*
X040345Y024752D01*
X041015Y025423D01*
X041126Y025534D01*
X041126Y027684D01*
X041126Y027841D01*
X040676Y028291D01*
X040565Y028402D01*
X039704Y028402D01*
X039704Y028444D01*
X039691Y028458D01*
X039704Y028471D01*
X039704Y028877D01*
X039640Y028942D01*
X038958Y028942D01*
X038894Y028877D01*
X038894Y028471D01*
X038907Y028458D01*
X038894Y028444D01*
X038894Y028038D01*
X038936Y027996D01*
X038933Y027985D01*
X038933Y027837D01*
X039349Y027837D01*
X039349Y027779D01*
X038933Y027779D01*
X038933Y027631D01*
X038936Y027620D01*
X038894Y027578D01*
X038894Y027552D01*
X038815Y027552D01*
X038626Y027741D01*
X038626Y029134D01*
X039015Y029523D01*
X039337Y029523D02*
X039337Y028942D01*
X039704Y028663D02*
X039905Y028663D01*
X039907Y028652D02*
X039927Y028618D01*
X039955Y028590D01*
X039989Y028570D01*
X040027Y028560D01*
X040371Y028560D01*
X040371Y028935D01*
X040471Y028935D01*
X040471Y028560D01*
X040815Y028560D01*
X040853Y028570D01*
X040887Y028590D01*
X040915Y028618D01*
X040935Y028652D01*
X040945Y028690D01*
X040945Y028935D01*
X040471Y028935D01*
X040471Y029035D01*
X040945Y029035D01*
X040945Y029281D01*
X040935Y029319D01*
X040915Y029353D01*
X040887Y029381D01*
X040853Y029401D01*
X040815Y029411D01*
X040471Y029411D01*
X040471Y029035D01*
X040371Y029035D01*
X040371Y028935D01*
X039897Y028935D01*
X039897Y028690D01*
X039907Y028652D01*
X039837Y028402D02*
X039837Y029523D01*
X039955Y029381D02*
X039927Y029353D01*
X039907Y029319D01*
X039897Y029281D01*
X039897Y029035D01*
X040371Y029035D01*
X040371Y029411D01*
X040027Y029411D01*
X039989Y029401D01*
X039955Y029381D01*
X039897Y029163D02*
X038655Y029163D01*
X038626Y028663D02*
X038894Y028663D01*
X038894Y028163D02*
X038626Y028163D01*
X038247Y028163D02*
X035630Y028163D01*
X035630Y027956D02*
X035630Y028755D01*
X035565Y028820D01*
X034923Y028820D01*
X034858Y028755D01*
X034858Y027956D01*
X034923Y027891D01*
X035565Y027891D01*
X035630Y027956D01*
X035337Y027891D02*
X035337Y027152D01*
X035337Y026773D02*
X035337Y026576D01*
X035630Y026163D02*
X038218Y026163D01*
X038337Y026202D02*
X038337Y026749D01*
X038220Y026663D02*
X038894Y026663D01*
X038837Y026773D02*
X038837Y026343D01*
X039747Y026702D02*
X039783Y026739D01*
X039783Y027145D01*
X039719Y027209D01*
X039704Y027209D01*
X039704Y027504D01*
X039731Y027511D01*
X039765Y027531D01*
X039793Y027559D01*
X039813Y027593D01*
X039823Y027631D01*
X039823Y027779D01*
X039407Y027779D01*
X039407Y027837D01*
X039823Y027837D01*
X039823Y027985D01*
X039813Y028023D01*
X040408Y028023D01*
X040747Y027684D01*
X040747Y025691D01*
X040158Y025102D01*
X040095Y025102D01*
X040365Y025373D01*
X040476Y025484D01*
X040476Y026134D01*
X040476Y026291D01*
X040176Y026591D01*
X040065Y026702D01*
X039747Y026702D01*
X039837Y026702D02*
X039837Y028023D01*
X039823Y027663D02*
X040747Y027663D01*
X041126Y027663D02*
X041247Y027663D01*
X041626Y027663D02*
X044802Y027663D01*
X044802Y028163D02*
X041626Y028163D01*
X041247Y028163D02*
X040805Y028163D01*
X040837Y028131D02*
X040837Y028566D01*
X040938Y028663D02*
X041247Y028663D01*
X041626Y028663D02*
X044802Y028663D01*
X044802Y029163D02*
X041626Y029163D01*
X041218Y029163D02*
X040945Y029163D01*
X040837Y029035D02*
X040837Y028935D01*
X040471Y029163D02*
X040371Y029163D01*
X040337Y029035D02*
X040337Y028935D01*
X040371Y028663D02*
X040471Y028663D01*
X040337Y028560D02*
X040337Y028402D01*
X040337Y028023D02*
X040337Y026431D01*
X040476Y026163D02*
X040747Y026163D01*
X041126Y026163D02*
X041247Y026163D01*
X041626Y026163D02*
X044802Y026163D01*
X044802Y026663D02*
X041626Y026663D01*
X041247Y026663D02*
X041126Y026663D01*
X040747Y026663D02*
X040105Y026663D01*
X039766Y027163D02*
X040747Y027163D01*
X041126Y027163D02*
X041247Y027163D01*
X041626Y027163D02*
X044802Y027163D01*
X044802Y025663D02*
X041626Y025663D01*
X041247Y025663D02*
X041126Y025663D01*
X040718Y025663D02*
X040476Y025663D01*
X040337Y025344D02*
X040337Y025281D01*
X040218Y025163D02*
X040155Y025163D01*
X040755Y025163D02*
X040868Y025163D01*
X040837Y025131D02*
X040837Y025244D01*
X041337Y025094D02*
X041337Y024112D01*
X041317Y024163D02*
X044802Y024163D01*
X044802Y024663D02*
X040905Y024663D01*
X040837Y024594D02*
X040837Y023858D01*
X040837Y023758D02*
X040837Y017420D01*
X041494Y016663D02*
X044802Y016663D01*
X044802Y018163D02*
X037726Y018163D01*
X037347Y018163D02*
X031331Y018163D01*
X032767Y017163D02*
X033307Y017163D01*
X033567Y016163D02*
X029851Y016163D01*
X029691Y017529D02*
X029737Y017579D01*
X032105Y019663D02*
X037347Y019663D01*
X037726Y019663D02*
X044802Y019663D01*
X044802Y020163D02*
X037726Y020163D01*
X037347Y020163D02*
X032276Y020163D01*
X032276Y020663D02*
X037347Y020663D01*
X037726Y020663D02*
X044802Y020663D01*
X040865Y023663D02*
X040765Y023663D01*
X040765Y024163D02*
X040865Y024163D01*
X041405Y025163D02*
X044802Y025163D01*
X040837Y029405D02*
X040837Y029523D01*
X040837Y029902D02*
X040837Y029905D01*
X040967Y029905D02*
X041209Y030005D01*
X041394Y030190D01*
X041494Y030432D01*
X041494Y030693D01*
X041394Y030935D01*
X041209Y031120D01*
X040967Y031220D01*
X040706Y031220D01*
X040464Y031120D01*
X040279Y030935D01*
X040179Y030693D01*
X040179Y030432D01*
X040279Y030190D01*
X040464Y030005D01*
X040706Y029905D01*
X040967Y029905D01*
X041255Y029663D02*
X044802Y029663D01*
X044802Y030163D02*
X041366Y030163D01*
X041337Y030133D02*
X041337Y029581D01*
X040337Y029523D02*
X040337Y029411D01*
X040337Y029902D02*
X040337Y030133D01*
X040307Y030163D02*
X034366Y030163D01*
X034337Y030133D02*
X034337Y027152D01*
X034337Y026773D02*
X034337Y026301D01*
X034837Y026301D02*
X034837Y026773D01*
X034837Y027152D02*
X034837Y036004D01*
X035337Y036004D02*
X035337Y028820D01*
X035630Y028663D02*
X038247Y028663D01*
X038705Y027663D02*
X038933Y027663D01*
X039337Y027779D02*
X039337Y027837D01*
X039337Y029902D02*
X039337Y036004D01*
X039837Y036004D02*
X039837Y029902D01*
X040179Y030663D02*
X034494Y030663D01*
X034337Y030992D02*
X034337Y033133D01*
X034366Y033163D02*
X040307Y033163D01*
X040337Y033133D02*
X040337Y030992D01*
X040567Y031163D02*
X034106Y031163D01*
X033837Y031220D02*
X033837Y032905D01*
X034494Y033663D02*
X040179Y033663D01*
X040837Y032905D02*
X040837Y031220D01*
X041106Y031163D02*
X044802Y031163D01*
X044802Y030663D02*
X041494Y030663D01*
X041337Y030992D02*
X041337Y033133D01*
X041366Y033163D02*
X044802Y033163D01*
X044802Y032663D02*
X016105Y032663D01*
X016337Y032431D02*
X016337Y036004D01*
X016837Y036004D02*
X016837Y031931D01*
X016605Y032163D02*
X044802Y032163D01*
X044802Y031663D02*
X017105Y031663D01*
X017337Y031431D02*
X017337Y036004D01*
X017837Y036004D02*
X017837Y030931D01*
X017605Y031163D02*
X019567Y031163D01*
X019337Y030992D02*
X019337Y033133D01*
X019307Y033163D02*
X015547Y033163D01*
X015837Y032931D02*
X015837Y036004D01*
X014337Y036004D02*
X014337Y034252D01*
X015547Y032663D02*
X015568Y032663D01*
X015837Y032394D02*
X015837Y031981D01*
X015655Y032163D02*
X016068Y032163D01*
X016337Y031894D02*
X016337Y031481D01*
X016155Y031663D02*
X016568Y031663D01*
X016837Y031394D02*
X016837Y030981D01*
X016655Y031163D02*
X017068Y031163D01*
X017337Y030894D02*
X017337Y030481D01*
X017155Y030663D02*
X017568Y030663D01*
X017837Y030394D02*
X017837Y029981D01*
X017655Y030163D02*
X018068Y030163D01*
X018337Y030431D02*
X018337Y036004D01*
X020837Y036004D02*
X020837Y029202D01*
X020837Y028823D02*
X020837Y027931D01*
X020568Y027663D02*
X020165Y027663D01*
X020337Y027506D02*
X020337Y027894D01*
X020068Y028163D02*
X019655Y028163D01*
X019837Y028041D02*
X019837Y028394D01*
X019568Y028663D02*
X019155Y028663D01*
X019337Y028481D02*
X019337Y028894D01*
X019068Y029163D02*
X018655Y029163D01*
X018837Y028981D02*
X018837Y029394D01*
X018568Y029663D02*
X018155Y029663D01*
X018337Y029481D02*
X018337Y029894D01*
X018105Y030663D02*
X019179Y030663D01*
X019837Y029905D02*
X019837Y029202D01*
X020337Y029202D02*
X020337Y030133D01*
X020366Y030163D02*
X026307Y030163D01*
X026337Y030133D02*
X026337Y028631D01*
X026305Y028663D02*
X034858Y028663D01*
X034858Y028163D02*
X026805Y028163D01*
X026837Y028131D02*
X026837Y029905D01*
X029837Y026773D02*
X029837Y026301D01*
X030837Y024373D02*
X030837Y023002D01*
X031337Y023002D02*
X031337Y024373D01*
X033337Y026301D02*
X033337Y026773D01*
X033337Y027152D02*
X033337Y030133D01*
X033837Y029905D02*
X033837Y027152D01*
X033837Y026773D02*
X033837Y026301D01*
X035837Y026773D02*
X035837Y025752D01*
X036337Y025752D02*
X036337Y026773D01*
X036337Y027152D02*
X036337Y036004D01*
X036837Y036004D02*
X036837Y027152D01*
X036837Y026773D02*
X036837Y025752D01*
X035837Y027152D02*
X035837Y036004D01*
X023242Y026663D02*
X023143Y026663D01*
X023337Y026409D02*
X023337Y026062D01*
X022999Y025697D02*
X022999Y025303D01*
X023119Y025303D01*
X023119Y025252D01*
X022915Y025252D01*
X022876Y025291D01*
X022876Y025303D01*
X022989Y025303D01*
X022989Y025697D01*
X022999Y025697D01*
X022999Y025663D02*
X022989Y025663D01*
X022369Y025663D02*
X022359Y025663D01*
X020837Y026552D02*
X020837Y027394D01*
X020815Y027163D02*
X021068Y027163D01*
X020337Y026920D02*
X020337Y026552D01*
X019837Y026552D02*
X019837Y027023D01*
X019337Y027023D02*
X019337Y026552D01*
X017736Y025163D02*
X017637Y025163D01*
X017337Y025199D02*
X017337Y025373D01*
X017300Y025163D02*
X017016Y025163D01*
X016837Y025322D02*
X016837Y025373D01*
X017337Y024962D02*
X017337Y024863D01*
X017300Y024663D02*
X017016Y024663D01*
X016837Y024503D02*
X016837Y024331D01*
X017337Y024602D02*
X017337Y024626D01*
X016037Y026113D02*
X015337Y025413D01*
X014637Y025413D01*
X014850Y025663D02*
X015360Y025663D01*
X015337Y025639D02*
X015337Y025843D01*
X015606Y026163D02*
X015860Y026163D01*
X015837Y026139D02*
X015837Y026199D01*
X015337Y026582D02*
X015337Y026843D01*
X014867Y027163D02*
X012934Y027163D01*
X012837Y027138D02*
X012837Y023310D01*
X012984Y023163D02*
X013887Y023163D01*
X014337Y023631D02*
X014337Y025279D01*
X014423Y025163D02*
X010984Y025163D01*
X010837Y025310D02*
X010837Y027138D01*
X010837Y027487D02*
X010837Y028179D01*
X011132Y028663D02*
X011361Y028663D01*
X011352Y028639D02*
X011352Y028486D01*
X011410Y028344D01*
X011518Y028236D01*
X011660Y028178D01*
X011813Y028178D01*
X011955Y028236D01*
X012063Y028344D01*
X012121Y028486D01*
X012121Y028639D01*
X012063Y028781D01*
X011955Y028889D01*
X011813Y028947D01*
X011660Y028947D01*
X011518Y028889D01*
X011410Y028781D01*
X011352Y028639D01*
X011837Y028938D02*
X011837Y029238D01*
X012337Y029238D02*
X012337Y028651D01*
X012341Y028663D02*
X012112Y028663D01*
X012337Y028474D02*
X012337Y027487D01*
X012337Y027138D02*
X012337Y023810D01*
X012484Y023663D02*
X014368Y023663D01*
X014837Y024131D02*
X014837Y025149D01*
X014851Y025163D02*
X015023Y025163D01*
X014837Y025676D02*
X014837Y025909D01*
X014837Y026516D02*
X014837Y028051D01*
X015337Y028051D02*
X015337Y027582D01*
X014337Y028051D02*
X014337Y026539D01*
X014227Y028163D02*
X013661Y028163D01*
X011837Y028187D02*
X011837Y027487D01*
X011837Y027138D02*
X011837Y024310D01*
X011984Y024163D02*
X014868Y024163D01*
X010989Y024663D02*
X010088Y024663D01*
X009837Y024930D02*
X009837Y025238D01*
X010337Y025587D02*
X010337Y027138D01*
X010337Y027487D02*
X010337Y029238D01*
X009837Y029238D02*
X009837Y027487D01*
X009337Y027619D02*
X009337Y029238D01*
X008837Y029238D02*
X008837Y027659D01*
X008703Y027659D02*
X008516Y027659D01*
X008477Y027649D01*
X008443Y027629D01*
X008415Y027601D01*
X008396Y027567D01*
X008385Y027529D01*
X008385Y027361D01*
X008703Y027361D01*
X008703Y027659D01*
X008703Y027163D02*
X008800Y027163D01*
X008837Y026966D02*
X008837Y026887D01*
X009055Y026663D02*
X009094Y026663D01*
X009337Y026709D02*
X009337Y026710D01*
X009337Y026927D02*
X009337Y027006D01*
X008837Y026512D02*
X008837Y026513D01*
X008567Y026663D02*
X007976Y026663D01*
X007597Y026663D02*
X005642Y026663D01*
X005577Y026771D02*
X005642Y026835D01*
X005642Y027438D01*
X005577Y027502D01*
X004896Y027502D01*
X004831Y027438D01*
X004831Y027402D01*
X004606Y027402D01*
X004606Y027518D01*
X004542Y027582D01*
X003931Y027582D01*
X003867Y027518D01*
X003867Y026907D01*
X003931Y026843D01*
X004542Y026843D01*
X004606Y026907D01*
X004606Y027023D01*
X004831Y027023D01*
X004831Y026835D01*
X004896Y026771D01*
X005577Y026771D01*
X005337Y026754D02*
X005337Y026771D01*
X005642Y027163D02*
X007458Y027163D01*
X007837Y027491D02*
X007837Y029238D01*
X008337Y029238D02*
X008337Y026452D01*
X008385Y027163D02*
X008115Y027163D01*
X007439Y026163D02*
X005642Y026163D01*
X005337Y026023D02*
X005337Y025887D01*
X005139Y026023D02*
X005139Y026023D01*
X004837Y026023D02*
X004837Y025887D01*
X004831Y026663D02*
X003411Y026663D01*
X003411Y027163D02*
X003867Y027163D01*
X004337Y026843D02*
X004337Y026582D01*
X004837Y026695D02*
X004837Y026830D01*
X004837Y027443D02*
X004837Y029238D01*
X005337Y029238D02*
X005337Y027502D01*
X004337Y027582D02*
X004337Y029238D01*
X005837Y029238D02*
X005837Y025887D01*
X006337Y025887D02*
X006337Y029238D01*
X006837Y029238D02*
X006837Y025887D01*
X007337Y026060D02*
X007337Y029238D01*
X005337Y030537D02*
X005337Y036004D01*
X005837Y036004D02*
X005837Y034276D01*
X004837Y036004D02*
X004837Y030537D01*
X004337Y030537D02*
X004337Y036004D01*
X001991Y032700D02*
X001991Y032700D01*
X001991Y032672D02*
X001991Y032672D01*
X001337Y032406D02*
X001337Y031285D01*
X000991Y031663D02*
X010637Y031663D01*
X010826Y032163D02*
X000991Y032163D01*
X002187Y028794D02*
X002114Y028757D01*
X002048Y028709D01*
X001990Y028651D01*
X001942Y028585D01*
X001905Y028512D01*
X001879Y028434D01*
X001868Y028362D01*
X002336Y028362D01*
X002336Y028263D01*
X002337Y028363D02*
X002337Y028831D01*
X002265Y028820D01*
X002187Y028794D01*
X002337Y028663D02*
X002436Y028663D01*
X002772Y028663D02*
X002812Y028663D01*
X002436Y028163D02*
X002337Y028163D01*
X001888Y028163D02*
X000991Y028163D01*
X000991Y028663D02*
X002001Y028663D01*
X001958Y027663D02*
X000991Y027663D01*
X002337Y026833D02*
X002337Y026792D01*
X002715Y026663D02*
X002812Y026663D01*
X002812Y027163D02*
X002744Y027163D01*
X003411Y026163D02*
X003867Y026163D01*
X001929Y026163D02*
X000991Y026163D01*
X007514Y023260D02*
X007514Y023260D01*
X008037Y024013D02*
X008000Y024049D01*
X008000Y024663D01*
X009837Y024395D02*
X009837Y020402D01*
X009837Y020023D02*
X009837Y019402D01*
X009837Y019023D02*
X009837Y008002D01*
X010337Y008002D02*
X010337Y019023D01*
X010337Y019402D02*
X010337Y020023D01*
X010837Y020023D02*
X010837Y019402D01*
X010837Y019023D02*
X010837Y008002D01*
X017255Y007163D02*
X017572Y007163D01*
X017337Y007244D02*
X017337Y006929D01*
X017837Y007425D02*
X017837Y007744D01*
X017755Y007663D02*
X018076Y007663D01*
X018337Y007921D02*
X018337Y008244D01*
X018255Y008163D02*
X018580Y008163D01*
X018837Y008417D02*
X018837Y008744D01*
X018755Y008663D02*
X019084Y008663D01*
X019337Y008913D02*
X019337Y009244D01*
X019255Y009163D02*
X019588Y009163D01*
X019837Y009409D02*
X019837Y009744D01*
X019755Y009663D02*
X020092Y009663D01*
X020337Y009905D02*
X020337Y010244D01*
X020255Y010163D02*
X020596Y010163D01*
X020837Y010401D02*
X020837Y010744D01*
X020755Y010663D02*
X021100Y010663D01*
X021337Y010897D02*
X021337Y011244D01*
X021255Y011163D02*
X021604Y011163D01*
X021837Y011393D02*
X021837Y011744D01*
X021755Y011663D02*
X022108Y011663D01*
X022337Y011889D02*
X022337Y012244D01*
X022255Y012163D02*
X022612Y012163D01*
X022337Y011354D02*
X022337Y004317D01*
X029837Y004317D02*
X029837Y004784D01*
X030337Y004825D02*
X030337Y004317D01*
X030837Y004317D02*
X030837Y008573D01*
X030837Y008952D02*
X030837Y009755D01*
X031337Y009933D02*
X031337Y008952D01*
X031337Y008573D02*
X031337Y004317D01*
X033337Y005494D02*
X033337Y005594D01*
X033837Y005594D02*
X033837Y005494D01*
X034197Y005663D02*
X034296Y005663D01*
X034337Y005594D02*
X034337Y005494D01*
X034296Y005163D02*
X034197Y005163D01*
X034837Y004787D02*
X034837Y004317D01*
X040837Y007757D02*
X040837Y013105D01*
X041106Y013163D02*
X044802Y013163D01*
X040837Y014420D02*
X040837Y016105D01*
X040567Y016163D02*
X037726Y016163D01*
X037347Y016163D02*
X034106Y016163D01*
X033837Y016105D02*
X033837Y014420D01*
X034337Y014192D02*
X034337Y016333D01*
X034494Y016663D02*
X037347Y016663D01*
X037726Y016663D02*
X040179Y016663D01*
X040337Y016333D02*
X040337Y014192D01*
X040307Y014163D02*
X037726Y014163D01*
X037347Y014163D02*
X034366Y014163D01*
X034106Y013163D02*
X037018Y013163D01*
X037615Y013223D02*
X037615Y013223D01*
X037726Y013663D02*
X040179Y013663D01*
X032894Y012163D02*
X032783Y012163D01*
X028428Y010663D02*
X028326Y010663D01*
X027947Y010663D02*
X027795Y010663D01*
X027837Y010561D02*
X027837Y014257D01*
X026335Y011163D02*
X022144Y011163D01*
X010837Y020402D02*
X010837Y020449D01*
X010837Y021076D02*
X010837Y024815D01*
X002837Y012394D02*
X002837Y011716D01*
X002878Y011663D02*
X004047Y011663D01*
X003867Y012163D02*
X002605Y012163D01*
X002337Y011894D02*
X002337Y011739D01*
X002264Y011663D02*
X002209Y011663D01*
X001595Y011663D02*
X000991Y011663D01*
X004337Y009843D02*
X004337Y009582D01*
D48*
X028121Y015513D02*
X028121Y015718D01*
X028982Y017529D02*
X028982Y017717D01*
X028737Y017963D01*
X028562Y017963D01*
M02*
