G75*
G70*
%OFA0B0*%
%FSLAX24Y24*%
%IPPOS*%
%LPD*%
%AMOC8*
5,1,8,0,0,1.08239X$1,22.5*
%
%ADD10C,0.0010*%
%ADD11C,0.0040*%
%ADD12C,0.0060*%
%ADD13C,0.0050*%
%ADD14C,0.0020*%
%ADD15C,0.0030*%
%ADD16C,0.0000*%
%ADD17R,0.0059X0.0118*%
%ADD18R,0.0118X0.0118*%
%ADD19C,0.0080*%
%ADD20C,0.0100*%
%ADD21C,0.0120*%
%ADD22C,0.0031*%
D10*
X000837Y004163D02*
X000837Y032563D01*
X000837Y033513D02*
X000837Y036158D01*
X000837Y036159D02*
X044957Y036159D01*
X044957Y004163D01*
X000837Y004163D01*
D11*
X001706Y004883D02*
X001706Y005113D01*
X001783Y005189D01*
X001936Y005189D01*
X002013Y005113D01*
X002013Y004883D01*
X002167Y004883D02*
X001706Y004883D01*
X001936Y005343D02*
X002090Y005343D01*
X002167Y005420D01*
X002167Y005573D01*
X002090Y005650D01*
X001936Y005650D01*
X001860Y005573D01*
X001860Y005420D01*
X001936Y005343D01*
X001860Y005803D02*
X002090Y005803D01*
X002167Y005880D01*
X002090Y005957D01*
X002167Y006033D01*
X002090Y006110D01*
X001860Y006110D01*
X001936Y006264D02*
X001860Y006340D01*
X001860Y006494D01*
X001936Y006570D01*
X002013Y006570D01*
X002013Y006264D01*
X002090Y006264D02*
X001936Y006264D01*
X002090Y006264D02*
X002167Y006340D01*
X002167Y006494D01*
X002167Y006724D02*
X001860Y006724D01*
X002013Y006724D02*
X001860Y006877D01*
X001860Y006954D01*
X004756Y007463D02*
X004986Y007233D01*
X004986Y007539D01*
X004833Y007693D02*
X004756Y007770D01*
X004756Y007923D01*
X004833Y008000D01*
X005140Y007693D01*
X005217Y007770D01*
X005217Y007923D01*
X005140Y008000D01*
X004833Y008000D01*
X004833Y007693D02*
X005140Y007693D01*
X005217Y007463D02*
X004756Y007463D01*
X002834Y012633D02*
X002834Y013093D01*
X003064Y013093D01*
X003141Y013016D01*
X003141Y012863D01*
X003064Y012786D01*
X002834Y012786D01*
X002681Y012786D02*
X002681Y012709D01*
X002604Y012633D01*
X002450Y012633D01*
X002374Y012709D01*
X002220Y012709D02*
X002144Y012633D01*
X001990Y012633D01*
X001913Y012709D01*
X001913Y013016D01*
X001990Y013093D01*
X002144Y013093D01*
X002220Y013016D01*
X002374Y013016D02*
X002450Y013093D01*
X002604Y013093D01*
X002681Y013016D01*
X002604Y012863D02*
X002681Y012786D01*
X002604Y012863D02*
X002450Y012863D01*
X002374Y012939D01*
X002374Y013016D01*
X001760Y013093D02*
X001607Y013093D01*
X001683Y013093D02*
X001683Y012633D01*
X001607Y012633D02*
X001760Y012633D01*
X006756Y015483D02*
X007217Y015483D01*
X007217Y015789D01*
X007217Y015943D02*
X006910Y015943D01*
X006756Y016096D01*
X006910Y016250D01*
X007217Y016250D01*
X006986Y016250D02*
X006986Y015943D01*
X006756Y015789D02*
X006756Y015483D01*
X006986Y015483D02*
X006986Y015636D01*
X006756Y016864D02*
X006756Y017094D01*
X006833Y017170D01*
X007140Y017170D01*
X007217Y017094D01*
X007217Y016864D01*
X006756Y016864D01*
X006833Y017324D02*
X006756Y017401D01*
X006756Y017554D01*
X006833Y017631D01*
X007140Y017631D01*
X007217Y017554D01*
X007217Y017401D01*
X007140Y017324D01*
X006833Y017324D01*
X006833Y017784D02*
X007140Y017784D01*
X007217Y017861D01*
X007217Y018014D01*
X007140Y018091D01*
X006986Y018091D01*
X006986Y017938D01*
X006833Y018091D02*
X006756Y018014D01*
X006756Y017861D01*
X006833Y017784D01*
X006756Y018245D02*
X006910Y018398D01*
X006756Y018552D01*
X007217Y018552D01*
X007217Y018245D02*
X006756Y018245D01*
X001567Y018246D02*
X001260Y017939D01*
X001106Y017786D02*
X001106Y017479D01*
X001567Y017479D01*
X001567Y017786D01*
X001567Y017939D02*
X001260Y018246D01*
X001260Y018399D02*
X001260Y018553D01*
X001183Y018476D02*
X001490Y018476D01*
X001567Y018553D01*
X001567Y018706D02*
X001567Y018783D01*
X001490Y018783D01*
X001490Y018706D01*
X001567Y018706D01*
X001106Y019397D02*
X001106Y019704D01*
X001106Y019857D02*
X001567Y019857D01*
X001336Y019857D02*
X001260Y019934D01*
X001260Y020087D01*
X001336Y020164D01*
X001567Y020164D01*
X001490Y020317D02*
X001336Y020317D01*
X001260Y020394D01*
X001260Y020548D01*
X001336Y020624D01*
X001413Y020624D01*
X001413Y020317D01*
X001490Y020317D02*
X001567Y020394D01*
X001567Y020548D01*
X001567Y020778D02*
X001260Y020778D01*
X001413Y020778D02*
X001260Y020931D01*
X001260Y021008D01*
X001260Y021161D02*
X001260Y021238D01*
X001336Y021315D01*
X001260Y021392D01*
X001336Y021468D01*
X001567Y021468D01*
X001567Y021315D02*
X001336Y021315D01*
X001260Y021161D02*
X001567Y021161D01*
X001490Y021622D02*
X001336Y021622D01*
X001260Y021698D01*
X001260Y021852D01*
X001336Y021929D01*
X001490Y021929D01*
X001567Y021852D01*
X001567Y021698D01*
X001490Y021622D01*
X001567Y019550D02*
X001106Y019550D01*
X001336Y017632D02*
X001336Y017479D01*
X001413Y024731D02*
X001413Y024961D01*
X001336Y025037D01*
X001183Y025037D01*
X001106Y024961D01*
X001106Y024731D01*
X001567Y024731D01*
X001413Y024884D02*
X001567Y025037D01*
X001490Y025191D02*
X001567Y025268D01*
X001567Y025421D01*
X001490Y025498D01*
X001413Y025498D01*
X001336Y025421D01*
X001336Y025268D01*
X001260Y025191D01*
X001183Y025191D01*
X001106Y025268D01*
X001106Y025421D01*
X001183Y025498D01*
X001183Y025651D02*
X001106Y025728D01*
X001106Y025881D01*
X001183Y025958D01*
X001260Y025958D01*
X001567Y025651D01*
X001567Y025958D01*
X001490Y026112D02*
X001567Y026188D01*
X001567Y026342D01*
X001490Y026419D01*
X001413Y026419D01*
X001336Y026342D01*
X001336Y026265D01*
X001336Y026342D02*
X001260Y026419D01*
X001183Y026419D01*
X001106Y026342D01*
X001106Y026188D01*
X001183Y026112D01*
X001183Y026572D02*
X001106Y026649D01*
X001106Y026802D01*
X001183Y026879D01*
X001260Y026879D01*
X001567Y026572D01*
X001567Y026879D01*
X004756Y027559D02*
X004833Y027483D01*
X004756Y027559D02*
X004756Y027713D01*
X004833Y027789D01*
X004910Y027789D01*
X005217Y027483D01*
X005217Y027789D01*
X005217Y027943D02*
X005217Y028250D01*
X005217Y028096D02*
X004756Y028096D01*
X004910Y027943D01*
X011006Y032559D02*
X011006Y032713D01*
X011083Y032789D01*
X011236Y032789D02*
X011236Y032636D01*
X011236Y032789D02*
X011390Y032789D01*
X011467Y032713D01*
X011467Y032559D01*
X011390Y032483D01*
X011083Y032483D01*
X011006Y032559D01*
X011006Y032943D02*
X011006Y033173D01*
X011083Y033250D01*
X011236Y033250D01*
X011313Y033173D01*
X011313Y032943D01*
X011467Y032943D02*
X011006Y032943D01*
X011083Y033403D02*
X011160Y033403D01*
X011236Y033480D01*
X011236Y033633D01*
X011313Y033710D01*
X011390Y033710D01*
X011467Y033633D01*
X011467Y033480D01*
X011390Y033403D01*
X011083Y033403D02*
X011006Y033480D01*
X011006Y033633D01*
X011083Y033710D01*
X014333Y028250D02*
X014640Y027943D01*
X014717Y028020D01*
X014717Y028173D01*
X014640Y028250D01*
X014333Y028250D01*
X014256Y028173D01*
X014256Y028020D01*
X014333Y027943D01*
X014640Y027943D01*
X014717Y027789D02*
X014717Y027483D01*
X014410Y027789D01*
X014333Y027789D01*
X014256Y027713D01*
X014256Y027559D01*
X014333Y027483D01*
X014717Y007789D02*
X014717Y007483D01*
X014717Y007636D02*
X014256Y007636D01*
X014410Y007483D01*
X031906Y007068D02*
X031906Y006914D01*
X031906Y006991D02*
X032367Y006991D01*
X032367Y006914D02*
X032367Y007068D01*
X032367Y007221D02*
X032060Y007221D01*
X032060Y007451D01*
X032136Y007528D01*
X032367Y007528D01*
X032060Y006301D02*
X032060Y006224D01*
X032213Y006070D01*
X032213Y005917D02*
X032213Y005687D01*
X032290Y005610D01*
X032367Y005687D01*
X032367Y005917D01*
X032136Y005917D01*
X032060Y005840D01*
X032060Y005687D01*
X031906Y005380D02*
X032367Y005380D01*
X032367Y005303D02*
X032367Y005457D01*
X032290Y005150D02*
X032136Y005150D01*
X032060Y005073D01*
X032060Y004920D01*
X032136Y004843D01*
X032290Y004843D01*
X032367Y004920D01*
X032367Y005073D01*
X032290Y005150D01*
X031906Y005303D02*
X031906Y005380D01*
X031983Y004689D02*
X031906Y004613D01*
X031906Y004459D01*
X031983Y004383D01*
X032060Y004383D01*
X032136Y004459D01*
X032136Y004613D01*
X032213Y004689D01*
X032290Y004689D01*
X032367Y004613D01*
X032367Y004459D01*
X032290Y004383D01*
X032367Y006070D02*
X032060Y006070D01*
X036283Y006197D02*
X036590Y006197D01*
X036436Y006044D02*
X036436Y006351D01*
X036360Y005430D02*
X036360Y005353D01*
X036513Y005200D01*
X036360Y005200D02*
X036667Y005200D01*
X036667Y005046D02*
X036590Y004970D01*
X036283Y004970D01*
X036360Y004893D02*
X036360Y005046D01*
X036283Y004739D02*
X036206Y004663D01*
X036206Y004509D01*
X036283Y004433D01*
X036590Y004433D01*
X036667Y004509D01*
X036667Y004663D01*
X036590Y004739D01*
X040506Y004613D02*
X040506Y004383D01*
X040967Y004383D01*
X040967Y004613D01*
X040890Y004689D01*
X040583Y004689D01*
X040506Y004613D01*
X040583Y004843D02*
X040890Y004843D01*
X040967Y004920D01*
X040967Y005073D01*
X040890Y005150D01*
X040583Y005150D02*
X040506Y005073D01*
X040506Y004920D01*
X040583Y004843D01*
X041156Y004613D02*
X041233Y004689D01*
X041310Y004689D01*
X041386Y004613D01*
X041463Y004689D01*
X041540Y004689D01*
X041617Y004613D01*
X041617Y004459D01*
X041540Y004383D01*
X041386Y004536D02*
X041386Y004613D01*
X041156Y004613D02*
X041156Y004459D01*
X041233Y004383D01*
X041540Y004843D02*
X041540Y004920D01*
X041617Y004920D01*
X041617Y004843D01*
X041540Y004843D01*
X041540Y005073D02*
X041617Y005150D01*
X041617Y005303D01*
X041540Y005380D01*
X041463Y005380D01*
X041386Y005303D01*
X041386Y005073D01*
X041540Y005073D01*
X041386Y005073D02*
X041233Y005226D01*
X041156Y005380D01*
X041386Y005533D02*
X041386Y005840D01*
X041310Y005994D02*
X041156Y006147D01*
X041617Y006147D01*
X041617Y005994D02*
X041617Y006301D01*
X041540Y006454D02*
X041233Y006761D01*
X041540Y006761D01*
X041617Y006684D01*
X041617Y006531D01*
X041540Y006454D01*
X041233Y006454D01*
X041156Y006531D01*
X041156Y006684D01*
X041233Y006761D01*
X041156Y006914D02*
X041463Y006914D01*
X041617Y007068D01*
X041463Y007221D01*
X041156Y007221D01*
X041156Y007375D02*
X041156Y007605D01*
X041233Y007682D01*
X041540Y007682D01*
X041617Y007605D01*
X041617Y007375D01*
X041156Y007375D01*
X041233Y007835D02*
X041540Y007835D01*
X041617Y007912D01*
X041617Y008065D01*
X041540Y008142D01*
X041233Y008142D02*
X041156Y008065D01*
X041156Y007912D01*
X041233Y007835D01*
X040967Y006377D02*
X040736Y006377D01*
X040660Y006301D01*
X040660Y006070D01*
X040967Y006070D01*
X040967Y005917D02*
X040967Y005764D01*
X040967Y005840D02*
X040506Y005840D01*
X040506Y005764D02*
X040506Y005917D01*
D12*
X030615Y011670D02*
X030508Y011670D01*
X030295Y011456D01*
X030295Y011243D02*
X030295Y011670D01*
X030077Y011563D02*
X030077Y011456D01*
X029650Y011456D01*
X029650Y011349D02*
X029650Y011563D01*
X029757Y011670D01*
X029970Y011670D01*
X030077Y011563D01*
X029970Y011243D02*
X029757Y011243D01*
X029650Y011349D01*
X029433Y011349D02*
X029433Y011670D01*
X029433Y011349D02*
X029326Y011243D01*
X029219Y011349D01*
X029112Y011243D01*
X029006Y011349D01*
X029006Y011670D01*
X028788Y011563D02*
X028681Y011670D01*
X028468Y011670D01*
X028361Y011563D01*
X028361Y011349D01*
X028468Y011243D01*
X028681Y011243D01*
X028788Y011349D01*
X028788Y011563D01*
X028144Y011563D02*
X028144Y011776D01*
X028037Y011883D01*
X027717Y011883D01*
X027717Y011243D01*
X027717Y011456D02*
X028037Y011456D01*
X028144Y011563D01*
X015087Y005863D02*
X015087Y005263D01*
X014987Y005263D01*
X014987Y005163D01*
X014987Y005863D02*
X014987Y005963D01*
X014987Y005863D02*
X015087Y005863D01*
X014637Y006763D02*
X014287Y006763D01*
X013287Y006763D01*
X012937Y006763D01*
X012587Y005963D02*
X012587Y005863D01*
X012487Y005863D01*
X012487Y005263D01*
X012587Y005263D01*
X012587Y005163D01*
X012937Y004363D02*
X013287Y004363D01*
X014237Y004363D01*
X014637Y004363D01*
X013687Y005563D02*
X013689Y005583D01*
X013695Y005601D01*
X013704Y005619D01*
X013716Y005634D01*
X013731Y005646D01*
X013749Y005655D01*
X013767Y005661D01*
X013787Y005663D01*
X013807Y005661D01*
X013825Y005655D01*
X013843Y005646D01*
X013858Y005634D01*
X013870Y005619D01*
X013879Y005601D01*
X013885Y005583D01*
X013887Y005563D01*
X013885Y005543D01*
X013879Y005525D01*
X013870Y005507D01*
X013858Y005492D01*
X013843Y005480D01*
X013825Y005471D01*
X013807Y005465D01*
X013787Y005463D01*
X013767Y005465D01*
X013749Y005471D01*
X013731Y005480D01*
X013716Y005492D01*
X013704Y005507D01*
X013695Y005525D01*
X013689Y005543D01*
X013687Y005563D01*
X013087Y005563D02*
X013089Y005615D01*
X013095Y005667D01*
X013105Y005719D01*
X013118Y005769D01*
X013135Y005819D01*
X013156Y005867D01*
X013181Y005913D01*
X013209Y005957D01*
X013240Y005999D01*
X013274Y006039D01*
X013311Y006076D01*
X013351Y006110D01*
X013393Y006141D01*
X013437Y006169D01*
X013483Y006194D01*
X013531Y006215D01*
X013581Y006232D01*
X013631Y006245D01*
X013683Y006255D01*
X013735Y006261D01*
X013787Y006263D01*
X013839Y006261D01*
X013891Y006255D01*
X013943Y006245D01*
X013993Y006232D01*
X014043Y006215D01*
X014091Y006194D01*
X014137Y006169D01*
X014181Y006141D01*
X014223Y006110D01*
X014263Y006076D01*
X014300Y006039D01*
X014334Y005999D01*
X014365Y005957D01*
X014393Y005913D01*
X014418Y005867D01*
X014439Y005819D01*
X014456Y005769D01*
X014469Y005719D01*
X014479Y005667D01*
X014485Y005615D01*
X014487Y005563D01*
X014485Y005511D01*
X014479Y005459D01*
X014469Y005407D01*
X014456Y005357D01*
X014439Y005307D01*
X014418Y005259D01*
X014393Y005213D01*
X014365Y005169D01*
X014334Y005127D01*
X014300Y005087D01*
X014263Y005050D01*
X014223Y005016D01*
X014181Y004985D01*
X014137Y004957D01*
X014091Y004932D01*
X014043Y004911D01*
X013993Y004894D01*
X013943Y004881D01*
X013891Y004871D01*
X013839Y004865D01*
X013787Y004863D01*
X013735Y004865D01*
X013683Y004871D01*
X013631Y004881D01*
X013581Y004894D01*
X013531Y004911D01*
X013483Y004932D01*
X013437Y004957D01*
X013393Y004985D01*
X013351Y005016D01*
X013311Y005050D01*
X013274Y005087D01*
X013240Y005127D01*
X013209Y005169D01*
X013181Y005213D01*
X013156Y005259D01*
X013135Y005307D01*
X013118Y005357D01*
X013105Y005407D01*
X013095Y005459D01*
X013089Y005511D01*
X013087Y005563D01*
X011187Y005263D02*
X011187Y005863D01*
X011087Y005863D01*
X011087Y005963D01*
X011087Y005263D02*
X011087Y005163D01*
X011087Y005263D02*
X011187Y005263D01*
X010737Y004363D02*
X010337Y004363D01*
X009387Y004363D01*
X009037Y004363D01*
X008687Y005163D02*
X008687Y005263D01*
X008587Y005263D01*
X008587Y005863D01*
X008687Y005863D01*
X008687Y005963D01*
X009037Y006763D02*
X009387Y006763D01*
X010387Y006763D01*
X010737Y006763D01*
X009787Y005563D02*
X009789Y005583D01*
X009795Y005601D01*
X009804Y005619D01*
X009816Y005634D01*
X009831Y005646D01*
X009849Y005655D01*
X009867Y005661D01*
X009887Y005663D01*
X009907Y005661D01*
X009925Y005655D01*
X009943Y005646D01*
X009958Y005634D01*
X009970Y005619D01*
X009979Y005601D01*
X009985Y005583D01*
X009987Y005563D01*
X009985Y005543D01*
X009979Y005525D01*
X009970Y005507D01*
X009958Y005492D01*
X009943Y005480D01*
X009925Y005471D01*
X009907Y005465D01*
X009887Y005463D01*
X009867Y005465D01*
X009849Y005471D01*
X009831Y005480D01*
X009816Y005492D01*
X009804Y005507D01*
X009795Y005525D01*
X009789Y005543D01*
X009787Y005563D01*
X009187Y005563D02*
X009189Y005615D01*
X009195Y005667D01*
X009205Y005719D01*
X009218Y005769D01*
X009235Y005819D01*
X009256Y005867D01*
X009281Y005913D01*
X009309Y005957D01*
X009340Y005999D01*
X009374Y006039D01*
X009411Y006076D01*
X009451Y006110D01*
X009493Y006141D01*
X009537Y006169D01*
X009583Y006194D01*
X009631Y006215D01*
X009681Y006232D01*
X009731Y006245D01*
X009783Y006255D01*
X009835Y006261D01*
X009887Y006263D01*
X009939Y006261D01*
X009991Y006255D01*
X010043Y006245D01*
X010093Y006232D01*
X010143Y006215D01*
X010191Y006194D01*
X010237Y006169D01*
X010281Y006141D01*
X010323Y006110D01*
X010363Y006076D01*
X010400Y006039D01*
X010434Y005999D01*
X010465Y005957D01*
X010493Y005913D01*
X010518Y005867D01*
X010539Y005819D01*
X010556Y005769D01*
X010569Y005719D01*
X010579Y005667D01*
X010585Y005615D01*
X010587Y005563D01*
X010585Y005511D01*
X010579Y005459D01*
X010569Y005407D01*
X010556Y005357D01*
X010539Y005307D01*
X010518Y005259D01*
X010493Y005213D01*
X010465Y005169D01*
X010434Y005127D01*
X010400Y005087D01*
X010363Y005050D01*
X010323Y005016D01*
X010281Y004985D01*
X010237Y004957D01*
X010191Y004932D01*
X010143Y004911D01*
X010093Y004894D01*
X010043Y004881D01*
X009991Y004871D01*
X009939Y004865D01*
X009887Y004863D01*
X009835Y004865D01*
X009783Y004871D01*
X009731Y004881D01*
X009681Y004894D01*
X009631Y004911D01*
X009583Y004932D01*
X009537Y004957D01*
X009493Y004985D01*
X009451Y005016D01*
X009411Y005050D01*
X009374Y005087D01*
X009340Y005127D01*
X009309Y005169D01*
X009281Y005213D01*
X009256Y005259D01*
X009235Y005307D01*
X009218Y005357D01*
X009205Y005407D01*
X009195Y005459D01*
X009189Y005511D01*
X009187Y005563D01*
X007287Y005263D02*
X007287Y005863D01*
X007187Y005863D01*
X007187Y005963D01*
X007187Y005263D02*
X007187Y005163D01*
X007187Y005263D02*
X007287Y005263D01*
X006837Y004363D02*
X006437Y004363D01*
X005487Y004363D01*
X005137Y004363D01*
X004787Y005163D02*
X004787Y005263D01*
X004687Y005263D01*
X004687Y005863D01*
X004787Y005863D01*
X004787Y005963D01*
X005137Y006763D02*
X005487Y006763D01*
X006487Y006763D01*
X006837Y006763D01*
X005887Y005563D02*
X005889Y005583D01*
X005895Y005601D01*
X005904Y005619D01*
X005916Y005634D01*
X005931Y005646D01*
X005949Y005655D01*
X005967Y005661D01*
X005987Y005663D01*
X006007Y005661D01*
X006025Y005655D01*
X006043Y005646D01*
X006058Y005634D01*
X006070Y005619D01*
X006079Y005601D01*
X006085Y005583D01*
X006087Y005563D01*
X006085Y005543D01*
X006079Y005525D01*
X006070Y005507D01*
X006058Y005492D01*
X006043Y005480D01*
X006025Y005471D01*
X006007Y005465D01*
X005987Y005463D01*
X005967Y005465D01*
X005949Y005471D01*
X005931Y005480D01*
X005916Y005492D01*
X005904Y005507D01*
X005895Y005525D01*
X005889Y005543D01*
X005887Y005563D01*
X005287Y005563D02*
X005289Y005615D01*
X005295Y005667D01*
X005305Y005719D01*
X005318Y005769D01*
X005335Y005819D01*
X005356Y005867D01*
X005381Y005913D01*
X005409Y005957D01*
X005440Y005999D01*
X005474Y006039D01*
X005511Y006076D01*
X005551Y006110D01*
X005593Y006141D01*
X005637Y006169D01*
X005683Y006194D01*
X005731Y006215D01*
X005781Y006232D01*
X005831Y006245D01*
X005883Y006255D01*
X005935Y006261D01*
X005987Y006263D01*
X006039Y006261D01*
X006091Y006255D01*
X006143Y006245D01*
X006193Y006232D01*
X006243Y006215D01*
X006291Y006194D01*
X006337Y006169D01*
X006381Y006141D01*
X006423Y006110D01*
X006463Y006076D01*
X006500Y006039D01*
X006534Y005999D01*
X006565Y005957D01*
X006593Y005913D01*
X006618Y005867D01*
X006639Y005819D01*
X006656Y005769D01*
X006669Y005719D01*
X006679Y005667D01*
X006685Y005615D01*
X006687Y005563D01*
X006685Y005511D01*
X006679Y005459D01*
X006669Y005407D01*
X006656Y005357D01*
X006639Y005307D01*
X006618Y005259D01*
X006593Y005213D01*
X006565Y005169D01*
X006534Y005127D01*
X006500Y005087D01*
X006463Y005050D01*
X006423Y005016D01*
X006381Y004985D01*
X006337Y004957D01*
X006291Y004932D01*
X006243Y004911D01*
X006193Y004894D01*
X006143Y004881D01*
X006091Y004871D01*
X006039Y004865D01*
X005987Y004863D01*
X005935Y004865D01*
X005883Y004871D01*
X005831Y004881D01*
X005781Y004894D01*
X005731Y004911D01*
X005683Y004932D01*
X005637Y004957D01*
X005593Y004985D01*
X005551Y005016D01*
X005511Y005050D01*
X005474Y005087D01*
X005440Y005127D01*
X005409Y005169D01*
X005381Y005213D01*
X005356Y005259D01*
X005335Y005307D01*
X005318Y005357D01*
X005305Y005407D01*
X005295Y005459D01*
X005289Y005511D01*
X005287Y005563D01*
X002637Y007913D02*
X002537Y007913D01*
X002537Y007813D01*
X001937Y007813D01*
X001937Y007913D01*
X001837Y007913D01*
X001037Y008263D02*
X001037Y008613D01*
X001037Y009613D01*
X001037Y009963D01*
X001837Y010313D02*
X001937Y010313D01*
X001937Y010413D01*
X002537Y010413D01*
X002537Y010313D01*
X002637Y010313D01*
X003437Y009963D02*
X003437Y009563D01*
X003437Y008613D01*
X003437Y008263D01*
X002137Y009113D02*
X002139Y009133D01*
X002145Y009151D01*
X002154Y009169D01*
X002166Y009184D01*
X002181Y009196D01*
X002199Y009205D01*
X002217Y009211D01*
X002237Y009213D01*
X002257Y009211D01*
X002275Y009205D01*
X002293Y009196D01*
X002308Y009184D01*
X002320Y009169D01*
X002329Y009151D01*
X002335Y009133D01*
X002337Y009113D01*
X002335Y009093D01*
X002329Y009075D01*
X002320Y009057D01*
X002308Y009042D01*
X002293Y009030D01*
X002275Y009021D01*
X002257Y009015D01*
X002237Y009013D01*
X002217Y009015D01*
X002199Y009021D01*
X002181Y009030D01*
X002166Y009042D01*
X002154Y009057D01*
X002145Y009075D01*
X002139Y009093D01*
X002137Y009113D01*
X001537Y009113D02*
X001539Y009165D01*
X001545Y009217D01*
X001555Y009269D01*
X001568Y009319D01*
X001585Y009369D01*
X001606Y009417D01*
X001631Y009463D01*
X001659Y009507D01*
X001690Y009549D01*
X001724Y009589D01*
X001761Y009626D01*
X001801Y009660D01*
X001843Y009691D01*
X001887Y009719D01*
X001933Y009744D01*
X001981Y009765D01*
X002031Y009782D01*
X002081Y009795D01*
X002133Y009805D01*
X002185Y009811D01*
X002237Y009813D01*
X002289Y009811D01*
X002341Y009805D01*
X002393Y009795D01*
X002443Y009782D01*
X002493Y009765D01*
X002541Y009744D01*
X002587Y009719D01*
X002631Y009691D01*
X002673Y009660D01*
X002713Y009626D01*
X002750Y009589D01*
X002784Y009549D01*
X002815Y009507D01*
X002843Y009463D01*
X002868Y009417D01*
X002889Y009369D01*
X002906Y009319D01*
X002919Y009269D01*
X002929Y009217D01*
X002935Y009165D01*
X002937Y009113D01*
X002935Y009061D01*
X002929Y009009D01*
X002919Y008957D01*
X002906Y008907D01*
X002889Y008857D01*
X002868Y008809D01*
X002843Y008763D01*
X002815Y008719D01*
X002784Y008677D01*
X002750Y008637D01*
X002713Y008600D01*
X002673Y008566D01*
X002631Y008535D01*
X002587Y008507D01*
X002541Y008482D01*
X002493Y008461D01*
X002443Y008444D01*
X002393Y008431D01*
X002341Y008421D01*
X002289Y008415D01*
X002237Y008413D01*
X002185Y008415D01*
X002133Y008421D01*
X002081Y008431D01*
X002031Y008444D01*
X001981Y008461D01*
X001933Y008482D01*
X001887Y008507D01*
X001843Y008535D01*
X001801Y008566D01*
X001761Y008600D01*
X001724Y008637D01*
X001690Y008677D01*
X001659Y008719D01*
X001631Y008763D01*
X001606Y008809D01*
X001585Y008857D01*
X001568Y008907D01*
X001555Y008957D01*
X001545Y009009D01*
X001539Y009061D01*
X001537Y009113D01*
D13*
X001429Y011138D02*
X001245Y011321D01*
X001337Y011321D02*
X001062Y011321D01*
X001062Y011138D02*
X001062Y011688D01*
X001337Y011688D01*
X001429Y011596D01*
X001429Y011413D01*
X001337Y011321D01*
X001614Y011321D02*
X001981Y011321D01*
X001981Y011413D01*
X001889Y011504D01*
X001706Y011504D01*
X001614Y011413D01*
X001614Y011229D01*
X001706Y011138D01*
X001889Y011138D01*
X002166Y011138D02*
X002442Y011138D01*
X002533Y011229D01*
X002442Y011321D01*
X002258Y011321D01*
X002166Y011413D01*
X002258Y011504D01*
X002533Y011504D01*
X002719Y011413D02*
X002719Y011229D01*
X002811Y011138D01*
X002994Y011138D01*
X003086Y011321D02*
X002719Y011321D01*
X002719Y011413D02*
X002811Y011504D01*
X002994Y011504D01*
X003086Y011413D01*
X003086Y011321D01*
X003271Y011504D02*
X003455Y011504D01*
X003363Y011596D02*
X003363Y011229D01*
X003455Y011138D01*
X007756Y007661D02*
X013465Y007661D01*
X013465Y027740D01*
X007756Y027740D01*
X007756Y007661D01*
X004410Y006913D02*
X015040Y006913D01*
X015040Y028488D01*
X004410Y028488D01*
X004410Y006913D01*
X003637Y006913D02*
X015837Y006913D01*
X015837Y028513D01*
X003637Y028513D01*
X003637Y006913D01*
X005866Y016638D02*
X006063Y016638D01*
X006063Y017898D01*
X005866Y017898D01*
X005866Y016638D01*
X018962Y005046D02*
X019053Y005138D01*
X019237Y005138D01*
X019329Y005046D01*
X019329Y004863D02*
X019145Y004863D01*
X019329Y004863D02*
X019329Y004679D01*
X019237Y004588D01*
X019053Y004588D01*
X018962Y004679D01*
X018962Y005046D01*
X019514Y005138D02*
X019514Y004588D01*
X019514Y004771D02*
X019789Y004771D01*
X019881Y004863D01*
X019881Y005046D01*
X019789Y005138D01*
X019514Y005138D01*
X019912Y005479D02*
X020003Y005388D01*
X020187Y005388D01*
X020279Y005479D01*
X020464Y005388D02*
X020464Y005938D01*
X020739Y005938D01*
X020831Y005846D01*
X020831Y005663D01*
X020739Y005571D01*
X020464Y005571D01*
X020647Y005571D02*
X020831Y005388D01*
X021016Y005388D02*
X021383Y005754D01*
X021383Y005846D01*
X021292Y005938D01*
X021108Y005938D01*
X021016Y005846D01*
X021569Y005846D02*
X021569Y005479D01*
X021936Y005846D01*
X021936Y005479D01*
X021844Y005388D01*
X021661Y005388D01*
X021569Y005479D01*
X021383Y005388D02*
X021016Y005388D01*
X021171Y005138D02*
X021446Y005138D01*
X021538Y005046D01*
X021538Y004954D01*
X021446Y004863D01*
X021171Y004863D01*
X021171Y004588D02*
X021171Y005138D01*
X021446Y004863D02*
X021538Y004771D01*
X021538Y004679D01*
X021446Y004588D01*
X021171Y004588D01*
X020433Y004679D02*
X020433Y004771D01*
X020342Y004863D01*
X020158Y004863D01*
X020066Y004954D01*
X020066Y005046D01*
X020158Y005138D01*
X020342Y005138D01*
X020433Y005046D01*
X020433Y004679D02*
X020342Y004588D01*
X020158Y004588D01*
X020066Y004679D01*
X019912Y005479D02*
X019912Y005846D01*
X020003Y005938D01*
X020187Y005938D01*
X020279Y005846D01*
X021569Y005846D02*
X021661Y005938D01*
X021844Y005938D01*
X021936Y005846D01*
X022121Y005846D02*
X022213Y005938D01*
X022396Y005938D01*
X022488Y005846D01*
X022488Y005754D01*
X022396Y005663D01*
X022488Y005571D01*
X022488Y005479D01*
X022396Y005388D01*
X022213Y005388D01*
X022121Y005479D01*
X022305Y005663D02*
X022396Y005663D01*
X022674Y005846D02*
X022765Y005938D01*
X022949Y005938D01*
X023041Y005846D01*
X023041Y005754D01*
X022674Y005388D01*
X023041Y005388D01*
X022829Y005138D02*
X022829Y004588D01*
X022829Y004771D02*
X023104Y004954D01*
X023289Y004954D02*
X023289Y004679D01*
X023381Y004588D01*
X023656Y004588D01*
X023656Y004954D01*
X023841Y004954D02*
X024117Y004954D01*
X024208Y004863D01*
X024208Y004679D01*
X024117Y004588D01*
X023841Y004588D01*
X023841Y004404D02*
X023841Y004954D01*
X023104Y004588D02*
X022829Y004771D01*
X022643Y004588D02*
X022368Y004588D01*
X022276Y004679D01*
X022276Y004863D01*
X022368Y004954D01*
X022643Y004954D01*
X022091Y004863D02*
X022091Y004588D01*
X021815Y004588D01*
X021724Y004679D01*
X021815Y004771D01*
X022091Y004771D01*
X022091Y004863D02*
X021999Y004954D01*
X021815Y004954D01*
X026537Y005413D02*
X028037Y005413D01*
X030037Y005413D01*
X030053Y005413D01*
X030053Y002613D01*
X030046Y002613D02*
X028051Y002613D01*
X028051Y005413D01*
X028037Y005413D01*
X028051Y005413D01*
X026537Y005413D02*
X026537Y009413D01*
X031537Y009413D01*
X031537Y005413D01*
X030053Y005413D01*
X029557Y002612D02*
X029557Y000134D01*
X029557Y000133D02*
X028517Y000133D01*
X028520Y000134D02*
X028517Y002599D01*
X028520Y000134D01*
X029037Y009415D02*
X029037Y010403D01*
X030887Y010403D02*
X030887Y009415D01*
X027187Y009415D02*
X027187Y010403D01*
D14*
X017706Y004709D02*
X017612Y004709D01*
X017659Y004756D02*
X017659Y004569D01*
X017706Y004523D01*
X017523Y004569D02*
X017476Y004616D01*
X017383Y004616D01*
X017336Y004663D01*
X017383Y004709D01*
X017523Y004709D01*
X017523Y004569D02*
X017476Y004523D01*
X017336Y004523D01*
X017247Y004523D02*
X017106Y004523D01*
X017060Y004569D01*
X017106Y004616D01*
X017247Y004616D01*
X017247Y004663D02*
X017247Y004523D01*
X017247Y004663D02*
X017200Y004709D01*
X017106Y004709D01*
X016970Y004709D02*
X016923Y004709D01*
X016830Y004616D01*
X016830Y004523D02*
X016830Y004709D01*
X016739Y004709D02*
X016646Y004709D01*
X016692Y004756D02*
X016692Y004569D01*
X016739Y004523D01*
X016556Y004523D02*
X016556Y004663D01*
X016509Y004709D01*
X016369Y004709D01*
X016369Y004523D01*
X016280Y004569D02*
X016280Y004663D01*
X016233Y004709D01*
X016140Y004709D01*
X016093Y004663D01*
X016093Y004569D01*
X016140Y004523D01*
X016233Y004523D01*
X016280Y004569D01*
X016004Y004569D02*
X015957Y004523D01*
X015864Y004523D01*
X015817Y004569D01*
X015817Y004756D01*
X015864Y004803D01*
X015957Y004803D01*
X016004Y004756D01*
X014237Y004463D02*
X014237Y004363D01*
X014237Y004463D02*
X013287Y004463D01*
X013287Y004363D01*
X012127Y005023D02*
X012127Y005163D01*
X012080Y005209D01*
X011893Y005209D01*
X011846Y005163D01*
X011846Y005023D01*
X012127Y005023D01*
X012080Y005299D02*
X012127Y005345D01*
X012127Y005439D01*
X012080Y005486D01*
X011986Y005486D01*
X011940Y005439D01*
X011940Y005345D01*
X011986Y005299D01*
X012080Y005299D01*
X012080Y005575D02*
X012127Y005622D01*
X012080Y005668D01*
X012127Y005715D01*
X012080Y005762D01*
X011940Y005762D01*
X011940Y005851D02*
X011940Y005991D01*
X011986Y006038D01*
X012127Y006038D01*
X012127Y005851D02*
X011940Y005851D01*
X011940Y005575D02*
X012080Y005575D01*
X013287Y006663D02*
X014287Y006663D01*
X014287Y006763D01*
X013287Y006763D02*
X013287Y006663D01*
X010387Y006663D02*
X010387Y006763D01*
X010387Y006663D02*
X009387Y006663D01*
X009387Y006763D01*
X008127Y006035D02*
X007940Y006035D01*
X008033Y006035D02*
X007940Y006129D01*
X007940Y006175D01*
X007986Y005946D02*
X008033Y005946D01*
X008033Y005759D01*
X007986Y005759D02*
X007940Y005806D01*
X007940Y005899D01*
X007986Y005946D01*
X008127Y005899D02*
X008127Y005806D01*
X008080Y005759D01*
X007986Y005759D01*
X007940Y005668D02*
X007940Y005575D01*
X007893Y005622D02*
X008080Y005622D01*
X008127Y005668D01*
X008127Y005486D02*
X007986Y005486D01*
X007940Y005439D01*
X007940Y005299D01*
X008127Y005299D01*
X008127Y005209D02*
X008127Y005023D01*
X007846Y005023D01*
X007846Y005209D01*
X007986Y005116D02*
X007986Y005023D01*
X009387Y004463D02*
X009387Y004363D01*
X009387Y004463D02*
X010337Y004463D01*
X010337Y004363D01*
X006437Y004363D02*
X006437Y004463D01*
X005487Y004463D01*
X005487Y004363D01*
X004227Y005369D02*
X004227Y005463D01*
X004180Y005509D01*
X003946Y005509D01*
X004040Y005599D02*
X004040Y005739D01*
X004086Y005786D01*
X004180Y005786D01*
X004227Y005739D01*
X004227Y005599D01*
X004320Y005599D02*
X004040Y005599D01*
X003946Y005323D02*
X004180Y005323D01*
X004227Y005369D01*
X005487Y006663D02*
X006487Y006663D01*
X006487Y006763D01*
X005487Y006763D02*
X005487Y006663D01*
X003437Y008613D02*
X003337Y008613D01*
X003337Y009563D01*
X003437Y009563D01*
X001137Y009613D02*
X001137Y008613D01*
X001037Y008613D01*
X001037Y009613D02*
X001137Y009613D01*
X003093Y017273D02*
X003140Y017273D01*
X003186Y017319D01*
X003186Y017413D01*
X003233Y017459D01*
X003280Y017459D01*
X003327Y017413D01*
X003327Y017319D01*
X003280Y017273D01*
X003093Y017273D02*
X003046Y017319D01*
X003046Y017413D01*
X003093Y017459D01*
X003093Y017549D02*
X003280Y017549D01*
X003327Y017595D01*
X003327Y017689D01*
X003280Y017736D01*
X003327Y017825D02*
X003046Y017825D01*
X003093Y017736D02*
X003046Y017689D01*
X003046Y017595D01*
X003093Y017549D01*
X003327Y017825D02*
X003327Y018012D01*
X003280Y018323D02*
X003093Y018323D01*
X003046Y018369D01*
X003046Y018463D01*
X003093Y018509D01*
X003186Y018509D02*
X003186Y018416D01*
X003186Y018509D02*
X003280Y018509D01*
X003327Y018463D01*
X003327Y018369D01*
X003280Y018323D01*
X003327Y018599D02*
X003046Y018599D01*
X003327Y018786D01*
X003046Y018786D01*
X003046Y018875D02*
X003046Y019015D01*
X003093Y019062D01*
X003280Y019062D01*
X003327Y019015D01*
X003327Y018875D01*
X003046Y018875D01*
X003093Y020173D02*
X003046Y020219D01*
X003046Y020313D01*
X003093Y020359D01*
X003140Y020359D01*
X003186Y020313D01*
X003233Y020359D01*
X003280Y020359D01*
X003327Y020313D01*
X003327Y020219D01*
X003280Y020173D01*
X003186Y020266D02*
X003186Y020313D01*
X003280Y020449D02*
X003280Y020495D01*
X003327Y020495D01*
X003327Y020449D01*
X003280Y020449D01*
X003280Y020587D02*
X003327Y020634D01*
X003327Y020727D01*
X003280Y020774D01*
X003233Y020774D01*
X003186Y020727D01*
X003186Y020680D01*
X003186Y020727D02*
X003140Y020774D01*
X003093Y020774D01*
X003046Y020727D01*
X003046Y020634D01*
X003093Y020587D01*
X003046Y020863D02*
X003233Y020863D01*
X003327Y020956D01*
X003233Y021050D01*
X003046Y021050D01*
X003093Y021323D02*
X003140Y021323D01*
X003186Y021369D01*
X003186Y021463D01*
X003233Y021509D01*
X003280Y021509D01*
X003327Y021463D01*
X003327Y021369D01*
X003280Y021323D01*
X003093Y021323D02*
X003046Y021369D01*
X003046Y021463D01*
X003093Y021509D01*
X003046Y021599D02*
X003046Y021739D01*
X003093Y021786D01*
X003280Y021786D01*
X003327Y021739D01*
X003327Y021599D01*
X003046Y021599D01*
X003140Y021875D02*
X003046Y021968D01*
X003140Y022062D01*
X003327Y022062D01*
X003186Y022062D02*
X003186Y021875D01*
X003140Y021875D02*
X003327Y021875D01*
D15*
X002885Y029028D02*
X002700Y029213D01*
X002638Y029151D02*
X002885Y029398D01*
X002638Y029398D02*
X002638Y029028D01*
X002517Y029028D02*
X002270Y029028D01*
X002270Y029398D01*
X002148Y029336D02*
X002148Y029274D01*
X002087Y029213D01*
X001902Y029213D01*
X002087Y029213D02*
X002148Y029151D01*
X002148Y029089D01*
X002087Y029028D01*
X001902Y029028D01*
X001902Y029398D01*
X002087Y029398D01*
X002148Y029336D01*
X040875Y012793D02*
X040875Y012669D01*
X040936Y012608D01*
X041060Y012608D01*
X041122Y012669D01*
X041122Y012793D01*
X040998Y012854D02*
X040998Y012608D01*
X040875Y012486D02*
X040875Y012301D01*
X040936Y012239D01*
X041060Y012239D01*
X041122Y012301D01*
X041122Y012486D01*
X041183Y012486D02*
X040875Y012486D01*
X040875Y012793D02*
X040936Y012854D01*
X040998Y012854D01*
X041183Y012486D02*
X041245Y012424D01*
X041245Y012363D01*
X040875Y012118D02*
X040875Y012056D01*
X040998Y011932D01*
X040998Y011811D02*
X040998Y011626D01*
X041060Y011564D01*
X041122Y011626D01*
X041122Y011811D01*
X040936Y011811D01*
X040875Y011749D01*
X040875Y011626D01*
X040936Y011443D02*
X041122Y011443D01*
X040936Y011443D02*
X040875Y011381D01*
X040875Y011258D01*
X040936Y011196D01*
X040813Y011074D02*
X040751Y011013D01*
X040751Y010889D01*
X040813Y010828D01*
X041060Y010828D01*
X041122Y010889D01*
X041122Y011013D01*
X041060Y011074D01*
X041122Y011196D02*
X040751Y011196D01*
X040875Y011932D02*
X041122Y011932D01*
X041122Y010451D02*
X041060Y010390D01*
X040813Y010390D01*
X040875Y010451D02*
X040875Y010328D01*
X040751Y010144D02*
X041122Y010144D01*
X041122Y010082D02*
X041122Y010206D01*
X041122Y009961D02*
X040875Y009961D01*
X040751Y010082D02*
X040751Y010144D01*
X041122Y009961D02*
X041122Y009776D01*
X041060Y009714D01*
X040875Y009714D01*
X040936Y009593D02*
X041122Y009593D01*
X041122Y009408D01*
X041060Y009346D01*
X040998Y009408D01*
X040998Y009593D01*
X040936Y009593D02*
X040875Y009531D01*
X040875Y009408D01*
X040751Y009224D02*
X040751Y008978D01*
X041122Y008978D01*
X040936Y008978D02*
X040936Y009101D01*
D16*
X042887Y005613D02*
X042889Y005662D01*
X042895Y005710D01*
X042905Y005758D01*
X042919Y005805D01*
X042936Y005851D01*
X042957Y005895D01*
X042982Y005937D01*
X043010Y005977D01*
X043042Y006015D01*
X043076Y006050D01*
X043113Y006082D01*
X043152Y006111D01*
X043194Y006137D01*
X043238Y006159D01*
X043283Y006177D01*
X043330Y006192D01*
X043377Y006203D01*
X043426Y006210D01*
X043475Y006213D01*
X043524Y006212D01*
X043572Y006207D01*
X043621Y006198D01*
X043668Y006185D01*
X043714Y006168D01*
X043758Y006148D01*
X043801Y006124D01*
X043842Y006097D01*
X043880Y006066D01*
X043916Y006033D01*
X043948Y005997D01*
X043978Y005958D01*
X044005Y005917D01*
X044028Y005873D01*
X044047Y005828D01*
X044063Y005782D01*
X044075Y005735D01*
X044083Y005686D01*
X044087Y005637D01*
X044087Y005589D01*
X044083Y005540D01*
X044075Y005491D01*
X044063Y005444D01*
X044047Y005398D01*
X044028Y005353D01*
X044005Y005309D01*
X043978Y005268D01*
X043948Y005229D01*
X043916Y005193D01*
X043880Y005160D01*
X043842Y005129D01*
X043801Y005102D01*
X043758Y005078D01*
X043714Y005058D01*
X043668Y005041D01*
X043621Y005028D01*
X043572Y005019D01*
X043524Y005014D01*
X043475Y005013D01*
X043426Y005016D01*
X043377Y005023D01*
X043330Y005034D01*
X043283Y005049D01*
X043238Y005067D01*
X043194Y005089D01*
X043152Y005115D01*
X043113Y005144D01*
X043076Y005176D01*
X043042Y005211D01*
X043010Y005249D01*
X042982Y005289D01*
X042957Y005331D01*
X042936Y005375D01*
X042919Y005421D01*
X042905Y005468D01*
X042895Y005516D01*
X042889Y005564D01*
X042887Y005613D01*
X010787Y031663D02*
X010789Y031712D01*
X010795Y031760D01*
X010805Y031808D01*
X010819Y031855D01*
X010836Y031901D01*
X010857Y031945D01*
X010882Y031987D01*
X010910Y032027D01*
X010942Y032065D01*
X010976Y032100D01*
X011013Y032132D01*
X011052Y032161D01*
X011094Y032187D01*
X011138Y032209D01*
X011183Y032227D01*
X011230Y032242D01*
X011277Y032253D01*
X011326Y032260D01*
X011375Y032263D01*
X011424Y032262D01*
X011472Y032257D01*
X011521Y032248D01*
X011568Y032235D01*
X011614Y032218D01*
X011658Y032198D01*
X011701Y032174D01*
X011742Y032147D01*
X011780Y032116D01*
X011816Y032083D01*
X011848Y032047D01*
X011878Y032008D01*
X011905Y031967D01*
X011928Y031923D01*
X011947Y031878D01*
X011963Y031832D01*
X011975Y031785D01*
X011983Y031736D01*
X011987Y031687D01*
X011987Y031639D01*
X011983Y031590D01*
X011975Y031541D01*
X011963Y031494D01*
X011947Y031448D01*
X011928Y031403D01*
X011905Y031359D01*
X011878Y031318D01*
X011848Y031279D01*
X011816Y031243D01*
X011780Y031210D01*
X011742Y031179D01*
X011701Y031152D01*
X011658Y031128D01*
X011614Y031108D01*
X011568Y031091D01*
X011521Y031078D01*
X011472Y031069D01*
X011424Y031064D01*
X011375Y031063D01*
X011326Y031066D01*
X011277Y031073D01*
X011230Y031084D01*
X011183Y031099D01*
X011138Y031117D01*
X011094Y031139D01*
X011052Y031165D01*
X011013Y031194D01*
X010976Y031226D01*
X010942Y031261D01*
X010910Y031299D01*
X010882Y031339D01*
X010857Y031381D01*
X010836Y031425D01*
X010819Y031471D01*
X010805Y031518D01*
X010795Y031566D01*
X010789Y031614D01*
X010787Y031663D01*
X002387Y005613D02*
X002389Y005662D01*
X002395Y005710D01*
X002405Y005758D01*
X002419Y005805D01*
X002436Y005851D01*
X002457Y005895D01*
X002482Y005937D01*
X002510Y005977D01*
X002542Y006015D01*
X002576Y006050D01*
X002613Y006082D01*
X002652Y006111D01*
X002694Y006137D01*
X002738Y006159D01*
X002783Y006177D01*
X002830Y006192D01*
X002877Y006203D01*
X002926Y006210D01*
X002975Y006213D01*
X003024Y006212D01*
X003072Y006207D01*
X003121Y006198D01*
X003168Y006185D01*
X003214Y006168D01*
X003258Y006148D01*
X003301Y006124D01*
X003342Y006097D01*
X003380Y006066D01*
X003416Y006033D01*
X003448Y005997D01*
X003478Y005958D01*
X003505Y005917D01*
X003528Y005873D01*
X003547Y005828D01*
X003563Y005782D01*
X003575Y005735D01*
X003583Y005686D01*
X003587Y005637D01*
X003587Y005589D01*
X003583Y005540D01*
X003575Y005491D01*
X003563Y005444D01*
X003547Y005398D01*
X003528Y005353D01*
X003505Y005309D01*
X003478Y005268D01*
X003448Y005229D01*
X003416Y005193D01*
X003380Y005160D01*
X003342Y005129D01*
X003301Y005102D01*
X003258Y005078D01*
X003214Y005058D01*
X003168Y005041D01*
X003121Y005028D01*
X003072Y005019D01*
X003024Y005014D01*
X002975Y005013D01*
X002926Y005016D01*
X002877Y005023D01*
X002830Y005034D01*
X002783Y005049D01*
X002738Y005067D01*
X002694Y005089D01*
X002652Y005115D01*
X002613Y005144D01*
X002576Y005176D01*
X002542Y005211D01*
X002510Y005249D01*
X002482Y005289D01*
X002457Y005331D01*
X002436Y005375D01*
X002419Y005421D01*
X002405Y005468D01*
X002395Y005516D01*
X002389Y005564D01*
X002387Y005613D01*
X043087Y035063D02*
X043089Y035112D01*
X043095Y035160D01*
X043105Y035208D01*
X043119Y035255D01*
X043136Y035301D01*
X043157Y035345D01*
X043182Y035387D01*
X043210Y035427D01*
X043242Y035465D01*
X043276Y035500D01*
X043313Y035532D01*
X043352Y035561D01*
X043394Y035587D01*
X043438Y035609D01*
X043483Y035627D01*
X043530Y035642D01*
X043577Y035653D01*
X043626Y035660D01*
X043675Y035663D01*
X043724Y035662D01*
X043772Y035657D01*
X043821Y035648D01*
X043868Y035635D01*
X043914Y035618D01*
X043958Y035598D01*
X044001Y035574D01*
X044042Y035547D01*
X044080Y035516D01*
X044116Y035483D01*
X044148Y035447D01*
X044178Y035408D01*
X044205Y035367D01*
X044228Y035323D01*
X044247Y035278D01*
X044263Y035232D01*
X044275Y035185D01*
X044283Y035136D01*
X044287Y035087D01*
X044287Y035039D01*
X044283Y034990D01*
X044275Y034941D01*
X044263Y034894D01*
X044247Y034848D01*
X044228Y034803D01*
X044205Y034759D01*
X044178Y034718D01*
X044148Y034679D01*
X044116Y034643D01*
X044080Y034610D01*
X044042Y034579D01*
X044001Y034552D01*
X043958Y034528D01*
X043914Y034508D01*
X043868Y034491D01*
X043821Y034478D01*
X043772Y034469D01*
X043724Y034464D01*
X043675Y034463D01*
X043626Y034466D01*
X043577Y034473D01*
X043530Y034484D01*
X043483Y034499D01*
X043438Y034517D01*
X043394Y034539D01*
X043352Y034565D01*
X043313Y034594D01*
X043276Y034626D01*
X043242Y034661D01*
X043210Y034699D01*
X043182Y034739D01*
X043157Y034781D01*
X043136Y034825D01*
X043119Y034871D01*
X043105Y034918D01*
X043095Y034966D01*
X043089Y035014D01*
X043087Y035063D01*
D17*
X040584Y011822D03*
X040289Y011822D03*
X040289Y009822D03*
X040584Y009822D03*
X011943Y032984D03*
X011648Y032984D03*
X001684Y005703D03*
X001389Y005703D03*
D18*
X001537Y005703D03*
X011795Y032984D03*
X040437Y011822D03*
X040437Y009822D03*
D19*
X040348Y008576D02*
X039581Y008576D01*
X040348Y008576D02*
X040348Y008081D01*
X040348Y006230D02*
X040348Y004244D01*
X036925Y004244D01*
X036925Y008576D01*
X037692Y008576D01*
X035948Y008576D02*
X035948Y008081D01*
X035948Y008576D02*
X035181Y008576D01*
X033292Y008576D02*
X032525Y008576D01*
X032525Y004244D01*
X035948Y004244D01*
X035948Y006230D01*
X025620Y006576D02*
X025620Y007481D01*
X025620Y006575D02*
X025619Y006508D01*
X025614Y006440D01*
X025605Y006373D01*
X025593Y006306D01*
X025576Y006241D01*
X025556Y006176D01*
X025532Y006113D01*
X025504Y006051D01*
X025473Y005991D01*
X025438Y005932D01*
X025400Y005876D01*
X025359Y005822D01*
X025315Y005771D01*
X025268Y005722D01*
X025218Y005676D01*
X025166Y005633D01*
X025111Y005594D01*
X025054Y005557D01*
X024995Y005524D01*
X024934Y005494D01*
X024871Y005468D01*
X024807Y005445D01*
X024742Y005427D01*
X024676Y005412D01*
X024609Y005401D01*
X024542Y005393D01*
X024474Y005390D01*
X024406Y005391D01*
X024339Y005395D01*
X024272Y005404D01*
X024205Y005416D01*
X024139Y005433D01*
X024074Y005453D01*
X024011Y005476D01*
X023949Y005504D01*
X023889Y005535D01*
X023830Y005569D01*
X023774Y005607D01*
X023720Y005648D01*
X023668Y005692D01*
X023620Y005739D01*
X023573Y005788D01*
X023475Y005887D01*
X023372Y005980D01*
X023265Y006069D01*
X023153Y006152D01*
X023038Y006230D01*
X022920Y006302D01*
X022797Y006368D01*
X022672Y006429D01*
X022544Y006483D01*
X022414Y006531D01*
X022281Y006573D01*
X022147Y006608D01*
X022011Y006637D01*
X021874Y006659D01*
X021736Y006674D01*
X021597Y006683D01*
X021458Y006685D01*
X021319Y006680D01*
X021181Y006669D01*
X021043Y006651D01*
X020906Y006626D01*
X020771Y006595D01*
X020637Y006557D01*
X020505Y006513D01*
X020376Y006463D01*
X020249Y006406D01*
X020125Y006343D01*
X020004Y006275D01*
X019887Y006201D01*
X019773Y006121D01*
X019663Y006035D01*
X019558Y005945D01*
X019457Y005849D01*
X019361Y005749D01*
X019400Y005788D02*
X019353Y005740D01*
X019304Y005694D01*
X019252Y005652D01*
X019197Y005612D01*
X019141Y005576D01*
X019083Y005543D01*
X019022Y005513D01*
X018961Y005487D01*
X018897Y005464D01*
X018833Y005445D01*
X018768Y005430D01*
X018702Y005418D01*
X018635Y005411D01*
X018568Y005407D01*
X018501Y005406D01*
X018434Y005410D01*
X018367Y005417D01*
X018301Y005429D01*
X018236Y005444D01*
X018171Y005462D01*
X018108Y005485D01*
X018046Y005510D01*
X017985Y005540D01*
X017927Y005573D01*
X017870Y005609D01*
X017816Y005648D01*
X017764Y005690D01*
X017714Y005735D01*
X017667Y005783D01*
X017623Y005833D01*
X017581Y005886D01*
X017543Y005941D01*
X017508Y005999D01*
X017476Y006058D01*
X017448Y006119D01*
X017423Y006181D01*
X017402Y006245D01*
X017385Y006310D01*
X017371Y006375D01*
X017361Y006442D01*
X017354Y006508D01*
X017352Y006575D01*
X017353Y006576D02*
X017353Y007481D01*
X017016Y006192D02*
X015757Y006192D01*
X017016Y006192D02*
X017016Y005956D01*
X017016Y005169D02*
X017016Y004933D01*
X015757Y004933D01*
X017353Y009844D02*
X017353Y010907D01*
X019355Y012110D01*
X019350Y012112D02*
X019448Y012013D01*
X019551Y011920D01*
X019658Y011831D01*
X019770Y011748D01*
X019885Y011670D01*
X020003Y011598D01*
X020126Y011532D01*
X020251Y011471D01*
X020379Y011417D01*
X020509Y011369D01*
X020642Y011327D01*
X020776Y011292D01*
X020912Y011263D01*
X021049Y011241D01*
X021187Y011226D01*
X021326Y011217D01*
X021465Y011215D01*
X021604Y011220D01*
X021742Y011231D01*
X021880Y011249D01*
X022017Y011274D01*
X022152Y011305D01*
X022286Y011343D01*
X022418Y011387D01*
X022547Y011437D01*
X022674Y011494D01*
X022798Y011557D01*
X022919Y011625D01*
X023036Y011699D01*
X023150Y011779D01*
X023260Y011865D01*
X023365Y011955D01*
X023466Y012051D01*
X023562Y012151D01*
X023568Y012160D02*
X025620Y010907D01*
X025620Y009844D01*
X003468Y013513D02*
X003468Y014013D01*
X003337Y014013D02*
X003337Y013513D01*
X003087Y013263D01*
X001587Y013263D01*
X001337Y013513D01*
X001337Y014013D01*
X001587Y014263D01*
X003087Y014263D01*
X003337Y014513D01*
X003337Y015013D01*
X003087Y015263D01*
X001587Y015263D01*
X001337Y015513D01*
X001337Y016013D01*
X001587Y016263D01*
X003087Y016263D01*
X003337Y016013D01*
X003337Y015513D01*
X003087Y015263D01*
X003087Y014263D02*
X003337Y014013D01*
X001587Y014263D02*
X001337Y014513D01*
X001337Y015013D01*
X001587Y015263D01*
X002087Y017163D02*
X001837Y017413D01*
X001837Y017913D01*
X002087Y018163D01*
X001837Y018413D01*
X001837Y018913D01*
X002087Y019163D01*
X001837Y019413D01*
X001837Y019913D01*
X002087Y020163D01*
X001837Y020413D01*
X001837Y020913D01*
X002087Y021163D01*
X001837Y021413D01*
X001837Y021913D01*
X002087Y022163D01*
X002587Y022163D01*
X002837Y021913D01*
X002837Y021413D01*
X002587Y021163D01*
X002837Y020913D01*
X002837Y020413D01*
X002587Y020163D01*
X002837Y019913D01*
X002837Y019413D01*
X002587Y019163D01*
X002837Y018913D01*
X002837Y018413D01*
X002587Y018163D01*
X002837Y017913D01*
X002837Y017413D01*
X002587Y017163D01*
X002087Y017163D01*
X002087Y022813D02*
X002587Y022813D01*
X002837Y023063D01*
X002837Y023563D01*
X002587Y023813D01*
X002087Y023813D01*
X001837Y024063D01*
X001837Y024563D01*
X002087Y024813D01*
X002587Y024813D01*
X002837Y024563D01*
X002837Y024063D01*
X002587Y023813D01*
X002087Y023813D02*
X001837Y023563D01*
X001837Y023063D01*
X002087Y022813D01*
X002087Y024813D02*
X001837Y025063D01*
X001837Y025563D01*
X002087Y025813D01*
X002587Y025813D01*
X002837Y025563D01*
X002837Y025063D01*
X002587Y024813D01*
X002587Y025813D02*
X002837Y026063D01*
X002837Y026563D01*
X002587Y026813D01*
X002087Y026813D01*
X001837Y027063D01*
X001837Y027563D01*
X002087Y027813D01*
X002587Y027813D01*
X002837Y027563D01*
X002837Y027063D01*
X002587Y026813D01*
X002087Y026813D02*
X001837Y026563D01*
X001837Y026063D01*
X002087Y025813D01*
X002087Y027813D02*
X001837Y028063D01*
X001837Y028563D01*
X002087Y028813D01*
X002587Y028813D01*
X002837Y028563D01*
X002837Y028063D01*
X002587Y027813D01*
D20*
X017937Y030563D02*
X018987Y030563D01*
X017937Y030563D02*
X017937Y034313D01*
X021737Y034313D01*
X021737Y030563D01*
X020687Y030563D01*
X024937Y030563D02*
X024937Y034313D01*
X028737Y034313D01*
X028737Y030563D01*
X027687Y030563D01*
X025987Y030563D02*
X024937Y030563D01*
X031937Y030563D02*
X032987Y030563D01*
X031937Y030563D02*
X031937Y034313D01*
X035737Y034313D01*
X035737Y030563D01*
X034687Y030563D01*
X038937Y030563D02*
X038937Y034313D01*
X042737Y034313D01*
X042737Y030563D01*
X041687Y030563D01*
X039987Y030563D02*
X038937Y030563D01*
X038937Y016763D02*
X039987Y016763D01*
X038937Y016763D02*
X038937Y013013D01*
X042737Y013013D01*
X042737Y016763D01*
X041687Y016763D01*
X035737Y016763D02*
X035737Y013013D01*
X031937Y013013D01*
X031937Y016763D01*
X032987Y016763D01*
X034687Y016763D02*
X035737Y016763D01*
X028737Y016763D02*
X028737Y013013D01*
X024937Y013013D01*
X024937Y016763D01*
X025987Y016763D01*
X027687Y016763D02*
X028737Y016763D01*
X021737Y016763D02*
X021737Y013013D01*
X017937Y013013D01*
X017937Y016763D01*
X018987Y016763D01*
X020687Y016763D02*
X021737Y016763D01*
D21*
X019836Y017802D02*
X019836Y018389D01*
X026543Y018216D02*
X027130Y018216D01*
X026836Y017923D02*
X026836Y018510D01*
X033836Y018389D02*
X033836Y017802D01*
X040543Y018216D02*
X041130Y018216D01*
X040836Y017923D02*
X040836Y018510D01*
X033836Y028602D02*
X033836Y029189D01*
X033543Y028895D02*
X034130Y028895D01*
X040836Y028723D02*
X040836Y029310D01*
X026836Y029310D02*
X026836Y028723D01*
X020130Y028895D02*
X019543Y028895D01*
X019836Y028602D02*
X019836Y029189D01*
D22*
X010684Y030603D02*
X010684Y035485D01*
X000841Y035485D01*
X000841Y033556D01*
X000841Y033517D02*
X001629Y033517D01*
X001655Y033515D01*
X001680Y033510D01*
X001704Y033502D01*
X001728Y033491D01*
X001749Y033476D01*
X001768Y033459D01*
X001785Y033440D01*
X001800Y033418D01*
X001811Y033395D01*
X001819Y033371D01*
X001824Y033346D01*
X001826Y033320D01*
X001825Y033320D02*
X001825Y032769D01*
X001826Y032769D02*
X001824Y032743D01*
X001819Y032718D01*
X001811Y032694D01*
X001800Y032670D01*
X001785Y032649D01*
X001768Y032630D01*
X001749Y032613D01*
X001727Y032598D01*
X001704Y032587D01*
X001680Y032579D01*
X001655Y032574D01*
X001629Y032572D01*
X000841Y032572D01*
X000841Y030603D01*
X010684Y030603D01*
M02*
