G75*
G70*
%OFA0B0*%
%FSLAX24Y24*%
%IPPOS*%
%LPD*%
%AMOC8*
5,1,8,0,0,1.08239X$1,22.5*
%
%ADD10C,0.0010*%
%ADD11C,0.0060*%
%ADD12C,0.0040*%
%ADD13C,0.0020*%
%ADD14C,0.0000*%
%ADD15C,0.0059*%
%ADD16C,0.0050*%
%ADD17C,0.0079*%
%ADD18C,0.0080*%
%ADD19C,0.0031*%
%ADD20C,0.0100*%
%ADD21R,0.0590X0.0790*%
D10*
X000837Y004163D02*
X000837Y032563D01*
X000837Y033513D02*
X000837Y036158D01*
X000837Y036159D02*
X044957Y036159D01*
X044957Y004163D01*
X000837Y004163D01*
D11*
X016437Y020413D02*
X016187Y020663D01*
X016187Y021163D01*
X016437Y021413D01*
X016187Y021663D01*
X016187Y022163D01*
X016437Y022413D01*
X016187Y022663D01*
X016187Y023163D01*
X016437Y023413D01*
X016187Y023663D01*
X016187Y024163D01*
X016437Y024413D01*
X016187Y024663D01*
X016187Y025163D01*
X016437Y025413D01*
X017937Y025413D01*
X018187Y025163D01*
X018187Y024663D01*
X017937Y024413D01*
X018187Y024163D01*
X018187Y023663D01*
X017937Y023413D01*
X018187Y023163D01*
X018187Y022663D01*
X017937Y022413D01*
X018187Y022163D01*
X018187Y021663D01*
X017937Y021413D01*
X018187Y021163D01*
X018187Y020663D01*
X017937Y020413D01*
X016437Y020413D01*
X021457Y022633D02*
X021457Y025253D01*
X021596Y025392D01*
X024216Y025392D01*
X024216Y022633D01*
X021457Y022633D01*
X021616Y025093D02*
X021618Y025116D01*
X021624Y025139D01*
X021633Y025160D01*
X021646Y025180D01*
X021662Y025197D01*
X021680Y025211D01*
X021700Y025222D01*
X021722Y025230D01*
X021745Y025234D01*
X021769Y025234D01*
X021792Y025230D01*
X021814Y025222D01*
X021834Y025211D01*
X021852Y025197D01*
X021868Y025180D01*
X021881Y025160D01*
X021890Y025139D01*
X021896Y025116D01*
X021898Y025093D01*
X021896Y025070D01*
X021890Y025047D01*
X021881Y025026D01*
X021868Y025006D01*
X021852Y024989D01*
X021834Y024975D01*
X021814Y024964D01*
X021792Y024956D01*
X021769Y024952D01*
X021745Y024952D01*
X021722Y024956D01*
X021700Y024964D01*
X021680Y024975D01*
X021662Y024989D01*
X021646Y025006D01*
X021633Y025026D01*
X021624Y025047D01*
X021618Y025070D01*
X021616Y025093D01*
X027445Y031809D02*
X027562Y031809D01*
X027445Y031809D02*
X027329Y031926D01*
X027329Y032510D01*
X026979Y032510D02*
X026746Y032510D01*
X026629Y032393D01*
X026629Y032043D01*
X026979Y032043D01*
X027096Y032159D01*
X026979Y032276D01*
X026629Y032276D01*
X026396Y032043D02*
X026396Y032510D01*
X026279Y032510D01*
X026163Y032393D01*
X026046Y032510D01*
X025929Y032393D01*
X025929Y032043D01*
X026163Y032043D02*
X026163Y032393D01*
X025696Y032393D02*
X025696Y032159D01*
X025580Y032043D01*
X025346Y032043D01*
X025229Y032276D02*
X025696Y032276D01*
X025696Y032393D02*
X025580Y032510D01*
X025346Y032510D01*
X025229Y032393D01*
X025229Y032276D01*
X024996Y032510D02*
X024763Y032510D01*
X024880Y032626D02*
X024880Y032159D01*
X024763Y032043D01*
X024530Y032159D02*
X024530Y032393D01*
X024413Y032510D01*
X024180Y032510D01*
X024063Y032393D01*
X024063Y032276D01*
X024530Y032276D01*
X024530Y032159D02*
X024413Y032043D01*
X024180Y032043D01*
X023830Y032043D02*
X023830Y032510D01*
X023597Y032510D02*
X023480Y032510D01*
X023597Y032510D02*
X023830Y032276D01*
X023846Y034743D02*
X023379Y034743D01*
X023146Y034743D02*
X022913Y034743D01*
X023030Y034743D02*
X023030Y035210D01*
X023146Y035210D01*
X023030Y035443D02*
X023030Y035560D01*
X022680Y035093D02*
X022563Y035210D01*
X022213Y035210D01*
X022330Y034976D02*
X022563Y034976D01*
X022680Y035093D01*
X022680Y034743D02*
X022330Y034743D01*
X022213Y034859D01*
X022330Y034976D01*
X021980Y034859D02*
X021863Y034743D01*
X021513Y034743D01*
X021513Y035093D01*
X021630Y035210D01*
X021863Y035210D01*
X021863Y034976D02*
X021513Y034976D01*
X021863Y034976D02*
X021980Y034859D01*
X020581Y034859D02*
X020464Y034743D01*
X020230Y034743D01*
X020114Y034859D01*
X020114Y034976D01*
X020230Y035093D01*
X020464Y035093D01*
X020581Y035210D01*
X020581Y035326D01*
X020464Y035443D01*
X020230Y035443D01*
X020114Y035326D01*
X019881Y035093D02*
X019764Y035210D01*
X019531Y035210D01*
X019414Y035093D01*
X019414Y034976D01*
X019881Y034976D01*
X019881Y034859D02*
X019881Y035093D01*
X019881Y034859D02*
X019764Y034743D01*
X019531Y034743D01*
X019181Y034859D02*
X019181Y035093D01*
X019064Y035210D01*
X018831Y035210D01*
X018714Y035093D01*
X018714Y034976D01*
X019181Y034976D01*
X019181Y034859D02*
X019064Y034743D01*
X018831Y034743D01*
X018481Y034743D02*
X018248Y034743D01*
X018365Y034743D02*
X018365Y035443D01*
X018481Y035443D01*
X018015Y035210D02*
X018015Y034859D01*
X017898Y034743D01*
X017548Y034743D01*
X017548Y034626D02*
X017665Y034509D01*
X017781Y034509D01*
X017548Y034626D02*
X017548Y035210D01*
X017315Y035093D02*
X017198Y035210D01*
X016965Y035210D01*
X016848Y035093D01*
X016848Y034976D01*
X017315Y034976D01*
X017315Y034859D02*
X017315Y035093D01*
X017315Y034859D02*
X017198Y034743D01*
X016965Y034743D01*
X016615Y034509D02*
X016382Y034743D01*
X016499Y034743D01*
X016499Y034859D01*
X016382Y034859D01*
X016382Y034743D01*
X015449Y034859D02*
X015332Y034743D01*
X015099Y034743D01*
X014982Y034859D01*
X014982Y034976D01*
X015099Y035093D01*
X015332Y035093D01*
X015449Y035210D01*
X015449Y035326D01*
X015332Y035443D01*
X015099Y035443D01*
X014982Y035326D01*
X014633Y035210D02*
X014399Y035210D01*
X014282Y035093D01*
X014282Y034743D01*
X014633Y034743D01*
X014749Y034859D01*
X014633Y034976D01*
X014282Y034976D01*
X014050Y034976D02*
X013816Y035210D01*
X013699Y035210D01*
X013350Y035210D02*
X013116Y035210D01*
X012999Y035093D01*
X012999Y034743D01*
X013350Y034743D01*
X013466Y034859D01*
X013350Y034976D01*
X012999Y034976D01*
X012767Y035093D02*
X012650Y035210D01*
X012416Y035210D01*
X012300Y035093D01*
X012300Y034743D01*
X012767Y034743D02*
X012767Y035443D01*
X014050Y035210D02*
X014050Y034743D01*
X011367Y034743D02*
X011367Y035443D01*
X010900Y034743D01*
X010900Y035443D01*
X010551Y035210D02*
X010667Y035093D01*
X010667Y034859D01*
X010551Y034743D01*
X010317Y034743D01*
X010200Y034859D01*
X010200Y035093D01*
X010317Y035210D01*
X010551Y035210D01*
X009968Y035210D02*
X009968Y034743D01*
X009968Y034976D02*
X009734Y035210D01*
X009617Y035210D01*
X009384Y035093D02*
X009268Y035210D01*
X008917Y035210D01*
X008917Y035443D02*
X008917Y034743D01*
X009268Y034743D01*
X009384Y034859D01*
X009384Y035093D01*
X008685Y035093D02*
X008568Y035210D01*
X008218Y035210D01*
X007985Y035210D02*
X007751Y035210D01*
X007868Y035326D02*
X007868Y034859D01*
X007751Y034743D01*
X007518Y034743D02*
X007518Y035210D01*
X007285Y035210D02*
X007168Y035210D01*
X007285Y035210D02*
X007518Y034976D01*
X006935Y034859D02*
X006819Y034743D01*
X006585Y034743D01*
X006468Y034859D01*
X006468Y035093D01*
X006585Y035210D01*
X006819Y035210D01*
X006935Y035093D01*
X006935Y034859D01*
X006236Y034743D02*
X006236Y035210D01*
X006119Y035210D01*
X006002Y035093D01*
X005885Y035210D01*
X005768Y035093D01*
X005768Y034743D01*
X006002Y034743D02*
X006002Y035093D01*
X008218Y034859D02*
X008334Y034743D01*
X008685Y034743D01*
X008568Y034976D02*
X008685Y035093D01*
X008568Y034976D02*
X008334Y034976D01*
X008218Y034859D01*
X023846Y034743D02*
X023846Y035443D01*
X024779Y035326D02*
X024779Y035210D01*
X025246Y034743D01*
X024779Y034743D01*
X024779Y035326D02*
X024895Y035443D01*
X025129Y035443D01*
X025246Y035326D01*
X025712Y035443D02*
X025712Y034743D01*
X025946Y034743D02*
X025478Y034743D01*
X025946Y035210D02*
X025712Y035443D01*
X026178Y035326D02*
X026178Y034859D01*
X026295Y034743D01*
X026529Y034743D01*
X026645Y034859D01*
X026178Y035326D01*
X026295Y035443D01*
X026529Y035443D01*
X026645Y035326D01*
X026645Y034859D01*
X026878Y034743D02*
X027345Y034743D01*
X026878Y035210D01*
X026878Y035326D01*
X026995Y035443D01*
X027228Y035443D01*
X027345Y035326D01*
X027578Y034859D02*
X027695Y034859D01*
X027695Y034743D01*
X027578Y034743D01*
X027578Y034859D01*
X027578Y034743D02*
X027812Y034509D01*
X028044Y034743D02*
X028511Y034743D01*
X028744Y034743D02*
X029211Y034743D01*
X028978Y034743D02*
X028978Y035443D01*
X029211Y035210D01*
X029444Y035326D02*
X029911Y034859D01*
X029794Y034743D01*
X029561Y034743D01*
X029444Y034859D01*
X029444Y035326D01*
X029561Y035443D01*
X029794Y035443D01*
X029911Y035326D01*
X029911Y034859D01*
X030144Y034743D02*
X030611Y034743D01*
X030144Y035210D01*
X030144Y035326D01*
X030260Y035443D01*
X030494Y035443D01*
X030611Y035326D01*
X031543Y035210D02*
X031777Y035443D01*
X032010Y035210D02*
X032360Y035210D01*
X032477Y035093D01*
X032477Y034859D01*
X032360Y034743D01*
X032010Y034743D01*
X031777Y034743D02*
X031543Y034976D01*
X031543Y035210D01*
X032710Y035443D02*
X032943Y035210D01*
X032943Y034976D01*
X032710Y034743D01*
X033876Y034859D02*
X033992Y034743D01*
X034226Y034743D01*
X034343Y034859D01*
X033876Y035326D01*
X033876Y034859D01*
X034343Y034859D02*
X034343Y035326D01*
X034226Y035443D01*
X033992Y035443D01*
X033876Y035326D01*
X034576Y034859D02*
X034576Y034743D01*
X034693Y034743D01*
X034693Y034859D01*
X034576Y034859D01*
X034925Y034743D02*
X035392Y034743D01*
X035159Y034743D02*
X035159Y035443D01*
X035392Y035210D01*
X036325Y035210D02*
X036442Y035210D01*
X036675Y034976D01*
X036908Y034976D02*
X037375Y034976D01*
X037375Y034859D02*
X037375Y035093D01*
X037258Y035210D01*
X037025Y035210D01*
X036908Y035093D01*
X036908Y034976D01*
X037025Y034743D02*
X037258Y034743D01*
X037375Y034859D01*
X037608Y034743D02*
X037725Y034859D01*
X037725Y035326D01*
X037841Y035210D02*
X037608Y035210D01*
X038074Y035093D02*
X038074Y034976D01*
X038541Y034976D01*
X038541Y034859D02*
X038541Y035093D01*
X038424Y035210D01*
X038191Y035210D01*
X038074Y035093D01*
X038191Y034743D02*
X038424Y034743D01*
X038541Y034859D01*
X038774Y034743D02*
X038774Y035093D01*
X038891Y035210D01*
X039007Y035093D01*
X039007Y034743D01*
X039241Y034743D02*
X039241Y035210D01*
X039124Y035210D01*
X039007Y035093D01*
X039474Y035093D02*
X039474Y034743D01*
X039824Y034743D01*
X039941Y034859D01*
X039824Y034976D01*
X039474Y034976D01*
X039474Y035093D02*
X039590Y035210D01*
X039824Y035210D01*
X040173Y035210D02*
X040173Y034626D01*
X040290Y034509D01*
X040407Y034509D01*
X040524Y034743D02*
X040173Y034743D01*
X040524Y034743D02*
X040641Y034859D01*
X040641Y035210D01*
X040873Y035093D02*
X040873Y034743D01*
X041224Y034743D01*
X041340Y034859D01*
X041224Y034976D01*
X040873Y034976D01*
X040873Y035093D02*
X040990Y035210D01*
X041224Y035210D01*
X041690Y035443D02*
X041690Y034743D01*
X041807Y034743D02*
X041573Y034743D01*
X042039Y035093D02*
X042156Y034976D01*
X042507Y034976D01*
X042507Y034743D02*
X042507Y035443D01*
X042156Y035443D01*
X042039Y035326D01*
X042039Y035093D01*
X041807Y035443D02*
X041690Y035443D01*
X040507Y032743D02*
X040974Y032043D01*
X041208Y032043D02*
X041324Y032043D01*
X041324Y032159D01*
X041208Y032159D01*
X041208Y032043D01*
X041208Y032393D02*
X041324Y032393D01*
X041324Y032510D01*
X041208Y032510D01*
X041208Y032393D01*
X041557Y032510D02*
X041907Y032510D01*
X042024Y032393D01*
X041907Y032276D01*
X041674Y032276D01*
X041557Y032159D01*
X041674Y032043D01*
X042024Y032043D01*
X042257Y032159D02*
X042374Y032043D01*
X042724Y032043D01*
X042957Y032043D02*
X043074Y032159D01*
X043074Y032626D01*
X043190Y032510D02*
X042957Y032510D01*
X042724Y032510D02*
X042374Y032510D01*
X042257Y032393D01*
X042257Y032159D01*
X042724Y031809D02*
X042724Y032510D01*
X043423Y032510D02*
X043657Y032510D01*
X043540Y032626D02*
X043540Y032159D01*
X043423Y032043D01*
X043889Y032043D02*
X043889Y032393D01*
X044006Y032510D01*
X044240Y032510D01*
X044357Y032393D01*
X044357Y032743D02*
X044357Y032043D01*
X044240Y031143D02*
X044006Y031143D01*
X043889Y031026D01*
X043657Y031026D02*
X043657Y030559D01*
X043540Y030443D01*
X043306Y030443D01*
X043190Y030559D01*
X043190Y031026D02*
X043306Y031143D01*
X043540Y031143D01*
X043657Y031026D01*
X043889Y030559D02*
X044006Y030443D01*
X044240Y030443D01*
X044357Y030559D01*
X044357Y031026D01*
X044240Y031143D01*
X042257Y031143D02*
X042257Y030443D01*
X041907Y030443D01*
X041790Y030559D01*
X041790Y030676D01*
X041907Y030793D01*
X042257Y030793D01*
X041907Y030793D02*
X041790Y030910D01*
X041790Y031026D01*
X041907Y031143D01*
X042257Y031143D01*
X041557Y031143D02*
X041557Y031026D01*
X041324Y030793D01*
X041324Y030443D01*
X041324Y030793D02*
X041090Y031026D01*
X041090Y031143D01*
X040858Y030793D02*
X040391Y030793D01*
X040158Y030443D02*
X040158Y031143D01*
X039691Y030443D01*
X039691Y031143D01*
X039458Y031026D02*
X039458Y030559D01*
X039341Y030443D01*
X039108Y030443D01*
X038991Y030559D01*
X038758Y030793D02*
X038291Y030793D01*
X038059Y030910D02*
X037942Y030793D01*
X037708Y030793D01*
X037592Y030676D01*
X037592Y030559D01*
X037708Y030443D01*
X037942Y030443D01*
X038059Y030559D01*
X038059Y030910D02*
X038059Y031026D01*
X037942Y031143D01*
X037708Y031143D01*
X037592Y031026D01*
X037359Y030910D02*
X037125Y031143D01*
X036892Y030910D01*
X036892Y030443D01*
X036892Y030793D02*
X037359Y030793D01*
X037359Y030910D02*
X037359Y030443D01*
X038991Y031026D02*
X039108Y031143D01*
X039341Y031143D01*
X039458Y031026D01*
X039341Y031809D02*
X039225Y031809D01*
X039108Y031926D01*
X039108Y032510D01*
X039458Y032510D01*
X039575Y032393D01*
X039575Y032159D01*
X039458Y032043D01*
X039108Y032043D01*
X038875Y032043D02*
X038642Y032043D01*
X038758Y032043D02*
X038758Y032510D01*
X038875Y032510D01*
X038758Y032743D02*
X038758Y032860D01*
X038409Y032510D02*
X038175Y032510D01*
X038292Y032626D02*
X038292Y032159D01*
X038175Y032043D01*
X037942Y032043D02*
X037942Y032743D01*
X037825Y032510D02*
X037592Y032510D01*
X037475Y032393D01*
X037475Y032043D01*
X037242Y032159D02*
X037242Y032510D01*
X037242Y032159D02*
X037126Y032043D01*
X036775Y032043D01*
X036775Y032510D01*
X036543Y032510D02*
X036192Y032510D01*
X036076Y032393D01*
X036076Y032159D01*
X036192Y032043D01*
X036543Y032043D01*
X036543Y032743D01*
X035843Y032159D02*
X035726Y032159D01*
X035726Y032043D01*
X035843Y032043D01*
X035843Y032159D01*
X035493Y032159D02*
X035493Y032393D01*
X035376Y032510D01*
X035026Y032510D01*
X034793Y032393D02*
X034793Y032159D01*
X034676Y032043D01*
X034443Y032043D01*
X034326Y032159D01*
X034326Y032393D01*
X034443Y032510D01*
X034676Y032510D01*
X034793Y032393D01*
X035026Y032043D02*
X035376Y032043D01*
X035493Y032159D01*
X034093Y032043D02*
X034093Y032510D01*
X033977Y032510D01*
X033860Y032393D01*
X033743Y032510D01*
X033626Y032393D01*
X033626Y032043D01*
X033394Y032043D02*
X032927Y032743D01*
X032694Y032743D02*
X032577Y032743D01*
X032577Y032043D01*
X032694Y032043D02*
X032460Y032043D01*
X032227Y032043D02*
X031994Y032043D01*
X032111Y032043D02*
X032111Y032510D01*
X032227Y032510D01*
X032111Y032743D02*
X032111Y032860D01*
X031644Y032510D02*
X031294Y032510D01*
X031411Y032276D02*
X031644Y032276D01*
X031761Y032393D01*
X031644Y032510D01*
X031411Y032276D02*
X031294Y032159D01*
X031411Y032043D01*
X031761Y032043D01*
X031061Y032159D02*
X030944Y032276D01*
X030594Y032276D01*
X030594Y032393D02*
X030594Y032043D01*
X030944Y032043D01*
X031061Y032159D01*
X030944Y032510D02*
X030711Y032510D01*
X030594Y032393D01*
X030361Y032043D02*
X029894Y032743D01*
X029662Y032510D02*
X029311Y032510D01*
X029195Y032393D01*
X029195Y032159D01*
X029311Y032043D01*
X029662Y032043D01*
X029662Y031809D02*
X029662Y032510D01*
X028962Y032743D02*
X028845Y032743D01*
X028845Y032043D01*
X028962Y032043D02*
X028728Y032043D01*
X028495Y032159D02*
X028379Y032276D01*
X028028Y032276D01*
X028028Y032393D02*
X028028Y032043D01*
X028379Y032043D01*
X028495Y032159D01*
X028379Y032510D02*
X028145Y032510D01*
X028028Y032393D01*
X027796Y032510D02*
X027796Y032159D01*
X027679Y032043D01*
X027329Y032043D01*
X028278Y034743D02*
X028278Y035443D01*
X028511Y035210D01*
X033860Y032393D02*
X033860Y032043D01*
X036675Y034743D02*
X036675Y035210D01*
X037825Y032510D02*
X037942Y032393D01*
X039808Y032743D02*
X040275Y032043D01*
X034047Y011982D02*
X034009Y011982D01*
X034047Y011982D02*
X034047Y011343D01*
X034009Y011343D01*
X033692Y011343D02*
X033655Y011343D01*
X033318Y011343D02*
X033281Y011343D01*
X032964Y011343D02*
X032927Y011343D01*
X032927Y011982D01*
X032964Y011982D01*
X033281Y011982D02*
X033692Y011982D01*
D12*
X035747Y011263D02*
X037527Y011263D01*
X037527Y009763D02*
X035747Y009763D01*
X032168Y016181D02*
X030388Y016181D01*
X030388Y017681D02*
X032168Y017681D01*
X015717Y021242D02*
X015257Y021242D01*
X015257Y021549D01*
X015257Y021703D02*
X015563Y022010D01*
X015563Y022163D02*
X015103Y022163D01*
X015257Y022163D02*
X015257Y022393D01*
X015333Y022470D01*
X015487Y022470D01*
X015563Y022393D01*
X015563Y022163D01*
X015257Y022010D02*
X015563Y021703D01*
X015717Y021549D02*
X015717Y021242D01*
X015487Y021242D02*
X015487Y021396D01*
X015333Y022624D02*
X015410Y022700D01*
X015410Y022930D01*
X015487Y022930D02*
X015257Y022930D01*
X015257Y022700D01*
X015333Y022624D01*
X015563Y022700D02*
X015563Y022854D01*
X015487Y022930D01*
X015563Y023084D02*
X015563Y023314D01*
X015487Y023391D01*
X015257Y023391D01*
X015257Y023544D02*
X015257Y023774D01*
X015333Y023851D01*
X015410Y023774D01*
X015410Y023621D01*
X015487Y023544D01*
X015563Y023621D01*
X015563Y023851D01*
X015563Y024005D02*
X015563Y024081D01*
X015257Y024081D01*
X015257Y024005D02*
X015257Y024158D01*
X015333Y024311D02*
X015257Y024388D01*
X015257Y024542D01*
X015333Y024618D01*
X015487Y024618D01*
X015563Y024542D01*
X015563Y024388D01*
X015487Y024311D01*
X015333Y024311D01*
X015717Y024081D02*
X015794Y024081D01*
X015563Y024772D02*
X015257Y024772D01*
X015563Y024772D02*
X015563Y025002D01*
X015487Y025079D01*
X015257Y025079D01*
X013558Y026733D02*
X013558Y027193D01*
X013328Y027193D01*
X013251Y027116D01*
X013251Y026963D01*
X013328Y026886D01*
X013558Y026886D01*
X013098Y026886D02*
X012868Y026886D01*
X012791Y026963D01*
X012791Y027116D01*
X012868Y027193D01*
X013098Y027193D01*
X013098Y026733D01*
X012944Y026886D02*
X012791Y026733D01*
X012637Y026809D02*
X012637Y027116D01*
X012561Y027193D01*
X012407Y027193D01*
X012330Y027116D01*
X012330Y026809D01*
X012407Y026733D01*
X012561Y026733D01*
X012637Y026809D01*
X012177Y026809D02*
X012177Y027116D01*
X012100Y027193D01*
X011947Y027193D01*
X011870Y027116D01*
X011870Y026963D02*
X012024Y026963D01*
X011870Y026963D02*
X011870Y026809D01*
X011947Y026733D01*
X012100Y026733D01*
X012177Y026809D01*
X011398Y026733D02*
X011398Y027193D01*
X011168Y027193D01*
X011091Y027116D01*
X011091Y026963D01*
X011168Y026886D01*
X011398Y026886D01*
X011244Y026886D02*
X011091Y026733D01*
X010937Y026809D02*
X010861Y026733D01*
X010707Y026733D01*
X010630Y026809D01*
X010630Y027193D01*
X010477Y027193D02*
X010170Y026733D01*
X010170Y027193D01*
X010477Y027193D02*
X010477Y026733D01*
X010937Y026809D02*
X010937Y027193D01*
X009303Y026827D02*
X008870Y026827D01*
X008870Y026198D02*
X009303Y026198D01*
X009340Y030483D02*
X009110Y030483D01*
X009340Y030483D02*
X009416Y030559D01*
X009416Y030713D01*
X009340Y030789D01*
X009110Y030789D01*
X008956Y030789D02*
X008803Y030789D01*
X008879Y030866D02*
X008879Y030559D01*
X008803Y030483D01*
X009570Y030636D02*
X009877Y030636D01*
X009877Y030713D02*
X009800Y030789D01*
X009647Y030789D01*
X009570Y030713D01*
X009570Y030636D01*
X009647Y030483D02*
X009800Y030483D01*
X009877Y030559D01*
X009877Y030713D01*
X010030Y030483D02*
X010184Y030483D01*
X010107Y030483D02*
X010107Y030943D01*
X010184Y030943D01*
X010414Y030789D02*
X010337Y030713D01*
X010337Y030636D01*
X010644Y030636D01*
X010644Y030713D02*
X010567Y030789D01*
X010414Y030789D01*
X010644Y030713D02*
X010644Y030559D01*
X010567Y030483D01*
X010414Y030483D01*
X010798Y030559D02*
X010874Y030483D01*
X011028Y030483D01*
X011104Y030559D01*
X011028Y030713D02*
X010874Y030713D01*
X010798Y030636D01*
X010798Y030559D01*
X011028Y030713D02*
X011104Y030789D01*
X011104Y030866D01*
X011028Y030943D01*
X010874Y030943D01*
X010798Y030866D01*
X011718Y030866D02*
X011718Y030789D01*
X012025Y030483D01*
X011718Y030483D01*
X012179Y030559D02*
X012255Y030483D01*
X012409Y030483D01*
X012485Y030559D01*
X012639Y030483D02*
X012946Y030483D01*
X012639Y030789D01*
X012639Y030866D01*
X012716Y030943D01*
X012869Y030943D01*
X012946Y030866D01*
X013099Y030866D02*
X013176Y030943D01*
X013329Y030943D01*
X013406Y030866D01*
X013406Y030789D01*
X013329Y030713D01*
X013176Y030713D01*
X013099Y030636D01*
X013099Y030559D01*
X013176Y030483D01*
X013329Y030483D01*
X013406Y030559D01*
X013560Y030483D02*
X013713Y030636D01*
X013636Y030636D02*
X013867Y030636D01*
X013867Y030483D02*
X013867Y030943D01*
X013636Y030943D01*
X013560Y030866D01*
X013560Y030713D01*
X013636Y030636D01*
X012485Y030866D02*
X012409Y030943D01*
X012255Y030943D01*
X012179Y030866D01*
X012179Y030789D01*
X012255Y030713D01*
X012179Y030636D01*
X012179Y030559D01*
X012255Y030713D02*
X012332Y030713D01*
X012025Y030866D02*
X011948Y030943D01*
X011795Y030943D01*
X011718Y030866D01*
X015257Y023084D02*
X015563Y023084D01*
D13*
X015797Y023086D02*
X015843Y023133D01*
X015890Y023133D01*
X015937Y023086D01*
X015937Y022946D01*
X015843Y022946D01*
X015797Y022993D01*
X015797Y023086D01*
X015937Y022946D02*
X016030Y023040D01*
X016077Y023133D01*
X015983Y022857D02*
X015797Y022857D01*
X015937Y022857D02*
X015937Y022670D01*
X015983Y022670D02*
X016077Y022763D01*
X015983Y022857D01*
X015983Y022670D02*
X015797Y022670D01*
X015797Y022133D02*
X015797Y021946D01*
X015983Y022133D01*
X016030Y022133D01*
X016077Y022086D01*
X016077Y021993D01*
X016030Y021946D01*
X015983Y021857D02*
X015797Y021857D01*
X015937Y021857D02*
X015937Y021670D01*
X015983Y021670D02*
X016077Y021763D01*
X015983Y021857D01*
X015983Y021670D02*
X015797Y021670D01*
X016249Y020303D02*
X016249Y020116D01*
X016343Y020023D01*
X016436Y020116D01*
X016436Y020303D01*
X016525Y020256D02*
X016525Y020209D01*
X016572Y020163D01*
X016525Y020116D01*
X016525Y020069D01*
X016572Y020023D01*
X016666Y020023D01*
X016712Y020069D01*
X016804Y020069D02*
X016804Y020023D01*
X016850Y020023D01*
X016850Y020069D01*
X016804Y020069D01*
X016940Y020069D02*
X016986Y020023D01*
X017080Y020023D01*
X017127Y020069D01*
X017033Y020163D02*
X016986Y020163D01*
X016940Y020116D01*
X016940Y020069D01*
X016986Y020163D02*
X016940Y020209D01*
X016940Y020256D01*
X016986Y020303D01*
X017080Y020303D01*
X017127Y020256D01*
X017464Y020023D02*
X017650Y020023D01*
X017740Y020023D02*
X017740Y020209D01*
X017833Y020303D01*
X017927Y020209D01*
X017927Y020023D01*
X017927Y020163D02*
X017740Y020163D01*
X017650Y020209D02*
X017557Y020303D01*
X017557Y020023D01*
X016712Y020256D02*
X016666Y020303D01*
X016572Y020303D01*
X016525Y020256D01*
X016572Y020163D02*
X016619Y020163D01*
X018297Y021670D02*
X018483Y021670D01*
X018577Y021763D01*
X018483Y021857D01*
X018297Y021857D01*
X018343Y021946D02*
X018297Y021993D01*
X018297Y022086D01*
X018343Y022133D01*
X018390Y022133D01*
X018437Y022086D01*
X018437Y022040D01*
X018437Y022086D02*
X018483Y022133D01*
X018530Y022133D01*
X018577Y022086D01*
X018577Y021993D01*
X018530Y021946D01*
X018437Y021857D02*
X018437Y021670D01*
X018437Y022670D02*
X018437Y022857D01*
X018483Y022857D02*
X018297Y022857D01*
X018297Y022946D02*
X018343Y022946D01*
X018530Y023133D01*
X018577Y023133D01*
X018577Y022946D01*
X018483Y022857D02*
X018577Y022763D01*
X018483Y022670D01*
X018297Y022670D01*
X018343Y023544D02*
X018297Y023591D01*
X018297Y023684D01*
X018343Y023731D01*
X018390Y023731D01*
X018437Y023684D01*
X018437Y023591D01*
X018483Y023544D01*
X018530Y023544D01*
X018577Y023591D01*
X018577Y023684D01*
X018530Y023731D01*
X018577Y023820D02*
X018577Y023960D01*
X018530Y024007D01*
X018343Y024007D01*
X018297Y023960D01*
X018297Y023820D01*
X018577Y023820D01*
X018483Y024096D02*
X018577Y024190D01*
X018483Y024283D01*
X018297Y024283D01*
X018437Y024283D02*
X018437Y024096D01*
X018483Y024096D02*
X018297Y024096D01*
X018030Y025523D02*
X017936Y025523D01*
X017890Y025569D01*
X017890Y025663D01*
X017983Y025663D01*
X017890Y025756D02*
X017936Y025803D01*
X018030Y025803D01*
X018077Y025756D01*
X018077Y025569D01*
X018030Y025523D01*
X017800Y025523D02*
X017800Y025803D01*
X017614Y025523D01*
X017614Y025803D01*
X017524Y025803D02*
X017524Y025523D01*
X017384Y025523D01*
X017337Y025569D01*
X017337Y025756D01*
X017384Y025803D01*
X017524Y025803D01*
X017127Y025709D02*
X017033Y025803D01*
X016940Y025709D01*
X016940Y025523D01*
X016850Y025523D02*
X016850Y025803D01*
X016710Y025803D01*
X016664Y025756D01*
X016664Y025663D01*
X016710Y025616D01*
X016850Y025616D01*
X016757Y025616D02*
X016664Y025523D01*
X016574Y025523D02*
X016387Y025523D01*
X016298Y025523D02*
X016298Y025803D01*
X016111Y025803D01*
X016204Y025663D02*
X016298Y025663D01*
X016387Y025803D02*
X016574Y025803D01*
X016574Y025523D01*
X016574Y025663D02*
X016481Y025663D01*
X016940Y025663D02*
X017127Y025663D01*
X017127Y025709D02*
X017127Y025523D01*
X016077Y024096D02*
X015797Y024096D01*
X015797Y024283D01*
X015843Y024007D02*
X015797Y023960D01*
X015797Y023867D01*
X015843Y023820D01*
X016030Y023820D01*
X016077Y023867D01*
X016077Y023960D01*
X016030Y024007D01*
X016030Y023731D02*
X016077Y023684D01*
X016077Y023591D01*
X016030Y023544D01*
X015983Y023544D01*
X015937Y023591D01*
X015937Y023684D01*
X015890Y023731D01*
X015843Y023731D01*
X015797Y023684D01*
X015797Y023591D01*
X015843Y023544D01*
X028662Y017550D02*
X028662Y016375D01*
X029712Y016375D01*
X029837Y016500D01*
X029837Y017550D01*
X028662Y017550D01*
D14*
X042887Y005613D02*
X042889Y005662D01*
X042895Y005710D01*
X042905Y005758D01*
X042919Y005805D01*
X042936Y005851D01*
X042957Y005895D01*
X042982Y005937D01*
X043010Y005977D01*
X043042Y006015D01*
X043076Y006050D01*
X043113Y006082D01*
X043152Y006111D01*
X043194Y006137D01*
X043238Y006159D01*
X043283Y006177D01*
X043330Y006192D01*
X043377Y006203D01*
X043426Y006210D01*
X043475Y006213D01*
X043524Y006212D01*
X043572Y006207D01*
X043621Y006198D01*
X043668Y006185D01*
X043714Y006168D01*
X043758Y006148D01*
X043801Y006124D01*
X043842Y006097D01*
X043880Y006066D01*
X043916Y006033D01*
X043948Y005997D01*
X043978Y005958D01*
X044005Y005917D01*
X044028Y005873D01*
X044047Y005828D01*
X044063Y005782D01*
X044075Y005735D01*
X044083Y005686D01*
X044087Y005637D01*
X044087Y005589D01*
X044083Y005540D01*
X044075Y005491D01*
X044063Y005444D01*
X044047Y005398D01*
X044028Y005353D01*
X044005Y005309D01*
X043978Y005268D01*
X043948Y005229D01*
X043916Y005193D01*
X043880Y005160D01*
X043842Y005129D01*
X043801Y005102D01*
X043758Y005078D01*
X043714Y005058D01*
X043668Y005041D01*
X043621Y005028D01*
X043572Y005019D01*
X043524Y005014D01*
X043475Y005013D01*
X043426Y005016D01*
X043377Y005023D01*
X043330Y005034D01*
X043283Y005049D01*
X043238Y005067D01*
X043194Y005089D01*
X043152Y005115D01*
X043113Y005144D01*
X043076Y005176D01*
X043042Y005211D01*
X043010Y005249D01*
X042982Y005289D01*
X042957Y005331D01*
X042936Y005375D01*
X042919Y005421D01*
X042905Y005468D01*
X042895Y005516D01*
X042889Y005564D01*
X042887Y005613D01*
X010787Y031663D02*
X010789Y031712D01*
X010795Y031760D01*
X010805Y031808D01*
X010819Y031855D01*
X010836Y031901D01*
X010857Y031945D01*
X010882Y031987D01*
X010910Y032027D01*
X010942Y032065D01*
X010976Y032100D01*
X011013Y032132D01*
X011052Y032161D01*
X011094Y032187D01*
X011138Y032209D01*
X011183Y032227D01*
X011230Y032242D01*
X011277Y032253D01*
X011326Y032260D01*
X011375Y032263D01*
X011424Y032262D01*
X011472Y032257D01*
X011521Y032248D01*
X011568Y032235D01*
X011614Y032218D01*
X011658Y032198D01*
X011701Y032174D01*
X011742Y032147D01*
X011780Y032116D01*
X011816Y032083D01*
X011848Y032047D01*
X011878Y032008D01*
X011905Y031967D01*
X011928Y031923D01*
X011947Y031878D01*
X011963Y031832D01*
X011975Y031785D01*
X011983Y031736D01*
X011987Y031687D01*
X011987Y031639D01*
X011983Y031590D01*
X011975Y031541D01*
X011963Y031494D01*
X011947Y031448D01*
X011928Y031403D01*
X011905Y031359D01*
X011878Y031318D01*
X011848Y031279D01*
X011816Y031243D01*
X011780Y031210D01*
X011742Y031179D01*
X011701Y031152D01*
X011658Y031128D01*
X011614Y031108D01*
X011568Y031091D01*
X011521Y031078D01*
X011472Y031069D01*
X011424Y031064D01*
X011375Y031063D01*
X011326Y031066D01*
X011277Y031073D01*
X011230Y031084D01*
X011183Y031099D01*
X011138Y031117D01*
X011094Y031139D01*
X011052Y031165D01*
X011013Y031194D01*
X010976Y031226D01*
X010942Y031261D01*
X010910Y031299D01*
X010882Y031339D01*
X010857Y031381D01*
X010836Y031425D01*
X010819Y031471D01*
X010805Y031518D01*
X010795Y031566D01*
X010789Y031614D01*
X010787Y031663D01*
X002387Y005613D02*
X002389Y005662D01*
X002395Y005710D01*
X002405Y005758D01*
X002419Y005805D01*
X002436Y005851D01*
X002457Y005895D01*
X002482Y005937D01*
X002510Y005977D01*
X002542Y006015D01*
X002576Y006050D01*
X002613Y006082D01*
X002652Y006111D01*
X002694Y006137D01*
X002738Y006159D01*
X002783Y006177D01*
X002830Y006192D01*
X002877Y006203D01*
X002926Y006210D01*
X002975Y006213D01*
X003024Y006212D01*
X003072Y006207D01*
X003121Y006198D01*
X003168Y006185D01*
X003214Y006168D01*
X003258Y006148D01*
X003301Y006124D01*
X003342Y006097D01*
X003380Y006066D01*
X003416Y006033D01*
X003448Y005997D01*
X003478Y005958D01*
X003505Y005917D01*
X003528Y005873D01*
X003547Y005828D01*
X003563Y005782D01*
X003575Y005735D01*
X003583Y005686D01*
X003587Y005637D01*
X003587Y005589D01*
X003583Y005540D01*
X003575Y005491D01*
X003563Y005444D01*
X003547Y005398D01*
X003528Y005353D01*
X003505Y005309D01*
X003478Y005268D01*
X003448Y005229D01*
X003416Y005193D01*
X003380Y005160D01*
X003342Y005129D01*
X003301Y005102D01*
X003258Y005078D01*
X003214Y005058D01*
X003168Y005041D01*
X003121Y005028D01*
X003072Y005019D01*
X003024Y005014D01*
X002975Y005013D01*
X002926Y005016D01*
X002877Y005023D01*
X002830Y005034D01*
X002783Y005049D01*
X002738Y005067D01*
X002694Y005089D01*
X002652Y005115D01*
X002613Y005144D01*
X002576Y005176D01*
X002542Y005211D01*
X002510Y005249D01*
X002482Y005289D01*
X002457Y005331D01*
X002436Y005375D01*
X002419Y005421D01*
X002405Y005468D01*
X002395Y005516D01*
X002389Y005564D01*
X002387Y005613D01*
X043087Y035063D02*
X043089Y035112D01*
X043095Y035160D01*
X043105Y035208D01*
X043119Y035255D01*
X043136Y035301D01*
X043157Y035345D01*
X043182Y035387D01*
X043210Y035427D01*
X043242Y035465D01*
X043276Y035500D01*
X043313Y035532D01*
X043352Y035561D01*
X043394Y035587D01*
X043438Y035609D01*
X043483Y035627D01*
X043530Y035642D01*
X043577Y035653D01*
X043626Y035660D01*
X043675Y035663D01*
X043724Y035662D01*
X043772Y035657D01*
X043821Y035648D01*
X043868Y035635D01*
X043914Y035618D01*
X043958Y035598D01*
X044001Y035574D01*
X044042Y035547D01*
X044080Y035516D01*
X044116Y035483D01*
X044148Y035447D01*
X044178Y035408D01*
X044205Y035367D01*
X044228Y035323D01*
X044247Y035278D01*
X044263Y035232D01*
X044275Y035185D01*
X044283Y035136D01*
X044287Y035087D01*
X044287Y035039D01*
X044283Y034990D01*
X044275Y034941D01*
X044263Y034894D01*
X044247Y034848D01*
X044228Y034803D01*
X044205Y034759D01*
X044178Y034718D01*
X044148Y034679D01*
X044116Y034643D01*
X044080Y034610D01*
X044042Y034579D01*
X044001Y034552D01*
X043958Y034528D01*
X043914Y034508D01*
X043868Y034491D01*
X043821Y034478D01*
X043772Y034469D01*
X043724Y034464D01*
X043675Y034463D01*
X043626Y034466D01*
X043577Y034473D01*
X043530Y034484D01*
X043483Y034499D01*
X043438Y034517D01*
X043394Y034539D01*
X043352Y034565D01*
X043313Y034594D01*
X043276Y034626D01*
X043242Y034661D01*
X043210Y034699D01*
X043182Y034739D01*
X043157Y034781D01*
X043136Y034825D01*
X043119Y034871D01*
X043105Y034918D01*
X043095Y034966D01*
X043089Y035014D01*
X043087Y035063D01*
D15*
X008959Y026286D03*
D16*
X009821Y025647D02*
X007852Y025647D01*
X007852Y023678D01*
X009821Y023678D01*
X009821Y025647D01*
X014010Y029133D02*
X015663Y029133D01*
X015663Y032519D01*
X014010Y032519D01*
X014010Y029133D01*
X014559Y030157D02*
X014561Y030190D01*
X014567Y030222D01*
X014576Y030254D01*
X014590Y030284D01*
X014606Y030312D01*
X014626Y030338D01*
X014649Y030362D01*
X014675Y030383D01*
X014703Y030400D01*
X014733Y030415D01*
X014764Y030425D01*
X014796Y030432D01*
X014829Y030435D01*
X014862Y030434D01*
X014894Y030429D01*
X014926Y030420D01*
X014957Y030408D01*
X014985Y030392D01*
X015012Y030373D01*
X015036Y030351D01*
X015058Y030326D01*
X015076Y030298D01*
X015091Y030269D01*
X015103Y030238D01*
X015111Y030206D01*
X015115Y030173D01*
X015115Y030141D01*
X015111Y030108D01*
X015103Y030076D01*
X015091Y030045D01*
X015076Y030016D01*
X015058Y029988D01*
X015036Y029963D01*
X015012Y029941D01*
X014985Y029922D01*
X014957Y029906D01*
X014926Y029894D01*
X014894Y029885D01*
X014862Y029880D01*
X014829Y029879D01*
X014796Y029882D01*
X014764Y029889D01*
X014733Y029899D01*
X014703Y029914D01*
X014675Y029931D01*
X014649Y029952D01*
X014626Y029976D01*
X014606Y030002D01*
X014590Y030030D01*
X014576Y030060D01*
X014567Y030092D01*
X014561Y030124D01*
X014559Y030157D01*
X014397Y030157D02*
X014399Y030199D01*
X014405Y030240D01*
X014415Y030281D01*
X014429Y030321D01*
X014446Y030359D01*
X014467Y030395D01*
X014491Y030429D01*
X014519Y030461D01*
X014549Y030490D01*
X014582Y030515D01*
X014617Y030538D01*
X014654Y030557D01*
X014693Y030573D01*
X014733Y030585D01*
X014774Y030593D01*
X014816Y030597D01*
X014858Y030597D01*
X014900Y030593D01*
X014941Y030585D01*
X014981Y030573D01*
X015020Y030557D01*
X015057Y030538D01*
X015092Y030515D01*
X015125Y030490D01*
X015155Y030461D01*
X015183Y030429D01*
X015207Y030395D01*
X015228Y030359D01*
X015245Y030321D01*
X015259Y030281D01*
X015269Y030240D01*
X015275Y030199D01*
X015277Y030157D01*
X015275Y030115D01*
X015269Y030074D01*
X015259Y030033D01*
X015245Y029993D01*
X015228Y029955D01*
X015207Y029919D01*
X015183Y029885D01*
X015155Y029853D01*
X015125Y029824D01*
X015092Y029799D01*
X015057Y029776D01*
X015020Y029757D01*
X014981Y029741D01*
X014941Y029729D01*
X014900Y029721D01*
X014858Y029717D01*
X014816Y029717D01*
X014774Y029721D01*
X014733Y029729D01*
X014693Y029741D01*
X014654Y029757D01*
X014617Y029776D01*
X014582Y029799D01*
X014549Y029824D01*
X014519Y029853D01*
X014491Y029885D01*
X014467Y029919D01*
X014446Y029955D01*
X014429Y029993D01*
X014415Y030033D01*
X014405Y030074D01*
X014399Y030115D01*
X014397Y030157D01*
X014640Y031535D02*
X014642Y031562D01*
X014648Y031589D01*
X014657Y031615D01*
X014670Y031639D01*
X014686Y031662D01*
X014705Y031681D01*
X014727Y031698D01*
X014751Y031712D01*
X014776Y031722D01*
X014803Y031729D01*
X014830Y031732D01*
X014858Y031731D01*
X014885Y031726D01*
X014911Y031718D01*
X014935Y031706D01*
X014958Y031690D01*
X014979Y031672D01*
X014996Y031651D01*
X015011Y031627D01*
X015022Y031602D01*
X015030Y031576D01*
X015034Y031549D01*
X015034Y031521D01*
X015030Y031494D01*
X015022Y031468D01*
X015011Y031443D01*
X014996Y031419D01*
X014979Y031398D01*
X014958Y031380D01*
X014936Y031364D01*
X014911Y031352D01*
X014885Y031344D01*
X014858Y031339D01*
X014830Y031338D01*
X014803Y031341D01*
X014776Y031348D01*
X014751Y031358D01*
X014727Y031372D01*
X014705Y031389D01*
X014686Y031408D01*
X014670Y031431D01*
X014657Y031455D01*
X014648Y031481D01*
X014642Y031508D01*
X014640Y031535D01*
X014559Y031535D02*
X014561Y031568D01*
X014567Y031600D01*
X014576Y031632D01*
X014590Y031662D01*
X014606Y031690D01*
X014626Y031716D01*
X014649Y031740D01*
X014675Y031761D01*
X014703Y031778D01*
X014733Y031793D01*
X014764Y031803D01*
X014796Y031810D01*
X014829Y031813D01*
X014862Y031812D01*
X014894Y031807D01*
X014926Y031798D01*
X014957Y031786D01*
X014985Y031770D01*
X015012Y031751D01*
X015036Y031729D01*
X015058Y031704D01*
X015076Y031676D01*
X015091Y031647D01*
X015103Y031616D01*
X015111Y031584D01*
X015115Y031551D01*
X015115Y031519D01*
X015111Y031486D01*
X015103Y031454D01*
X015091Y031423D01*
X015076Y031394D01*
X015058Y031366D01*
X015036Y031341D01*
X015012Y031319D01*
X014985Y031300D01*
X014957Y031284D01*
X014926Y031272D01*
X014894Y031263D01*
X014862Y031258D01*
X014829Y031257D01*
X014796Y031260D01*
X014764Y031267D01*
X014733Y031277D01*
X014703Y031292D01*
X014675Y031309D01*
X014649Y031330D01*
X014626Y031354D01*
X014606Y031380D01*
X014590Y031408D01*
X014576Y031438D01*
X014567Y031470D01*
X014561Y031502D01*
X014559Y031535D01*
X018437Y025498D02*
X018362Y025423D01*
X018362Y025273D01*
X018437Y025198D01*
X018737Y025498D01*
X018437Y025498D01*
X018737Y025498D02*
X018812Y025423D01*
X018812Y025273D01*
X018737Y025198D01*
X018437Y025198D01*
X018362Y025038D02*
X018362Y024738D01*
X018362Y024888D02*
X018812Y024888D01*
X018662Y024738D01*
X023352Y026283D02*
X023352Y027542D01*
X025321Y027542D01*
X025321Y026283D01*
X023352Y026283D01*
X029212Y020213D02*
X029462Y020463D01*
X030887Y020463D01*
X031137Y020213D01*
X031137Y018213D01*
X030887Y017963D01*
X029462Y017963D01*
X029212Y018213D01*
X029212Y020213D01*
X016012Y020888D02*
X015562Y020888D01*
X015562Y020738D02*
X015562Y021038D01*
X015862Y020738D02*
X016012Y020888D01*
D17*
X009585Y023875D02*
X009587Y023887D01*
X009592Y023898D01*
X009601Y023907D01*
X009612Y023912D01*
X009624Y023914D01*
X009636Y023912D01*
X009647Y023907D01*
X009656Y023898D01*
X009661Y023887D01*
X009663Y023875D01*
X009661Y023863D01*
X009656Y023852D01*
X009647Y023843D01*
X009636Y023838D01*
X009624Y023836D01*
X009612Y023838D01*
X009601Y023843D01*
X009592Y023852D01*
X009587Y023863D01*
X009585Y023875D01*
D18*
X030952Y016931D02*
X031354Y017325D01*
X031354Y016537D01*
X030952Y016931D01*
X036561Y010906D02*
X036561Y010119D01*
X036963Y010513D01*
X036561Y010906D01*
X035087Y023651D02*
X035087Y025580D01*
X035087Y026643D02*
X035087Y027824D01*
X035087Y028887D02*
X035087Y029163D01*
X039850Y029163D01*
X040441Y028533D02*
X040441Y025226D01*
X040440Y025225D02*
X040443Y025187D01*
X040449Y025149D01*
X040459Y025112D01*
X040473Y025076D01*
X040489Y025041D01*
X040509Y025009D01*
X040532Y024978D01*
X040558Y024949D01*
X040587Y024923D01*
X040618Y024900D01*
X040650Y024880D01*
X040685Y024864D01*
X040721Y024850D01*
X040758Y024840D01*
X040796Y024834D01*
X040834Y024831D01*
X040834Y024832D02*
X040866Y024833D01*
X040897Y024829D01*
X040928Y024822D01*
X040958Y024811D01*
X040986Y024797D01*
X041012Y024779D01*
X041036Y024758D01*
X041057Y024734D01*
X041075Y024708D01*
X041089Y024680D01*
X041100Y024650D01*
X041107Y024619D01*
X041111Y024588D01*
X041110Y024556D01*
X041110Y024241D01*
X040283Y023651D02*
X035087Y023651D01*
D19*
X001825Y032769D02*
X001825Y033320D01*
X001826Y033320D02*
X001824Y033346D01*
X001819Y033371D01*
X001811Y033395D01*
X001800Y033418D01*
X001785Y033440D01*
X001768Y033459D01*
X001749Y033476D01*
X001728Y033491D01*
X001704Y033502D01*
X001680Y033510D01*
X001655Y033515D01*
X001629Y033517D01*
X000841Y033517D01*
X001629Y032572D02*
X001655Y032574D01*
X001680Y032579D01*
X001704Y032587D01*
X001727Y032598D01*
X001749Y032613D01*
X001768Y032630D01*
X001785Y032649D01*
X001800Y032670D01*
X001811Y032694D01*
X001819Y032718D01*
X001824Y032743D01*
X001826Y032769D01*
X001629Y032572D02*
X000841Y032572D01*
D20*
X010037Y030213D02*
X010037Y028213D01*
X013437Y028213D01*
X013437Y030213D01*
X010037Y030213D01*
D21*
X012242Y027808D03*
M02*
