G75*
G70*
%OFA0B0*%
%FSLAX24Y24*%
%IPPOS*%
%LPD*%
%AMOC8*
5,1,8,0,0,1.08239X$1,22.5*
%
%ADD10C,0.0600*%
%ADD11R,0.0315X0.0315*%
%ADD12R,0.0433X0.0394*%
%ADD13C,0.1660*%
%ADD14C,0.1620*%
%ADD15R,0.0591X0.0512*%
%ADD16C,0.1095*%
%ADD17C,0.5000*%
%ADD18R,0.1100X0.2000*%
%ADD19R,0.0394X0.0433*%
%ADD20C,0.0740*%
%ADD21OC8,0.0740*%
%ADD22OC8,0.0600*%
%ADD23R,0.0551X0.0748*%
%ADD24R,0.1063X0.1063*%
%ADD25R,0.0520X0.0520*%
%ADD26R,0.0354X0.0394*%
%ADD27R,0.0354X0.0433*%
%ADD28C,0.0550*%
%ADD29C,0.0160*%
%ADD30C,0.0436*%
%ADD31C,0.0130*%
%ADD32C,0.0100*%
%ADD33C,0.0080*%
D10*
X004407Y004673D02*
X005007Y004673D01*
X006967Y004673D02*
X007567Y004673D01*
X008307Y004673D02*
X008907Y004673D01*
X008907Y006453D02*
X008307Y006453D01*
X007567Y006453D02*
X006967Y006453D01*
X005007Y006453D02*
X004407Y006453D01*
X003127Y007533D02*
X003127Y008133D01*
X001347Y008133D02*
X001347Y007533D01*
X001347Y010093D02*
X001347Y010693D01*
X003127Y010693D02*
X003127Y010093D01*
X010867Y006453D02*
X011467Y006453D01*
X012207Y006453D02*
X012807Y006453D01*
X014767Y006453D02*
X015367Y006453D01*
X015367Y004673D02*
X014767Y004673D01*
X012807Y004673D02*
X012207Y004673D01*
X011467Y004673D02*
X010867Y004673D01*
D11*
X001537Y005467D03*
X001537Y006058D03*
X011795Y032748D03*
X011795Y033339D03*
X040437Y012058D03*
X040437Y011467D03*
X040437Y010058D03*
X040437Y009467D03*
D12*
X039837Y009428D03*
X039837Y010097D03*
X039837Y011428D03*
X039837Y012097D03*
X012469Y032708D03*
X012469Y033377D03*
D13*
X034237Y008426D03*
X038637Y008426D03*
D14*
X040117Y007175D03*
X038647Y005544D03*
X035717Y007175D03*
X034247Y005544D03*
D15*
X033837Y023289D03*
X033837Y024037D03*
D16*
X033837Y030563D03*
X033837Y033563D03*
X026837Y033563D03*
X026837Y030563D03*
X019837Y030563D03*
X019837Y033563D03*
X019837Y016763D03*
X019837Y013763D03*
X026837Y013763D03*
X026837Y016763D03*
X033837Y016763D03*
X033837Y013763D03*
X030887Y010413D03*
X029037Y010413D03*
X027187Y010413D03*
X028037Y005413D03*
X030037Y005413D03*
X040837Y013763D03*
X040837Y016763D03*
X040837Y030563D03*
X040837Y033563D03*
D17*
X021487Y008663D03*
D18*
X017187Y008663D03*
X025787Y008663D03*
D19*
X002206Y004563D03*
X001537Y004563D03*
D20*
X002287Y017663D03*
X002387Y018663D03*
X002287Y019663D03*
X002387Y020663D03*
X002287Y021663D03*
X002287Y023313D03*
X002387Y024313D03*
X002287Y025313D03*
X002387Y026313D03*
X002287Y027313D03*
X002387Y028313D03*
D21*
X002837Y015763D03*
X001837Y015763D03*
X001937Y014763D03*
X002937Y014763D03*
X002837Y013763D03*
X001837Y013763D03*
D22*
X016687Y020913D03*
X016687Y021913D03*
X016687Y022913D03*
X016687Y023913D03*
X016687Y024913D03*
X017687Y024913D03*
X017687Y023913D03*
X017687Y022913D03*
X017687Y021913D03*
X017687Y020913D03*
D23*
X009345Y030603D03*
X008479Y030603D03*
X006432Y030603D03*
X005566Y030603D03*
X005566Y035485D03*
X006432Y035485D03*
X008479Y035485D03*
X009345Y035485D03*
D24*
X001629Y035485D03*
X001629Y030603D03*
D25*
X004237Y027213D03*
X004237Y026213D03*
X004237Y025213D03*
X004237Y024213D03*
X004237Y023213D03*
X004237Y022213D03*
X004237Y021213D03*
X004237Y020213D03*
X004237Y019213D03*
X004237Y018213D03*
X004237Y017213D03*
X004237Y016213D03*
X004237Y015213D03*
X004237Y014213D03*
X004237Y013213D03*
X004237Y012213D03*
X004237Y011213D03*
X004237Y010213D03*
X004237Y009213D03*
X004237Y008213D03*
X015237Y008213D03*
X015237Y009213D03*
X015237Y026213D03*
X015237Y027213D03*
D26*
X015816Y005897D03*
X015816Y005228D03*
D27*
X016957Y005563D03*
D28*
X012717Y028563D03*
X011737Y028563D03*
X010757Y028563D03*
X010757Y029863D03*
X011737Y029863D03*
X012717Y029863D03*
D29*
X012237Y029363D02*
X011737Y029863D01*
X012237Y029363D02*
X017087Y029363D01*
X019237Y027213D01*
X019237Y024913D01*
X018637Y024913D02*
X018637Y027363D01*
X016937Y029063D01*
X012237Y029063D01*
X011737Y028563D01*
X008437Y027813D02*
X007787Y027163D01*
X008437Y027813D02*
X015887Y027813D01*
X016437Y027263D01*
X016437Y025813D01*
X016187Y025563D01*
X016187Y024413D01*
X016687Y023913D01*
X017187Y024413D02*
X020087Y024413D01*
X021087Y023413D01*
X021537Y022963D01*
X022837Y022963D01*
X022887Y023013D01*
X023487Y022763D02*
X024437Y021813D01*
X024987Y021913D02*
X024187Y022713D01*
X024187Y023763D01*
X023937Y024013D01*
X023487Y023563D02*
X023487Y022763D01*
X023937Y021513D02*
X023837Y021413D01*
X017187Y021413D01*
X017137Y021363D01*
X016687Y020913D01*
X017687Y020913D02*
X016287Y019513D01*
X016287Y006963D01*
X016957Y006292D01*
X016957Y005563D01*
X015816Y005228D02*
X004816Y005228D01*
X004416Y005633D01*
X003537Y006513D01*
X003287Y006513D01*
X002537Y007263D01*
X001537Y006263D01*
X001537Y006058D01*
X001537Y005467D02*
X001537Y004563D01*
X001537Y004563D01*
X002537Y007263D02*
X002537Y009163D01*
X003587Y013463D02*
X003687Y013463D01*
X003937Y013713D01*
X004687Y013713D01*
X014212Y023238D01*
X016687Y024913D02*
X017187Y024413D01*
X015837Y026413D02*
X015937Y026513D01*
X015837Y026413D02*
X015837Y008613D01*
X015437Y008213D01*
X015237Y008213D01*
X019837Y013763D02*
X022587Y013763D01*
X026787Y009563D01*
X035337Y009563D01*
X037724Y007175D01*
X040117Y007175D01*
X038637Y008426D02*
X038637Y011563D01*
X040837Y013763D01*
X035537Y013763D01*
X033137Y011363D01*
X028137Y011363D01*
X027187Y010413D01*
X026837Y013763D02*
X033837Y013763D01*
X039337Y010513D02*
X039652Y010197D01*
X039837Y010097D01*
X040437Y009467D02*
X040447Y009428D01*
X039837Y009428D01*
X026687Y021813D02*
X025187Y020313D01*
X023437Y018563D01*
X023437Y018063D01*
X022737Y018063D02*
X022737Y018363D01*
X024987Y020613D01*
X026087Y021713D01*
X026087Y025313D01*
X025487Y025313D02*
X025487Y021613D01*
X024637Y020763D01*
X022087Y018213D01*
X022037Y018163D01*
X022037Y018063D01*
X026687Y021813D02*
X026687Y025313D01*
X025487Y025913D02*
X024187Y027213D01*
X020487Y027213D01*
X019837Y027713D02*
X019837Y025563D01*
X022037Y023363D01*
X010737Y020763D02*
X004687Y014713D01*
X003787Y014713D01*
X002837Y013763D01*
X002937Y014763D02*
X003337Y014763D01*
X003687Y015113D01*
X003687Y018663D01*
X004237Y019213D01*
X011795Y032748D02*
X012429Y032748D01*
X012469Y032708D01*
X011795Y033339D02*
X009710Y033339D01*
X009337Y033713D01*
X009337Y035477D01*
X009345Y035485D02*
X009345Y035339D01*
X006087Y034063D02*
X005566Y034583D01*
X005566Y035485D01*
X019837Y033563D02*
X026837Y033563D01*
X033837Y033563D02*
X040837Y033563D01*
X038087Y026963D02*
X037537Y026413D01*
X037537Y023913D01*
X037537Y026413D01*
X038087Y026963D01*
D30*
X038087Y026963D03*
X040337Y027163D03*
X037537Y023913D03*
X028562Y017963D03*
X028437Y016113D03*
X028837Y015763D03*
X031337Y014663D03*
X036337Y014463D03*
X039337Y010513D03*
X024987Y021913D03*
X024437Y021813D03*
X023937Y021513D03*
X022887Y023013D03*
X023487Y023563D03*
X023937Y024013D03*
X025487Y025313D03*
X026087Y025313D03*
X026687Y025313D03*
X025487Y025913D03*
X023287Y026238D03*
X022337Y024163D03*
X022037Y023363D03*
X019237Y024913D03*
X018637Y024913D03*
X020487Y027213D03*
X019837Y027713D03*
X015937Y026513D03*
X014637Y025413D03*
X015287Y024963D03*
X014212Y023238D03*
X010737Y020763D03*
X007787Y027163D03*
X006837Y027163D03*
X014337Y031663D03*
X006087Y034063D03*
X022337Y020413D03*
X022037Y018063D03*
X022737Y018063D03*
X023437Y018063D03*
X003587Y013463D03*
X002537Y009163D03*
D31*
X004137Y023213D02*
X003387Y023963D01*
X003387Y026713D01*
X002987Y026313D01*
X002387Y026313D01*
X003387Y026713D02*
X003387Y027813D01*
X004087Y028513D01*
X006137Y028513D01*
X007087Y029463D01*
X007087Y033063D01*
X006137Y034013D01*
X006087Y034063D01*
X008479Y030603D02*
X008487Y030596D01*
X008487Y029063D01*
X008987Y028563D01*
X010757Y028563D01*
X010757Y029863D02*
X010086Y029863D01*
X009345Y030603D01*
X004237Y023213D02*
X004137Y023213D01*
D32*
X000991Y007318D02*
X000991Y004317D01*
X001230Y004317D01*
X001230Y004825D01*
X001294Y004889D01*
X001347Y004889D01*
X001347Y005200D01*
X001333Y005200D01*
X001269Y005264D01*
X001269Y005670D01*
X001333Y005735D01*
X001740Y005735D01*
X001804Y005670D01*
X001804Y005264D01*
X001740Y005200D01*
X001726Y005200D01*
X001726Y004889D01*
X001779Y004889D01*
X001844Y004825D01*
X001844Y004317D01*
X001862Y004317D01*
X001859Y004326D01*
X001859Y004514D01*
X002157Y004514D01*
X002157Y004611D01*
X001859Y004611D01*
X001859Y004799D01*
X001870Y004837D01*
X001889Y004871D01*
X001917Y004899D01*
X001951Y004919D01*
X001990Y004929D01*
X002158Y004929D01*
X002158Y004611D01*
X002255Y004611D01*
X002553Y004611D01*
X002553Y004799D01*
X002543Y004837D01*
X002523Y004871D01*
X002495Y004899D01*
X002461Y004919D01*
X002423Y004929D01*
X002255Y004929D01*
X002255Y004611D01*
X002255Y004514D01*
X002553Y004514D01*
X002553Y004326D01*
X002551Y004317D01*
X004130Y004317D01*
X004113Y004329D01*
X004063Y004379D01*
X004022Y004437D01*
X003989Y004500D01*
X003968Y004567D01*
X003959Y004623D01*
X004656Y004623D01*
X004656Y004722D01*
X003959Y004722D01*
X003968Y004778D01*
X003989Y004845D01*
X004022Y004908D01*
X004063Y004966D01*
X004113Y005016D01*
X004171Y005057D01*
X004234Y005090D01*
X004301Y005111D01*
X004371Y005122D01*
X004653Y005122D01*
X004626Y005149D01*
X004626Y005150D01*
X004283Y005498D01*
X003458Y006323D01*
X003365Y006323D01*
X003232Y006323D01*
X003411Y006248D01*
X003622Y006037D01*
X003736Y005762D01*
X003736Y005463D01*
X003622Y005188D01*
X003411Y004977D01*
X003136Y004863D01*
X002837Y004863D01*
X002837Y004317D01*
X002553Y004663D02*
X004656Y004663D01*
X004757Y004663D02*
X007216Y004663D01*
X007216Y004623D02*
X006519Y004623D01*
X006528Y004567D01*
X006549Y004500D01*
X006582Y004437D01*
X006623Y004379D01*
X006673Y004329D01*
X006690Y004317D01*
X005283Y004317D01*
X005300Y004329D01*
X005350Y004379D01*
X005391Y004437D01*
X005424Y004500D01*
X005445Y004567D01*
X005454Y004623D01*
X004757Y004623D01*
X004757Y004722D01*
X005454Y004722D01*
X005445Y004778D01*
X005424Y004845D01*
X005391Y004908D01*
X005350Y004966D01*
X005300Y005016D01*
X005269Y005038D01*
X006704Y005038D01*
X006673Y005016D01*
X006623Y004966D01*
X006582Y004908D01*
X006549Y004845D01*
X006528Y004778D01*
X006519Y004722D01*
X007216Y004722D01*
X007216Y004623D01*
X007317Y004623D02*
X007317Y004722D01*
X008014Y004722D01*
X008556Y004722D01*
X008556Y004623D01*
X007859Y004623D01*
X007317Y004623D01*
X007337Y004623D02*
X007337Y004722D01*
X007317Y004663D02*
X008556Y004663D01*
X008657Y004663D02*
X011116Y004663D01*
X011116Y004623D02*
X010419Y004623D01*
X010428Y004567D01*
X010449Y004500D01*
X010482Y004437D01*
X010523Y004379D01*
X010573Y004329D01*
X010590Y004317D01*
X009183Y004317D01*
X009200Y004329D01*
X009250Y004379D01*
X009291Y004437D01*
X009324Y004500D01*
X009345Y004567D01*
X009354Y004623D01*
X008657Y004623D01*
X008657Y004722D01*
X009354Y004722D01*
X009345Y004778D01*
X009324Y004845D01*
X009291Y004908D01*
X009250Y004966D01*
X009200Y005016D01*
X009169Y005038D01*
X010604Y005038D01*
X010573Y005016D01*
X010523Y004966D01*
X010482Y004908D01*
X010449Y004845D01*
X010428Y004778D01*
X010419Y004722D01*
X011116Y004722D01*
X011116Y004623D01*
X011217Y004623D02*
X011217Y004722D01*
X011759Y004722D01*
X012456Y004722D01*
X012456Y004623D01*
X011759Y004623D01*
X011217Y004623D01*
X011217Y004663D02*
X012456Y004663D01*
X012557Y004663D02*
X015016Y004663D01*
X015016Y004623D02*
X014319Y004623D01*
X014328Y004567D01*
X014349Y004500D01*
X014382Y004437D01*
X014423Y004379D01*
X014473Y004329D01*
X014490Y004317D01*
X013083Y004317D01*
X013100Y004329D01*
X013150Y004379D01*
X013191Y004437D01*
X013224Y004500D01*
X013245Y004567D01*
X013254Y004623D01*
X012557Y004623D01*
X012557Y004722D01*
X013254Y004722D01*
X013245Y004778D01*
X013224Y004845D01*
X013191Y004908D01*
X013150Y004966D01*
X013100Y005016D01*
X013069Y005038D01*
X014504Y005038D01*
X014473Y005016D01*
X014423Y004966D01*
X014382Y004908D01*
X014349Y004845D01*
X014328Y004778D01*
X014319Y004722D01*
X015016Y004722D01*
X015016Y004623D01*
X015117Y004623D02*
X015117Y004722D01*
X015814Y004722D01*
X015805Y004778D01*
X015784Y004845D01*
X015751Y004908D01*
X015742Y004921D01*
X016038Y004921D01*
X016103Y004985D01*
X016103Y005470D01*
X016038Y005535D01*
X015593Y005535D01*
X015529Y005470D01*
X015529Y005418D01*
X004896Y005418D01*
X004606Y005711D01*
X004550Y005768D01*
X004496Y005822D01*
X004496Y005822D01*
X004240Y006078D01*
X004325Y006043D01*
X005088Y006043D01*
X005239Y006105D01*
X005354Y006220D01*
X005416Y006371D01*
X005416Y006534D01*
X005354Y006685D01*
X005239Y006800D01*
X005088Y006862D01*
X004325Y006862D01*
X004174Y006800D01*
X004059Y006685D01*
X003997Y006534D01*
X003997Y006371D01*
X004032Y006286D01*
X003726Y006591D01*
X003615Y006702D01*
X003365Y006702D01*
X002951Y007117D01*
X002954Y007115D01*
X003021Y007094D01*
X003077Y007085D01*
X003077Y007782D01*
X003176Y007782D01*
X003176Y007085D01*
X003232Y007094D01*
X003299Y007115D01*
X003362Y007148D01*
X003420Y007189D01*
X003470Y007239D01*
X003511Y007297D01*
X003544Y007360D01*
X003565Y007427D01*
X003576Y007497D01*
X003576Y007783D01*
X003177Y007783D01*
X003177Y007882D01*
X003576Y007882D01*
X003576Y008168D01*
X003565Y008238D01*
X003544Y008305D01*
X003511Y008368D01*
X003470Y008426D01*
X003420Y008476D01*
X003362Y008517D01*
X003299Y008550D01*
X003232Y008571D01*
X003176Y008580D01*
X003176Y007883D01*
X003077Y007883D01*
X003077Y008580D01*
X003021Y008571D01*
X002954Y008550D01*
X002891Y008517D01*
X002833Y008476D01*
X002783Y008426D01*
X002742Y008368D01*
X002726Y008339D01*
X002726Y008889D01*
X002815Y008977D01*
X002865Y009097D01*
X002865Y009228D01*
X002815Y009348D01*
X002722Y009441D01*
X002602Y009491D01*
X002471Y009491D01*
X002351Y009441D01*
X002258Y009348D01*
X002208Y009228D01*
X002208Y009097D01*
X002258Y008977D01*
X002347Y008889D01*
X002347Y007341D01*
X001347Y006341D01*
X001347Y006325D01*
X001333Y006325D01*
X001269Y006261D01*
X001269Y005855D01*
X001333Y005790D01*
X001740Y005790D01*
X001804Y005855D01*
X001804Y006261D01*
X001804Y006261D01*
X002537Y006994D01*
X003191Y006340D01*
X003136Y006362D01*
X002837Y006362D01*
X002837Y006694D01*
X002868Y006663D02*
X002205Y006663D01*
X002337Y006794D02*
X002337Y006003D01*
X002351Y006037D02*
X002237Y005762D01*
X002237Y005463D01*
X002351Y005188D01*
X002562Y004977D01*
X002837Y004863D01*
X002337Y004929D02*
X002337Y005222D01*
X002376Y005163D02*
X001726Y005163D01*
X001837Y004832D02*
X001837Y006294D01*
X001804Y006163D02*
X002476Y006163D01*
X002562Y006248D02*
X002351Y006037D01*
X002562Y006248D02*
X002837Y006362D01*
X003337Y006323D02*
X003337Y006279D01*
X003497Y006163D02*
X003618Y006163D01*
X003837Y005944D02*
X003837Y004317D01*
X003337Y004317D02*
X003337Y004946D01*
X003597Y005163D02*
X004614Y005163D01*
X004337Y005117D02*
X004337Y005443D01*
X004118Y005663D02*
X003736Y005663D01*
X004337Y005981D02*
X004337Y006043D01*
X004606Y005711D02*
X004606Y005711D01*
X004654Y005663D02*
X015493Y005663D01*
X015489Y005681D02*
X015499Y005642D01*
X015518Y005608D01*
X015546Y005580D01*
X015581Y005561D01*
X015619Y005550D01*
X015777Y005550D01*
X015777Y005858D01*
X015854Y005858D01*
X015854Y005550D01*
X016013Y005550D01*
X016051Y005561D01*
X016085Y005580D01*
X016113Y005608D01*
X016133Y005642D01*
X016143Y005681D01*
X016143Y005859D01*
X015854Y005859D01*
X015854Y005936D01*
X015777Y005936D01*
X015777Y006244D01*
X015724Y006244D01*
X015776Y006371D01*
X015776Y006534D01*
X015714Y006685D01*
X015599Y006800D01*
X015448Y006862D01*
X014685Y006862D01*
X014534Y006800D01*
X014419Y006685D01*
X014357Y006534D01*
X014357Y006371D01*
X014419Y006220D01*
X014534Y006105D01*
X014685Y006043D01*
X015448Y006043D01*
X015489Y006059D01*
X015489Y005936D01*
X015777Y005936D01*
X015777Y005859D01*
X015489Y005859D01*
X015489Y005681D01*
X015777Y005663D02*
X015854Y005663D01*
X015837Y005535D02*
X015837Y005858D01*
X015837Y005936D02*
X015837Y006636D01*
X015810Y006663D02*
X015723Y006663D01*
X016097Y006884D02*
X016208Y006773D01*
X016767Y006213D01*
X016767Y005889D01*
X016735Y005889D01*
X016670Y005825D01*
X016670Y005355D01*
X016546Y005479D01*
X016546Y006246D01*
X016546Y006379D01*
X015546Y007379D01*
X015453Y007472D01*
X004203Y007472D01*
X003896Y007779D01*
X003896Y007877D01*
X003931Y007843D01*
X004542Y007843D01*
X004606Y007907D01*
X004606Y008518D01*
X004542Y008582D01*
X003931Y008582D01*
X003896Y008548D01*
X003896Y008877D01*
X003931Y008843D01*
X004542Y008843D01*
X004606Y008907D01*
X004606Y009356D01*
X015353Y020103D01*
X015446Y020196D01*
X015446Y024674D01*
X015472Y024684D01*
X015565Y024777D01*
X015615Y024897D01*
X015615Y025028D01*
X015565Y025148D01*
X015472Y025241D01*
X015352Y025291D01*
X015221Y025291D01*
X015101Y025241D01*
X015008Y025148D01*
X014958Y025028D01*
X014958Y024897D01*
X015008Y024777D01*
X015101Y024684D01*
X015127Y024674D01*
X015127Y020329D01*
X004380Y009582D01*
X003931Y009582D01*
X003896Y009548D01*
X003896Y009877D01*
X003931Y009843D01*
X004542Y009843D01*
X004606Y009907D01*
X004606Y010357D01*
X014747Y020547D01*
X014796Y020596D01*
X014796Y020596D01*
X014797Y020597D01*
X014796Y020663D01*
X014796Y024646D01*
X014796Y025124D01*
X014822Y025134D01*
X014915Y025227D01*
X014965Y025347D01*
X014965Y025478D01*
X014915Y025598D01*
X014822Y025691D01*
X014702Y025741D01*
X014571Y025741D01*
X014451Y025691D01*
X014358Y025598D01*
X014308Y025478D01*
X014308Y025347D01*
X014358Y025227D01*
X014451Y025134D01*
X014477Y025124D01*
X014477Y024646D01*
X014477Y023436D01*
X014397Y023516D01*
X014277Y023566D01*
X014146Y023566D01*
X014026Y023516D01*
X013933Y023423D01*
X013883Y023303D01*
X013883Y023178D01*
X004608Y013902D01*
X004602Y013902D01*
X004606Y013907D01*
X004606Y014518D01*
X004602Y014523D01*
X004608Y014523D01*
X004765Y014523D01*
X010677Y020434D01*
X010802Y020434D01*
X010922Y020484D01*
X011015Y020577D01*
X011065Y020697D01*
X011065Y020828D01*
X011015Y020948D01*
X010922Y021041D01*
X010802Y021091D01*
X010671Y021091D01*
X010551Y021041D01*
X010458Y020948D01*
X010408Y020828D01*
X010408Y020703D01*
X004608Y014902D01*
X004602Y014902D01*
X004606Y014907D01*
X004606Y015518D01*
X004542Y015582D01*
X003931Y015582D01*
X003876Y015528D01*
X003876Y015897D01*
X003931Y015843D01*
X004542Y015843D01*
X004606Y015907D01*
X004606Y016518D01*
X004542Y016582D01*
X003931Y016582D01*
X003876Y016528D01*
X003876Y016897D01*
X003931Y016843D01*
X004542Y016843D01*
X004606Y016907D01*
X004606Y017518D01*
X004542Y017582D01*
X003931Y017582D01*
X003876Y017528D01*
X003876Y017897D01*
X003931Y017843D01*
X004542Y017843D01*
X004606Y017907D01*
X004606Y018518D01*
X004542Y018582D01*
X003931Y018582D01*
X003876Y018528D01*
X003876Y018584D01*
X004135Y018843D01*
X004542Y018843D01*
X004606Y018907D01*
X004606Y019518D01*
X004542Y019582D01*
X003931Y019582D01*
X003867Y019518D01*
X003867Y019111D01*
X003497Y018741D01*
X003497Y018584D01*
X003497Y015191D01*
X003342Y015036D01*
X003135Y015242D01*
X002738Y015242D01*
X002457Y014961D01*
X002457Y014564D01*
X002738Y014283D01*
X003088Y014283D01*
X003042Y014236D01*
X003035Y014242D01*
X002638Y014242D01*
X002357Y013961D01*
X002357Y013564D01*
X002638Y013283D01*
X003035Y013283D01*
X003258Y013506D01*
X003258Y013397D01*
X003308Y013277D01*
X003401Y013184D01*
X003521Y013134D01*
X003652Y013134D01*
X003772Y013184D01*
X003865Y013277D01*
X003867Y013281D01*
X003867Y012907D01*
X003931Y012843D01*
X004542Y012843D01*
X004606Y012907D01*
X004606Y013518D01*
X004602Y013523D01*
X004608Y013523D01*
X004765Y013523D01*
X014152Y022909D01*
X014277Y022909D01*
X014397Y022959D01*
X014477Y023039D01*
X014477Y020729D01*
X004379Y010582D01*
X003931Y010582D01*
X003896Y010548D01*
X003896Y010877D01*
X003931Y010843D01*
X004542Y010843D01*
X004606Y010907D01*
X004606Y011518D01*
X004542Y011582D01*
X003931Y011582D01*
X003867Y011518D01*
X003867Y011109D01*
X001693Y013283D01*
X002035Y013283D01*
X002316Y013564D01*
X002316Y013961D01*
X002035Y014242D01*
X001638Y014242D01*
X001357Y013961D01*
X001357Y013619D01*
X001296Y013679D01*
X001296Y024996D01*
X001296Y028196D01*
X001303Y028203D01*
X002153Y029053D01*
X005670Y029053D01*
X005803Y029053D01*
X006503Y029753D01*
X006596Y029846D01*
X006596Y030119D01*
X006753Y030119D01*
X006817Y030184D01*
X006817Y031023D01*
X006753Y031087D01*
X006111Y031087D01*
X006046Y031023D01*
X006046Y030184D01*
X006111Y030119D01*
X006277Y030119D01*
X006277Y029979D01*
X005670Y029372D01*
X002020Y029372D01*
X001927Y029279D01*
X001077Y028429D01*
X000991Y028344D01*
X000991Y029965D01*
X001005Y029952D01*
X001039Y029932D01*
X001077Y029922D01*
X001579Y029922D01*
X001579Y030553D01*
X001679Y030553D01*
X001679Y030653D01*
X002310Y030653D01*
X002310Y031155D01*
X002300Y031193D01*
X002280Y031227D01*
X002252Y031255D01*
X002218Y031275D01*
X002180Y031285D01*
X001679Y031285D01*
X001679Y030654D01*
X001579Y030654D01*
X001579Y031285D01*
X001077Y031285D01*
X001039Y031275D01*
X001005Y031255D01*
X000991Y031241D01*
X000991Y032406D01*
X001560Y032406D01*
X001571Y032406D01*
X001697Y032406D01*
X001697Y032406D01*
X001726Y032406D01*
X001894Y032503D01*
X001894Y032503D01*
X001894Y032503D01*
X001991Y032672D01*
X001991Y032700D01*
X001991Y032744D01*
X001991Y032769D01*
X001991Y033251D01*
X001991Y033320D01*
X001991Y033321D01*
X001991Y033389D01*
X001991Y033417D01*
X001991Y033417D01*
X001894Y033585D01*
X001894Y033585D01*
X001726Y033683D01*
X001726Y033683D01*
X001697Y033683D01*
X000991Y033683D01*
X000991Y034847D01*
X001005Y034834D01*
X001039Y034814D01*
X001077Y034804D01*
X001579Y034804D01*
X001579Y035435D01*
X001679Y035435D01*
X001679Y035535D01*
X002310Y035535D01*
X002310Y036004D01*
X044802Y036004D01*
X044802Y004317D01*
X015643Y004317D01*
X015660Y004329D01*
X015710Y004379D01*
X015751Y004437D01*
X015784Y004500D01*
X015805Y004567D01*
X015814Y004623D01*
X015117Y004623D01*
X015117Y004663D02*
X033864Y004663D01*
X033879Y004656D02*
X033980Y004620D01*
X034085Y004596D01*
X034193Y004584D01*
X034197Y004584D01*
X034197Y005494D01*
X034296Y005494D01*
X034296Y004584D01*
X034300Y004584D01*
X034408Y004596D01*
X034513Y004620D01*
X034614Y004656D01*
X034712Y004702D01*
X034803Y004760D01*
X034887Y004827D01*
X034963Y004903D01*
X035031Y004988D01*
X035088Y005079D01*
X035135Y005176D01*
X035170Y005278D01*
X035194Y005383D01*
X035206Y005490D01*
X035206Y005494D01*
X034297Y005494D01*
X034297Y005594D01*
X035206Y005594D01*
X035206Y005598D01*
X035194Y005705D01*
X035170Y005810D01*
X035135Y005912D01*
X035088Y006009D01*
X035031Y006100D01*
X034963Y006185D01*
X034887Y006261D01*
X034803Y006328D01*
X034712Y006386D01*
X034614Y006432D01*
X034513Y006468D01*
X034408Y006492D01*
X034300Y006504D01*
X034296Y006504D01*
X034296Y005594D01*
X034197Y005594D01*
X034197Y006504D01*
X034193Y006504D01*
X034085Y006492D01*
X033980Y006468D01*
X033879Y006432D01*
X033781Y006386D01*
X033690Y006328D01*
X033606Y006261D01*
X033530Y006185D01*
X033462Y006100D01*
X033405Y006009D01*
X033358Y005912D01*
X033323Y005810D01*
X033299Y005705D01*
X033287Y005598D01*
X033287Y005594D01*
X034196Y005594D01*
X034196Y005494D01*
X033287Y005494D01*
X033287Y005490D01*
X033299Y005383D01*
X033323Y005278D01*
X033358Y005176D01*
X033405Y005079D01*
X033462Y004988D01*
X033530Y004903D01*
X033606Y004827D01*
X033690Y004760D01*
X033781Y004702D01*
X033879Y004656D01*
X033837Y004676D02*
X033837Y004317D01*
X034197Y004663D02*
X034296Y004663D01*
X034337Y004588D02*
X034337Y004317D01*
X034629Y004663D02*
X038371Y004663D01*
X038337Y004677D02*
X038337Y004317D01*
X038464Y004624D02*
X038830Y004624D01*
X039168Y004764D01*
X039426Y005023D01*
X039566Y005361D01*
X039566Y005727D01*
X039426Y006065D01*
X039168Y006324D01*
X038830Y006464D01*
X038464Y006464D01*
X038125Y006324D01*
X037867Y006065D01*
X037727Y005727D01*
X037727Y005361D01*
X037867Y005023D01*
X038125Y004764D01*
X038464Y004624D01*
X038837Y004627D02*
X038837Y004317D01*
X038922Y004663D02*
X044802Y004663D01*
X044337Y004317D02*
X044337Y034672D01*
X044333Y034663D02*
X044802Y034663D01*
X044436Y034913D02*
X044322Y034638D01*
X044111Y034427D01*
X043836Y034313D01*
X043537Y034313D01*
X043262Y034427D01*
X043051Y034638D01*
X042937Y034913D01*
X042937Y035212D01*
X043051Y035487D01*
X043262Y035698D01*
X043537Y035812D01*
X043836Y035812D01*
X044111Y035698D01*
X044322Y035487D01*
X044436Y035212D01*
X044436Y034913D01*
X044436Y035163D02*
X044802Y035163D01*
X044337Y035453D02*
X044337Y036004D01*
X044147Y035663D02*
X044802Y035663D01*
X043837Y035812D02*
X043837Y036004D01*
X043337Y036004D02*
X043337Y035729D01*
X043226Y035663D02*
X009731Y035663D01*
X009731Y035905D02*
X009666Y035969D01*
X009024Y035969D01*
X008960Y035905D01*
X008960Y035066D01*
X009024Y035001D01*
X009147Y035001D01*
X009147Y033634D01*
X009258Y033523D01*
X009520Y033260D01*
X009632Y033149D01*
X011528Y033149D01*
X011528Y033136D01*
X011592Y033071D01*
X011998Y033071D01*
X012063Y033136D01*
X012063Y033542D01*
X011998Y033606D01*
X011592Y033606D01*
X011528Y033542D01*
X011528Y033529D01*
X009789Y033529D01*
X009526Y033791D01*
X009526Y035001D01*
X009666Y035001D01*
X009731Y035066D01*
X009731Y035905D01*
X009837Y036004D02*
X009837Y033529D01*
X009655Y033663D02*
X012130Y033663D01*
X012132Y033666D02*
X012112Y033632D01*
X012102Y033594D01*
X012102Y033426D01*
X012420Y033426D01*
X012420Y033329D01*
X012102Y033329D01*
X012102Y033161D01*
X012112Y033123D01*
X012132Y033088D01*
X012160Y033061D01*
X012194Y033041D01*
X012232Y033031D01*
X012420Y033031D01*
X012420Y033329D01*
X012517Y033329D01*
X012517Y033426D01*
X012420Y033426D01*
X012420Y033724D01*
X012232Y033724D01*
X012194Y033714D01*
X012160Y033694D01*
X012132Y033666D01*
X012337Y033724D02*
X012337Y036004D01*
X012837Y036004D02*
X012837Y030229D01*
X012793Y030247D02*
X012640Y030247D01*
X012498Y030189D01*
X012390Y030081D01*
X012332Y029939D01*
X012332Y029786D01*
X012390Y029644D01*
X012482Y029552D01*
X012315Y029552D01*
X012110Y029758D01*
X012121Y029786D01*
X012121Y029939D01*
X012063Y030081D01*
X011955Y030189D01*
X011813Y030247D01*
X011660Y030247D01*
X011518Y030189D01*
X011410Y030081D01*
X011352Y029939D01*
X011352Y029786D01*
X011410Y029644D01*
X011518Y029536D01*
X011660Y029478D01*
X011813Y029478D01*
X011841Y029489D01*
X012118Y029213D01*
X011841Y028936D01*
X011813Y028947D01*
X011660Y028947D01*
X011518Y028889D01*
X011410Y028781D01*
X011352Y028639D01*
X011352Y028486D01*
X011410Y028344D01*
X011518Y028236D01*
X011660Y028178D01*
X011813Y028178D01*
X011955Y028236D01*
X012063Y028344D01*
X012121Y028486D01*
X012121Y028639D01*
X012110Y028667D01*
X012315Y028873D01*
X012482Y028873D01*
X012390Y028781D01*
X012332Y028639D01*
X012332Y028486D01*
X012390Y028344D01*
X012498Y028236D01*
X012640Y028178D01*
X012793Y028178D01*
X012935Y028236D01*
X013043Y028344D01*
X013101Y028486D01*
X013101Y028639D01*
X013043Y028781D01*
X012951Y028873D01*
X016858Y028873D01*
X018447Y027284D01*
X018447Y025186D01*
X018358Y025098D01*
X018308Y024978D01*
X018308Y024847D01*
X018358Y024727D01*
X018451Y024634D01*
X018528Y024602D01*
X018013Y024602D01*
X018136Y024726D01*
X018136Y024863D01*
X017737Y024863D01*
X017737Y024962D01*
X018136Y024962D01*
X018136Y025099D01*
X017873Y025362D01*
X017736Y025362D01*
X017736Y024963D01*
X017637Y024963D01*
X017637Y025362D01*
X017500Y025362D01*
X017237Y025099D01*
X017237Y024962D01*
X017636Y024962D01*
X017636Y024863D01*
X017237Y024863D01*
X017237Y024726D01*
X017360Y024602D01*
X017265Y024602D01*
X017096Y024771D01*
X017096Y025082D01*
X016856Y025322D01*
X016517Y025322D01*
X016376Y025182D01*
X016376Y025484D01*
X016515Y025623D01*
X016626Y025734D01*
X016626Y027184D01*
X016626Y027341D01*
X016076Y027891D01*
X015965Y028002D01*
X008515Y028002D01*
X008358Y028002D01*
X007846Y027491D01*
X007721Y027491D01*
X007601Y027441D01*
X007508Y027348D01*
X007458Y027228D01*
X007458Y027097D01*
X007508Y026977D01*
X007601Y026884D01*
X007721Y026834D01*
X007852Y026834D01*
X007972Y026884D01*
X008065Y026977D01*
X008115Y027097D01*
X008115Y027222D01*
X008515Y027623D01*
X015808Y027623D01*
X016247Y027184D01*
X016247Y026621D01*
X016215Y026698D01*
X016122Y026791D01*
X016002Y026841D01*
X015871Y026841D01*
X015751Y026791D01*
X015658Y026698D01*
X015608Y026578D01*
X015608Y026447D01*
X015647Y026355D01*
X015647Y026334D01*
X015647Y008691D01*
X015538Y008582D01*
X014931Y008582D01*
X014867Y008518D01*
X014867Y007907D01*
X014931Y007843D01*
X015542Y007843D01*
X015606Y007907D01*
X015606Y008114D01*
X015915Y008423D01*
X016026Y008534D01*
X016026Y024304D01*
X016108Y024223D01*
X016277Y024054D01*
X016277Y023743D01*
X016517Y023503D01*
X016856Y023503D01*
X017096Y023743D01*
X017096Y024082D01*
X016856Y024322D01*
X016545Y024322D01*
X016376Y024491D01*
X016376Y024643D01*
X016517Y024503D01*
X016828Y024503D01*
X016997Y024334D01*
X017108Y024223D01*
X017417Y024223D01*
X017277Y024082D01*
X017277Y023743D01*
X017517Y023503D01*
X017856Y023503D01*
X018096Y023743D01*
X018096Y024082D01*
X017956Y024223D01*
X020008Y024223D01*
X021008Y023223D01*
X021347Y022884D01*
X021458Y022773D01*
X022663Y022773D01*
X022701Y022734D01*
X022821Y022684D01*
X022952Y022684D01*
X023072Y022734D01*
X023165Y022827D01*
X023215Y022947D01*
X023215Y023078D01*
X023165Y023198D01*
X023072Y023291D01*
X022952Y023341D01*
X022821Y023341D01*
X022701Y023291D01*
X022608Y023198D01*
X022589Y023152D01*
X022290Y023152D01*
X022315Y023177D01*
X022365Y023297D01*
X022365Y023428D01*
X022315Y023548D01*
X022222Y023641D01*
X022102Y023691D01*
X021977Y023691D01*
X020026Y025641D01*
X020026Y027439D01*
X020115Y027527D01*
X020165Y027647D01*
X020165Y027778D01*
X020115Y027898D01*
X020022Y027991D01*
X019902Y028041D01*
X019771Y028041D01*
X019651Y027991D01*
X019558Y027898D01*
X019508Y027778D01*
X019508Y027647D01*
X019558Y027527D01*
X019647Y027439D01*
X019647Y025641D01*
X019647Y025484D01*
X021708Y023422D01*
X021708Y023297D01*
X021758Y023177D01*
X021783Y023152D01*
X021615Y023152D01*
X021276Y023491D01*
X020165Y024602D01*
X020008Y024602D01*
X019345Y024602D01*
X019422Y024634D01*
X019515Y024727D01*
X019565Y024847D01*
X019565Y024978D01*
X019515Y025098D01*
X019426Y025186D01*
X019426Y027134D01*
X019426Y027291D01*
X017276Y029441D01*
X017165Y029552D01*
X012951Y029552D01*
X013043Y029644D01*
X013101Y029786D01*
X013101Y029939D01*
X013043Y030081D01*
X012935Y030189D01*
X012793Y030247D01*
X012961Y030163D02*
X019307Y030163D01*
X019279Y030190D02*
X019464Y030005D01*
X019706Y029905D01*
X019967Y029905D01*
X020209Y030005D01*
X020394Y030190D01*
X020494Y030432D01*
X020494Y030463D01*
X021778Y030463D01*
X021836Y030521D01*
X021836Y030604D01*
X021836Y033373D01*
X024837Y033373D01*
X024837Y030604D01*
X024837Y030521D01*
X024837Y026831D01*
X025005Y026663D02*
X037518Y026663D01*
X037347Y026491D02*
X037347Y026334D01*
X037347Y024186D01*
X037258Y024098D01*
X037208Y023978D01*
X037208Y023847D01*
X037258Y023727D01*
X037351Y023634D01*
X037471Y023584D01*
X037602Y023584D01*
X037722Y023634D01*
X037815Y023727D01*
X037865Y023847D01*
X037865Y023978D01*
X037815Y024098D01*
X037726Y024186D01*
X037726Y026334D01*
X038027Y026634D01*
X038152Y026634D01*
X038272Y026684D01*
X038365Y026777D01*
X038415Y026897D01*
X038415Y027028D01*
X038365Y027148D01*
X038272Y027241D01*
X038152Y027291D01*
X038021Y027291D01*
X037901Y027241D01*
X037808Y027148D01*
X037758Y027028D01*
X037758Y026903D01*
X037347Y026491D01*
X037347Y026163D02*
X025700Y026163D01*
X025672Y026191D02*
X025552Y026241D01*
X025427Y026241D01*
X024265Y027402D01*
X024108Y027402D01*
X020761Y027402D01*
X020672Y027491D01*
X020552Y027541D01*
X020421Y027541D01*
X020301Y027491D01*
X020208Y027398D01*
X020158Y027278D01*
X020158Y027147D01*
X020208Y027027D01*
X020301Y026934D01*
X020421Y026884D01*
X020552Y026884D01*
X020672Y026934D01*
X020761Y027023D01*
X024108Y027023D01*
X025158Y025972D01*
X025158Y025847D01*
X025208Y025727D01*
X025301Y025634D01*
X025353Y025613D01*
X025301Y025591D01*
X025208Y025498D01*
X025158Y025378D01*
X025158Y025247D01*
X025208Y025127D01*
X025297Y025039D01*
X025297Y022021D01*
X025265Y022098D01*
X025172Y022191D01*
X025052Y022241D01*
X024927Y022241D01*
X024376Y022791D01*
X024376Y023684D01*
X024376Y023841D01*
X024265Y023953D01*
X024265Y024078D01*
X024215Y024198D01*
X024122Y024291D01*
X024002Y024341D01*
X023871Y024341D01*
X023751Y024291D01*
X023658Y024198D01*
X023608Y024078D01*
X023608Y023947D01*
X023649Y023850D01*
X023552Y023891D01*
X023421Y023891D01*
X023301Y023841D01*
X023208Y023748D01*
X023158Y023628D01*
X023158Y023497D01*
X023208Y023377D01*
X023297Y023289D01*
X023297Y022841D01*
X023297Y022684D01*
X024108Y021872D01*
X024108Y021796D01*
X024002Y021841D01*
X023871Y021841D01*
X023751Y021791D01*
X023658Y021698D01*
X023619Y021602D01*
X017956Y021602D01*
X018096Y021743D01*
X018096Y022082D01*
X017856Y022322D01*
X017517Y022322D01*
X017277Y022082D01*
X017277Y021743D01*
X017417Y021602D01*
X017108Y021602D01*
X016997Y021491D01*
X016947Y021441D01*
X016828Y021322D01*
X016517Y021322D01*
X016277Y021082D01*
X016277Y020743D01*
X016517Y020503D01*
X016856Y020503D01*
X017096Y020743D01*
X017096Y021054D01*
X017215Y021173D01*
X017265Y021223D01*
X017417Y021223D01*
X017277Y021082D01*
X017277Y020771D01*
X016097Y019591D01*
X016097Y019434D01*
X016097Y006884D01*
X016263Y006663D02*
X016318Y006663D01*
X016337Y006644D02*
X016337Y006589D01*
X016387Y006313D02*
X015387Y007313D01*
X004137Y007313D01*
X003737Y007713D01*
X003737Y011013D01*
X001137Y013613D01*
X001137Y025063D01*
X001137Y028263D01*
X001237Y028363D01*
X002087Y029213D01*
X005737Y029213D01*
X006437Y029913D01*
X006437Y030363D01*
X006437Y030599D01*
X006432Y030603D01*
X006817Y030663D02*
X006912Y030663D01*
X007261Y030663D02*
X008093Y030663D01*
X008093Y031023D02*
X008093Y030184D01*
X008158Y030119D01*
X008312Y030119D01*
X008312Y028990D01*
X008414Y028888D01*
X008914Y028388D01*
X009059Y028388D01*
X010412Y028388D01*
X010430Y028344D01*
X010538Y028236D01*
X010680Y028178D01*
X010833Y028178D01*
X010975Y028236D01*
X011083Y028344D01*
X011141Y028486D01*
X011141Y028639D01*
X011083Y028781D01*
X010975Y028889D01*
X010833Y028947D01*
X010680Y028947D01*
X010538Y028889D01*
X010430Y028781D01*
X010412Y028737D01*
X009059Y028737D01*
X008661Y029135D01*
X008661Y030119D01*
X008800Y030119D01*
X008865Y030184D01*
X008865Y031023D01*
X008800Y031087D01*
X008158Y031087D01*
X008093Y031023D01*
X008337Y031087D02*
X008337Y035001D01*
X008158Y035001D02*
X008800Y035001D01*
X008865Y035066D01*
X008865Y035905D01*
X008800Y035969D01*
X008158Y035969D01*
X008093Y035905D01*
X008093Y035066D01*
X008158Y035001D01*
X008093Y035163D02*
X006817Y035163D01*
X006817Y035066D02*
X006817Y035905D01*
X006753Y035969D01*
X006111Y035969D01*
X006046Y035905D01*
X006046Y035066D01*
X006111Y035001D01*
X006753Y035001D01*
X006817Y035066D01*
X006337Y035001D02*
X006337Y034276D01*
X006365Y034248D02*
X006272Y034341D01*
X006152Y034391D01*
X006027Y034391D01*
X005756Y034662D01*
X005756Y035001D01*
X005887Y035001D01*
X005951Y035066D01*
X005951Y035905D01*
X005887Y035969D01*
X005244Y035969D01*
X005180Y035905D01*
X005180Y035066D01*
X005244Y035001D01*
X005376Y035001D01*
X005376Y034662D01*
X005376Y034505D01*
X005758Y034122D01*
X005758Y033997D01*
X005808Y033877D01*
X005901Y033784D01*
X006021Y033734D01*
X006152Y033734D01*
X006163Y033739D01*
X006912Y032990D01*
X006912Y029535D01*
X006064Y028687D01*
X004159Y028687D01*
X004014Y028687D01*
X003212Y027885D01*
X003212Y027740D01*
X003212Y026785D01*
X002914Y026487D01*
X002834Y026487D01*
X002793Y026584D01*
X002658Y026719D01*
X002482Y026792D01*
X002291Y026792D01*
X002115Y026719D01*
X001980Y026584D01*
X001907Y026408D01*
X001907Y026217D01*
X001980Y026041D01*
X002115Y025906D01*
X002291Y025833D01*
X002482Y025833D01*
X002658Y025906D01*
X002793Y026041D01*
X002834Y026138D01*
X002914Y026138D01*
X003059Y026138D01*
X003212Y026290D01*
X003212Y023890D01*
X003314Y023788D01*
X003867Y023235D01*
X003867Y022907D01*
X003931Y022843D01*
X004542Y022843D01*
X004606Y022907D01*
X004606Y023518D01*
X004542Y023582D01*
X004014Y023582D01*
X003561Y024035D01*
X003561Y026640D01*
X003561Y026785D01*
X003561Y027740D01*
X004159Y028338D01*
X006064Y028338D01*
X006209Y028338D01*
X007159Y029288D01*
X007261Y029390D01*
X007261Y032990D01*
X007261Y033135D01*
X006410Y033986D01*
X006415Y033997D01*
X006415Y034128D01*
X006365Y034248D01*
X006400Y034163D02*
X009147Y034163D01*
X009526Y034163D02*
X017837Y034163D01*
X017837Y034271D02*
X017837Y030604D01*
X017837Y030521D01*
X017837Y028881D01*
X018055Y028663D02*
X044802Y028663D01*
X044802Y028163D02*
X018555Y028163D01*
X018337Y028381D02*
X018337Y030463D01*
X017895Y030463D02*
X017837Y030521D01*
X017895Y030463D02*
X019179Y030463D01*
X019179Y030432D01*
X019279Y030190D01*
X019337Y030133D02*
X019337Y027381D01*
X019426Y027163D02*
X019647Y027163D01*
X020026Y027163D02*
X020158Y027163D01*
X020337Y026920D02*
X020337Y025331D01*
X020505Y025163D02*
X025194Y025163D01*
X025337Y025606D02*
X025337Y025620D01*
X025273Y025663D02*
X020026Y025663D01*
X019647Y025663D02*
X019426Y025663D01*
X019450Y025163D02*
X019968Y025163D01*
X019837Y025294D02*
X019837Y024602D01*
X019837Y024223D02*
X019837Y021602D01*
X019837Y021223D02*
X019837Y017420D01*
X019967Y017420D02*
X019706Y017420D01*
X019464Y017320D01*
X019279Y017135D01*
X019179Y016893D01*
X019179Y016862D01*
X017895Y016862D01*
X017837Y016804D01*
X017837Y020503D01*
X017856Y020503D02*
X018096Y020743D01*
X018096Y021082D01*
X017956Y021223D01*
X023758Y021223D01*
X023779Y021223D01*
X023871Y021184D01*
X024002Y021184D01*
X024122Y021234D01*
X024215Y021327D01*
X024265Y021447D01*
X024265Y021529D01*
X024371Y021484D01*
X024502Y021484D01*
X024622Y021534D01*
X024715Y021627D01*
X024742Y021693D01*
X024801Y021634D01*
X024921Y021584D01*
X025052Y021584D01*
X025172Y021634D01*
X025265Y021727D01*
X025297Y021804D01*
X025297Y021691D01*
X024558Y020952D01*
X024558Y020952D01*
X021996Y018391D01*
X021971Y018391D01*
X021851Y018341D01*
X021758Y018248D01*
X021708Y018128D01*
X021708Y017997D01*
X021758Y017877D01*
X021851Y017784D01*
X021971Y017734D01*
X022102Y017734D01*
X022222Y017784D01*
X022315Y017877D01*
X022365Y017997D01*
X022365Y018128D01*
X022337Y018194D01*
X022547Y018404D01*
X022547Y018336D01*
X022458Y018248D01*
X022408Y018128D01*
X022408Y017997D01*
X022458Y017877D01*
X022551Y017784D01*
X022671Y017734D01*
X022802Y017734D01*
X022922Y017784D01*
X023015Y017877D01*
X023065Y017997D01*
X023065Y018128D01*
X023015Y018248D01*
X022953Y018310D01*
X023247Y018604D01*
X023247Y018336D01*
X023158Y018248D01*
X023108Y018128D01*
X023108Y017997D01*
X023158Y017877D01*
X023251Y017784D01*
X023371Y017734D01*
X023502Y017734D01*
X023622Y017784D01*
X023715Y017877D01*
X023765Y017997D01*
X023765Y018128D01*
X023715Y018248D01*
X023626Y018336D01*
X023626Y018484D01*
X025376Y020234D01*
X026876Y021734D01*
X026876Y021891D01*
X026876Y025039D01*
X026965Y025127D01*
X027015Y025247D01*
X027015Y025378D01*
X026965Y025498D01*
X026872Y025591D01*
X026752Y025641D01*
X026621Y025641D01*
X026501Y025591D01*
X026408Y025498D01*
X026387Y025446D01*
X026365Y025498D01*
X026272Y025591D01*
X026152Y025641D01*
X026021Y025641D01*
X025901Y025591D01*
X025808Y025498D01*
X025787Y025446D01*
X025765Y025498D01*
X025672Y025591D01*
X025620Y025613D01*
X025672Y025634D01*
X025765Y025727D01*
X025815Y025847D01*
X025815Y025978D01*
X025765Y026098D01*
X025672Y026191D01*
X025337Y026331D02*
X025337Y030463D01*
X024895Y030463D02*
X024837Y030521D01*
X024895Y030463D02*
X026179Y030463D01*
X026179Y030432D01*
X026279Y030190D01*
X026464Y030005D01*
X026706Y029905D01*
X026967Y029905D01*
X027209Y030005D01*
X027394Y030190D01*
X027494Y030432D01*
X027494Y030463D01*
X028778Y030463D01*
X028836Y030521D01*
X028836Y030604D01*
X028836Y034354D01*
X028778Y034412D01*
X028695Y034412D01*
X024895Y034412D01*
X024837Y034354D01*
X024837Y036004D01*
X025337Y036004D02*
X025337Y034412D01*
X025837Y034412D02*
X025837Y036004D01*
X026337Y036004D02*
X026337Y034412D01*
X026837Y034412D02*
X026837Y036004D01*
X027337Y036004D02*
X027337Y034412D01*
X027837Y034412D02*
X027837Y036004D01*
X028337Y036004D02*
X028337Y034412D01*
X028836Y034163D02*
X031837Y034163D01*
X031837Y034271D02*
X031837Y030604D01*
X031837Y030521D01*
X031837Y023462D01*
X031837Y023163D02*
X031837Y016804D01*
X031837Y016721D01*
X031837Y016272D01*
X028836Y016272D01*
X028836Y016721D01*
X028836Y016804D01*
X028778Y016862D01*
X027494Y016862D01*
X027494Y016893D01*
X027394Y017135D01*
X027209Y017320D01*
X026967Y017420D01*
X026706Y017420D01*
X026464Y017320D01*
X026279Y017135D01*
X026179Y016893D01*
X026179Y016862D01*
X024895Y016862D01*
X024837Y016804D01*
X024837Y019694D01*
X024805Y019663D02*
X028421Y019663D01*
X028721Y019663D02*
X044802Y019663D01*
X044802Y020163D02*
X028724Y020163D01*
X028424Y020163D02*
X025305Y020163D01*
X025337Y020194D02*
X025337Y016862D01*
X025837Y016862D02*
X025837Y020694D01*
X025805Y020663D02*
X028427Y020663D01*
X028727Y020663D02*
X044802Y020663D01*
X044802Y021163D02*
X028730Y021163D01*
X028430Y021163D02*
X026305Y021163D01*
X026337Y021194D02*
X026337Y017192D01*
X026307Y017163D02*
X020366Y017163D01*
X020394Y017135D02*
X020209Y017320D01*
X019967Y017420D01*
X020337Y017192D02*
X020337Y021223D01*
X020337Y021602D02*
X020337Y023894D01*
X020568Y023663D02*
X018016Y023663D01*
X017837Y023503D02*
X017837Y023322D01*
X017856Y023322D02*
X017517Y023322D01*
X017277Y023082D01*
X017277Y022743D01*
X017517Y022503D01*
X017856Y022503D01*
X018096Y022743D01*
X018096Y023082D01*
X017856Y023322D01*
X018016Y023163D02*
X021068Y023163D01*
X020837Y023394D02*
X020837Y021602D01*
X020837Y021223D02*
X020837Y016862D01*
X020494Y016862D02*
X020494Y016893D01*
X020394Y017135D01*
X020494Y016862D02*
X021778Y016862D01*
X021836Y016804D01*
X021836Y016721D01*
X021836Y013952D01*
X022665Y013952D01*
X022776Y013841D01*
X026865Y009752D01*
X035415Y009752D01*
X035526Y009641D01*
X037803Y007365D01*
X039200Y007365D01*
X039338Y007696D01*
X039596Y007955D01*
X039934Y008095D01*
X040300Y008095D01*
X040639Y007955D01*
X040897Y007696D01*
X041037Y007358D01*
X041037Y006992D01*
X040897Y006654D01*
X040639Y006395D01*
X040300Y006255D01*
X039934Y006255D01*
X039596Y006395D01*
X039338Y006654D01*
X039200Y006985D01*
X037803Y006985D01*
X037645Y006985D01*
X035258Y009373D01*
X026865Y009373D01*
X026708Y009373D01*
X026446Y009634D01*
X026446Y007617D01*
X026382Y007553D01*
X025946Y007553D01*
X025946Y006829D01*
X025946Y006696D01*
X024546Y005296D01*
X024546Y005296D01*
X024196Y004946D01*
X024103Y004853D01*
X016853Y004853D01*
X016720Y004853D01*
X016320Y005253D01*
X016227Y005346D01*
X016227Y006246D01*
X015320Y007153D01*
X004203Y007153D01*
X004070Y007153D01*
X003670Y007553D01*
X003577Y007646D01*
X003577Y010946D01*
X001070Y013453D01*
X000991Y013531D01*
X000991Y010907D01*
X000999Y010925D01*
X001114Y011040D01*
X001265Y011102D01*
X001428Y011102D01*
X001579Y011040D01*
X001694Y010925D01*
X001756Y010774D01*
X001756Y010011D01*
X001694Y009860D01*
X001579Y009745D01*
X001428Y009683D01*
X001265Y009683D01*
X001114Y009745D01*
X000999Y009860D01*
X000991Y009878D01*
X000991Y008347D01*
X000999Y008365D01*
X001114Y008480D01*
X001265Y008542D01*
X001428Y008542D01*
X001579Y008480D01*
X001694Y008365D01*
X001756Y008214D01*
X001756Y007451D01*
X001694Y007300D01*
X001579Y007185D01*
X001428Y007123D01*
X001265Y007123D01*
X001114Y007185D01*
X000999Y007300D01*
X000991Y007318D01*
X000991Y007163D02*
X001168Y007163D01*
X001337Y007123D02*
X001337Y006325D01*
X001269Y006163D02*
X000991Y006163D01*
X000991Y005663D02*
X001269Y005663D01*
X001337Y005735D02*
X001337Y005790D01*
X001804Y005663D02*
X002237Y005663D01*
X001337Y005200D02*
X001337Y004889D01*
X001230Y004663D02*
X000991Y004663D01*
X000991Y005163D02*
X001347Y005163D01*
X001844Y004663D02*
X001859Y004663D01*
X002158Y004663D02*
X002255Y004663D01*
X002337Y004611D02*
X002337Y004514D01*
X004337Y004623D02*
X004337Y004722D01*
X004837Y004722D02*
X004837Y004623D01*
X005337Y004623D02*
X005337Y004722D01*
X005337Y004979D02*
X005337Y005038D01*
X005337Y005418D02*
X005337Y006203D01*
X005296Y006163D02*
X006677Y006163D01*
X006734Y006105D02*
X006885Y006043D01*
X007648Y006043D01*
X007799Y006105D01*
X007914Y006220D01*
X007936Y006274D01*
X007959Y006220D01*
X008074Y006105D01*
X008225Y006043D01*
X008988Y006043D01*
X009139Y006105D01*
X009254Y006220D01*
X009316Y006371D01*
X009316Y006534D01*
X009254Y006685D01*
X009139Y006800D01*
X008988Y006862D01*
X008225Y006862D01*
X008074Y006800D01*
X007959Y006685D01*
X007936Y006631D01*
X007914Y006685D01*
X007799Y006800D01*
X007648Y006862D01*
X006885Y006862D01*
X006734Y006800D01*
X006619Y006685D01*
X006557Y006534D01*
X006557Y006371D01*
X006619Y006220D01*
X006734Y006105D01*
X006837Y006063D02*
X006837Y005418D01*
X007337Y005418D02*
X007337Y006043D01*
X007837Y006143D02*
X007837Y005418D01*
X008337Y005418D02*
X008337Y006043D01*
X008017Y006163D02*
X007856Y006163D01*
X007923Y006663D02*
X007950Y006663D01*
X007837Y006762D02*
X007837Y007153D01*
X007837Y007472D02*
X007837Y012586D01*
X007913Y012663D02*
X015647Y012663D01*
X016026Y012663D02*
X016097Y012663D01*
X016476Y012663D02*
X023418Y012663D01*
X023337Y012744D02*
X023337Y010560D01*
X023293Y010603D02*
X023150Y010727D01*
X022999Y010841D01*
X022840Y010943D01*
X022673Y011034D01*
X022501Y011112D01*
X022324Y011178D01*
X022142Y011232D01*
X021957Y011272D01*
X021770Y011299D01*
X021581Y011312D01*
X021536Y011312D01*
X021536Y008713D01*
X021437Y008713D01*
X021437Y011312D01*
X021392Y011312D01*
X021203Y011299D01*
X021016Y011272D01*
X020831Y011232D01*
X020649Y011178D01*
X020472Y011112D01*
X020300Y011034D01*
X020133Y010943D01*
X019974Y010841D01*
X019823Y010727D01*
X019680Y010603D01*
X019546Y010469D01*
X019422Y010326D01*
X019308Y010175D01*
X019206Y010016D01*
X019115Y009849D01*
X019037Y009677D01*
X018971Y009500D01*
X018917Y009318D01*
X018877Y009133D01*
X018850Y008946D01*
X018837Y008757D01*
X018837Y012913D01*
X019337Y012913D02*
X019337Y010212D01*
X019301Y010163D02*
X016476Y010163D01*
X016097Y010163D02*
X016026Y010163D01*
X015647Y010163D02*
X005413Y010163D01*
X005337Y010086D02*
X005337Y007472D01*
X005337Y007153D02*
X005337Y006702D01*
X005363Y006663D02*
X006610Y006663D01*
X006837Y006842D02*
X006837Y007153D01*
X006837Y007472D02*
X006837Y011586D01*
X006913Y011663D02*
X015647Y011663D01*
X016026Y011663D02*
X016097Y011663D01*
X016476Y011663D02*
X024418Y011663D01*
X024337Y011744D02*
X024337Y005539D01*
X024320Y005522D02*
X024320Y005522D01*
X023970Y005172D01*
X016853Y005172D01*
X016789Y005236D01*
X017180Y005236D01*
X017245Y005300D01*
X017245Y005825D01*
X017180Y005889D01*
X017147Y005889D01*
X017147Y006213D01*
X017147Y006370D01*
X016476Y007041D01*
X016476Y019434D01*
X017545Y020503D01*
X017856Y020503D01*
X018016Y020663D02*
X024268Y020663D01*
X024337Y020731D02*
X024337Y021499D01*
X024729Y021663D02*
X024773Y021663D01*
X024837Y021620D02*
X024837Y021231D01*
X024768Y021163D02*
X018016Y021163D01*
X018337Y021223D02*
X018337Y016862D01*
X018837Y016862D02*
X018837Y021223D01*
X018837Y021602D02*
X018837Y024223D01*
X019337Y024223D02*
X019337Y021602D01*
X019337Y021223D02*
X019337Y017192D01*
X019307Y017163D02*
X016476Y017163D01*
X016097Y017163D02*
X016026Y017163D01*
X015647Y017163D02*
X012413Y017163D01*
X012337Y017086D02*
X012337Y007472D01*
X012337Y007153D02*
X012337Y006862D01*
X012125Y006862D02*
X011974Y006800D01*
X011859Y006685D01*
X011836Y006631D01*
X011837Y006631D02*
X011837Y007153D01*
X011837Y007472D02*
X011837Y016586D01*
X011913Y016663D02*
X015647Y016663D01*
X016026Y016663D02*
X016097Y016663D01*
X016476Y016663D02*
X017837Y016663D01*
X017837Y016721D02*
X017837Y012971D01*
X017837Y009718D01*
X017846Y009708D02*
X017782Y009772D01*
X016591Y009772D01*
X016527Y009708D01*
X016527Y007617D01*
X016591Y007553D01*
X017782Y007553D01*
X017846Y007617D01*
X017846Y009708D01*
X017846Y009663D02*
X019031Y009663D01*
X018883Y009163D02*
X017846Y009163D01*
X017337Y009772D02*
X017337Y020294D01*
X017205Y020163D02*
X023768Y020163D01*
X023837Y020231D02*
X023837Y021199D01*
X023337Y021223D02*
X023337Y019731D01*
X023268Y019663D02*
X016705Y019663D01*
X016837Y019794D02*
X016837Y009772D01*
X016527Y009663D02*
X016476Y009663D01*
X016097Y009663D02*
X016026Y009663D01*
X015647Y009663D02*
X004913Y009663D01*
X004837Y009586D02*
X004837Y007472D01*
X004837Y007153D02*
X004837Y006862D01*
X004337Y006862D02*
X004337Y007153D01*
X004060Y007163D02*
X003383Y007163D01*
X003337Y007134D02*
X003337Y006731D01*
X003655Y006663D02*
X004050Y006663D01*
X003837Y006481D02*
X003837Y007386D01*
X004013Y007663D02*
X016097Y007663D01*
X016476Y007663D02*
X016527Y007663D01*
X016837Y007553D02*
X016837Y006681D01*
X016855Y006663D02*
X019748Y006663D01*
X019680Y006722D02*
X019823Y006598D01*
X019974Y006484D01*
X020133Y006382D01*
X020300Y006291D01*
X020472Y006213D01*
X020649Y006147D01*
X020831Y006093D01*
X021016Y006053D01*
X021203Y006026D01*
X021392Y006013D01*
X021437Y006013D01*
X021437Y008612D01*
X021536Y008612D01*
X021536Y006013D01*
X021581Y006013D01*
X021770Y006026D01*
X021957Y006053D01*
X022142Y006093D01*
X022324Y006147D01*
X022501Y006213D01*
X022673Y006291D01*
X022840Y006382D01*
X022999Y006484D01*
X023150Y006598D01*
X023293Y006722D01*
X023427Y006856D01*
X023551Y006999D01*
X023665Y007150D01*
X023767Y007309D01*
X023858Y007476D01*
X023936Y007648D01*
X024002Y007825D01*
X024056Y008007D01*
X024096Y008192D01*
X024123Y008379D01*
X024136Y008568D01*
X024136Y008613D01*
X021537Y008613D01*
X021537Y008712D01*
X024136Y008712D01*
X024136Y008757D01*
X024123Y008946D01*
X024096Y009133D01*
X024056Y009318D01*
X024002Y009500D01*
X023936Y009677D01*
X023858Y009849D01*
X023767Y010016D01*
X023665Y010175D01*
X023551Y010326D01*
X023427Y010469D01*
X023293Y010603D01*
X023225Y010663D02*
X025418Y010663D01*
X025337Y010744D02*
X025337Y009772D01*
X025191Y009772D02*
X025127Y009708D01*
X025127Y007617D01*
X025191Y007553D01*
X025627Y007553D01*
X025627Y006829D01*
X024320Y005522D01*
X024387Y005363D02*
X024037Y005013D01*
X016787Y005013D01*
X016387Y005413D01*
X016387Y006313D01*
X016546Y006163D02*
X016767Y006163D01*
X017147Y006163D02*
X020606Y006163D01*
X020837Y006092D02*
X020837Y005172D01*
X020837Y004853D02*
X020837Y004317D01*
X021337Y004317D02*
X021337Y004853D01*
X021337Y005172D02*
X021337Y006016D01*
X021437Y006163D02*
X021536Y006163D01*
X021837Y006036D02*
X021837Y005172D01*
X021837Y004853D02*
X021837Y004317D01*
X022337Y004317D02*
X022337Y004853D01*
X022337Y005172D02*
X022337Y006151D01*
X022367Y006163D02*
X024960Y006163D01*
X024837Y006039D02*
X024837Y011244D01*
X024918Y011163D02*
X022367Y011163D01*
X022337Y011174D02*
X022337Y013573D01*
X022508Y013573D02*
X026308Y009772D01*
X025191Y009772D01*
X025127Y009663D02*
X023942Y009663D01*
X023837Y009888D02*
X023837Y012244D01*
X023918Y012163D02*
X016476Y012163D01*
X016097Y012163D02*
X016026Y012163D01*
X015647Y012163D02*
X007413Y012163D01*
X007337Y012086D02*
X007337Y007472D01*
X007337Y007153D02*
X007337Y006862D01*
X008337Y006862D02*
X008337Y007153D01*
X008337Y007472D02*
X008337Y013086D01*
X008413Y013163D02*
X015647Y013163D01*
X016026Y013163D02*
X016097Y013163D01*
X016476Y013163D02*
X017837Y013163D01*
X017837Y012971D02*
X017895Y012913D01*
X017978Y012913D01*
X021778Y012913D01*
X021836Y012971D01*
X021836Y013054D01*
X021836Y013573D01*
X022508Y013573D01*
X022837Y013781D02*
X022837Y017749D01*
X023337Y017749D02*
X023337Y013281D01*
X023455Y013163D02*
X024837Y013163D01*
X024837Y012971D02*
X024837Y011781D01*
X024955Y011663D02*
X033168Y011663D01*
X033058Y011552D02*
X028215Y011552D01*
X028058Y011552D01*
X027500Y010994D01*
X027317Y011070D01*
X027056Y011070D01*
X026814Y010970D01*
X026629Y010785D01*
X026529Y010543D01*
X026529Y010282D01*
X026629Y010040D01*
X026814Y009855D01*
X027056Y009755D01*
X027317Y009755D01*
X027559Y009855D01*
X027744Y010040D01*
X027844Y010282D01*
X027844Y010543D01*
X027768Y010726D01*
X028215Y011173D01*
X033215Y011173D01*
X033326Y011284D01*
X034955Y012913D01*
X035778Y012913D01*
X035836Y012971D01*
X035836Y013054D01*
X035836Y013573D01*
X038837Y013573D01*
X038837Y012971D01*
X038837Y012031D01*
X038968Y012163D02*
X034205Y012163D01*
X034337Y012294D02*
X034337Y009752D01*
X034337Y009373D02*
X034337Y009366D01*
X034424Y009366D02*
X034050Y009366D01*
X033704Y009223D01*
X033440Y008959D01*
X033297Y008613D01*
X033297Y008239D01*
X033440Y007894D01*
X033704Y007629D01*
X034050Y007486D01*
X034424Y007486D01*
X034769Y007629D01*
X035033Y007894D01*
X035176Y008239D01*
X035176Y008613D01*
X035033Y008959D01*
X034769Y009223D01*
X034424Y009366D01*
X034837Y009373D02*
X034837Y009155D01*
X034829Y009163D02*
X035468Y009163D01*
X035337Y009294D02*
X035337Y008057D01*
X035349Y008063D02*
X035252Y008017D01*
X035161Y007959D01*
X035077Y007892D01*
X035001Y007816D01*
X034933Y007731D01*
X034876Y007640D01*
X034829Y007543D01*
X034794Y007441D01*
X034770Y007336D01*
X034757Y007229D01*
X034757Y007225D01*
X035667Y007225D01*
X035667Y007125D01*
X034757Y007125D01*
X034757Y007121D01*
X034770Y007014D01*
X034794Y006909D01*
X034829Y006807D01*
X034876Y006710D01*
X034933Y006619D01*
X035001Y006534D01*
X035077Y006458D01*
X035161Y006391D01*
X035252Y006334D01*
X035349Y006287D01*
X035451Y006251D01*
X035556Y006227D01*
X035664Y006215D01*
X035667Y006215D01*
X035667Y007125D01*
X035767Y007125D01*
X035767Y006215D01*
X035771Y006215D01*
X035879Y006227D01*
X035984Y006251D01*
X036085Y006287D01*
X036183Y006334D01*
X036274Y006391D01*
X036358Y006458D01*
X036434Y006534D01*
X036502Y006619D01*
X036559Y006710D01*
X036606Y006807D01*
X036641Y006909D01*
X036665Y007014D01*
X036677Y007121D01*
X036677Y007125D01*
X035768Y007125D01*
X035768Y007225D01*
X036677Y007225D01*
X036677Y007229D01*
X036665Y007336D01*
X036641Y007441D01*
X036606Y007543D01*
X036559Y007640D01*
X036502Y007731D01*
X036434Y007816D01*
X036358Y007892D01*
X036274Y007959D01*
X036183Y008017D01*
X036085Y008063D01*
X035984Y008099D01*
X035879Y008123D01*
X035771Y008135D01*
X035767Y008135D01*
X035767Y007225D01*
X035667Y007225D01*
X035667Y008135D01*
X035664Y008135D01*
X035556Y008123D01*
X035451Y008099D01*
X035349Y008063D01*
X035145Y008163D02*
X036468Y008163D01*
X036337Y008294D02*
X036337Y007909D01*
X036545Y007663D02*
X036968Y007663D01*
X036837Y007794D02*
X036837Y004317D01*
X037337Y004317D02*
X037337Y007294D01*
X037468Y007163D02*
X035768Y007163D01*
X035837Y007125D02*
X035837Y007225D01*
X035667Y007163D02*
X025946Y007163D01*
X025627Y007163D02*
X023673Y007163D01*
X023837Y007437D02*
X023837Y005172D01*
X023837Y004853D02*
X023837Y004317D01*
X024337Y004317D02*
X024337Y005086D01*
X024413Y005163D02*
X027428Y005163D01*
X027379Y005282D02*
X027479Y005040D01*
X027664Y004855D01*
X027906Y004755D01*
X028167Y004755D01*
X028409Y004855D01*
X028594Y005040D01*
X028694Y005282D01*
X028694Y005543D01*
X028594Y005785D01*
X028409Y005970D01*
X028167Y006070D01*
X027906Y006070D01*
X027664Y005970D01*
X027479Y005785D01*
X027379Y005543D01*
X027379Y005282D01*
X027428Y005663D02*
X024913Y005663D01*
X024837Y005586D02*
X024837Y004317D01*
X025337Y004317D02*
X025337Y006086D01*
X025413Y006163D02*
X033512Y006163D01*
X033337Y005850D02*
X033337Y008143D01*
X033328Y008163D02*
X026446Y008163D01*
X026446Y008663D02*
X033317Y008663D01*
X033337Y008710D02*
X033337Y009373D01*
X033644Y009163D02*
X026446Y009163D01*
X026837Y009373D02*
X026837Y004317D01*
X027337Y004317D02*
X027337Y009373D01*
X027337Y009752D02*
X027337Y009763D01*
X027837Y009752D02*
X027837Y010264D01*
X027795Y010163D02*
X028428Y010163D01*
X028379Y010282D02*
X028479Y010040D01*
X028664Y009855D01*
X028906Y009755D01*
X029167Y009755D01*
X029409Y009855D01*
X029594Y010040D01*
X029694Y010282D01*
X029694Y010543D01*
X029594Y010785D01*
X029409Y010970D01*
X029167Y011070D01*
X028906Y011070D01*
X028664Y010970D01*
X028479Y010785D01*
X028379Y010543D01*
X028379Y010282D01*
X028428Y010663D02*
X027795Y010663D01*
X027837Y010561D02*
X027837Y010794D01*
X027668Y011163D02*
X025455Y011163D01*
X025337Y011281D02*
X025337Y012913D01*
X024978Y012913D02*
X028778Y012913D01*
X028836Y012971D01*
X028836Y013054D01*
X028836Y013573D01*
X031837Y013573D01*
X031837Y012971D01*
X031837Y011552D01*
X031837Y011173D02*
X031837Y009752D01*
X031837Y009373D02*
X031837Y004317D01*
X032337Y004317D02*
X032337Y009373D01*
X032337Y009752D02*
X032337Y011173D01*
X032337Y011552D02*
X032337Y012913D01*
X031978Y012913D02*
X034418Y012913D01*
X033058Y011552D01*
X032837Y011552D02*
X032837Y012913D01*
X033337Y012913D02*
X033337Y011831D01*
X033705Y011663D02*
X038468Y011663D01*
X038447Y011641D02*
X038447Y011484D01*
X038447Y009365D01*
X038104Y009223D01*
X037840Y008959D01*
X037697Y008613D01*
X037697Y008239D01*
X037840Y007894D01*
X038104Y007629D01*
X038450Y007486D01*
X038824Y007486D01*
X039169Y007629D01*
X039433Y007894D01*
X039576Y008239D01*
X039576Y008613D01*
X039433Y008959D01*
X039169Y009223D01*
X038826Y009365D01*
X038826Y011484D01*
X039177Y011834D01*
X039177Y011796D01*
X039177Y010801D01*
X039151Y010791D01*
X039058Y010698D01*
X039008Y010578D01*
X039008Y010447D01*
X039058Y010327D01*
X039151Y010234D01*
X039271Y010184D01*
X039396Y010184D01*
X039484Y010097D01*
X039492Y010068D01*
X039510Y010058D01*
X039510Y009855D01*
X039574Y009790D01*
X040099Y009790D01*
X040163Y009855D01*
X040163Y010340D01*
X040099Y010404D01*
X039714Y010404D01*
X039665Y010453D01*
X039665Y010578D01*
X039615Y010698D01*
X039522Y010791D01*
X039496Y010801D01*
X039496Y011796D01*
X039532Y011832D01*
X039574Y011790D01*
X040099Y011790D01*
X040163Y011855D01*
X040163Y012340D01*
X040099Y012404D01*
X039747Y012404D01*
X040255Y012913D01*
X041260Y012913D01*
X040656Y012309D01*
X040640Y012325D01*
X040233Y012325D01*
X040169Y012261D01*
X040169Y011855D01*
X040233Y011790D01*
X040362Y011790D01*
X040385Y011778D01*
X040416Y011748D01*
X040442Y011748D01*
X040465Y011735D01*
X040505Y011748D01*
X040548Y011748D01*
X040566Y011766D01*
X040591Y011774D01*
X040600Y011790D01*
X040640Y011790D01*
X040704Y011855D01*
X040704Y011904D01*
X041713Y012913D01*
X042027Y012913D01*
X042027Y012329D01*
X040277Y010579D01*
X040277Y010446D01*
X040277Y010325D01*
X040233Y010325D01*
X040169Y010261D01*
X040169Y009855D01*
X040233Y009790D01*
X040640Y009790D01*
X040704Y009855D01*
X040704Y010261D01*
X040640Y010325D01*
X040596Y010325D01*
X040596Y010446D01*
X042346Y012196D01*
X042346Y012329D01*
X042346Y012913D01*
X042778Y012913D01*
X042836Y012971D01*
X042836Y013054D01*
X042836Y016721D01*
X042836Y016804D01*
X042778Y016862D01*
X041494Y016862D01*
X041494Y016893D01*
X041394Y017135D01*
X041209Y017320D01*
X040967Y017420D01*
X040706Y017420D01*
X040464Y017320D01*
X040279Y017135D01*
X040179Y016893D01*
X040179Y016862D01*
X038895Y016862D01*
X038837Y016804D01*
X038837Y030521D01*
X038895Y030463D01*
X040179Y030463D01*
X040179Y030432D01*
X040279Y030190D01*
X040464Y030005D01*
X040706Y029905D01*
X040967Y029905D01*
X041209Y030005D01*
X041394Y030190D01*
X041494Y030432D01*
X041494Y030463D01*
X042778Y030463D01*
X042836Y030521D01*
X042836Y030604D01*
X042836Y034354D01*
X042778Y034412D01*
X042695Y034412D01*
X038895Y034412D01*
X038837Y034354D01*
X038837Y036004D01*
X039337Y036004D02*
X039337Y034412D01*
X039837Y034412D02*
X039837Y036004D01*
X040337Y036004D02*
X040337Y034412D01*
X040837Y034412D02*
X040837Y036004D01*
X041337Y036004D02*
X041337Y034412D01*
X041837Y034412D02*
X041837Y036004D01*
X042337Y036004D02*
X042337Y034412D01*
X042836Y034163D02*
X044802Y034163D01*
X044802Y033663D02*
X042836Y033663D01*
X042836Y033163D02*
X044802Y033163D01*
X044802Y032663D02*
X042836Y032663D01*
X042836Y032163D02*
X044802Y032163D01*
X044802Y031663D02*
X042836Y031663D01*
X042836Y031163D02*
X044802Y031163D01*
X044802Y030663D02*
X042836Y030663D01*
X042337Y030463D02*
X042337Y016862D01*
X041837Y016862D02*
X041837Y030463D01*
X041366Y030163D02*
X044802Y030163D01*
X044802Y029663D02*
X013050Y029663D01*
X013337Y029552D02*
X013337Y036004D01*
X013837Y036004D02*
X013837Y029552D01*
X014337Y029552D02*
X014337Y036004D01*
X014837Y036004D02*
X014837Y029552D01*
X015337Y029552D02*
X015337Y036004D01*
X015837Y036004D02*
X015837Y029552D01*
X016337Y029552D02*
X016337Y036004D01*
X016837Y036004D02*
X016837Y029552D01*
X017337Y029381D02*
X017337Y036004D01*
X017837Y036004D02*
X017837Y034354D01*
X017837Y034271D01*
X017837Y034354D02*
X017895Y034412D01*
X021695Y034412D01*
X021778Y034412D01*
X021836Y034354D01*
X021836Y033752D01*
X024837Y033752D01*
X024837Y034271D01*
X024837Y034354D01*
X024837Y034163D02*
X021836Y034163D01*
X021337Y034412D02*
X021337Y036004D01*
X021837Y036004D02*
X021837Y033752D01*
X021837Y033373D02*
X021837Y027402D01*
X021837Y027023D02*
X021837Y023831D01*
X022170Y023663D02*
X023173Y023663D01*
X023337Y023856D02*
X023337Y027023D01*
X023337Y027402D02*
X023337Y033373D01*
X023337Y033752D02*
X023337Y036004D01*
X023837Y036004D02*
X023837Y033752D01*
X023837Y033373D02*
X023837Y027402D01*
X023837Y027023D02*
X023837Y024326D01*
X023644Y024163D02*
X021505Y024163D01*
X021337Y024331D02*
X021337Y027023D01*
X021337Y027402D02*
X021337Y030463D01*
X020837Y030463D02*
X020837Y027402D01*
X020837Y027023D02*
X020837Y024831D01*
X021005Y024663D02*
X025297Y024663D01*
X025297Y024163D02*
X024230Y024163D01*
X024337Y023881D02*
X024337Y026794D01*
X024468Y026663D02*
X020026Y026663D01*
X019647Y026663D02*
X019426Y026663D01*
X019426Y026163D02*
X019647Y026163D01*
X020026Y026163D02*
X024968Y026163D01*
X024837Y026294D02*
X024837Y022331D01*
X025200Y022163D02*
X025297Y022163D01*
X025297Y022663D02*
X024505Y022663D01*
X024376Y023163D02*
X025297Y023163D01*
X025297Y023663D02*
X024376Y023663D01*
X023297Y023163D02*
X023180Y023163D01*
X022837Y023341D02*
X022837Y027023D01*
X022837Y027402D02*
X022837Y033373D01*
X022837Y033752D02*
X022837Y036004D01*
X022337Y036004D02*
X022337Y033752D01*
X022337Y033373D02*
X022337Y027402D01*
X022337Y027023D02*
X022337Y023496D01*
X022337Y023229D02*
X022337Y023152D01*
X022300Y023163D02*
X022594Y023163D01*
X022337Y022773D02*
X022337Y021602D01*
X022337Y021223D02*
X022337Y018731D01*
X022268Y018663D02*
X016476Y018663D01*
X016097Y018663D02*
X016026Y018663D01*
X015647Y018663D02*
X013913Y018663D01*
X013837Y018586D02*
X013837Y007472D01*
X013837Y007153D02*
X013837Y005418D01*
X013837Y005038D02*
X013837Y004317D01*
X014337Y004317D02*
X014337Y004540D01*
X014337Y004623D02*
X014337Y004722D01*
X014337Y004805D02*
X014337Y005038D01*
X014337Y005418D02*
X014337Y007153D01*
X014337Y007472D02*
X014337Y019086D01*
X014413Y019163D02*
X015647Y019163D01*
X016026Y019163D02*
X016097Y019163D01*
X016476Y019163D02*
X022768Y019163D01*
X022837Y019231D02*
X022837Y021223D01*
X022837Y021602D02*
X022837Y022684D01*
X023318Y022663D02*
X018016Y022663D01*
X017837Y022503D02*
X017837Y022322D01*
X018016Y022163D02*
X023818Y022163D01*
X023837Y022144D02*
X023837Y021826D01*
X023644Y021663D02*
X018016Y021663D01*
X018337Y021602D02*
X018337Y024223D01*
X018016Y024163D02*
X020068Y024163D01*
X020337Y024431D02*
X020337Y024794D01*
X020468Y024663D02*
X019451Y024663D01*
X020605Y024163D02*
X020968Y024163D01*
X020837Y024294D02*
X020837Y023931D01*
X021105Y023663D02*
X021468Y023663D01*
X021337Y023794D02*
X021337Y023431D01*
X021605Y023163D02*
X021773Y023163D01*
X021837Y022773D02*
X021837Y021602D01*
X021837Y021223D02*
X021837Y018326D01*
X021723Y018163D02*
X016476Y018163D01*
X016097Y018163D02*
X016026Y018163D01*
X015647Y018163D02*
X013413Y018163D01*
X013337Y018086D02*
X013337Y007472D01*
X013337Y007153D02*
X013337Y005418D01*
X013337Y005038D02*
X013337Y004317D01*
X012837Y004623D02*
X012837Y004722D01*
X012337Y004722D02*
X012337Y004623D01*
X011837Y004623D02*
X011837Y004722D01*
X011337Y004722D02*
X011337Y004623D01*
X010837Y004623D02*
X010837Y004722D01*
X010837Y005418D02*
X010837Y006043D01*
X010785Y006043D02*
X011548Y006043D01*
X011699Y006105D01*
X011814Y006220D01*
X011836Y006274D01*
X011837Y006274D02*
X011837Y005418D01*
X012337Y005418D02*
X012337Y006043D01*
X012125Y006043D02*
X012888Y006043D01*
X013039Y006105D01*
X013154Y006220D01*
X013216Y006371D01*
X013216Y006534D01*
X013154Y006685D01*
X013039Y006800D01*
X012888Y006862D01*
X012125Y006862D01*
X011850Y006663D02*
X011823Y006663D01*
X011814Y006685D02*
X011699Y006800D01*
X011548Y006862D01*
X010785Y006862D01*
X010634Y006800D01*
X010519Y006685D01*
X010457Y006534D01*
X010457Y006371D01*
X010519Y006220D01*
X010634Y006105D01*
X010785Y006043D01*
X010577Y006163D02*
X009196Y006163D01*
X008837Y006043D02*
X008837Y005418D01*
X009337Y005418D02*
X009337Y007153D01*
X009337Y007472D02*
X009337Y014086D01*
X009413Y014163D02*
X015647Y014163D01*
X016026Y014163D02*
X016097Y014163D01*
X016476Y014163D02*
X017837Y014163D01*
X017837Y014663D02*
X016476Y014663D01*
X016097Y014663D02*
X016026Y014663D01*
X015647Y014663D02*
X009913Y014663D01*
X009837Y014586D02*
X009837Y007472D01*
X009837Y007153D02*
X009837Y005418D01*
X009837Y005038D02*
X009837Y004317D01*
X010337Y004317D02*
X010337Y005038D01*
X010337Y005418D02*
X010337Y007153D01*
X010337Y007472D02*
X010337Y015086D01*
X010413Y015163D02*
X015647Y015163D01*
X016026Y015163D02*
X016097Y015163D01*
X016476Y015163D02*
X017837Y015163D01*
X017837Y015663D02*
X016476Y015663D01*
X016097Y015663D02*
X016026Y015663D01*
X015647Y015663D02*
X010913Y015663D01*
X010837Y015586D02*
X010837Y007472D01*
X010837Y007153D02*
X010837Y006862D01*
X010510Y006663D02*
X009263Y006663D01*
X008837Y006862D02*
X008837Y007153D01*
X008837Y007472D02*
X008837Y013586D01*
X008913Y013663D02*
X015647Y013663D01*
X016026Y013663D02*
X016097Y013663D01*
X016476Y013663D02*
X017837Y013663D01*
X018337Y012913D02*
X018337Y005172D01*
X018337Y004853D02*
X018337Y004317D01*
X018837Y004317D02*
X018837Y004853D01*
X018837Y005172D02*
X018837Y008568D01*
X018850Y008379D01*
X018877Y008192D01*
X018917Y008007D01*
X018971Y007825D01*
X019037Y007648D01*
X019115Y007476D01*
X019206Y007309D01*
X019308Y007150D01*
X019422Y006999D01*
X019546Y006856D01*
X019680Y006722D01*
X019837Y006587D02*
X019837Y005172D01*
X019837Y004853D02*
X019837Y004317D01*
X019337Y004317D02*
X019337Y004853D01*
X019337Y005172D02*
X019337Y007113D01*
X019300Y007163D02*
X016476Y007163D01*
X016097Y007163D02*
X015763Y007163D01*
X015837Y007089D02*
X015837Y008344D01*
X015655Y008163D02*
X016097Y008163D01*
X016476Y008163D02*
X016527Y008163D01*
X016527Y008663D02*
X016476Y008663D01*
X016097Y008663D02*
X016026Y008663D01*
X015618Y008663D02*
X003896Y008663D01*
X003577Y008663D02*
X002726Y008663D01*
X002837Y008478D02*
X002837Y009029D01*
X002865Y009163D02*
X003577Y009163D01*
X003577Y009663D02*
X003259Y009663D01*
X003232Y009654D02*
X003299Y009675D01*
X003362Y009708D01*
X003420Y009749D01*
X003470Y009799D01*
X003511Y009857D01*
X003544Y009920D01*
X003565Y009987D01*
X003576Y010057D01*
X003576Y010343D01*
X003177Y010343D01*
X003177Y010442D01*
X003576Y010442D01*
X003576Y010728D01*
X003565Y010798D01*
X003544Y010865D01*
X003511Y010928D01*
X003470Y010986D01*
X003420Y011036D01*
X003362Y011077D01*
X003299Y011110D01*
X003232Y011131D01*
X003176Y011140D01*
X003176Y010443D01*
X003077Y010443D01*
X003077Y011140D01*
X003021Y011131D01*
X002954Y011110D01*
X002891Y011077D01*
X002833Y011036D01*
X002783Y010986D01*
X002742Y010928D01*
X002709Y010865D01*
X002688Y010798D01*
X002677Y010728D01*
X002677Y010442D01*
X003076Y010442D01*
X003076Y010343D01*
X002677Y010343D01*
X002677Y010057D01*
X002688Y009987D01*
X002709Y009920D01*
X002742Y009857D01*
X002783Y009799D01*
X002833Y009749D01*
X002891Y009708D01*
X002954Y009675D01*
X003021Y009654D01*
X003077Y009645D01*
X003077Y010342D01*
X003176Y010342D01*
X003176Y009645D01*
X003232Y009654D01*
X003176Y009663D02*
X003077Y009663D01*
X002994Y009663D02*
X000991Y009663D01*
X001337Y009683D02*
X001337Y008542D01*
X000991Y008663D02*
X002347Y008663D01*
X002337Y008899D02*
X002337Y007331D01*
X002168Y007163D02*
X001525Y007163D01*
X001837Y006831D02*
X001837Y012686D01*
X001860Y012663D02*
X000991Y012663D01*
X000991Y012163D02*
X002360Y012163D01*
X002337Y012186D02*
X002337Y009426D01*
X002208Y009163D02*
X000991Y009163D01*
X001756Y010163D02*
X002677Y010163D01*
X002837Y010343D02*
X002837Y010442D01*
X002677Y010663D02*
X001756Y010663D01*
X001337Y011102D02*
X001337Y013186D01*
X001360Y013163D02*
X000991Y013163D01*
X001337Y013639D02*
X001337Y015527D01*
X001317Y015547D02*
X001621Y015243D01*
X001787Y015243D01*
X001787Y015712D01*
X001886Y015712D01*
X001886Y015243D01*
X002052Y015243D01*
X002177Y015367D01*
X002177Y015229D01*
X002163Y015215D01*
X002135Y015242D01*
X001738Y015242D01*
X001457Y014961D01*
X001457Y014564D01*
X001738Y014283D01*
X002135Y014283D01*
X002416Y014564D01*
X002416Y014961D01*
X002389Y014989D01*
X002403Y015003D01*
X002496Y015096D01*
X002496Y015424D01*
X002638Y015283D01*
X003035Y015283D01*
X003316Y015564D01*
X003316Y015961D01*
X003035Y016242D01*
X002638Y016242D01*
X002496Y016101D01*
X002496Y016496D01*
X003253Y017253D01*
X003346Y017346D01*
X003346Y019096D01*
X004093Y019843D01*
X004542Y019843D01*
X004606Y019907D01*
X004606Y020518D01*
X004542Y020582D01*
X003931Y020582D01*
X003867Y020518D01*
X003867Y020069D01*
X003027Y019229D01*
X003027Y019096D01*
X003027Y017479D01*
X002177Y016629D01*
X002177Y016496D01*
X002177Y016158D01*
X002052Y016282D01*
X001886Y016282D01*
X001886Y015813D01*
X001787Y015813D01*
X001787Y016282D01*
X001621Y016282D01*
X001317Y015978D01*
X001317Y015812D01*
X001786Y015812D01*
X001786Y015713D01*
X001317Y015713D01*
X001317Y015547D01*
X001317Y015663D02*
X001296Y015663D01*
X001337Y015713D02*
X001337Y015812D01*
X001337Y015998D02*
X001337Y028236D01*
X001296Y028163D02*
X001888Y028163D01*
X001879Y028191D02*
X001905Y028113D01*
X001942Y028040D01*
X001990Y027974D01*
X002048Y027916D01*
X002114Y027868D01*
X002187Y027831D01*
X002265Y027805D01*
X002337Y027794D01*
X002337Y028262D01*
X002337Y027792D01*
X002382Y027792D02*
X002191Y027792D01*
X002015Y027719D01*
X001880Y027584D01*
X001807Y027408D01*
X001807Y027217D01*
X001880Y027041D01*
X002015Y026906D01*
X002191Y026833D01*
X002382Y026833D01*
X002558Y026906D01*
X002693Y027041D01*
X002766Y027217D01*
X002766Y027408D01*
X002693Y027584D01*
X002558Y027719D01*
X002382Y027792D01*
X002436Y027794D02*
X002508Y027805D01*
X002586Y027831D01*
X002659Y027868D01*
X002725Y027916D01*
X002783Y027974D01*
X002831Y028040D01*
X002868Y028113D01*
X002894Y028191D01*
X002905Y028263D01*
X002437Y028263D01*
X002437Y028362D01*
X002905Y028362D01*
X002894Y028434D01*
X002868Y028512D01*
X002831Y028585D01*
X002783Y028651D01*
X002725Y028709D01*
X002659Y028757D01*
X002586Y028794D01*
X002508Y028820D01*
X002436Y028831D01*
X002436Y028363D01*
X002337Y028363D01*
X002337Y029053D01*
X002337Y028831D02*
X002265Y028820D01*
X002187Y028794D01*
X002114Y028757D01*
X002048Y028709D01*
X001990Y028651D01*
X001942Y028585D01*
X001905Y028512D01*
X001879Y028434D01*
X001868Y028362D01*
X002336Y028362D01*
X002336Y028263D01*
X001868Y028263D01*
X001879Y028191D01*
X002337Y028163D02*
X002436Y028163D01*
X002436Y028262D02*
X002436Y027794D01*
X002615Y027663D02*
X003212Y027663D01*
X003561Y027663D02*
X008018Y027663D01*
X007837Y027491D02*
X007837Y036004D01*
X008093Y035663D02*
X006817Y035663D01*
X006837Y036004D02*
X006837Y033560D01*
X006734Y033663D02*
X009147Y033663D01*
X009337Y033444D02*
X009337Y031087D01*
X009024Y031087D02*
X008960Y031023D01*
X008960Y030184D01*
X009024Y030119D01*
X009582Y030119D01*
X010014Y029688D01*
X010159Y029688D01*
X010412Y029688D01*
X010430Y029644D01*
X010538Y029536D01*
X010680Y029478D01*
X010833Y029478D01*
X010975Y029536D01*
X011083Y029644D01*
X011141Y029786D01*
X011141Y029939D01*
X011083Y030081D01*
X010975Y030189D01*
X010833Y030247D01*
X010680Y030247D01*
X010538Y030189D01*
X010430Y030081D01*
X010412Y030037D01*
X010159Y030037D01*
X009731Y030465D01*
X009731Y031023D01*
X009666Y031087D01*
X009024Y031087D01*
X008837Y031051D02*
X008837Y035038D01*
X008865Y035163D02*
X008960Y035163D01*
X009337Y035477D02*
X009345Y035485D01*
X008960Y035663D02*
X008865Y035663D01*
X008837Y035933D02*
X008837Y036004D01*
X009337Y036004D02*
X009337Y035969D01*
X010337Y036004D02*
X010337Y033529D01*
X010337Y033149D02*
X010337Y030037D01*
X010512Y030163D02*
X010034Y030163D01*
X009837Y030359D02*
X009837Y033149D01*
X009618Y033163D02*
X007234Y033163D01*
X006837Y033065D02*
X006837Y029460D01*
X006912Y029663D02*
X006413Y029663D01*
X006337Y029586D02*
X006337Y028960D01*
X006539Y029163D02*
X005913Y029163D01*
X005837Y029086D02*
X005837Y028687D01*
X005837Y028338D02*
X005837Y016131D01*
X005868Y016163D02*
X004606Y016163D01*
X004337Y015843D02*
X004337Y015582D01*
X003876Y015663D02*
X005368Y015663D01*
X005337Y015631D02*
X005337Y028338D01*
X005337Y028687D02*
X005337Y029053D01*
X005337Y029372D02*
X005337Y030079D01*
X005270Y030079D02*
X005516Y030079D01*
X005516Y030553D01*
X005615Y030553D01*
X005615Y030079D01*
X005861Y030079D01*
X005899Y030090D01*
X005933Y030109D01*
X005961Y030137D01*
X005981Y030172D01*
X005991Y030210D01*
X005991Y030554D01*
X005616Y030554D01*
X005616Y030653D01*
X005991Y030653D01*
X005991Y030997D01*
X005981Y031035D01*
X005961Y031070D01*
X005933Y031097D01*
X005899Y031117D01*
X005861Y031127D01*
X005615Y031127D01*
X005615Y030654D01*
X005516Y030654D01*
X005516Y031127D01*
X005270Y031127D01*
X005232Y031117D01*
X005198Y031097D01*
X005170Y031070D01*
X005150Y031035D01*
X005140Y030997D01*
X005140Y030653D01*
X005515Y030653D01*
X005515Y030554D01*
X005140Y030554D01*
X005140Y030210D01*
X005150Y030172D01*
X005170Y030137D01*
X005198Y030109D01*
X005232Y030090D01*
X005270Y030079D01*
X005155Y030163D02*
X002310Y030163D01*
X002310Y030052D02*
X002310Y030553D01*
X001679Y030553D01*
X001679Y029922D01*
X002180Y029922D01*
X002218Y029932D01*
X002252Y029952D01*
X002280Y029980D01*
X002300Y030014D01*
X002310Y030052D01*
X001837Y029922D02*
X001837Y029189D01*
X001810Y029163D02*
X000991Y029163D01*
X000991Y029663D02*
X005960Y029663D01*
X005837Y029539D02*
X005837Y030079D01*
X005976Y030163D02*
X006067Y030163D01*
X005615Y030163D02*
X005516Y030163D01*
X005337Y030554D02*
X005337Y030653D01*
X005516Y030663D02*
X005615Y030663D01*
X005837Y030653D02*
X005837Y030554D01*
X005991Y030663D02*
X006046Y030663D01*
X005837Y031127D02*
X005837Y033849D01*
X005718Y034163D02*
X000991Y034163D01*
X000991Y034663D02*
X005376Y034663D01*
X005337Y035001D02*
X005337Y031127D01*
X005140Y030663D02*
X002310Y030663D01*
X001837Y030653D02*
X001837Y030553D01*
X001679Y030663D02*
X001579Y030663D01*
X001579Y031163D02*
X001679Y031163D01*
X001837Y031285D02*
X001837Y032470D01*
X001726Y032406D02*
X001726Y032406D01*
X001986Y032663D02*
X006912Y032663D01*
X007261Y032663D02*
X011528Y032663D01*
X011528Y032545D02*
X011592Y032481D01*
X011998Y032481D01*
X012063Y032545D01*
X012063Y032558D01*
X012142Y032558D01*
X012142Y032466D01*
X012206Y032401D01*
X012731Y032401D01*
X012795Y032466D01*
X012795Y032951D01*
X012731Y033015D01*
X012206Y033015D01*
X012142Y032951D01*
X012142Y032938D01*
X012063Y032938D01*
X012063Y032951D01*
X011998Y033015D01*
X011592Y033015D01*
X011528Y032951D01*
X011528Y032545D01*
X011536Y032412D02*
X011237Y032412D01*
X010962Y032298D01*
X010751Y032087D01*
X010637Y031812D01*
X010637Y031513D01*
X010751Y031238D01*
X010962Y031027D01*
X011237Y030913D01*
X011536Y030913D01*
X011811Y031027D01*
X012022Y031238D01*
X012136Y031513D01*
X012136Y031812D01*
X012022Y032087D01*
X011811Y032298D01*
X011536Y032412D01*
X011337Y032412D02*
X011337Y033149D01*
X011337Y033529D02*
X011337Y036004D01*
X011837Y036004D02*
X011837Y033606D01*
X012063Y033163D02*
X012102Y033163D01*
X012337Y033031D02*
X012337Y033015D01*
X012420Y033163D02*
X012517Y033163D01*
X012517Y033031D02*
X012517Y033329D01*
X012835Y033329D01*
X012835Y033161D01*
X012825Y033123D01*
X012805Y033088D01*
X012777Y033061D01*
X012743Y033041D01*
X012705Y033031D01*
X012517Y033031D01*
X012835Y033163D02*
X017837Y033163D01*
X017837Y033663D02*
X012807Y033663D01*
X012805Y033666D02*
X012777Y033694D01*
X012743Y033714D01*
X012705Y033724D01*
X012517Y033724D01*
X012517Y033426D01*
X012835Y033426D01*
X012835Y033594D01*
X012825Y033632D01*
X012805Y033666D01*
X012517Y033663D02*
X012420Y033663D01*
X012337Y033426D02*
X012337Y033329D01*
X011837Y033071D02*
X011837Y033015D01*
X011837Y032481D02*
X011837Y032273D01*
X011947Y032163D02*
X017837Y032163D01*
X017837Y032663D02*
X012795Y032663D01*
X012337Y032401D02*
X012337Y029951D01*
X012337Y029774D02*
X012337Y029552D01*
X012383Y029663D02*
X012205Y029663D01*
X011837Y029487D02*
X011837Y028938D01*
X012068Y029163D02*
X008661Y029163D01*
X008837Y028960D02*
X008837Y030156D01*
X008843Y030163D02*
X008981Y030163D01*
X009337Y030119D02*
X009337Y028737D01*
X009337Y028388D02*
X009337Y028002D01*
X009337Y027623D02*
X009337Y019631D01*
X009368Y019663D02*
X003913Y019663D01*
X003837Y019586D02*
X003837Y019081D01*
X003867Y019163D02*
X003413Y019163D01*
X003187Y019163D02*
X004237Y020213D01*
X004606Y020163D02*
X009868Y020163D01*
X009837Y020131D02*
X009837Y027623D01*
X009837Y028002D02*
X009837Y028388D01*
X009837Y028737D02*
X009837Y029865D01*
X010337Y029688D02*
X010337Y028737D01*
X010337Y028388D02*
X010337Y028002D01*
X010337Y027623D02*
X010337Y020631D01*
X010368Y020663D02*
X002866Y020663D01*
X002866Y020758D02*
X002866Y020567D01*
X002793Y020391D01*
X002658Y020256D01*
X002482Y020183D01*
X002291Y020183D01*
X002115Y020256D01*
X001980Y020391D01*
X001907Y020567D01*
X001907Y020758D01*
X001980Y020934D01*
X002115Y021069D01*
X002291Y021142D01*
X002482Y021142D01*
X002658Y021069D01*
X002793Y020934D01*
X002866Y020758D01*
X002837Y020830D02*
X002837Y024145D01*
X002844Y024163D02*
X003212Y024163D01*
X003561Y024163D02*
X003867Y024163D01*
X003867Y023907D02*
X003931Y023843D01*
X004542Y023843D01*
X004606Y023907D01*
X004606Y024518D01*
X004542Y024582D01*
X003931Y024582D01*
X003867Y024518D01*
X003867Y023907D01*
X003837Y023760D02*
X003837Y028015D01*
X003984Y028163D02*
X017568Y028163D01*
X017337Y028394D02*
X017337Y025199D01*
X017300Y025163D02*
X017016Y025163D01*
X016837Y025322D02*
X016837Y028873D01*
X017068Y028663D02*
X013092Y028663D01*
X013337Y028873D02*
X013337Y028002D01*
X013337Y027623D02*
X013337Y022631D01*
X013368Y022663D02*
X001296Y022663D01*
X001296Y023163D02*
X001829Y023163D01*
X001837Y023145D02*
X001837Y021830D01*
X001807Y021758D02*
X001880Y021934D01*
X002015Y022069D01*
X002191Y022142D01*
X002382Y022142D01*
X002558Y022069D01*
X002693Y021934D01*
X002766Y021758D01*
X002766Y021567D01*
X002693Y021391D01*
X002558Y021256D01*
X002382Y021183D01*
X002191Y021183D01*
X002015Y021256D01*
X001880Y021391D01*
X001807Y021567D01*
X001807Y021758D01*
X001807Y021663D02*
X001296Y021663D01*
X001296Y021163D02*
X003827Y021163D01*
X003827Y021182D02*
X003827Y020933D01*
X003837Y020895D01*
X003856Y020860D01*
X003884Y020832D01*
X003919Y020813D01*
X003957Y020803D01*
X004206Y020803D01*
X004206Y021182D01*
X004267Y021182D01*
X004267Y021243D01*
X004206Y021243D01*
X004206Y021622D01*
X003957Y021622D01*
X003919Y021612D01*
X003884Y021593D01*
X003856Y021565D01*
X003837Y021530D01*
X003827Y021492D01*
X003827Y021243D01*
X004206Y021243D01*
X004206Y021182D01*
X003827Y021182D01*
X003837Y021182D02*
X003837Y021243D01*
X003837Y021530D02*
X003837Y023265D01*
X003867Y023163D02*
X002744Y023163D01*
X002766Y023217D02*
X002693Y023041D01*
X002558Y022906D01*
X002382Y022833D01*
X002191Y022833D01*
X002015Y022906D01*
X001880Y023041D01*
X001807Y023217D01*
X001807Y023408D01*
X001880Y023584D01*
X002015Y023719D01*
X002191Y023792D01*
X002382Y023792D01*
X002558Y023719D01*
X002693Y023584D01*
X002766Y023408D01*
X002766Y023217D01*
X002337Y022833D02*
X002337Y022142D01*
X002766Y021663D02*
X012368Y021663D01*
X012337Y021631D02*
X012337Y027623D01*
X012337Y028002D02*
X012337Y028474D01*
X012337Y028651D02*
X012337Y028873D01*
X012341Y028663D02*
X012112Y028663D01*
X011837Y028187D02*
X011837Y028002D01*
X011837Y027623D02*
X011837Y021131D01*
X011868Y021163D02*
X004646Y021163D01*
X004646Y021182D02*
X004267Y021182D01*
X004267Y020803D01*
X004516Y020803D01*
X004554Y020813D01*
X004589Y020832D01*
X004617Y020860D01*
X004636Y020895D01*
X004646Y020933D01*
X004646Y021182D01*
X004646Y021243D02*
X004646Y021492D01*
X004636Y021530D01*
X004617Y021565D01*
X004589Y021593D01*
X004554Y021612D01*
X004516Y021622D01*
X004267Y021622D01*
X004267Y021243D01*
X004646Y021243D01*
X004337Y021243D02*
X004337Y021182D01*
X004267Y021163D02*
X004206Y021163D01*
X004337Y020803D02*
X004337Y020582D01*
X003837Y020896D02*
X003837Y020039D01*
X003867Y020163D02*
X001296Y020163D01*
X001296Y020663D02*
X001907Y020663D01*
X002191Y020142D02*
X002015Y020069D01*
X001880Y019934D01*
X001807Y019758D01*
X001807Y019567D01*
X001880Y019391D01*
X002015Y019256D01*
X002191Y019183D01*
X002382Y019183D01*
X002558Y019256D01*
X002693Y019391D01*
X002766Y019567D01*
X002766Y019758D01*
X002693Y019934D01*
X002558Y020069D01*
X002382Y020142D01*
X002191Y020142D01*
X002337Y020142D02*
X002337Y020183D01*
X002837Y020495D02*
X002837Y018925D01*
X002831Y018935D02*
X002783Y019001D01*
X002725Y019059D01*
X002659Y019107D01*
X002586Y019144D01*
X002508Y019170D01*
X002436Y019181D01*
X002436Y018713D01*
X002337Y018713D01*
X002337Y019183D01*
X002337Y019181D02*
X002265Y019170D01*
X002187Y019144D01*
X002114Y019107D01*
X002048Y019059D01*
X001990Y019001D01*
X001942Y018935D01*
X001905Y018862D01*
X001879Y018784D01*
X001868Y018712D01*
X002336Y018712D01*
X002336Y018613D01*
X001868Y018613D01*
X001879Y018541D01*
X001905Y018463D01*
X001942Y018390D01*
X001990Y018324D01*
X002048Y018266D01*
X002114Y018218D01*
X002187Y018181D01*
X002265Y018155D01*
X002337Y018144D01*
X002337Y018612D01*
X002337Y018142D01*
X002337Y018163D02*
X002436Y018163D01*
X002436Y018144D02*
X002508Y018155D01*
X002586Y018181D01*
X002659Y018218D01*
X002725Y018266D01*
X002783Y018324D01*
X002831Y018390D01*
X002868Y018463D01*
X002894Y018541D01*
X002905Y018613D01*
X002437Y018613D01*
X002437Y018712D01*
X002905Y018712D01*
X002894Y018784D01*
X002868Y018862D01*
X002831Y018935D01*
X002837Y018712D02*
X002837Y018613D01*
X003027Y018663D02*
X002437Y018663D01*
X002436Y018612D02*
X002436Y018144D01*
X002382Y018142D02*
X002191Y018142D01*
X002015Y018069D01*
X001880Y017934D01*
X001807Y017758D01*
X001807Y017567D01*
X001880Y017391D01*
X002015Y017256D01*
X002191Y017183D01*
X002382Y017183D01*
X002558Y017256D01*
X002693Y017391D01*
X002766Y017567D01*
X002766Y017758D01*
X002693Y017934D01*
X002558Y018069D01*
X002382Y018142D01*
X002243Y018163D02*
X001296Y018163D01*
X001296Y018663D02*
X002336Y018663D01*
X002337Y018713D02*
X002337Y019181D01*
X002337Y019163D02*
X002436Y019163D01*
X002530Y019163D02*
X003027Y019163D01*
X003187Y019163D02*
X003187Y017413D01*
X002337Y016563D01*
X002337Y015163D01*
X001937Y014763D01*
X001658Y015163D02*
X001296Y015163D01*
X001296Y014663D02*
X001457Y014663D01*
X001558Y014163D02*
X001296Y014163D01*
X001313Y013663D02*
X001357Y013663D01*
X001837Y013283D02*
X001837Y013139D01*
X001813Y013163D02*
X003453Y013163D01*
X003337Y013249D02*
X003337Y011639D01*
X003313Y011663D02*
X005454Y011663D01*
X005337Y011545D02*
X005337Y014094D01*
X005405Y014163D02*
X007942Y014163D01*
X007837Y014057D02*
X007837Y016594D01*
X007905Y016663D02*
X010430Y016663D01*
X010337Y016569D02*
X010337Y019094D01*
X010405Y019163D02*
X012918Y019163D01*
X012837Y019081D02*
X012837Y021594D01*
X012905Y021663D02*
X014477Y021663D01*
X014796Y021663D02*
X015127Y021663D01*
X015446Y021663D02*
X015647Y021663D01*
X016026Y021663D02*
X016357Y021663D01*
X016337Y021683D02*
X016337Y021142D01*
X016357Y021163D02*
X016026Y021163D01*
X015647Y021163D02*
X015446Y021163D01*
X015127Y021163D02*
X014796Y021163D01*
X014477Y021163D02*
X012405Y021163D01*
X012337Y021094D02*
X012337Y018578D01*
X012420Y018663D02*
X009905Y018663D01*
X009837Y018594D02*
X009837Y016066D01*
X009932Y016163D02*
X007405Y016163D01*
X007337Y016094D02*
X007337Y013554D01*
X007444Y013663D02*
X004905Y013663D01*
X004837Y013594D02*
X004837Y011042D01*
X004956Y011163D02*
X004606Y011163D01*
X004337Y010843D02*
X004337Y010582D01*
X004459Y010663D02*
X003896Y010663D01*
X003577Y010663D02*
X003576Y010663D01*
X003337Y010442D02*
X003337Y010343D01*
X003176Y010163D02*
X003077Y010163D01*
X002837Y009747D02*
X002837Y009296D01*
X003337Y009694D02*
X003337Y008531D01*
X003176Y008163D02*
X003077Y008163D01*
X003337Y007882D02*
X003337Y007783D01*
X003176Y007663D02*
X003077Y007663D01*
X003576Y007663D02*
X003577Y007663D01*
X003576Y008163D02*
X003577Y008163D01*
X004337Y007843D02*
X004337Y007472D01*
X004606Y008163D02*
X014867Y008163D01*
X015337Y007843D02*
X015337Y007472D01*
X015337Y007136D02*
X015337Y006862D01*
X014837Y006862D02*
X014837Y007153D01*
X014837Y007472D02*
X014837Y019586D01*
X014913Y019663D02*
X015647Y019663D01*
X016026Y019663D02*
X016168Y019663D01*
X016337Y019831D02*
X016337Y020683D01*
X016357Y020663D02*
X016026Y020663D01*
X015647Y020663D02*
X015446Y020663D01*
X015127Y020663D02*
X014797Y020663D01*
X014637Y020663D02*
X014637Y024713D01*
X014637Y025413D01*
X014850Y025663D02*
X015647Y025663D01*
X015542Y025843D02*
X014931Y025843D01*
X014867Y025907D01*
X014867Y026518D01*
X014931Y026582D01*
X015542Y026582D01*
X015606Y026518D01*
X015606Y025907D01*
X015542Y025843D01*
X015337Y025843D02*
X015337Y025291D01*
X015550Y025163D02*
X015647Y025163D01*
X015287Y024963D02*
X015287Y020263D01*
X004237Y009213D01*
X004606Y009163D02*
X014867Y009163D01*
X014867Y008907D02*
X014931Y008843D01*
X015542Y008843D01*
X015606Y008907D01*
X015606Y009518D01*
X015542Y009582D01*
X014931Y009582D01*
X014867Y009518D01*
X014867Y008907D01*
X015337Y008843D02*
X015337Y008582D01*
X015606Y009163D02*
X015647Y009163D01*
X016026Y009163D02*
X016097Y009163D01*
X016476Y009163D02*
X016527Y009163D01*
X015337Y009582D02*
X015337Y020086D01*
X015413Y020163D02*
X015647Y020163D01*
X016026Y020163D02*
X016668Y020163D01*
X016837Y020331D02*
X016837Y020503D01*
X017016Y020663D02*
X017168Y020663D01*
X017205Y021163D02*
X017357Y021163D01*
X017337Y021142D02*
X017337Y021223D01*
X017337Y021602D02*
X017337Y021683D01*
X017357Y021663D02*
X017016Y021663D01*
X017096Y021743D02*
X016856Y021503D01*
X016517Y021503D01*
X016277Y021743D01*
X016277Y022082D01*
X016517Y022322D01*
X016856Y022322D01*
X017096Y022082D01*
X017096Y021743D01*
X016837Y021503D02*
X016837Y021331D01*
X017337Y022142D02*
X017337Y022683D01*
X017357Y022663D02*
X017016Y022663D01*
X017096Y022743D02*
X016856Y022503D01*
X016517Y022503D01*
X016277Y022743D01*
X016277Y023082D01*
X016517Y023322D01*
X016856Y023322D01*
X017096Y023082D01*
X017096Y022743D01*
X016837Y022503D02*
X016837Y022322D01*
X017016Y022163D02*
X017357Y022163D01*
X017337Y023142D02*
X017337Y023683D01*
X017357Y023663D02*
X017016Y023663D01*
X016837Y023503D02*
X016837Y023322D01*
X017016Y023163D02*
X017357Y023163D01*
X016357Y023163D02*
X016026Y023163D01*
X016337Y023142D02*
X016337Y023683D01*
X016357Y023663D02*
X016026Y023663D01*
X015647Y023663D02*
X015446Y023663D01*
X015127Y023663D02*
X014796Y023663D01*
X014477Y023663D02*
X003934Y023663D01*
X004337Y023582D02*
X004337Y023843D01*
X004606Y024163D02*
X014477Y024163D01*
X014796Y024163D02*
X015127Y024163D01*
X015446Y024163D02*
X015647Y024163D01*
X016026Y024163D02*
X016168Y024163D01*
X015647Y024663D02*
X015446Y024663D01*
X015127Y024663D02*
X014796Y024663D01*
X014477Y024663D02*
X003561Y024663D01*
X003212Y024663D02*
X002715Y024663D01*
X002658Y024719D02*
X002793Y024584D01*
X002866Y024408D01*
X002866Y024217D01*
X002793Y024041D01*
X002658Y023906D01*
X002482Y023833D01*
X002291Y023833D01*
X002115Y023906D01*
X001980Y024041D01*
X001907Y024217D01*
X001907Y024408D01*
X001980Y024584D01*
X002115Y024719D01*
X002291Y024792D01*
X002482Y024792D01*
X002658Y024719D01*
X002558Y024906D02*
X002693Y025041D01*
X002766Y025217D01*
X002766Y025408D01*
X002693Y025584D01*
X002558Y025719D01*
X002382Y025792D01*
X002191Y025792D01*
X002015Y025719D01*
X001880Y025584D01*
X001807Y025408D01*
X001807Y025217D01*
X001880Y025041D01*
X002015Y024906D01*
X002191Y024833D01*
X002382Y024833D01*
X002558Y024906D01*
X002337Y024833D02*
X002337Y024792D01*
X002058Y024663D02*
X001296Y024663D01*
X001296Y024163D02*
X001929Y024163D01*
X001958Y023663D02*
X001296Y023663D01*
X001837Y023480D02*
X001837Y025145D01*
X001829Y025163D02*
X001296Y025163D01*
X001296Y025663D02*
X001958Y025663D01*
X001837Y025480D02*
X001837Y027145D01*
X001829Y027163D02*
X001296Y027163D01*
X001296Y026663D02*
X002058Y026663D01*
X002337Y026792D02*
X002337Y026833D01*
X002715Y026663D02*
X003089Y026663D01*
X002837Y026487D02*
X002837Y028050D01*
X002885Y028163D02*
X003489Y028163D01*
X003337Y028010D02*
X003337Y029053D01*
X003337Y029372D02*
X003337Y036004D01*
X003837Y036004D02*
X003837Y029372D01*
X003837Y029053D02*
X003837Y028510D01*
X003989Y028663D02*
X002772Y028663D01*
X002837Y028575D02*
X002837Y029053D01*
X002837Y029372D02*
X002837Y036004D01*
X002337Y036004D02*
X002337Y029372D01*
X002337Y028831D02*
X002337Y028363D01*
X002337Y028262D02*
X002436Y028262D01*
X002436Y028663D02*
X002337Y028663D01*
X002001Y028663D02*
X001763Y028663D01*
X001837Y028736D02*
X001837Y027480D01*
X001958Y027663D02*
X001296Y027663D01*
X001310Y028663D02*
X000991Y028663D01*
X001337Y028689D02*
X001337Y029922D01*
X001579Y030163D02*
X001679Y030163D01*
X002308Y031163D02*
X006912Y031163D01*
X007261Y031163D02*
X010826Y031163D01*
X010837Y031152D02*
X010837Y030246D01*
X011001Y030163D02*
X011492Y030163D01*
X011837Y030238D02*
X011837Y031052D01*
X011947Y031163D02*
X017837Y031163D01*
X017837Y030663D02*
X009731Y030663D01*
X008960Y030663D02*
X008865Y030663D01*
X008115Y030163D02*
X007261Y030163D01*
X006912Y030163D02*
X006796Y030163D01*
X007261Y029663D02*
X008312Y029663D01*
X008661Y029663D02*
X010423Y029663D01*
X010837Y029479D02*
X010837Y028946D01*
X011132Y028663D02*
X011361Y028663D01*
X011337Y028002D02*
X011337Y030913D01*
X011981Y030163D02*
X012472Y030163D01*
X011403Y029663D02*
X011090Y029663D01*
X010837Y028179D02*
X010837Y028002D01*
X010837Y027623D02*
X010837Y021076D01*
X011050Y020663D02*
X011368Y020663D01*
X011337Y020631D02*
X011337Y027623D01*
X012837Y027623D02*
X012837Y022131D01*
X012868Y022163D02*
X004606Y022163D01*
X004606Y021907D02*
X004606Y022518D01*
X004542Y022582D01*
X003931Y022582D01*
X003867Y022518D01*
X003867Y021907D01*
X003931Y021843D01*
X004542Y021843D01*
X004606Y021907D01*
X004337Y021843D02*
X004337Y021622D01*
X003867Y022163D02*
X001296Y022163D01*
X001837Y021495D02*
X001837Y019830D01*
X001807Y019663D02*
X001296Y019663D01*
X001296Y019163D02*
X002243Y019163D01*
X001837Y019495D02*
X001837Y017830D01*
X001807Y017663D02*
X001296Y017663D01*
X001296Y017163D02*
X002710Y017163D01*
X002837Y017289D02*
X002837Y018400D01*
X003027Y018163D02*
X002530Y018163D01*
X002436Y018612D02*
X002337Y018612D01*
X003346Y018663D02*
X003497Y018663D01*
X003955Y018663D02*
X008368Y018663D01*
X008337Y018631D02*
X008337Y027444D01*
X008115Y027163D02*
X014867Y027163D01*
X014867Y026907D02*
X014931Y026843D01*
X015542Y026843D01*
X015606Y026907D01*
X015606Y027518D01*
X015542Y027582D01*
X014931Y027582D01*
X014867Y027518D01*
X014867Y026907D01*
X015337Y026843D02*
X015337Y026582D01*
X015644Y026663D02*
X003561Y026663D01*
X003867Y026518D02*
X003867Y025907D01*
X003931Y025843D01*
X004542Y025843D01*
X004606Y025907D01*
X004606Y026518D01*
X004542Y026582D01*
X003931Y026582D01*
X003867Y026518D01*
X003931Y026843D02*
X004542Y026843D01*
X004606Y026907D01*
X004606Y027518D01*
X004542Y027582D01*
X003931Y027582D01*
X003867Y027518D01*
X003867Y026907D01*
X003931Y026843D01*
X003867Y027163D02*
X003561Y027163D01*
X003212Y027163D02*
X002744Y027163D01*
X003084Y026163D02*
X003212Y026163D01*
X003561Y026163D02*
X003867Y026163D01*
X004337Y025843D02*
X004337Y025582D01*
X004542Y025582D02*
X003931Y025582D01*
X003867Y025518D01*
X003867Y024907D01*
X003931Y024843D01*
X004542Y024843D01*
X004606Y024907D01*
X004606Y025518D01*
X004542Y025582D01*
X004606Y025163D02*
X014423Y025163D01*
X014337Y025279D02*
X014337Y023541D01*
X014796Y023163D02*
X015127Y023163D01*
X015446Y023163D02*
X015647Y023163D01*
X015647Y022663D02*
X015446Y022663D01*
X015127Y022663D02*
X014796Y022663D01*
X014477Y022663D02*
X013905Y022663D01*
X013837Y022594D02*
X013837Y020085D01*
X013913Y020163D02*
X011405Y020163D01*
X011337Y020094D02*
X011337Y017573D01*
X011425Y017663D02*
X008905Y017663D01*
X008837Y017594D02*
X008837Y015061D01*
X008937Y015163D02*
X006405Y015163D01*
X006337Y015094D02*
X006337Y012549D01*
X006449Y012663D02*
X002313Y012663D01*
X002337Y012639D02*
X002337Y014484D01*
X002416Y014663D02*
X002457Y014663D01*
X002496Y015163D02*
X002658Y015163D01*
X002837Y015242D02*
X002837Y015283D01*
X003215Y015163D02*
X003468Y015163D01*
X003337Y015041D02*
X003337Y017336D01*
X003497Y017163D02*
X003163Y017163D01*
X002837Y016836D02*
X002837Y016242D01*
X003115Y016163D02*
X003497Y016163D01*
X003497Y016663D02*
X002663Y016663D01*
X002337Y016789D02*
X002337Y017183D01*
X001837Y017495D02*
X001837Y015813D01*
X001837Y015712D02*
X001837Y015242D01*
X001787Y015663D02*
X001886Y015663D01*
X001886Y016163D02*
X001787Y016163D01*
X001501Y016163D02*
X001296Y016163D01*
X001296Y016663D02*
X002210Y016663D01*
X002172Y016163D02*
X002177Y016163D01*
X002496Y016163D02*
X002558Y016163D01*
X003316Y015663D02*
X003497Y015663D01*
X003876Y016663D02*
X006368Y016663D01*
X006337Y016631D02*
X006337Y028465D01*
X006534Y028663D02*
X008639Y028663D01*
X008837Y028465D02*
X008837Y028002D01*
X008837Y027623D02*
X008837Y019131D01*
X008868Y019163D02*
X004606Y019163D01*
X004337Y018843D02*
X004337Y018582D01*
X004606Y018163D02*
X007868Y018163D01*
X007837Y018131D02*
X007837Y026834D01*
X007458Y027163D02*
X004606Y027163D01*
X004337Y026843D02*
X004337Y026582D01*
X004606Y026163D02*
X014867Y026163D01*
X014837Y025676D02*
X014837Y027623D01*
X014837Y028002D02*
X014837Y028873D01*
X015337Y028873D02*
X015337Y028002D01*
X015337Y027623D02*
X015337Y027582D01*
X015606Y027163D02*
X016247Y027163D01*
X016626Y027163D02*
X018447Y027163D01*
X018337Y027394D02*
X018337Y025046D01*
X018423Y025163D02*
X018073Y025163D01*
X017837Y025362D02*
X017837Y027894D01*
X018068Y027663D02*
X016305Y027663D01*
X016337Y027631D02*
X016337Y028873D01*
X015837Y028873D02*
X015837Y028002D01*
X015837Y027594D02*
X015837Y026826D01*
X016229Y026663D02*
X016247Y026663D01*
X016626Y026663D02*
X018447Y026663D01*
X018447Y026163D02*
X016626Y026163D01*
X016555Y025663D02*
X018447Y025663D01*
X017736Y025163D02*
X017637Y025163D01*
X017837Y024962D02*
X017837Y024863D01*
X018073Y024663D02*
X018423Y024663D01*
X018337Y024602D02*
X018337Y024779D01*
X017337Y024863D02*
X017337Y024962D01*
X017300Y024663D02*
X017205Y024663D01*
X017337Y024626D02*
X017337Y024602D01*
X017337Y024223D02*
X017337Y024142D01*
X017357Y024163D02*
X017016Y024163D01*
X016837Y024322D02*
X016837Y024494D01*
X015023Y025163D02*
X014851Y025163D01*
X014837Y025149D02*
X014837Y020039D01*
X014960Y020163D02*
X014365Y020163D01*
X014337Y020134D02*
X014337Y019539D01*
X014460Y019663D02*
X013867Y019663D01*
X013837Y019632D02*
X013837Y019039D01*
X013960Y019163D02*
X013369Y019163D01*
X013337Y019129D02*
X013337Y018539D01*
X013460Y018663D02*
X012872Y018663D01*
X012837Y018627D02*
X012837Y018039D01*
X012960Y018163D02*
X012374Y018163D01*
X012337Y018125D02*
X012337Y017539D01*
X012460Y017663D02*
X011877Y017663D01*
X011837Y017622D02*
X011837Y017039D01*
X011960Y017163D02*
X011379Y017163D01*
X011337Y017120D02*
X011337Y016539D01*
X011460Y016663D02*
X010881Y016663D01*
X010837Y016617D02*
X010837Y016039D01*
X010960Y016163D02*
X010384Y016163D01*
X010337Y016115D02*
X010337Y015539D01*
X010460Y015663D02*
X009886Y015663D01*
X009837Y015613D02*
X009837Y015039D01*
X009960Y015163D02*
X009389Y015163D01*
X009337Y015110D02*
X009337Y014539D01*
X009460Y014663D02*
X008891Y014663D01*
X008837Y014608D02*
X008837Y014039D01*
X008960Y014163D02*
X008393Y014163D01*
X008337Y014105D02*
X008337Y013539D01*
X008460Y013663D02*
X007896Y013663D01*
X007837Y013603D02*
X007837Y013039D01*
X007960Y013163D02*
X007398Y013163D01*
X007337Y013101D02*
X007337Y012539D01*
X007460Y012663D02*
X006901Y012663D01*
X006837Y012598D02*
X006837Y012039D01*
X006960Y012163D02*
X006403Y012163D01*
X006337Y012096D02*
X006337Y011539D01*
X006460Y011663D02*
X005905Y011663D01*
X005837Y011593D02*
X005837Y011039D01*
X005960Y011163D02*
X005408Y011163D01*
X005337Y011091D02*
X005337Y010539D01*
X005460Y010663D02*
X004910Y010663D01*
X004837Y010589D02*
X004837Y010039D01*
X004960Y010163D02*
X004606Y010163D01*
X004237Y010213D02*
X014637Y020663D01*
X014411Y020663D02*
X011905Y020663D01*
X011837Y020594D02*
X011837Y018076D01*
X011923Y018163D02*
X009405Y018163D01*
X009337Y018094D02*
X009337Y015564D01*
X009435Y015663D02*
X006905Y015663D01*
X006837Y015594D02*
X006837Y013052D01*
X006947Y013163D02*
X004606Y013163D01*
X004337Y012843D02*
X004337Y012582D01*
X004542Y012582D02*
X003931Y012582D01*
X003867Y012518D01*
X003867Y011907D01*
X003931Y011843D01*
X004542Y011843D01*
X004606Y011907D01*
X004606Y012518D01*
X004542Y012582D01*
X004606Y012163D02*
X005951Y012163D01*
X005837Y012047D02*
X005837Y014594D01*
X005905Y014663D02*
X008440Y014663D01*
X008337Y014559D02*
X008337Y017094D01*
X008405Y017163D02*
X010928Y017163D01*
X010837Y017071D02*
X010837Y019594D01*
X010905Y019663D02*
X013416Y019663D01*
X013337Y019583D02*
X013337Y022094D01*
X013405Y022163D02*
X014477Y022163D01*
X014796Y022163D02*
X015127Y022163D01*
X015446Y022163D02*
X015647Y022163D01*
X016026Y022163D02*
X016357Y022163D01*
X016337Y022142D02*
X016337Y022683D01*
X016357Y022663D02*
X016026Y022663D01*
X014337Y022934D02*
X014337Y020588D01*
X013837Y023131D02*
X013837Y027623D01*
X013837Y028002D02*
X013837Y028873D01*
X014337Y028873D02*
X014337Y028002D01*
X014337Y027623D02*
X014337Y025546D01*
X014423Y025663D02*
X003561Y025663D01*
X003212Y025663D02*
X002615Y025663D01*
X002337Y025792D02*
X002337Y025833D01*
X001929Y026163D02*
X001296Y026163D01*
X002837Y026138D02*
X002837Y024480D01*
X002744Y025163D02*
X003212Y025163D01*
X003561Y025163D02*
X003867Y025163D01*
X004337Y024843D02*
X004337Y024582D01*
X003439Y023663D02*
X002615Y023663D01*
X002337Y023792D02*
X002337Y023833D01*
X003337Y023765D02*
X003337Y019539D01*
X003460Y019663D02*
X002766Y019663D01*
X004337Y019582D02*
X004337Y019843D01*
X003497Y018163D02*
X003346Y018163D01*
X003346Y017663D02*
X003497Y017663D01*
X003876Y017663D02*
X007368Y017663D01*
X007337Y017631D02*
X007337Y036004D01*
X008337Y035969D02*
X008337Y036004D01*
X009731Y035163D02*
X042937Y035163D01*
X043040Y034663D02*
X009526Y034663D01*
X009147Y034663D02*
X005756Y034663D01*
X005837Y034581D02*
X005837Y035001D01*
X005951Y035163D02*
X006046Y035163D01*
X006046Y035663D02*
X005951Y035663D01*
X005837Y035969D02*
X005837Y036004D01*
X005337Y036004D02*
X005337Y035969D01*
X005180Y035663D02*
X002310Y035663D01*
X002310Y035435D02*
X001679Y035435D01*
X001679Y034804D01*
X002180Y034804D01*
X002218Y034814D01*
X002252Y034834D01*
X002280Y034862D01*
X002300Y034896D01*
X002310Y034934D01*
X002310Y035435D01*
X002310Y035163D02*
X005180Y035163D01*
X004837Y036004D02*
X004837Y029372D01*
X004837Y029053D02*
X004837Y028687D01*
X004837Y028338D02*
X004837Y015131D01*
X004868Y015163D02*
X004606Y015163D01*
X004905Y014663D02*
X005368Y014663D01*
X005337Y014631D02*
X005337Y015094D01*
X005405Y015163D02*
X005868Y015163D01*
X005837Y015131D02*
X005837Y015594D01*
X005905Y015663D02*
X006368Y015663D01*
X006337Y015631D02*
X006337Y016094D01*
X006405Y016163D02*
X006868Y016163D01*
X006837Y016131D02*
X006837Y016594D01*
X006905Y016663D02*
X007368Y016663D01*
X007337Y016631D02*
X007337Y017094D01*
X007405Y017163D02*
X007868Y017163D01*
X007837Y017131D02*
X007837Y017594D01*
X007905Y017663D02*
X008368Y017663D01*
X008337Y017631D02*
X008337Y018094D01*
X008405Y018163D02*
X008868Y018163D01*
X008837Y018131D02*
X008837Y018594D01*
X008905Y018663D02*
X009368Y018663D01*
X009337Y018631D02*
X009337Y019094D01*
X009405Y019163D02*
X009868Y019163D01*
X009837Y019131D02*
X009837Y019594D01*
X009905Y019663D02*
X010368Y019663D01*
X010337Y019631D02*
X010337Y020094D01*
X010405Y020163D02*
X010868Y020163D01*
X010837Y020131D02*
X010837Y020449D01*
X013868Y023163D02*
X004606Y023163D01*
X004337Y022843D02*
X004337Y022582D01*
X002337Y021183D02*
X002337Y021142D01*
X004337Y017843D02*
X004337Y017582D01*
X004606Y017163D02*
X006868Y017163D01*
X006837Y017131D02*
X006837Y028965D01*
X007034Y029163D02*
X008312Y029163D01*
X008337Y028965D02*
X008337Y027981D01*
X006337Y031087D02*
X006337Y033565D01*
X006239Y033663D02*
X001760Y033663D01*
X001697Y033683D02*
X001697Y033683D01*
X001837Y033619D02*
X001837Y034804D01*
X001679Y035163D02*
X001579Y035163D01*
X001837Y035435D02*
X001837Y035535D01*
X001337Y034804D02*
X001337Y033683D01*
X001894Y033585D02*
X001894Y033585D01*
X001991Y033389D02*
X001991Y033389D01*
X001991Y033163D02*
X006739Y033163D01*
X006912Y032163D02*
X000991Y032163D01*
X001337Y032406D02*
X001337Y031285D01*
X000991Y031663D02*
X006912Y031663D01*
X007261Y031663D02*
X010637Y031663D01*
X010826Y032163D02*
X007261Y032163D01*
X010837Y032173D02*
X010837Y033149D01*
X010837Y033529D02*
X010837Y036004D01*
X006337Y035969D02*
X006337Y036004D01*
X004337Y036004D02*
X004337Y029372D01*
X004337Y029053D02*
X004337Y028687D01*
X004337Y028338D02*
X004337Y027582D01*
X002837Y028263D02*
X002837Y028362D01*
X001991Y032672D02*
X001991Y032672D01*
X001991Y032700D02*
X001991Y032700D01*
X012136Y031663D02*
X017837Y031663D01*
X018837Y030463D02*
X018837Y027881D01*
X019055Y027663D02*
X019508Y027663D01*
X019837Y028041D02*
X019837Y029905D01*
X020337Y030133D02*
X020337Y027506D01*
X020165Y027663D02*
X044802Y027663D01*
X044802Y027163D02*
X038350Y027163D01*
X038337Y027176D02*
X038337Y033373D01*
X038337Y033752D02*
X038337Y036004D01*
X037837Y036004D02*
X037837Y033752D01*
X037837Y033373D02*
X037837Y027176D01*
X037823Y027163D02*
X024505Y027163D01*
X024337Y027331D02*
X024337Y033373D01*
X024337Y033752D02*
X024337Y036004D01*
X020837Y036004D02*
X020837Y034412D01*
X020337Y034412D02*
X020337Y036004D01*
X019837Y036004D02*
X019837Y034412D01*
X019337Y034412D02*
X019337Y036004D01*
X018837Y036004D02*
X018837Y034412D01*
X018337Y034412D02*
X018337Y036004D01*
X021836Y033163D02*
X024837Y033163D01*
X024837Y032663D02*
X021836Y032663D01*
X021836Y032163D02*
X024837Y032163D01*
X024837Y031663D02*
X021836Y031663D01*
X021836Y031163D02*
X024837Y031163D01*
X024837Y030663D02*
X021836Y030663D01*
X020366Y030163D02*
X026307Y030163D01*
X026337Y030133D02*
X026337Y025526D01*
X025837Y025526D02*
X025837Y030463D01*
X026837Y029905D02*
X026837Y025605D01*
X026979Y025163D02*
X037347Y025163D01*
X037726Y025163D02*
X044802Y025163D01*
X044802Y025663D02*
X037726Y025663D01*
X037347Y025663D02*
X025701Y025663D01*
X026876Y024663D02*
X037347Y024663D01*
X037726Y024663D02*
X044802Y024663D01*
X044802Y024163D02*
X037750Y024163D01*
X037837Y024046D02*
X037837Y026444D01*
X037726Y026163D02*
X044802Y026163D01*
X044802Y026663D02*
X038220Y026663D01*
X038337Y026749D02*
X038337Y015522D01*
X037837Y015522D02*
X037837Y023779D01*
X037751Y023663D02*
X044802Y023663D01*
X044802Y023163D02*
X034242Y023163D01*
X034242Y022987D02*
X034242Y023590D01*
X034190Y023641D01*
X034224Y023661D01*
X034252Y023689D01*
X034272Y023723D01*
X034282Y023761D01*
X034282Y023987D01*
X033887Y023987D01*
X033887Y024086D01*
X034282Y024086D01*
X034282Y024312D01*
X034272Y024350D01*
X034252Y024385D01*
X034224Y024412D01*
X034190Y024432D01*
X034152Y024442D01*
X033886Y024442D01*
X033886Y024087D01*
X033787Y024087D01*
X033787Y024442D01*
X033521Y024442D01*
X033483Y024432D01*
X033449Y024412D01*
X033421Y024385D01*
X033401Y024350D01*
X033391Y024312D01*
X033391Y024086D01*
X033786Y024086D01*
X033786Y023987D01*
X033391Y023987D01*
X033391Y023761D01*
X033401Y023723D01*
X033421Y023689D01*
X033449Y023661D01*
X033483Y023641D01*
X033431Y023590D01*
X033431Y023462D01*
X029524Y023462D01*
X029437Y023375D01*
X028481Y022419D01*
X028437Y022376D01*
X028437Y022375D01*
X028437Y022375D01*
X028437Y022314D01*
X028413Y018256D01*
X028376Y018241D01*
X028283Y018148D01*
X028233Y018028D01*
X028233Y017897D01*
X028283Y017777D01*
X028376Y017684D01*
X028496Y017634D01*
X028627Y017634D01*
X028747Y017684D01*
X028840Y017777D01*
X028890Y017897D01*
X028890Y018028D01*
X028840Y018148D01*
X028747Y018241D01*
X028713Y018255D01*
X028736Y022250D01*
X029649Y023163D01*
X033431Y023163D01*
X033431Y022987D01*
X033496Y022923D01*
X034177Y022923D01*
X034242Y022987D01*
X033837Y022923D02*
X033837Y017420D01*
X033967Y017420D02*
X033706Y017420D01*
X033464Y017320D01*
X033279Y017135D01*
X033179Y016893D01*
X033179Y016862D01*
X031895Y016862D01*
X031837Y016804D01*
X031837Y016663D02*
X028836Y016663D01*
X028837Y016272D02*
X028837Y017774D01*
X028695Y017663D02*
X044802Y017663D01*
X044802Y017163D02*
X041366Y017163D01*
X041337Y017192D02*
X041337Y030133D01*
X040837Y029905D02*
X040837Y017420D01*
X040337Y017192D02*
X040337Y030133D01*
X040307Y030163D02*
X034366Y030163D01*
X034394Y030190D02*
X034494Y030432D01*
X034494Y030463D01*
X035778Y030463D01*
X035836Y030521D01*
X035836Y030604D01*
X035836Y033373D01*
X038837Y033373D01*
X038837Y030604D01*
X038837Y030521D01*
X038837Y030663D02*
X035836Y030663D01*
X035836Y031163D02*
X038837Y031163D01*
X038837Y031663D02*
X035836Y031663D01*
X035836Y032163D02*
X038837Y032163D01*
X038837Y032663D02*
X035836Y032663D01*
X035836Y033163D02*
X038837Y033163D01*
X038837Y033752D02*
X035836Y033752D01*
X035836Y034354D01*
X035778Y034412D01*
X035695Y034412D01*
X031895Y034412D01*
X031837Y034354D01*
X031837Y036004D01*
X032337Y036004D02*
X032337Y034412D01*
X032837Y034412D02*
X032837Y036004D01*
X033337Y036004D02*
X033337Y034412D01*
X033837Y034412D02*
X033837Y036004D01*
X034337Y036004D02*
X034337Y034412D01*
X034837Y034412D02*
X034837Y036004D01*
X035337Y036004D02*
X035337Y034412D01*
X035836Y034163D02*
X038837Y034163D01*
X038837Y034271D02*
X038837Y033752D01*
X038837Y034271D02*
X038837Y034354D01*
X037337Y033752D02*
X037337Y036004D01*
X036837Y036004D02*
X036837Y033752D01*
X036837Y033373D02*
X036837Y015522D01*
X036753Y015522D02*
X035836Y015522D01*
X035836Y016721D01*
X035836Y016804D01*
X035778Y016862D01*
X034494Y016862D01*
X034494Y016893D01*
X034394Y017135D01*
X034209Y017320D01*
X033967Y017420D01*
X034337Y017192D02*
X034337Y030133D01*
X034394Y030190D02*
X034209Y030005D01*
X033967Y029905D01*
X033706Y029905D01*
X033464Y030005D01*
X033279Y030190D01*
X033179Y030432D01*
X033179Y030463D01*
X031895Y030463D01*
X031837Y030521D01*
X031837Y030663D02*
X028836Y030663D01*
X028836Y031163D02*
X031837Y031163D01*
X031837Y031663D02*
X028836Y031663D01*
X028836Y032163D02*
X031837Y032163D01*
X031837Y032663D02*
X028836Y032663D01*
X028836Y033163D02*
X031837Y033163D01*
X031837Y033663D02*
X028836Y033663D01*
X028837Y036004D02*
X028837Y022775D01*
X028724Y022663D02*
X026876Y022663D01*
X026876Y023163D02*
X029224Y023163D01*
X029337Y023275D02*
X029337Y036004D01*
X029837Y036004D02*
X029837Y023462D01*
X029837Y023163D02*
X029837Y016272D01*
X030337Y016272D02*
X030337Y023163D01*
X030337Y023462D02*
X030337Y036004D01*
X030837Y036004D02*
X030837Y023462D01*
X030837Y023163D02*
X030837Y016272D01*
X031337Y016272D02*
X031337Y023163D01*
X031337Y023462D02*
X031337Y036004D01*
X031837Y034354D02*
X031837Y034271D01*
X035837Y033752D02*
X035837Y036004D01*
X036337Y036004D02*
X036337Y033752D01*
X036337Y033373D02*
X036337Y015522D01*
X036687Y015363D02*
X033837Y015363D01*
X033087Y016113D01*
X028437Y016113D01*
X028837Y015763D02*
X032637Y015763D01*
X033437Y014963D01*
X041187Y014963D01*
X041837Y014313D01*
X041837Y013263D01*
X040482Y011908D01*
X040437Y012058D01*
X040337Y012325D02*
X040337Y012913D01*
X040005Y012663D02*
X041010Y012663D01*
X040837Y012489D02*
X040837Y012913D01*
X041337Y012536D02*
X041337Y011639D01*
X041360Y011663D02*
X040704Y011663D01*
X040704Y011670D02*
X040640Y011735D01*
X040233Y011735D01*
X040169Y011670D01*
X040169Y011588D01*
X040163Y011588D01*
X040163Y011670D01*
X040099Y011735D01*
X039574Y011735D01*
X039510Y011670D01*
X039510Y011185D01*
X039574Y011121D01*
X040099Y011121D01*
X040163Y011185D01*
X040163Y011268D01*
X040169Y011268D01*
X040169Y011264D01*
X040233Y011200D01*
X040640Y011200D01*
X040704Y011264D01*
X040704Y011670D01*
X040437Y011467D02*
X040397Y011428D01*
X039837Y011428D01*
X039837Y011735D02*
X039837Y011790D01*
X039837Y012097D02*
X039871Y012113D01*
X039587Y012113D01*
X039337Y011863D01*
X039337Y010513D01*
X039371Y010497D01*
X039630Y010663D02*
X040360Y010663D01*
X040337Y010639D02*
X040337Y011200D01*
X040140Y011163D02*
X040860Y011163D01*
X040837Y011139D02*
X040837Y012036D01*
X040963Y012163D02*
X041860Y012163D01*
X041837Y012139D02*
X041837Y012913D01*
X042027Y012663D02*
X041463Y012663D01*
X042187Y012263D02*
X040437Y010513D01*
X040437Y010058D01*
X040337Y009790D02*
X040337Y009735D01*
X040233Y009735D02*
X040169Y009670D01*
X040169Y009618D01*
X040163Y009618D01*
X040163Y009670D01*
X040099Y009735D01*
X039574Y009735D01*
X039510Y009670D01*
X039510Y009185D01*
X039574Y009121D01*
X040099Y009121D01*
X040163Y009185D01*
X040163Y009238D01*
X040195Y009238D01*
X040233Y009200D01*
X040640Y009200D01*
X040704Y009264D01*
X040704Y009670D01*
X040640Y009735D01*
X040233Y009735D01*
X040169Y009663D02*
X040163Y009663D01*
X039837Y009735D02*
X039837Y009790D01*
X039510Y009663D02*
X038826Y009663D01*
X038837Y009361D02*
X038837Y011494D01*
X039005Y011663D02*
X039177Y011663D01*
X039496Y011663D02*
X039510Y011663D01*
X040163Y011663D02*
X040169Y011663D01*
X040337Y011735D02*
X040337Y011790D01*
X040169Y012163D02*
X040163Y012163D01*
X039837Y012404D02*
X039837Y012494D01*
X039468Y012663D02*
X034705Y012663D01*
X034837Y012794D02*
X034837Y009752D01*
X035337Y009752D02*
X035337Y012913D01*
X035836Y013163D02*
X038837Y013163D01*
X038837Y012971D02*
X038895Y012913D01*
X038978Y012913D01*
X039718Y012913D01*
X038447Y011641D01*
X038447Y011163D02*
X028205Y011163D01*
X028337Y011173D02*
X028337Y009752D01*
X028337Y009373D02*
X028337Y006000D01*
X028645Y005663D02*
X029428Y005663D01*
X029379Y005543D02*
X029379Y005282D01*
X029479Y005040D01*
X029664Y004855D01*
X029906Y004755D01*
X030167Y004755D01*
X030409Y004855D01*
X030594Y005040D01*
X030694Y005282D01*
X030694Y005543D01*
X030594Y005785D01*
X030409Y005970D01*
X030167Y006070D01*
X029906Y006070D01*
X029664Y005970D01*
X029479Y005785D01*
X029379Y005543D01*
X029428Y005163D02*
X028645Y005163D01*
X028337Y004825D02*
X028337Y004317D01*
X028837Y004317D02*
X028837Y009373D01*
X028837Y009752D02*
X028837Y009784D01*
X029337Y009752D02*
X029337Y009825D01*
X029645Y010163D02*
X030278Y010163D01*
X030229Y010282D02*
X030329Y010040D01*
X030514Y009855D01*
X030756Y009755D01*
X031017Y009755D01*
X031259Y009855D01*
X031444Y010040D01*
X031544Y010282D01*
X031544Y010543D01*
X031444Y010785D01*
X031259Y010970D01*
X031017Y011070D01*
X030756Y011070D01*
X030514Y010970D01*
X030329Y010785D01*
X030229Y010543D01*
X030229Y010282D01*
X030337Y010033D02*
X030337Y009752D01*
X030337Y009373D02*
X030337Y006000D01*
X030645Y005663D02*
X033294Y005663D01*
X033337Y005594D02*
X033337Y005494D01*
X033337Y005238D02*
X033337Y004317D01*
X032837Y004317D02*
X032837Y009373D01*
X032837Y009752D02*
X032837Y011173D01*
X033326Y011284D02*
X033326Y011284D01*
X033337Y011294D02*
X033337Y009752D01*
X033837Y009752D02*
X033837Y011794D01*
X033668Y012163D02*
X024455Y012163D01*
X024337Y012281D02*
X024337Y019194D01*
X024305Y019163D02*
X028418Y019163D01*
X028718Y019163D02*
X044802Y019163D01*
X044802Y018663D02*
X028716Y018663D01*
X028416Y018663D02*
X023805Y018663D01*
X023837Y018694D02*
X023837Y012781D01*
X023955Y012663D02*
X034168Y012663D01*
X034337Y012831D02*
X034337Y012913D01*
X033837Y012913D02*
X033837Y012331D01*
X031978Y012913D02*
X031895Y012913D01*
X031837Y012971D01*
X031837Y013163D02*
X028836Y013163D01*
X028837Y013573D02*
X028837Y011552D01*
X028837Y011173D02*
X028837Y011041D01*
X029337Y011000D02*
X029337Y011173D01*
X029337Y011552D02*
X029337Y013573D01*
X029337Y013952D02*
X029337Y015603D01*
X029125Y015603D02*
X031837Y015603D01*
X031837Y013952D01*
X028836Y013952D01*
X028836Y015434D01*
X028902Y015434D01*
X029022Y015484D01*
X029115Y015577D01*
X029125Y015603D01*
X028837Y015434D02*
X028837Y013952D01*
X028836Y014163D02*
X031837Y014163D01*
X031837Y014663D02*
X028836Y014663D01*
X028836Y015163D02*
X031837Y015163D01*
X031337Y015603D02*
X031337Y013952D01*
X031337Y013573D02*
X031337Y011552D01*
X031337Y011173D02*
X031337Y010892D01*
X031495Y010663D02*
X038447Y010663D01*
X038826Y010663D02*
X039044Y010663D01*
X039177Y011163D02*
X038826Y011163D01*
X039496Y011163D02*
X039533Y011163D01*
X039837Y011121D02*
X039837Y010404D01*
X040163Y010163D02*
X040169Y010163D01*
X039418Y010163D02*
X038826Y010163D01*
X038447Y010163D02*
X031495Y010163D01*
X031337Y009933D02*
X031337Y009752D01*
X031337Y009373D02*
X031337Y004317D01*
X030837Y004317D02*
X030837Y009373D01*
X030837Y009752D02*
X030837Y009755D01*
X029837Y009752D02*
X029837Y011173D01*
X029837Y011552D02*
X029837Y013573D01*
X029837Y013952D02*
X029837Y015603D01*
X030337Y015603D02*
X030337Y013952D01*
X030337Y013573D02*
X030337Y011552D01*
X030337Y011173D02*
X030337Y010792D01*
X030278Y010663D02*
X029645Y010663D01*
X030837Y011070D02*
X030837Y011173D01*
X030837Y011552D02*
X030837Y013573D01*
X030837Y013952D02*
X030837Y015603D01*
X029337Y016272D02*
X029337Y022850D01*
X029149Y022663D02*
X044802Y022663D01*
X044802Y022163D02*
X028736Y022163D01*
X028837Y022350D02*
X028837Y018151D01*
X028825Y018163D02*
X044802Y018163D01*
X044802Y016663D02*
X042836Y016663D01*
X042836Y016163D02*
X044802Y016163D01*
X044802Y015663D02*
X042836Y015663D01*
X042836Y015163D02*
X044802Y015163D01*
X044802Y014663D02*
X042836Y014663D01*
X042836Y014163D02*
X044802Y014163D01*
X044802Y013663D02*
X042836Y013663D01*
X042836Y013163D02*
X044802Y013163D01*
X044802Y012663D02*
X042346Y012663D01*
X042187Y012263D02*
X042187Y014513D01*
X041337Y015363D01*
X036937Y015363D01*
X036687Y015363D01*
X036753Y015522D02*
X037003Y015522D01*
X038837Y015522D01*
X038837Y016721D01*
X038837Y016804D01*
X038837Y016663D02*
X035836Y016663D01*
X035836Y016163D02*
X038837Y016163D01*
X038837Y015663D02*
X035836Y015663D01*
X035837Y015522D02*
X035837Y033373D01*
X037337Y033373D02*
X037337Y024176D01*
X037323Y024163D02*
X034282Y024163D01*
X033886Y024163D02*
X033787Y024163D01*
X033837Y024087D02*
X033837Y029905D01*
X033337Y030133D02*
X033337Y023462D01*
X033447Y023663D02*
X026876Y023663D01*
X026876Y024163D02*
X033391Y024163D01*
X032837Y023462D02*
X032837Y030463D01*
X032337Y030463D02*
X032337Y023462D01*
X032337Y023163D02*
X032337Y016862D01*
X032837Y016862D02*
X032837Y023163D01*
X033337Y023163D02*
X033337Y017192D01*
X033307Y017163D02*
X027366Y017163D01*
X027337Y017192D02*
X027337Y030133D01*
X027366Y030163D02*
X033307Y030163D01*
X034837Y030463D02*
X034837Y016862D01*
X035337Y016862D02*
X035337Y030463D01*
X039337Y030463D02*
X039337Y016862D01*
X039837Y016862D02*
X039837Y030463D01*
X044802Y029163D02*
X017555Y029163D01*
X015647Y026163D02*
X015606Y026163D01*
X012837Y028002D02*
X012837Y028195D01*
X021337Y022894D02*
X021337Y021602D01*
X021337Y021223D02*
X021337Y016862D01*
X021836Y016663D02*
X024837Y016663D01*
X024837Y016721D02*
X024837Y012971D01*
X024895Y012913D01*
X024978Y012913D01*
X024837Y013663D02*
X022955Y013663D01*
X022837Y013244D02*
X022837Y010945D01*
X021837Y011289D02*
X021837Y013573D01*
X021837Y013952D02*
X021837Y017799D01*
X022337Y017929D02*
X022337Y013952D01*
X021836Y014163D02*
X024837Y014163D01*
X024837Y014663D02*
X021836Y014663D01*
X021836Y015163D02*
X024837Y015163D01*
X024837Y015663D02*
X021836Y015663D01*
X021836Y016163D02*
X024837Y016163D01*
X024837Y016721D02*
X024837Y016804D01*
X023750Y018163D02*
X028298Y018163D01*
X028337Y018201D02*
X028337Y030463D01*
X027837Y030463D02*
X027837Y016862D01*
X028337Y016862D02*
X028337Y017724D01*
X028428Y017663D02*
X016476Y017663D01*
X016097Y017663D02*
X016026Y017663D01*
X015647Y017663D02*
X012913Y017663D01*
X012837Y017586D02*
X012837Y007472D01*
X012837Y007153D02*
X012837Y006862D01*
X013163Y006663D02*
X014410Y006663D01*
X014477Y006163D02*
X013096Y006163D01*
X012837Y006043D02*
X012837Y005418D01*
X012125Y006043D02*
X011974Y006105D01*
X011859Y006220D01*
X011836Y006274D01*
X011756Y006163D02*
X011917Y006163D01*
X011337Y006043D02*
X011337Y005418D01*
X011836Y006631D02*
X011814Y006685D01*
X011337Y006862D02*
X011337Y007153D01*
X011337Y007472D02*
X011337Y016086D01*
X011413Y016163D02*
X015647Y016163D01*
X016026Y016163D02*
X016097Y016163D01*
X016476Y016163D02*
X017837Y016163D01*
X017837Y016721D02*
X017837Y016804D01*
X022350Y018163D02*
X022423Y018163D01*
X023050Y018163D02*
X023123Y018163D01*
X026837Y017420D02*
X026837Y021694D01*
X026805Y021663D02*
X028433Y021663D01*
X028733Y021663D02*
X044802Y021663D01*
X040307Y017163D02*
X034366Y017163D01*
X037337Y015522D02*
X037337Y023649D01*
X037323Y023663D02*
X034226Y023663D01*
X028436Y022163D02*
X026876Y022163D01*
X025268Y021663D02*
X025201Y021663D01*
X023337Y021602D02*
X023337Y022644D01*
X022918Y013163D02*
X021836Y013163D01*
X021337Y012913D02*
X021337Y011309D01*
X021437Y011163D02*
X021536Y011163D01*
X021536Y010663D02*
X021437Y010663D01*
X020837Y011233D02*
X020837Y012913D01*
X020337Y012913D02*
X020337Y011051D01*
X020606Y011163D02*
X016476Y011163D01*
X016097Y011163D02*
X016026Y011163D01*
X015647Y011163D02*
X006413Y011163D01*
X006337Y011086D02*
X006337Y007472D01*
X006337Y007153D02*
X006337Y005418D01*
X006337Y005038D02*
X006337Y004317D01*
X006837Y004623D02*
X006837Y004722D01*
X007837Y004722D02*
X007837Y004623D01*
X008337Y004623D02*
X008337Y004722D01*
X008837Y004722D02*
X008837Y004623D01*
X009337Y004623D02*
X009337Y004722D01*
X009337Y004805D02*
X009337Y005038D01*
X009337Y004540D02*
X009337Y004317D01*
X005837Y004317D02*
X005837Y005038D01*
X005837Y005418D02*
X005837Y007153D01*
X005837Y007472D02*
X005837Y010586D01*
X005913Y010663D02*
X015647Y010663D01*
X016026Y010663D02*
X016097Y010663D01*
X016476Y010663D02*
X019748Y010663D01*
X019837Y010738D02*
X019837Y012913D01*
X021437Y010163D02*
X021536Y010163D01*
X021536Y009663D02*
X021437Y009663D01*
X021437Y009163D02*
X021536Y009163D01*
X021436Y008712D02*
X021436Y008613D01*
X018837Y008613D01*
X018837Y008712D01*
X021436Y008712D01*
X021436Y008663D02*
X017846Y008663D01*
X017846Y008163D02*
X018883Y008163D01*
X018837Y008568D02*
X018837Y008613D01*
X018837Y008712D02*
X018837Y008757D01*
X019337Y008712D02*
X019337Y008613D01*
X019837Y008613D02*
X019837Y008712D01*
X020337Y008712D02*
X020337Y008613D01*
X020837Y008613D02*
X020837Y008712D01*
X021337Y008712D02*
X021337Y008613D01*
X021537Y008663D02*
X025127Y008663D01*
X025127Y008163D02*
X024090Y008163D01*
X023837Y008613D02*
X023837Y008712D01*
X023337Y008712D02*
X023337Y008613D01*
X022837Y008613D02*
X022837Y008712D01*
X022337Y008712D02*
X022337Y008613D01*
X021837Y008613D02*
X021837Y008712D01*
X021536Y008163D02*
X021437Y008163D01*
X021437Y007663D02*
X021536Y007663D01*
X021536Y007163D02*
X021437Y007163D01*
X021437Y006663D02*
X021536Y006663D01*
X020337Y006274D02*
X020337Y005172D01*
X020337Y004853D02*
X020337Y004317D01*
X022837Y004317D02*
X022837Y004853D01*
X022837Y005172D02*
X022837Y006380D01*
X023225Y006663D02*
X025460Y006663D01*
X025337Y006539D02*
X025337Y007553D01*
X025127Y007663D02*
X023942Y007663D01*
X023337Y006765D02*
X023337Y005172D01*
X023337Y004853D02*
X023337Y004317D01*
X024387Y005363D02*
X025787Y006763D01*
X025787Y008663D01*
X025127Y009163D02*
X024090Y009163D01*
X023673Y010163D02*
X025918Y010163D01*
X025837Y010244D02*
X025837Y009772D01*
X026455Y010163D02*
X026578Y010163D01*
X026337Y010281D02*
X026337Y012913D01*
X026837Y012913D02*
X026837Y010979D01*
X026578Y010663D02*
X025955Y010663D01*
X025837Y010781D02*
X025837Y012913D01*
X027337Y012913D02*
X027337Y011062D01*
X027837Y011331D02*
X027837Y012913D01*
X028337Y012913D02*
X028337Y011552D01*
X026837Y009846D02*
X026837Y009781D01*
X027837Y009373D02*
X027837Y006041D01*
X027837Y004784D02*
X027837Y004317D01*
X029337Y004317D02*
X029337Y009373D01*
X029837Y009373D02*
X029837Y006041D01*
X030645Y005163D02*
X033365Y005163D01*
X033837Y005494D02*
X033837Y005594D01*
X034197Y005663D02*
X034296Y005663D01*
X034337Y005594D02*
X034337Y005494D01*
X034296Y005163D02*
X034197Y005163D01*
X034837Y005494D02*
X034837Y005594D01*
X035199Y005663D02*
X037727Y005663D01*
X037837Y005993D02*
X037837Y006985D01*
X037837Y007365D02*
X037837Y007901D01*
X037728Y008163D02*
X037005Y008163D01*
X036837Y008331D02*
X036837Y013573D01*
X036837Y013952D02*
X036837Y014803D01*
X037337Y014803D02*
X037337Y013952D01*
X037337Y013573D02*
X037337Y007831D01*
X037505Y007663D02*
X038071Y007663D01*
X038337Y007533D02*
X038337Y007365D01*
X038337Y006985D02*
X038337Y006411D01*
X037964Y006163D02*
X034981Y006163D01*
X034837Y006301D02*
X034837Y006792D01*
X034906Y006663D02*
X025913Y006663D01*
X025837Y006586D02*
X025837Y004317D01*
X026337Y004317D02*
X026337Y007553D01*
X026446Y007663D02*
X033671Y007663D01*
X033837Y007575D02*
X033837Y006412D01*
X034197Y006163D02*
X034296Y006163D01*
X034337Y006500D02*
X034337Y007486D01*
X034802Y007663D02*
X034890Y007663D01*
X034837Y007697D02*
X034837Y007558D01*
X034837Y007225D02*
X034837Y007125D01*
X035337Y007125D02*
X035337Y007225D01*
X035667Y006663D02*
X035767Y006663D01*
X035837Y006222D02*
X035837Y004317D01*
X036337Y004317D02*
X036337Y006441D01*
X036529Y006663D02*
X039334Y006663D01*
X039337Y006656D02*
X039337Y006155D01*
X039329Y006163D02*
X042976Y006163D01*
X043062Y006248D02*
X042851Y006037D01*
X042737Y005762D01*
X042737Y005463D01*
X042851Y005188D01*
X043062Y004977D01*
X043337Y004863D01*
X043337Y004317D01*
X043837Y004317D02*
X043837Y004946D01*
X043911Y004977D02*
X044122Y005188D01*
X044236Y005463D01*
X044236Y005762D01*
X044122Y006037D01*
X043911Y006248D01*
X043636Y006362D01*
X043337Y006362D01*
X043337Y034396D01*
X043837Y034313D02*
X043837Y006279D01*
X043997Y006163D02*
X044802Y006163D01*
X044802Y005663D02*
X044236Y005663D01*
X044097Y005163D02*
X044802Y005163D01*
X043911Y004977D02*
X043636Y004863D01*
X043337Y004863D01*
X042876Y005163D02*
X039484Y005163D01*
X039337Y004933D02*
X039337Y004317D01*
X039837Y004317D02*
X039837Y006296D01*
X040337Y006270D02*
X040337Y004317D01*
X040837Y004317D02*
X040837Y006593D01*
X040901Y006663D02*
X044802Y006663D01*
X044802Y007163D02*
X041037Y007163D01*
X040911Y007663D02*
X044802Y007663D01*
X044802Y008163D02*
X039545Y008163D01*
X039837Y008055D02*
X039837Y009121D01*
X040140Y009163D02*
X044802Y009163D01*
X044802Y009663D02*
X040704Y009663D01*
X040704Y010163D02*
X044802Y010163D01*
X044802Y010663D02*
X040813Y010663D01*
X040837Y010686D02*
X040837Y007757D01*
X040337Y008080D02*
X040337Y009200D01*
X039533Y009163D02*
X039229Y009163D01*
X039337Y009055D02*
X039337Y010184D01*
X038447Y009663D02*
X035505Y009663D01*
X035837Y009331D02*
X035837Y013573D01*
X035837Y013952D02*
X035837Y014803D01*
X035836Y014803D02*
X035836Y013952D01*
X038837Y013952D01*
X038837Y014803D01*
X035836Y014803D01*
X035836Y014663D02*
X038837Y014663D01*
X038837Y014163D02*
X035836Y014163D01*
X036337Y013952D02*
X036337Y014803D01*
X036337Y013573D02*
X036337Y008831D01*
X036505Y008663D02*
X037717Y008663D01*
X037837Y008951D02*
X037837Y013573D01*
X037837Y013952D02*
X037837Y014803D01*
X038337Y014803D02*
X038337Y013952D01*
X038337Y013573D02*
X038337Y009319D01*
X038044Y009163D02*
X036005Y009163D01*
X035837Y008794D02*
X035837Y008128D01*
X035767Y007663D02*
X035667Y007663D01*
X036337Y007225D02*
X036337Y007125D01*
X035337Y006293D02*
X035337Y004317D01*
X034837Y004317D02*
X034837Y004787D01*
X035128Y005163D02*
X037809Y005163D01*
X037837Y005095D02*
X037837Y004317D01*
X039566Y005663D02*
X042737Y005663D01*
X042837Y006003D02*
X042837Y036004D01*
X039337Y012913D02*
X039337Y012531D01*
X041313Y011163D02*
X044802Y011163D01*
X044802Y011663D02*
X041813Y011663D01*
X041837Y011686D02*
X041837Y004317D01*
X042337Y004317D02*
X042337Y012186D01*
X042313Y012163D02*
X044802Y012163D01*
X041337Y011186D02*
X041337Y004317D01*
X042837Y004317D02*
X042837Y005222D01*
X043062Y006248D02*
X043337Y006362D01*
X044802Y008663D02*
X039556Y008663D01*
X039337Y007797D02*
X039337Y007694D01*
X039324Y007663D02*
X039202Y007663D01*
X038837Y007492D02*
X038837Y007365D01*
X038837Y006985D02*
X038837Y006461D01*
X035968Y008663D02*
X035156Y008663D01*
X033837Y009278D02*
X033837Y009373D01*
X030337Y004825D02*
X030337Y004317D01*
X029837Y004317D02*
X029837Y004784D01*
X024460Y005663D02*
X017245Y005663D01*
X017337Y005172D02*
X017337Y007553D01*
X017837Y007607D02*
X017837Y005172D01*
X017837Y004853D02*
X017837Y004317D01*
X017337Y004317D02*
X017337Y004853D01*
X016837Y004853D02*
X016837Y004317D01*
X016337Y004317D02*
X016337Y005236D01*
X016410Y005163D02*
X016103Y005163D01*
X015837Y004921D02*
X015837Y004317D01*
X015337Y004623D02*
X015337Y004722D01*
X014837Y004722D02*
X014837Y004623D01*
X014837Y005418D02*
X014837Y006043D01*
X015337Y006043D02*
X015337Y005418D01*
X015854Y005936D02*
X015854Y006244D01*
X016013Y006244D01*
X016051Y006234D01*
X016085Y006214D01*
X016113Y006186D01*
X016133Y006152D01*
X016143Y006114D01*
X016143Y005936D01*
X015854Y005936D01*
X015854Y006163D02*
X015777Y006163D01*
X016126Y006163D02*
X016227Y006163D01*
X016227Y005663D02*
X016138Y005663D01*
X016546Y005663D02*
X016670Y005663D01*
X016837Y005236D02*
X016837Y005189D01*
X017846Y007663D02*
X019031Y007663D01*
X005337Y004366D02*
X005337Y004317D01*
X004837Y005478D02*
X004837Y006043D01*
X003176Y007163D02*
X003077Y007163D01*
X002347Y007663D02*
X001756Y007663D01*
X001756Y008163D02*
X002347Y008163D01*
X001668Y006663D02*
X000991Y006663D01*
X004337Y008582D02*
X004337Y008843D01*
X004337Y009582D02*
X004337Y009843D01*
X004460Y009663D02*
X003896Y009663D01*
X003576Y010163D02*
X003577Y010163D01*
X003176Y010663D02*
X003077Y010663D01*
X002837Y011038D02*
X002837Y011686D01*
X002860Y011663D02*
X000991Y011663D01*
X000991Y011163D02*
X003360Y011163D01*
X003337Y011186D02*
X003337Y011091D01*
X003813Y011163D02*
X003867Y011163D01*
X003837Y011139D02*
X003837Y013249D01*
X003867Y013163D02*
X003720Y013163D01*
X002837Y013283D02*
X002837Y012139D01*
X002813Y012163D02*
X003867Y012163D01*
X004337Y011843D02*
X004337Y011582D01*
X002357Y013663D02*
X002316Y013663D01*
X002115Y014163D02*
X002558Y014163D01*
X002837Y014242D02*
X002837Y014283D01*
X001837Y014242D02*
X001837Y014283D01*
X004606Y014163D02*
X004868Y014163D01*
X004837Y014131D02*
X004837Y014594D01*
X004337Y016582D02*
X004337Y016843D01*
X003027Y017663D02*
X002766Y017663D01*
D33*
X028562Y017963D02*
X028587Y022313D01*
X029587Y023313D01*
X033813Y023313D01*
X033837Y023289D01*
M02*
