G75*
G70*
%OFA0B0*%
%FSLAX24Y24*%
%IPPOS*%
%LPD*%
%AMOC8*
5,1,8,0,0,1.08239X$1,22.5*
%
%ADD10C,0.1280*%
%ADD11R,0.0316X0.0215*%
%ADD12R,0.0395X0.0737*%
%ADD13R,0.0737X0.0395*%
%ADD14R,0.1064X0.0395*%
%ADD15R,0.1080X0.0982*%
%ADD16R,0.0281X0.0781*%
%ADD17R,0.0300X0.0580*%
%ADD18R,0.0580X0.0300*%
%ADD19R,0.0513X0.0474*%
%ADD20R,0.0474X0.0513*%
%ADD21R,0.0592X0.0867*%
%ADD22C,0.0680*%
%ADD23R,0.0178X0.0380*%
%ADD24R,0.1017X0.0730*%
%ADD25C,0.1740*%
%ADD26C,0.1700*%
%ADD27R,0.1025X0.1025*%
%ADD28R,0.0592X0.0671*%
%ADD29R,0.0789X0.1340*%
%ADD30R,0.0671X0.0592*%
%ADD31R,0.0316X0.0316*%
%ADD32R,0.0610X0.2440*%
%ADD33C,0.1175*%
%ADD34R,0.0297X0.0552*%
%ADD35C,0.0820*%
%ADD36OC8,0.0820*%
%ADD37R,0.0710X0.0790*%
%ADD38R,0.0631X0.0789*%
%ADD39R,0.0828X0.0631*%
%ADD40R,0.0671X0.0395*%
%ADD41OC8,0.0680*%
%ADD42R,0.1143X0.1143*%
%ADD43R,0.0600X0.0600*%
%ADD44C,0.0630*%
D10*
X002987Y005613D03*
X011387Y031663D03*
X043687Y035063D03*
X043487Y005613D03*
D11*
X009362Y026316D03*
X009362Y026513D03*
X009362Y026709D03*
X008811Y026709D03*
X008811Y026513D03*
X008811Y026316D03*
D12*
X008837Y025647D03*
X009337Y025647D03*
X008337Y025647D03*
X008337Y023678D03*
X008837Y023678D03*
X009337Y023678D03*
D13*
X008000Y024663D03*
D14*
X009486Y024663D03*
D15*
X014837Y028611D03*
D16*
X014837Y032913D03*
X015337Y032913D03*
X014337Y032913D03*
D17*
X021734Y025703D03*
X022049Y025703D03*
X022364Y025703D03*
X022679Y025703D03*
X022994Y025703D03*
X023309Y025703D03*
X023624Y025703D03*
X023939Y025703D03*
X023939Y022323D03*
X023624Y022323D03*
X023309Y022323D03*
X022994Y022323D03*
X022679Y022323D03*
X022364Y022323D03*
X022049Y022323D03*
X021734Y022323D03*
D18*
X021147Y022910D03*
X021147Y023225D03*
X021147Y023540D03*
X021147Y023855D03*
X021147Y024170D03*
X021147Y024485D03*
X021147Y024800D03*
X021147Y025115D03*
X024527Y025115D03*
X024527Y024800D03*
X024527Y024485D03*
X024527Y024170D03*
X024527Y023855D03*
X024527Y023540D03*
X024527Y023225D03*
X024527Y022910D03*
D19*
X023421Y021013D03*
X022752Y021013D03*
X027237Y020116D03*
X027237Y019447D03*
X028062Y019447D03*
X028061Y018872D03*
X028061Y018202D03*
X028062Y020117D03*
X025771Y027963D03*
X025102Y027963D03*
X023571Y028013D03*
X022902Y028013D03*
X015171Y033663D03*
X014502Y033663D03*
X009421Y027313D03*
X008752Y027313D03*
X008502Y022913D03*
X009171Y022913D03*
X002621Y022563D03*
X001952Y022563D03*
D20*
X013902Y026213D03*
X014571Y026213D03*
X022037Y026578D03*
X022037Y027247D03*
X022837Y027247D03*
X022837Y026578D03*
X028852Y015113D03*
X029521Y015113D03*
X029521Y014313D03*
X028852Y014313D03*
X032437Y011997D03*
X032437Y011328D03*
X034487Y011328D03*
X034487Y011997D03*
X014521Y009213D03*
X013852Y009213D03*
X002571Y011413D03*
X001902Y011413D03*
D21*
X023608Y026913D03*
X025065Y026913D03*
D22*
X005007Y004673D02*
X004407Y004673D01*
X004407Y006453D02*
X005007Y006453D01*
X006967Y006453D02*
X007567Y006453D01*
X008307Y006453D02*
X008907Y006453D01*
X008907Y004673D02*
X008307Y004673D01*
X007567Y004673D02*
X006967Y004673D01*
X010867Y004673D02*
X011467Y004673D01*
X012207Y004673D02*
X012807Y004673D01*
X014767Y004673D02*
X015367Y004673D01*
X015367Y006453D02*
X014767Y006453D01*
X012807Y006453D02*
X012207Y006453D01*
X011467Y006453D02*
X010867Y006453D01*
X003127Y007533D02*
X003127Y008133D01*
X001347Y008133D02*
X001347Y007533D01*
X001347Y010093D02*
X001347Y010693D01*
X003127Y010693D02*
X003127Y010093D01*
D23*
X028805Y016402D03*
X028982Y016402D03*
X029159Y016402D03*
X029337Y016402D03*
X029514Y016402D03*
X029691Y016402D03*
X029691Y017529D03*
X029514Y017529D03*
X029337Y017529D03*
X029159Y017529D03*
X028982Y017529D03*
X028805Y017529D03*
D24*
X029247Y016970D03*
D25*
X034237Y008426D03*
X038637Y008426D03*
D26*
X040117Y007175D03*
X038647Y005544D03*
X035717Y007175D03*
X034247Y005544D03*
D27*
X035770Y010513D03*
X037503Y010513D03*
X032144Y016931D03*
X030412Y016931D03*
D28*
X028121Y015513D03*
X027452Y015513D03*
X027452Y014663D03*
X028121Y014663D03*
X029713Y022813D03*
X030461Y022813D03*
D29*
X031189Y021313D03*
X028984Y021313D03*
D30*
X026787Y021537D03*
X026787Y020789D03*
X005237Y023339D03*
X005237Y024087D03*
X005237Y026389D03*
X005237Y027137D03*
D31*
X027837Y021596D03*
X027837Y020729D03*
D32*
X029387Y019213D03*
X030957Y019213D03*
D33*
X033837Y016763D03*
X033837Y013763D03*
X030887Y010413D03*
X029037Y010413D03*
X027187Y010413D03*
X026837Y013763D03*
X026837Y016763D03*
X019837Y016763D03*
X019837Y013763D03*
X028037Y005413D03*
X030037Y005413D03*
X040837Y013763D03*
X040837Y016763D03*
X040837Y030563D03*
X040837Y033563D03*
X033837Y033563D03*
X033837Y030563D03*
X026837Y030563D03*
X026837Y033563D03*
X019837Y033563D03*
X019837Y030563D03*
D34*
X033113Y012174D03*
X033861Y012174D03*
X033861Y011151D03*
X033487Y011151D03*
X033113Y011151D03*
D35*
X002287Y017663D03*
X002387Y018663D03*
X002287Y019663D03*
X002387Y020663D03*
X002287Y021663D03*
X002287Y023313D03*
X002387Y024313D03*
X002287Y025313D03*
X002387Y026313D03*
X002287Y027313D03*
X002387Y028313D03*
D36*
X002837Y015763D03*
X001837Y015763D03*
X001937Y014763D03*
X002937Y014763D03*
X002837Y013763D03*
X001837Y013763D03*
D37*
X035977Y009213D03*
X037096Y009213D03*
D38*
X035244Y026111D03*
X035244Y028355D03*
D39*
X040421Y028985D03*
X040815Y023808D03*
D40*
X039299Y025643D03*
X039142Y026076D03*
X039299Y026509D03*
X039378Y026942D03*
X039299Y027375D03*
X039378Y027808D03*
X039299Y028241D03*
X039299Y028674D03*
D41*
X017687Y024913D03*
X017687Y023913D03*
X017687Y022913D03*
X017687Y021913D03*
X017687Y020913D03*
X016687Y020913D03*
X016687Y021913D03*
X016687Y022913D03*
X016687Y023913D03*
X016687Y024913D03*
D42*
X001629Y030603D03*
X001629Y035485D03*
D43*
X004237Y027213D03*
X004237Y026213D03*
X004237Y025213D03*
X004237Y024213D03*
X004237Y023213D03*
X004237Y022213D03*
X004237Y021213D03*
X004237Y020213D03*
X004237Y019213D03*
X004237Y018213D03*
X004237Y017213D03*
X004237Y016213D03*
X004237Y015213D03*
X004237Y014213D03*
X004237Y013213D03*
X004237Y012213D03*
X004237Y011213D03*
X004237Y010213D03*
X004237Y009213D03*
X004237Y008213D03*
X015237Y008213D03*
X015237Y009213D03*
X015237Y026213D03*
X015237Y027213D03*
D44*
X012717Y028563D03*
X011737Y028563D03*
X010757Y028563D03*
X010757Y029863D03*
X011737Y029863D03*
X012717Y029863D03*
M02*
