%
M48
M72
T01C0.0236
T02C0.0320
T03C0.0350
T04C0.0400
T05C0.0709
T06C0.0730
T07C0.1180
T08C0.1200
T09C0.1260
%
T01
X2537Y9163
X3587Y13463
X10737Y20763
X14212Y23238
X15287Y24963
X14637Y25413
X15937Y26513
X18637Y24913
X19237Y24913
X20487Y27213
X19837Y27713
X23287Y26238
X25487Y25913
X25487Y25313
X26087Y25313
X26687Y25313
X23937Y24013
X23487Y23563
X22887Y23013
X22037Y23363
X22337Y24163
X24437Y21813
X24987Y21913
X23937Y21513
X22337Y20413
X22037Y18063
X22737Y18063
X23437Y18063
X28437Y16113
X28837Y15763
X28562Y17963
X31337Y14663
X36337Y14463
X39337Y10513
X37537Y23913
X38087Y26963
X40337Y27163
X14337Y31663
X7787Y27163
X6837Y27163
X6087Y34063
T02
X4237Y27213
X4237Y26213
X4237Y25213
X4237Y24213
X4237Y23213
X4237Y22213
X4237Y21213
X4237Y20213
X4237Y19213
X4237Y18213
X4237Y17213
X4237Y16213
X4237Y15213
X4237Y14213
X4237Y13213
X4237Y12213
X4237Y11213
X4237Y10213
X4237Y9213
X4237Y8213
X15237Y8213
X15237Y9213
X15237Y26213
X15237Y27213
T03
X12717Y28563
X11737Y28563
X10757Y28563
X10757Y29863
X11737Y29863
X12717Y29863
T04
X4707Y4673
X4707Y6453
X3127Y7833
X1347Y7833
X1347Y10393
X3127Y10393
X2837Y13763
X1837Y13763
X1937Y14763
X2937Y14763
X2837Y15763
X1837Y15763
X2287Y17663
X2387Y18663
X2287Y19663
X2387Y20663
X2287Y21663
X2287Y23313
X2387Y24313
X2287Y25313
X2387Y26313
X2287Y27313
X2387Y28313
X16687Y24913
X17687Y24913
X17687Y23913
X17687Y22913
X17687Y21913
X17687Y20913
X16687Y20913
X16687Y21913
X16687Y22913
X16687Y23913
X15067Y6453
X15067Y4673
X12507Y4673
X11167Y4673
X11167Y6453
X12507Y6453
X8607Y6453
X7267Y6453
X7267Y4673
X8607Y4673
T05
X1629Y30603
X1629Y35485
T06
X19837Y33563
X19837Y30563
X26837Y30563
X26837Y33563
X33837Y33563
X33837Y30563
X40837Y30563
X40837Y33563
X40837Y16763
X40837Y13763
X33837Y13763
X33837Y16763
X26837Y16763
X26837Y13763
X27187Y10413
X29037Y10413
X30887Y10413
X30037Y5413
X28037Y5413
X19837Y13763
X19837Y16763
T07
X34247Y5544
X35717Y7175
X38647Y5544
X40117Y7175
T08
X43487Y5613
X11387Y31663
X43687Y35063
X2987Y5613
T09
X34237Y8426
X38637Y8426
M30
